<?xml version="1.0" encoding="utf-8"?>
<!-- Generator: Adobe Illustrator 16.0.3, SVG Export Plug-In . SVG Version: 6.00 Build 0)  -->
<!DOCTYPE svg PUBLIC "-//W3C//DTD SVG 1.1//EN" "http://www.w3.org/Graphics/SVG/1.1/DTD/svg11.dtd">
<svg version="1.1" id="Layer_1" xmlns="http://www.w3.org/2000/svg" xmlns:xlink="http://www.w3.org/1999/xlink" x="0px" y="0px"
	 width="421.736px" height="296.83px" viewBox="105.688 240.448 421.736 296.83"
	 enable-background="new 105.688 240.448 421.736 296.83" xml:space="preserve">
<g>
	<path fill="#221A15" d="M318.295,427.116c-3.513-0.528-6.785-1.037-9.947-2.118c-9.441-3.229-15-10.219-18.733-19.036
		c-1.874-4.425-3.26-9.021-4.787-13.872c-0.629,1.052-1.068,1.856-1.573,2.618c-2.116,3.188-5.511,3.552-8.384,0.979
		c-2.365-2.119-3.155-5.003-2.999-7.857c0.359-6.595,0.671-13.254,3.154-19.518c0.635-1.601,1.467-3.248,3.279-3.728
		c1.879-0.498,3.605,0.008,4.613,1.857c0.923,1.691,1.746,3.438,2.77,5.47c1.25-3.194,2.611-5.781,0.949-9.239
		c-2.333-4.856-3.528-10.14-3.168-15.635c0.153-2.342,0.709-4.498,3.108-5.586c2.402-1.09,4.416-0.14,6.237,1.36
		c1.264,1.041,2.41,2.224,3.675,3.403c2.939-4.173,3.869-8.998,4.826-13.785c1.16-5.799,2.238-11.616,4.876-16.976
		c1.916-3.892,4.415-7.39,7.76-10.188c1.437-1.202,1.846-2.313,1.646-4.347c-0.702-7.122,1.665-13.505,7.222-17.933
		c10.75-8.567,21.981-16.377,36.176-18.376c17.143-2.414,33.765-1.729,49.17,7.322c7.112,4.179,11.366,8.604,17.809,18.558
		c1.929-3.842,4.187-7.298,7.246-10.181c2.354-2.218,4.976-4.023,7.901-5.357c3.213-1.465,4.028-1.024,4.77,2.34
		c0.111,0.506,0.222,1.012,0.361,1.656c1.769-1.463,3.413-2.888,5.127-4.224c1.604-1.25,3.365-2.234,5.352-2.783
		c4.363-1.207,7.004,0.675,7.229,5.178c0.016,0.303,0.061,0.603,0.094,0.916c1.116,0.133,1.758-0.689,2.541-1.123
		c3.394-1.875,6.911-3.187,10.873-3.068c6.942,0.206,11.025,5.35,9.554,12.107c-0.127,0.585-0.242,1.171-0.419,2.017
		c3.068-1.035,6.095-1.372,9.067-0.826c7.445,1.369,10.592,7.114,8.461,15.03c-0.765,2.84-2.021,5.536-2.164,8.562
		c-0.106,2.274,0.746,3.919,2.496,5.218c1.188,0.882,2.409,1.723,3.566,2.645c4.851,3.865,5.441,9.772,1.47,14.607
		c-1.501,1.829-3.268,3.414-5.261,4.644c-1.564,0.965-1.342,1.824-0.337,2.9c2.505,2.686,5.014,5.368,7.546,8.028
		c4.235,4.451,7.816,9.318,9.812,15.215c0.87,2.575,0.813,5.09-0.646,7.428c-1.142,1.826-1.106,3.602-0.35,5.555
		c2.336,6.02,5.139,11.875,6.387,18.282c0.568,2.923,1.218,5.824,0.361,8.783c-0.954,3.299-2.792,4.93-6.18,5.072
		c-1.577,0.065-1.615,0.565-1.497,1.889c0.664,7.438-1.068,14.438-4.39,21.03c-1.317,2.613-3.082,4.974-6.727,4.263
		c-1.479-0.289-0.944,1.04-1.016,1.72c-0.456,4.344-0.965,8.668-2.787,12.712c-0.819,1.818-1.862,3.462-3.713,4.365
		c-2.042,0.997-4.11,0.882-6.032-0.312c-1.062-0.658-1.558-0.419-2.164,0.621c-1.567,2.694-3.126,5.412-5.457,7.571
		c-2.296,2.128-4.018,2.399-6.615,0.666c-1.244-0.831-1.172,0.439-1.385,0.775c-2.599,4.104-5.478,7.997-8.739,11.585
		c-1.879,2.067-3.854,4.121-6.995,4.243c-1.695,0.064-2.945-0.566-3.531-2.115c-0.365-0.964-0.583-1.137-1.591-0.653
		c-2.78,1.338-4.608,0.853-6.501-1.621c-2.185-2.854-3.081-6.245-3.747-9.69c-0.297-1.529-0.625-2.132-2.487-1.581
		c-3.376,0.998-6.279-0.372-8.631-2.849c-0.737-0.775-1.143-1.206-2.411-0.619c-3.047,1.405-7.023-0.447-8.478-3.816
		c-0.479-1.11-1.082-1.962-1.954-2.782c-1.986-1.868-2.553-4.393-2.814-6.996c-0.427-4.225,0.013-8.412,0.572-12.593
		c0.059-0.441,0.513-1.025,0.034-1.302c-2.918-1.688-1.423-4.214-1.224-6.429c0.349-3.876,1.502-7.642,1.697-11.548
		c0.058-1.177,0.103-2.34-0.276-3.654c-3.946,3.206-4.972-1.534-7.575-2.728c-1.359,1.661-1.701,3.712-1.628,5.782
		c0.142,3.947-0.258,7.805-1.589,11.52c-0.342,0.953-0.138,1.328,0.599,1.9c4.063,3.162,4.375,7.541,0.943,11.554
		c-2.799,3.274-6.06,5.962-10.272,7.03c-6.132,1.555-9.315,5.471-10.258,11.564c-0.313,2.039-0.937,4.031-1.482,6.318
		c3.052-1.543,5.993-2.767,9.242-3.289c7.466-1.2,13.359,1.319,17.886,7.178c5.059,6.549,7.486,14.278,9.432,22.155
		c2.341,9.479,3.538,19.146,4.33,28.871c0.397,4.884,0.935,9.751,0.592,14.667c-0.145,2.081-0.756,2.928-3.174,2.738
		c-5.371-0.421-10.778-0.468-16.173-0.513c-14.875-0.127-29.758,0.077-44.625-0.319c-16.854-0.45-33.714-1.219-50.175-5.516
		c-2.995-0.782-5.776-2.341-8.974-2.419c-0.857-0.021-1.172-0.984-1.595-1.601c-4.477-6.521-2.587-15.001,4.512-19.177
		c1.91-1.124,2.589-2.464,3.021-4.442c3.351-15.343,10.315-28.793,21.383-40.012c2.761-2.799,6.085-4.852,9.713-6.375
		c0.823-0.346,1.561-0.554,1.344-1.77c-1.691-9.494-3.156-19.041-8.161-27.568c-1.057-1.799-2.142-2.203-4.18-1.541
		c-3.879,1.258-7.971,1.407-12.027,1.482c-1.004,0.018-1.721,0.18-2.419,0.985c-2.135,2.464-4.748,4.542-5.732,7.861
		c-0.854,2.889-0.284,4.196,2.545,5.266c1.955,0.74,4.019,1.176,5.852,2.263c3.313,1.963,3.948,4.354,1.933,7.591
		c-0.247,0.396-0.511,0.785-0.764,1.179c-1.036,1.614-1.047,2.921,1.183,3.305c3.32,0.572,3.364,3.271,3.718,5.694
		c0.326,2.227,0.751,4.473,0.187,6.743c-0.268,1.068-0.832,1.639-1.982,1.494c-1.232-0.154-1.213-1.166-1.119-1.949
		c0.279-2.338,0.331-4.611-0.133-6.967c-0.296-1.508-1.008-2.011-2.281-2.47c-3.904-1.408-4.505-3.468-2.162-6.951
		c0.392-0.584,0.759-1.186,1.146-1.771c1.024-1.543,0.438-2.656-0.978-3.485c-1.624-0.95-3.471-1.322-5.233-1.916
		c-4.858-1.634-6.228-5.046-4.064-9.737C314.06,431.819,316.399,429.8,318.295,427.116z"/>
	<path fill="#221A15" d="M167.987,402.635c-3.056,8.755-12.255,12.877-19.834,12.243c-2.676-0.224-4.931-1.313-7.073-2.771
		c-0.818-0.559-1.396-1.339-1.063-2.379c0.325-1.016,1.252-1.021,2.14-1.025c1.975-0.014,3.814-0.502,5.745-1.592
		c-1.703-0.874-3.385-0.775-4.88-1.315c-14.03-5.062-23.161-14.521-26.228-29.369c-0.197-0.957-0.538-2.21,0.588-2.758
		c1.225-0.596,1.986,0.486,2.685,1.307c4.278,5.021,9.691,6.41,16.009,5.155c1.354-0.269,1.449-0.749,0.971-1.896
		c-1.115-2.667-2.938-4.778-5.024-6.689c-2.429-2.222-4.959-4.46-8.003-5.657c-6.24-2.453-9.902-7.277-12.358-13.056
		c-8.379-19.709-8.637-39.013,3.68-57.41c4.052-6.052,9.475-10.786,15.365-14.996c0.618-0.442,1.375-0.722,1.764-1.653
		c-4.326-0.979-8.683-1.597-12.848-2.995c-0.662-0.223-1.348-0.385-1.992-0.649c-0.585-0.24-1.098-0.589-1.066-1.361
		c0.034-0.855,0.74-1.017,1.301-1.102c1.768-0.27,3.552-0.429,5.332-0.612c6.051-0.626,12.05-1.919,18.182-1.481
		c1.513,0.107,1.557-0.5,1.397-1.788c-0.658-5.323-0.284-10.604,1.24-15.756c0.505-1.708,1.286-3.334,2.577-4.665
		c2.457-2.532,5.142-2.812,7.839-0.485c4.202,3.623,8.318,7.348,12.401,11.105c1.181,1.086,1.788,1.128,2.798-0.279
		c6.027-8.41,14.313-11.534,24.482-10.412c8.241,0.909,15.57,4.119,22.563,8.323c0.723,0.435,1.449,0.865,2.456,1.466
		c-0.229-2.849-1.325-5.167-2.018-7.564c-0.693-2.399-1.188-4.83-1.668-7.267c-0.193-0.979-0.396-2.114,0.82-2.654
		c1.067-0.474,1.706,0.263,2.373,0.981c5.17,5.56,10.131,11.288,14.33,17.632c0.755,1.14,1.103,1.673,2.395,0.299
		c3.903-4.147,8.863-6.834,13.955-9.237c1.835-0.866,2.455-0.369,2.261,1.652c-0.268,2.792-1.887,5.072-3.011,7.537
		c-0.676,1.481-2.187,3.139-1.882,4.355c0.31,1.236,2.714,0.747,4.17,1.157c9.71,2.732,16.349,9.068,20.922,17.801
		c1.106,2.112,0.463,2.923-1.991,2.916c-2.641-0.007-5.271-0.742-7.924-0.113c-0.453,0.107-0.986,0.008-1.377,0.208
		c-0.651,0.334-1.768,0.24-1.821,1.179c-0.044,0.79,0.968,0.904,1.531,1.247c5.662,3.448,10.685,7.62,14.644,12.97
		c2.236,3.021,3.547,6.406,3.292,10.236c-0.16,2.405-1.221,3.067-3.568,2.21c-1.743-0.637-3.425-1.444-5.573-2.364
		c1.315,4.81,1.527,9.396,1.45,14.014c-0.071,4.249-0.681,8.374-2.459,12.261c-0.45,0.982-1.005,1.964-1.709,2.775
		c-1.274,1.468-2.559,1.16-2.968-0.736c-0.936-4.337-3.666-7.456-6.877-10.754c-2.057,8.784-4.672,17.122-2.996,25.981
		c0.058,0.307,0.104,0.615,0.176,0.917c0.442,1.886,0.881,3.373,3.452,1.943c1.425-0.791,3.296-0.901,4.989-1.063
		c2.514-0.238,3.192,0.685,2.724,3.187c-0.633,3.382-2.429,6.185-4.334,8.941c-0.217,0.922-0.89,1.611-1.395,2.74
		c0.813-0.853,1.086-1.832,2.018-2.143c1.132-1.035,2.074-2.318,3.823-2.44c2.857-0.198,4.804,2.053,5.006,5.771
		c0.218,4.017-0.552,7.935-1.133,11.867c-0.487,3.303-0.896,6.628-2.106,9.787c-0.529,1.384-1.111,2.719-1.974,3.927
		c-3.058,4.285-5.862,4.563-9.589,0.813c-0.18,0.407-0.389,0.759-0.492,1.141c-3.795,13.879-13.315,21.902-26.655,25.934
		c-7.366,2.226-14.869,2.611-22.433,1.069c-0.948-0.193-1.39-0.169-1.442,1.02c-0.092,2.104,0.165,3.682,2.171,5.137
		c5.723,4.154,10.688,9.118,14.395,15.242c0.88,1.453,1.402,2.885,1.351,4.604c-0.089,2.972,0.104,5.957-0.08,8.921
		c-0.117,1.879,0.551,3.152,1.981,4.172c2.098,1.494,4.149,3.06,6.316,4.445c4.88,3.122,6.312,8.088,7.254,13.31
		c1.922,10.646,2.097,21.43,2.426,32.199c0.076,2.498,0.111,4.998,0.228,7.494c0.06,1.293-0.319,2.004-1.743,2.162
		c-4.647,0.519-9.283,1.14-13.925,1.709c-9.764,1.197-19.536,2.309-29.345,3.077c-13.567,1.064-27.132,1.762-40.727,0.367
		c-6.827-0.701-13.642-1.543-20.333-3.012c-7.545-1.655-10.373-4.584-11.284-11.896c-1.672-13.419,2.008-25.744,7.442-37.729
		c3.049-6.725,6.869-13.059,10.129-19.685c1.439-2.928,1.375-5.88,1.644-8.861c0.659-7.307,3.203-14.056,5.896-20.771
		c0.532-1.323,1.426-2.119,3.021-2.107c2.068,0.017,3.854-1.121,5.781-1.697c0.613-0.183,0.826-0.464,0.917-1.113
		c0.686-4.886,4.247-6.837,8.28-6.953c1.602-0.047,1.97-0.587,2.017-2.043c0.107-3.354,0.377-6.7,0.581-10.051
		c0.378-1.136-0.017-2.306,0.153-3.447c0.005-0.192-0.003-0.39,0.034-0.583c-0.084,0.066-0.015,0.162-0.045,0.258
		C168.632,401.911,168.44,402.337,167.987,402.635z"/>
	<path fill="#C9D4DB" d="M261.063,369.325c-0.607,1.142-1.216,2.284-1.93,3.627c-1.659-2.329,0.406-3.071,1.307-4.226
		C260.648,368.927,260.855,369.126,261.063,369.325z"/>
	<path fill="#DDE2E7" d="M167.987,402.635c0.142-0.468,0.282-0.936,0.424-1.402c0.132-0.248,0.273-0.241,0.424-0.017
		c-0.054,1.313,0.289,2.663-0.374,3.918C168.135,404.333,168.721,403.359,167.987,402.635z"/>
	<path fill="#82633D" d="M424.884,450.748c-1.97-4.965-1.214-9.542-0.672-14.102c0.285-2.399,0.831-4.772,0.762-7.209
		c-0.016-0.531,0.004-1.446-0.23-1.533c-2.866-1.05-1.17-3.114-0.894-4.589c0.813-4.315,1.721-8.583,0.687-12.984
		c-0.234-0.995-0.354-2.104-1.48-2.474c-1.248-0.41-1.824,0.553-2.373,1.436c-0.598,0.964-1.219,0.686-1.914,0.093
		c-1.001-0.853-2.338-1.528-1.512-3.218c0.724-1.477,2.089-2.291,3.365-3.19c5.566-3.921,11.172-7.767,14.847-13.762
		c3.577-5.836,5.725-12.117,6.426-18.911c0.12-1.163,0.453-2.329,0.401-3.481c-0.264-5.91,0.62-11.548,2.488-17.231
		c3.228-9.819,0.971-18.505-6.979-25.446c-0.835-0.729-1.425-1.576-1.801-2.669c-2.618-7.611-4.684-15.402-7.295-23
		c-1.688-4.908-0.355-8.544,2.629-12.15c2.813-3.4,5.835-6.516,9.992-8.31c1.46-0.631,1.93-0.263,1.978,1.3
		c0.066,2.168-0.233,4.203-1.331,6.097c-0.655,1.134-0.881,2.353,0.506,3.005c1.311,0.617,1.789-0.685,2.204-1.518
		c2.495-5.002,6.244-8.735,11.163-11.336c1.355-0.718,2.873-1.358,4.208-0.43c1.417,0.985,1.097,2.604,0.663,4.095
		c-0.412,1.422-0.743,2.868-1.155,4.291c-0.27,0.924-0.667,1.918,0.465,2.462c1.115,0.536,1.892-0.087,2.517-1.051
		c2.71-4.184,6.771-6.372,11.453-7.561c1.761-0.446,3.602-0.422,5.369-0.116c3.859,0.669,5.731,4.09,4.557,8.262
		c-0.399,1.422-1.062,2.77-1.602,4.151c-0.335,0.86-0.954,1.777-0.061,2.593c0.81,0.737,1.777,0.446,2.635,0.001
		c2.679-1.394,5.534-2.286,8.532-2.154c6.646,0.292,9.605,4.538,7.829,11.025c-0.639,2.334-1.388,4.639-2.098,6.952
		c-1.384,4.506,0.173,7.951,3.832,10.631c0.756,0.554,1.567,1.03,2.346,1.556c4.337,2.934,4.922,7.437,1.516,11.447
		c-1.596,1.878-3.608,3.222-5.632,4.565c-2.525,1.677-2.596,2.337-0.834,4.858c2.211,3.165,4.941,5.849,7.646,8.568
		c3.707,3.73,7.013,7.752,9.372,12.513c1.535,3.098,1.772,6.075-0.035,9.117c-1.168,1.967-1.122,4.015-0.269,6.082
		c2.504,6.062,5.236,12.04,6.717,18.475c0.525,2.293,0.935,4.561,0.33,6.939c-0.576,2.263-1.756,3.293-4.142,3.216
		c-4.754-0.154-4.673-0.17-3.893,4.413c1.295,7.605-0.834,14.559-4.498,21.096c-1.435,2.559-2.397,2.438-3.861-0.026
		c-0.48-0.812-0.909-1.814-2.075-1.522c-1.225,0.308-1.314,1.386-1.299,2.457c0.085,5.417-0.201,10.77-2.325,15.877
		c-1.945,4.685-3.451,5.24-7.624,2.409c-1.814-1.229-2.583,0.107-3.39,1.189c-1.771,2.381-2.992,5.136-4.938,7.405
		c-0.202,0.237-0.35,0.526-0.567,0.745c-0.71,0.709-1.384,1.768-2.475,1.526c-1.016-0.224-1.062-1.402-1.314-2.304
		c-0.27-0.959-0.451-2.097-1.779-2.157c-1.36-0.063-1.5,1.099-1.911,2.014c-2.988,6.648-7.001,12.54-12.808,17.071
		c-0.656,0.513-1.491,1.335-2.273,0.853c-0.897-0.555-0.896-1.731-0.745-2.77c0.065-0.462,0.294-0.941,0.22-1.374
		c-0.152-0.886-0.091-2.007-1.212-2.33c-1.092-0.313-1.75,0.454-2.273,1.269c-0.869,1.351-1.4,3.423-3.336,3.171
		c-1.987-0.261-2.563-2.393-3.215-4.021c-1.129-2.828-1.984-5.756-2.112-8.843c-0.043-1.038-0.189-2.164-1.268-2.579
		c-1.007-0.388-1.76,0.431-2.438,1.069c-1.587,1.493-3.364,2.111-5.295,0.84c-1.866-1.229-3.855-2.443-3.481-5.279
		c0.148-1.133-0.065-2.328-0.209-3.482c-0.11-0.883-0.429-1.711-1.535-1.76c-1.236-0.055-1.54,0.813-1.758,1.792
		c-0.26,1.166-0.155,2.31-0.021,3.482c0.236,2.087-0.997,3.001-3.048,2.39c-2.43-0.724-3.037-2.762-3.424-4.876
		c-0.166-0.901-0.058-1.877,0.056-2.804c0.133-1.094,0.491-2.357-0.892-2.751C425.445,447.805,425.513,449.408,424.884,450.748z"/>
	<path fill="#82633D" d="M411.382,407.872c-1.938-5.834-1.163-10.923,1.047-15.952c1.784-4.063,3.873-7.981,4.632-12.477
		c1.058-6.272-0.643-11.726-4.135-16.808c-1.77-2.576-3.547-5.147-5.305-7.732c-2.838-4.174-3.615-8.94-3.763-13.825
		c-0.133-4.38,0.014-8.767-0.032-13.149c-0.077-7.266-1.64-14.24-4.255-20.996c-0.25-0.645-0.425-1.63-1.247-1.436
		c-1.072,0.254-0.657,1.285-0.429,1.971c3.18,9.496,3.672,19.299,3.031,29.157c-0.657,10.112,2.134,18.947,8.616,26.71
		c6.028,7.22,6.024,15.043,2.038,23.182c-0.998,2.037-2.083,4.04-2.954,6.131c-2.265,5.441-2.04,10.977-0.372,16.522
		c1.843,6.128,1.767,12.178-0.8,18.097c-0.636,1.466-0.235,2.386,1.102,3.071c1.771,0.91,3.477,1.814,3.315,4.301
		c-0.163,2.519-1.658,3.963-3.688,5.026c-1.032,0.542-2.153,0.917-3.223,1.395c-0.745,0.333-1.771,0.45-1.356,1.737
		c0.231,0.719-0.338,0.939-0.865,1.144c-0.804,0.309-1.587,0.673-2.406,0.926c-6.25,1.929-9.721,6.13-10.708,12.599
		c-0.361,2.365-1.003,4.724-2.271,6.854c-0.669,1.123-0.982,1.262-1.925,0.167c-4.59-5.342-6.473-11.657-6.991-18.517
		c-0.352-4.655,0.413-9.188,1.484-13.686c1.335-5.602-0.224-10.342-4.221-14.358c-1.49-1.498-3.031-2.945-4.551-4.415
		c-1.35-1.305-2.084-2.913-2.325-4.752c-0.321-2.448,0.193-3.112,2.646-3.309c2.238-0.178,4.067-1.287,5.573-2.759
		c7.899-7.724,12.01-17.479,8.051-28.935c-1.271-3.68-3.263-7.021-6.669-9.533c-6.976-5.146-11.891-12.13-16.078-19.632
		c-6.315-11.316-10.484-23.535-14.912-35.645c-1.527-4.183-3.04-8.371-4.535-12.564c-0.606-1.7-1.23-2.451-3.386-1.579
		c-2.636,1.067-5.597,1.315-8.398,1.99c-4.577,1.101-8.848,3.029-13.278,5.184c-0.758-4.988,0.64-9.253,3.215-13.199
		c1.78-2.728,4.208-4.793,7.007-6.465c2.416-1.442,4.885-2.849,7.101-4.565c8.43-6.535,18.164-9.604,28.552-10.85
		c10.089-1.21,20.093-0.835,29.939,2.06c16.335,4.803,27.765,14.683,32.481,31.39c2.951,10.453,6.416,20.734,9.752,31.062
		c2.766,8.556,3.287,17.446,3.569,26.349c0.209,6.589-0.391,13.11-2.12,19.488c-2.422,8.927-7.723,15.771-15.348,20.89
		C418.084,400.758,414.41,403.634,411.382,407.872z"/>
	<path fill="#F3E3E3" d="M374.919,366.04c-3.792,1.779-5.866,4.63-7.384,7.965c-0.386,0.847-0.888,1.845,0.165,2.504
		c1.121,0.701,1.737-0.362,2.264-1.054c1.041-1.366,1.858-2.905,2.929-4.245c2.562-3.208,5.498-3.08,7.818,0.347
		c2.729,4.029,3.331,8.612,2.745,13.275c-0.8,6.365-3.871,11.652-8.595,15.966c-1.351,1.232-2.92,2.149-4.796,2.254
		c-1.975,0.109-2.604-0.854-1.805-2.597c1.313-2.852,0.121-7.168-2.382-8.233c-1.395-0.594-2.729-1.122-3.104,1.428
		c-0.244,1.649-0.998,3.243-0.891,5.002c0.065,1.048,0.166,2.206,1.037,2.759c1.649,1.048,1.081,1.884,0.128,2.995
		c-13.129,15.294-29.573,21.828-49.563,18.384c-10.426-1.796-16.746-8.798-20.984-18.02c-2.387-5.191-4.301-10.549-5.778-16.067
		c-0.231-0.863-0.287-2.038-1.46-2.178c-1.284-0.152-1.648,1.003-2.063,1.904c-0.683,1.485-1.042,3.113-2.008,4.476
		c-1.524,2.152-2.98,2.261-4.762,0.319c-1.094-1.193-1.795-2.629-1.813-4.225c-0.078-6.601,0.772-13.089,2.697-19.412
		c0.333-1.093,0.722-2.484,2.033-2.635c1.503-0.172,2.03,1.306,2.568,2.375c0.77,1.529,1.335,3.163,1.97,4.76
		c0.632,1.591,1.479,1.577,2.612,0.451c2.434-2.418,3.288-8.425,2.224-11.735c-1.404-4.371-2.645-8.837-2.925-13.473
		c-0.065-1.085,0.101-2.175,0.449-3.238c0.8-2.433,2.005-2.963,4.214-1.697c2.018,1.155,3.524,2.831,4.665,4.845
		c0.424,0.747,0.813,1.518,1.292,2.227c0.5,0.742,1.156,1.442,2.127,0.824c0.819-0.522,0.669-1.528,0.254-2.095
		c-1.096-1.495-0.348-2.43,0.555-3.636c2.947-3.937,3.714-8.701,4.788-13.339c0.723-3.118,1.459-6.233,2.243-9.336
		c3.024-11.953,10.604-19.559,22.279-23.194c3.43-1.067,6.934-1.901,10.337-3.044c1.59-0.534,1.94-0.008,2.388,1.389
		c3.617,11.298,7.1,22.645,11.683,33.607c4.607,11.022,10.133,21.492,18.424,30.27C372.506,363.983,373.672,364.909,374.919,366.04z
		"/>
	<path fill="#F3E3E3" d="M367.285,407.25c-0.637,4.051,0.948,6.869,3.59,9.264c0.868,0.788,1.665,1.655,2.479,2.502
		c3.982,4.145,5.055,8.939,3.56,14.494c-3.398,12.628-1.269,24.146,7.277,34.263c0.555,0.654,0.901,1.06,0.119,1.902
		c-7.479,8.075-10.469,18.133-12.462,28.607c-0.995,5.232-1.453,10.535-1.764,15.843c-0.076,1.302-0.461,1.667-1.719,1.836
		c-9.894,1.332-19.304-0.7-28.508-4.042c-4.768-1.729-9.463-3.661-14.163-5.567c-2.888-1.171-5.797-1.835-9.132-0.881
		c0.514-3.425,1.461-6.517,2.64-9.522c4.398-11.229,10.047-21.704,18.841-30.182c2.774-2.674,5.997-4.738,9.867-6.161
		c0.58,4.21,0.824,8.321,0.599,12.463c-0.114,2.106-0.239,4.216-0.396,6.32c-0.063,0.842-0.063,1.608,0.96,1.821
		c0.994,0.208,1.357-0.492,1.697-1.244c0.932-2.053,1.049-4.266,1.06-6.438c0.074-14.31-2.366-28.145-8.053-41.336
		c-0.464-1.072-1.024-2.107-1.593-3.13c-0.567-1.022-1.202-2.008-1.946-3.238c6.553-2.401,12.681-5.517,18.371-10.323
		c-0.207,1.327-0.34,2.187-0.475,3.045c-0.61,3.896,0.312,7.177,3.349,9.948c3.354,3.06,3.621,4.816,1.853,8.966
		c-0.991,2.32-1.667,4.697-2.063,7.183c-0.514,3.22,0.108,6.17,2.461,8.433c3.153,3.034,3.406,6.595,2.69,10.581
		c-0.548,3.05-1.527,6.085-0.795,9.271c0.309,1.339,0.857,2.507,1.793,3.493c0.583,0.614,1.316,0.971,2.097,0.496
		c0.828-0.504,0.813-1.456,0.347-2.075c-2.564-3.41-1.402-7.049-0.657-10.595c1.031-4.913,0.441-9.324-3.236-13.016
		c-3.285-3.3-1.571-6.999-0.796-10.586c0.276-1.282,0.919-2.482,1.364-3.732c1.216-3.416,0.521-6.408-1.875-9.126
		C358.683,420.007,359.486,413.299,367.285,407.25z"/>
	<path fill="#F3E3E3" d="M372.413,517.633c0.396-11.623,2.563-24.241,7.751-36.271c3.76-8.723,10.494-13.813,19.383-16.275
		c5.773-1.6,10.708,0.214,14.53,4.698c5.472,6.42,8.052,14.204,9.931,22.249c2.784,11.924,3.575,24.114,4.69,36.259
		c0.05,0.546,0.057,1.096,0.114,1.64c0.503,4.845,0.51,4.766-4.245,4.505c-11.49-0.628-22.988-0.567-34.49-0.36
		c-4.851,0.088-9.704-0.124-14.555-0.087c-1.352,0.01-1.514-0.828-1.737-1.727C372.696,527.912,372.311,523.482,372.413,517.633z"/>
	<path fill="#ECECEE" d="M358.436,533.954c-14.779-0.823-29.51-1.854-43.813-6.001c-1.737-0.504-3.936-0.345-4.925-2.595
		c-1.479-3.365-2.672-6.712-1.104-10.368c2.26-5.262,10.198-10.14,17.541-6.229c10.025,5.339,20.604,9.377,32.052,10.624
		c3.453,0.377,6.891,0.282,10.266-0.456c1.411-0.308,1.521,0.124,1.53,1.298c0.036,4.155,0.478,8.28,1.573,12.294
		c0.357,1.311-0.051,1.458-1.157,1.447C366.412,533.933,362.424,533.954,358.436,533.954z"/>
	<path fill="#F9F9FA" d="M442.428,347.591c-1.155-6.377-2.099-12.808-4.186-19.11C442.473,330.619,444.736,340.729,442.428,347.591z
		"/>
	<path fill="#F3F3F1" d="M365.693,400.31c-1.383-1.604-2.683-2.901-1.62-4.885c0.194-0.366,0.089-1.03,0.729-1.02
		c0.496,0.01,0.817,0.397,1.052,0.813C366.794,396.878,366.989,398.513,365.693,400.31z"/>
	<path fill="#82633D" d="M157.1,373.903c-2.383,0.635-2.346,2.696-2.525,4.515c-0.103,1.04,0.413,2.07,1.506,2.431
		c1.808,0.597,3.363,0.052,4.694-1.295c1.302-1.315,2.27-2.787,2.461-4.671c0.102-1.009,0.453-1.8,1.509-2.144
		c0.736-0.24,1.233-0.183,1.267,0.738c0.247,7.012,2.235,13.908,1.414,20.992c-0.656,5.653-2.096,11.02-7.083,14.449
		c-4.402,3.028-9.303,4.182-15.04,2.577c1.809-0.97,3.271-1.72,4.696-2.535c0.605-0.347,1.186-0.777,1.681-1.269
		c0.724-0.719,1.519-1.557,1.061-2.657c-0.424-1.019-1.518-1.007-2.451-0.962c-4.113,0.199-7.907-0.925-11.46-2.861
		c-8.234-4.484-14.528-10.767-17.883-19.695c-0.208-0.555-0.703-1.09-0.175-1.873c3.484,2.354,7.3,3.73,11.561,3.714
		c1.819-0.008,3.573-0.34,5.295-0.862c2.735-0.829,3.229-1.837,2.193-4.507c-1.306-3.365-3.532-6.093-6.241-8.389
		c-3.285-2.782-6.764-5.304-10.701-7.139c-2.475-1.153-4.397-2.981-5.789-5.327c-6.765-11.407-9.569-23.838-8.208-36.917
		c1.681-16.14,10.011-28.485,23.404-37.498c1.359-0.915,2.693-1.87,3.999-2.857c0.443-0.336,0.719-0.862,0.448-1.458
		c-0.249-0.551-0.696-0.779-1.319-0.779c-4.127-0.003-7.688-2.269-11.708-2.901c6.121-1.008,12.156-2.388,18.366-1.447
		c3.581,0.542,4.146-0.125,3.489-3.754c-1.083-5.984-0.462-11.817,2.025-17.383c1.513-3.386,3.408-3.699,6.126-1.19
		c3.849,3.553,7.702,7.1,11.56,10.642c0.402,0.369,0.83,0.716,1.278,1.027c2.161,1.503,2.896,1.383,4.352-0.823
		c3.752-5.688,8.727-9.58,15.652-10.435c6.336-0.781,12.426,0.387,18.327,2.708c4.83,1.899,9.308,4.438,13.558,7.401
		c0.766,0.535,1.551,1.098,2.411,1.43c1.274,0.491,2.109,0.139,2.123-1.453c0.024-2.959-1.075-5.659-1.842-8.437
		c-0.473-1.707-1.039-3.389-1.101-5.354c2.137,2.645,4.318,5.255,6.401,7.94c5.05,6.513,9.352,13.455,11.832,21.386
		c0.534,1.706,0.759,3.508,1.263,5.227c0.278,0.952,0.298,2.437,1.933,2.075c1.505-0.331,1.284-1.631,1.094-2.688
		c-1.037-5.74-2.863-11.24-5.959-16.184c-1.315-2.101-1.093-3.279,0.652-4.892c3.021-2.794,6.466-4.76,10.577-6.63
		c-1.007,3.716-2.977,6.457-4.262,9.497c-1.297,3.067-1.076,3.654,2.336,3.828c10.256,0.523,16.537,6.777,21.932,14.934
		c-2.664,0.393-5.182-0.228-7.55,0.6c-0.661,0.231-1.422,0.298-1.985,0.67c-2.17,1.434-4.298,2.568-7.031,1.349
		c-0.779-0.348-2.135-0.163-2.353,0.933c-0.273,1.374,1.111,1.474,2.031,1.751c10.063,3.035,17.585,9.255,22.842,18.27
		c0.768,1.317,1.979,3.216,0.989,4.296c-0.882,0.961-2.575-0.645-3.912-1.106c-1.106-0.383-2.178-0.93-3.313-1.148
		c-1.91-0.366-2.647,0.508-2.075,2.38c1.662,5.438,2.294,10.999,2.009,16.662c-0.146,2.879-0.653,5.699-1.867,8.806
		c-1.423-1.956-2.45-3.786-3.869-5.231c-3.172-3.23-5.008-6.342-3.86-11.438c1.033-4.587,0.822-9.629-0.534-14.412
		c-1.304-4.594-3.915-8.117-7.977-10.582c-1.805-1.097-3.709-2.046-4.498-4.246c-0.268-0.745-0.975-1.021-1.75-0.763
		c-0.94,0.313-0.932,1.152-0.951,1.941c-0.207,8.282-4.317,14.646-9.998,20.483c-0.568-0.92-0.331-1.775-0.35-2.565
		c-0.081-3.28-1.346-6.066-3.495-8.479c-0.617-0.692-1.31-1.567-2.325-1.343c-1.055,0.232-1.26,1.294-1.376,2.249
		c-0.902,7.418-5.535,12.565-10.608,17.445c-0.273,0.264-0.605,0.465-1.131,0.862c-0.495-1.846-1.024-3.555-2.804-4.37
		c-2.193-1.005-4.468-0.566-6.684-0.241c-1.528,0.226-3.012,0.813-4.489,1.319c-5.086,1.739-5.619,4.657-4.989,9.146
		c0.59,4.208,2.468,8.023,3.914,12.252c-4.049-1.07-7.216-3.333-10.548-5.262c-0.807-0.467-1.658-0.861-2.511-1.237
		c-0.729-0.322-1.547-0.625-2.114,0.209c-0.491,0.722-0.235,1.485,0.162,2.211c1.7,3.103,4.011,5.769,6.094,8.601
		c2.689,3.657,4.894,7.593,3.857,12.353c-1.318,6.052-9.162,12.003-15.746,8.531c-1.284-0.677-2.32-1.001-0.603-2.854
		c2.895-3.121,2.962-7.215,1.524-11.052c-2.699-7.209-8.622-10.915-15.73-12.097c-5.065-0.842-8.943,2.507-11.545,6.68
		c-4.188,6.716-5.128,14.034-2.725,21.599c1.402,4.414,4.552,7.201,9.141,8.236c0.162,0.075,0.217,0.152,0.164,0.23
		C157.207,373.863,157.153,373.903,157.1,373.903z"/>
	<path fill="#F3E3E3" d="M227.317,303.594c2.481,4.083,1.971,10.055-0.937,13.479c-0.691,0.813-1.781,1.567-0.601,2.748
		c1.167,1.168,2.02,0.114,2.787-0.574c7.511-6.723,14.022-14.112,15.879-24.498c7.847,3.403,10.648,9.666,10.888,17.606
		c0.218,7.212-1.422,14.113-3.056,21.041c-1.564,6.636-2.987,13.306-1.677,20.178c0.262,1.371,0.506,2.874,1.246,3.993
		c1.273,1.921,0.639,3.01-0.995,4.112c-1.114,0.752-1.934,1.835-2.501,3.057c-0.35,0.752-0.932,1.745,0.115,2.275
		c0.959,0.486,1.288-0.624,1.671-1.213c2.352-3.623,5.656-5.764,9.898-6.443c2.364-0.379,2.43-0.269,1.558,2.081
		c-1.024,2.759-2.571,5.188-4.815,7.103c-1.043,0.889-1.335,1.797-0.836,3.08c0.648,1.671,1.155,3.396,1.784,5.076
		c0.238,0.634,0.472,1.41,1.333,1.462c0.819,0.05,1.261-0.601,1.613-1.191c1.001-1.672,1.468-3.636,2.741-5.155
		c0.628-0.749,1.159-1.928,2.361-1.588c1.105,0.313,0.926,1.541,1.026,2.42c0.507,4.428-0.766,8.69-1.337,13.016
		c-0.285,2.164-0.734,4.311-1.199,6.445c-0.214,0.982-0.553,1.962-0.995,2.865c-0.863,1.767-1.845,3.854-4.033,3.772
		c-2.128-0.077-2.605-2.383-3.507-3.988c-0.566-1.009-0.101-2.962-1.765-2.912c-2.005,0.061-1.542,2.112-1.751,3.341
		c-3.08,18.208-16.165,27.067-32.196,29.045c-21.355,2.637-35.89-8.124-44.89-26.348c-4.254-8.613-6.96-17.721-7.752-27.346
		c-0.054-0.651,0.208-1.618-0.695-1.76c-0.728-0.114-0.553,0.746-0.695,1.238c-0.283,0.986-1.181,0.48-1.789,0.657
		c-0.875,0.255-0.984-0.406-1.152-1.049c-0.335-1.279-0.71-2.551-1.131-3.804c-0.181-0.538-0.589-1.016-1.24-0.782
		c-0.689,0.249-0.498,0.881-0.381,1.401c0.119,0.53,0.302,1.048,0.469,1.567c1.015,3.165,0.783,3.411-2.437,2.92
		c-3.935-0.601-6.507-2.774-7.881-6.483c-2.662-7.191-0.433-17.315,4.941-22.431c1.162-1.106,2.484-1.923,4.018-2.317
		c8.676-2.229,18.175,6.692,16.479,15.467c-0.117,0.606-0.304,1.229-0.602,1.765c-0.351,0.63-0.739,1.518-1.536,0.237
		c-0.384-0.617-1.157-0.835-1.892-0.518c-0.938,0.405-0.755,1.289-0.711,2.045c0.304,5.312,5.859,9.091,11.901,8.116
		c10.697-1.728,16.188-13.412,10.517-22.561c-1.558-2.512-3.475-4.801-5.256-7.232c0.593-0.561,1.048,0.041,1.535,0.279
		c2.454,1.195,4.828,2.586,7.496,3.27c1.313,0.336,2.838,1.23,3.94-0.101c1.042-1.26-0.15-2.522-0.677-3.663
		c-2.128-4.609-4.366-9.145-4.803-14.349c-0.145-1.729,0.207-2.525,1.915-2.995c2.63-0.722,5.175-1.75,7.896-2.15
		c3.196-0.471,4.397,0.686,4.093,3.862c-0.133,1.393-1.39,3.263,0.253,4.073c1.838,0.907,2.761-1.275,3.854-2.333
		c3.656-3.533,7.242-7.143,9.99-11.479C225.312,309.033,226.313,306.416,227.317,303.594z"/>
	<path fill="#74797F" d="M125.569,509.418c0.119-11.554,3.239-22.339,8.297-32.651c2.991-6.1,6.094-12.149,9.054-18.26
		c1.648-3.399,1.124-6.614,1.774-9.858c1.195-5.964,3.479-11.498,5.699-17.089c0.599-1.509,1.937-1.358,3.073-1.715
		c1.252-0.392,2.513-0.754,3.77-1.129c0.419,1.491,1.008,2.96,1.205,4.48c0.184,1.412,0.909,2.471,1.596,3.594
		c8.9,14.559,19.51,27.799,31.775,39.604c9.115,8.775,17.266,18.292,24.744,28.448c2.4,3.261,5.385,6.163,6.056,10.411
		c0.426,2.695,0.775,5.403,1.192,8.1c0.167,1.078-0.382,1.334-1.31,1.433c-5.59,0.596-11.173,1.257-16.764,1.838
		c-2.563,0.266-5.15,0.318-7.708,0.625c-1.383,0.165-1.886-0.082-2.009-1.614c-0.771-9.62-2.678-19.013-5.986-28.099
		c-3.806-10.454-8.551-20.323-16.971-27.995c-7.789-7.097-17.277-7.903-25.462-1.929c-2.853,2.082-5.232,4.704-7.322,7.563
		c-5.743,7.854-9.044,16.549-9.02,26.376c0.001,0.622,0.005,1.264,0.146,1.861c0.123,0.522,0.413,1.05,1.084,1.064
		c0.647,0.018,0.961-0.418,1.188-0.955c0.509-1.2,0.235-2.476,0.378-3.71c1.354-11.752,6.02-21.896,15.45-29.24
		c6.925-5.394,14.083-4.627,20.633,1.245c7.082,6.349,11.265,14.521,14.698,23.164c3.916,9.854,5.79,20.248,7.952,30.566
		c0.442,2.11-0.835,2.369-2.334,2.441c-4.685,0.227-9.372,0.392-14.057,0.62c-9.38,0.456-18.738,0.247-28.052-0.995
		c-5.024-0.67-10.025-1.521-15.034-2.313c-1.562-0.247-3.015-0.838-4.357-1.664c-1.385-0.851-2.25-1.945-2.495-3.716
		C125.97,516.431,125.515,512.953,125.569,509.418z"/>
	<path fill="#74797E" d="M222.149,467.779c2.112,1.624,3.79,3.025,5.579,4.269c5.643,3.921,6.495,10.025,7.362,16.088
		c1.165,8.141,1.313,16.349,1.477,24.555c0.059,2.967,0.253,5.933,0.475,8.894c0.1,1.338-0.417,1.776-1.705,1.851
		c-2.103,0.12-4.217,0.297-6.283,0.677c-1.414,0.26-2.002,0.042-2.054-1.51c-0.078-2.338-0.342-4.67-0.548-7.003
		c-0.474-5.357-4.054-8.99-7.15-12.904c-2.861-3.617-5.651-7.29-8.479-10.935c-0.339-0.438-0.704-0.844-0.521-1.468
		c1.45-4.907,0.809-9.945,0.883-14.931c0.076-5.087-0.058-10.176-0.075-15.265c-0.004-0.9-0.256-2.142,0.933-2.35
		c0.97-0.169,1.28,0.997,1.657,1.726c2.588,5.007,3.507,10.495,4.479,15.954c0.45,2.532,0.652,5.108,0.992,7.661
		c0.071,0.536,0.195,1.079,0.393,1.581c0.289,0.735,0.685,1.572,1.618,1.412c0.881-0.151,1.177-0.997,1.167-1.82
		c-0.028-2.344-0.05-4.69-0.192-7.029C221.971,474.209,221.909,471.198,222.149,467.779z"/>
	<path fill="#FFFFFF" d="M195.794,476.174c-5.421-5.157-10.115-10.242-14.78-15.359c-6.067-6.658-11.616-13.738-17.165-20.825
		c-3.432-4.383-4.489-9.382-3.96-14.768c0.337-3.421,2.926-5.361,6.343-5.251c1.185,0.039,1.382,0.718,1.219,1.489
		c-0.833,3.941,1.602,6.245,3.931,8.861c7.898,8.87,16.527,16.87,26.503,23.359c0.692,0.45,1.288,0.773,0.93,1.811
		C196.554,462.021,195.339,468.729,195.794,476.174z"/>
	<path fill="#F3E3E3" d="M198.338,450.81c-4.934-3.159-9.424-6.888-13.644-10.938c-4.8-4.608-9.345-9.463-13.703-14.492
		c-0.618-0.713-1.165-1.335-1.093-2.441c0.535-8.188,0.991-16.383,1.482-24.755c0.955,0.556,1.175,1.593,1.618,2.401
		c5.084,9.284,11.47,17.331,21.018,22.433c2.28,1.22,4.648,2.219,7.097,3.023c0.746,0.246,1.186,0.426,1.098,1.41
		c-0.693,7.713-2.128,15.309-3.504,22.915C198.684,450.494,198.518,450.599,198.338,450.81z"/>
	<path fill="#FFFFFF" d="M219.002,465.149c-0.898-2.354-1.553-4.16-2.28-5.939c-0.596-1.46-1.427-2.779-2.702-3.76
		c-1.232-0.947-2.584-1.026-3.565,0.163c-1.368,1.655-2.715,3.338-2.641,5.779c0.13,4.271,0.036,8.548-0.175,12.87
		c-0.858-3.604-1.603-7.241-2.604-10.806c-1.043-3.711-1.358-7.72-4.056-10.824c-0.345-0.396-0.22-0.894-0.102-1.347
		c1.5-5.744,1.995-11.658,2.937-17.707c1.779,0.912,3.002,2.312,4.308,3.564c3.16,3.034,5.934,6.411,8.67,9.832
		c2.125,2.656,3.052,5.529,2.747,8.902C219.279,458.753,219.197,461.642,219.002,465.149z"/>
	<path fill="#73787E" d="M206.419,485.983c-2.786-2.597-5.116-4.767-7.445-6.938c-0.589-0.55-1.047-1.18-0.991-2.031
		c0.378-5.801,0.185-11.688,2.682-17.602C203.611,468.094,204.643,476.814,206.419,485.983z"/>
	<path fill="#7B5D3A" d="M157.1,373.903c-0.001-0.117-0.002-0.233-0.005-0.35c0.388-0.01,0.844-0.157,1.15-0.004
		c0.903,0.451,2.53-1.023,2.781,0.857c0.193,1.453-1.9,3.886-3.123,4.003c-1.093,0.104-0.822-0.694-0.712-1.228
		C157.423,376.071,158.086,374.974,157.1,373.903z"/>
	<path fill="#7F8284" d="M168.835,401.216l-0.214-0.05l-0.21,0.065c-0.158-0.68,0.104-1.214,0.596-1.698
		C169.465,400.157,169.038,400.676,168.835,401.216z"/>
	<path fill="#221A15" d="M398.659,375.531c-0.099-3.099-0.084-5.344-0.414-7.612c-0.614-4.236-2.644-7.499-6.111-9.837
		c-3.431-2.313-4.664-5.564-3.721-9.356c0.843-3.385-0.242-6.001-2.159-8.48c-3.066-3.965-6.589-7.526-10.141-11.054
		c-2.809-2.787-5.206-5.843-6.23-9.765c-0.936-3.577-0.421-6.964,1.397-10.168c0.313-0.551,0.625-1.252,1.379-0.967
		c0.959,0.362,0.589,1.186,0.284,1.785c-3.237,6.365-0.665,11.467,3.554,16.153c3.662,4.068,7.922,7.56,11.396,11.824
		c2.773,3.406,4.189,7.058,2.972,11.479c-0.633,2.295,0.145,4.32,2.078,5.543c6.558,4.149,8.432,10.412,8.574,17.68
		c0.121,6.12-0.757,12.153-1.228,18.222c-0.072,0.94,0.229,2.808-1.562,2.591c-1.492-0.18-1.029-1.747-0.979-2.745
		C398.02,385.446,398.38,380.073,398.659,375.531z"/>
	<path fill="#221A15" d="M385.467,435.766c0.321-1.271,1.06-2.473,1.832-3.645c0.995-1.508,1.877-3.056,2.422-4.796
		c1.173-3.737,0.263-5.818-3.176-7.758c-4.797-2.706-7.587-6.675-7.211-12.412c0.286-4.352,3.369-6.881,6.31-9.476
		c0.582-0.514,1.273-0.905,1.932-1.328c0.686-0.439,1.478-1.396,2.189-0.371c0.573,0.825-0.439,1.316-1.015,1.81
		c-1.362,1.171-2.81,2.26-4.058,3.544c-4.665,4.801-3.675,11.677,2.118,15.117c6.488,3.853,7.759,8.605,4.07,15.28
		c-0.453,0.819-0.92,1.64-1.45,2.41c-0.696,1.018-0.665,1.93-0.081,3.035c1.581,2.998,1.506,6.338,1.674,9.6
		c0.046,0.884-0.146,2.096-1.36,2.111c-0.996,0.015-1.3-0.966-1.43-1.865c-0.146-1.001-0.345-1.997-0.431-3.003
		c-0.196-2.329-0.141-4.718-1.935-6.579C385.465,437.021,385.436,436.453,385.467,435.766z"/>
	<path fill="#221A17" d="M348.848,341.823c-0.271,2.148,0.477,5.164,0.442,8.213c-0.008,0.787,0.002,1.574-0.437,2.271
		c-0.43,0.686-1.027,0.81-1.479,0.13c-0.875-1.316-1.579-2.539-1.592-4.385c-0.059-8.204-2.143-15.93-7.211-22.505
		c-2.462-3.194-6.238-4.028-10.166-3.531c-2.166,0.274-4.022,1.23-4.833,3.527c-0.345,0.975-0.919,1.598-2.136,1.176
		c-1.145-0.396-1.266-1.104-1.099-2.186c1-6.488,6.778-10.166,13.899-8.659c8.012,1.695,11.645,7.521,13.603,14.808
		C348.74,334.027,348.989,337.455,348.848,341.823z"/>
	<path fill="#231A18" d="M373.418,378.389c4.606,4.147,5.652,8.015,3.526,13.138c-0.547,1.316-1.262,2.56-2.529,3.29
		c-0.603,0.347-1.359,1.141-2.062,0.327c-0.59-0.685-0.233-1.521,0.323-2.129c1.599-1.74,2.495-3.775,2.628-6.122
		c0.118-2.069-0.174-4.048-1.539-5.743c-1.017-1.264-1.938-1.577-2.699,0.19c-0.524,1.214-1.02,2.442-1.48,3.682
		c-0.262,0.699-0.555,1.401-1.429,1.238c-0.867-0.161-0.703-1-0.598-1.546c0.832-4.275,2.63-8.041,6.356-10.521
		c1.996-1.329,4.83-0.613,6.063,1.249c0.395,0.596,0.824,1.294,0.306,1.936c-0.603,0.743-1.381,0.433-2.102,0.023
		C375.368,375.802,375.157,375.85,373.418,378.389z"/>
	<path fill="#231A18" d="M320.545,341.503c3.804,0.571,6.813,2.911,9.574,5.606c2.408,2.352,4.456,5.027,6.393,7.779
		c0.529,0.752,1.27,1.636,0.235,2.455c-1.005,0.796-1.771-0.008-2.366-0.743c-2.808-3.451-5.373-7.114-8.799-10.021
		c-1.619-1.374-3.336-2.562-5.509-2.933c-0.694-0.118-1.817,0.057-1.739-1.092C318.416,341.339,319.515,341.58,320.545,341.503z"/>
	<path fill="#251C1A" d="M281.084,381.349c0.029,2.009-0.36,3.581-1.064,5.071c-0.263,0.555-0.603,1.2-1.371,1.002
		c-0.568-0.147-0.767-0.684-0.856-1.265c-0.453-2.949,0.149-5.891,0.043-8.838c-0.019-0.497,0.277-0.894,0.795-1.01
		c0.62-0.141,1.05,0.187,1.353,0.684C280.865,378.438,280.996,380.062,281.084,381.349z"/>
	<path fill="#29201D" d="M320.528,370.748c0.071-1.054,0.284-2.061,1.672-2.031c0.975,0.021,1.971,0.705,1.568,1.53
		c-0.471,0.971,0.004,2.85-1.806,2.813C320.626,373.035,320.564,371.831,320.528,370.748z"/>
	<path fill="#241B18" d="M162.63,350.173c-1.896-1.664-3.784-1.562-5.812-0.778c-0.865,0.334-2.076,1.144-2.543-0.348
		c-0.373-1.19,0.918-1.484,1.716-1.818c4.098-1.718,9.285,0.559,11.023,4.782c1.887,4.583,1.899,4.665,1.03,6.793
		c-0.846-0.167-1.057-0.805-1.172-1.535c-0.073-0.463-0.146-0.933-0.299-1.372c-0.539-1.553-0.517-3.634-2.65-3.943
		c-2-0.289-4.311,1.763-4.915,3.994c-0.335,1.233-0.16,2.475-0.12,3.722c0.029,0.894,0.271,2.226-0.934,2.299
		c-1.07,0.064-1.182-1.249-1.363-2.146C155.683,355.313,157.676,352.027,162.63,350.173z"/>
	<path fill="#231A18" d="M213.497,344.207c0.567-7.031,3.763-12.729,8.323-17.774c2.742-3.033,5.729-5.788,9.556-7.396
		c1.046-0.439,2.701-1.351,3.273,0.067c0.563,1.391-1.32,1.618-2.283,2.107c-9.523,4.838-15.423,12.416-17.466,22.938
		c-0.128,0.656,0.084,1.731-0.782,1.702C213.182,345.82,213.584,344.751,213.497,344.207z"/>
	<path fill="#231B19" d="M236.348,337.292c0.866,0.026,1.796-0.104,1.99,0.907c0.221,1.151-0.824,1.464-1.586,1.682
		c-5.04,1.447-9.425,4.015-13.223,7.598c-0.902,0.853-1.69,1.826-2.558,2.718c-0.412,0.424-0.829,1.093-1.54,0.507
		c-0.583-0.479-0.16-1.046,0.117-1.463c0.73-1.099,1.456-2.221,2.338-3.194c3.187-3.518,7.051-6.093,11.416-7.929
		C234.309,337.694,235.335,337.336,236.348,337.292z"/>
	<path fill="#231B19" d="M259.975,385.558c0.316-2.443,0.841-4.928,2.846-6.805c0.267-0.25,0.551-0.632,0.993-0.412
		c0.534,0.266,0.55,0.841,0.287,1.195c-0.793,1.072-0.206,1.92,0.155,2.941c0.601,1.699,0.063,3.368-0.741,4.92
		c-0.397,0.768-0.908,1.625-1.867,1.531c-1.11-0.109-1.332-1.168-1.555-2.078C260.003,386.479,260.019,386.08,259.975,385.558z"/>
	<path fill="#7A5C39" d="M341.326,324.119c-3.848-4.775-8.951-5.554-14.604-4.593c-0.132-0.125-0.173-0.246-0.121-0.362
		c0.051-0.113,0.1-0.171,0.146-0.171c5.874-1.892,11.08-0.276,15.035,4.665C341.975,324.152,341.746,324.23,341.326,324.119z"/>
	<path fill="#614A2F" d="M341.326,324.119c0.151-0.153,0.305-0.308,0.457-0.461c1.012,1.143,1.852,2.376,1.957,4.017
		C342.936,326.489,342.131,325.304,341.326,324.119z"/>
	<path fill="#56412C" d="M326.748,318.993c-0.008,0.177-0.016,0.354-0.024,0.532c-0.435,0.411-0.883,0.784-1.594,0.623
		C325.443,319.376,326.174,319.294,326.748,318.993z"/>
</g>
</svg>
