<?xml version="1.0" encoding="utf-8"?>
<!-- Generator: Adobe Illustrator 16.0.3, SVG Export Plug-In . SVG Version: 6.00 Build 0)  -->
<!DOCTYPE svg PUBLIC "-//W3C//DTD SVG 1.1//EN" "http://www.w3.org/Graphics/SVG/1.1/DTD/svg11.dtd">
<svg version="1.1" id="Layer_1" xmlns="http://www.w3.org/2000/svg" xmlns:xlink="http://www.w3.org/1999/xlink" x="0px" y="0px"
	 width="1093.94px" height="1137.267px" viewBox="0 0 1093.94 1137.267" enable-background="new 0 0 1093.94 1137.267"
	 xml:space="preserve">
<path fill-rule="evenodd" clip-rule="evenodd" fill="#453754" d="M134.172,43.667c-3.753-16.335,0.412-29.311,14.029-38.079
	c11.701-7.535,24.213-7.445,35.805,0.236c13.27,8.794,17.619,21.537,13.678,37.428c42.288,0,84.336,0,126.781,0
	c-3.922-17.092,1.196-30.669,16.767-39.066c12.082-6.516,24.361-5.318,35.231,3.008c11.741,8.993,15.52,21.152,11.675,36.008
	c42.317,0,84.463,0,126.918,0c-3.684-16.843,1.064-30.324,16.216-38.766c11.975-6.672,24.302-5.735,35.32,2.364
	c12.117,8.906,15.869,21.26,12.229,36.353c42.335,0,84.479,0,126.905,0c-3.799-16.022,0.625-29.13,14.711-37.91
	c11.679-7.279,24.019-6.921,35.346,0.716c13.167,8.877,17.394,21.661,13.45,37.393c42.299,0,84.379,0,126.985,0
	c-3.399-13.455-0.558-25.187,9.701-34.551c6.987-6.379,15.448-9.039,24.864-8.374c17.136,1.21,35.384,17.694,29.132,43.002
	c1.869,0.083,3.624,0.209,5.379,0.232c13.826,0.186,27.687-0.212,41.472,0.627c43.451,2.647,81.407,39.064,86.152,82.231
	c0.581,5.285,0.899,10.627,0.9,15.943c0.043,261.806,0.028,523.611,0.121,785.417c0.001,4.306-1.166,7.365-4.25,10.439
	c-65.154,64.939-130.222,129.965-195.206,195.074c-2.843,2.848-5.632,3.875-9.583,3.874c-262.646-0.088-525.293-0.076-787.939-0.083
	c-48.016-0.002-86.511-31.727-95.456-78.892c-1.139-6.009-1.445-12.254-1.447-18.39c-0.067-299.635-0.061-599.27-0.057-898.905
	c0-54.989,41.493-96.833,96.522-97.314c10.665-0.093,21.331-0.015,31.997-0.016C130.294,43.667,132.068,43.667,134.172,43.667z
	 M51.918,312.825c0,2.488,0,4.311,0,6.132c0,240.302-0.002,480.604,0.003,720.906c0,26.563,18.71,45.424,45.224,45.426
	c255.8,0.022,511.6,0.014,767.4,0.011c6.497,0,15.305-8.842,15.308-15.384c0.013-24.664-0.02-49.327,0.031-73.99
	c0.008-4.158-0.051-8.377,0.595-12.461c5.681-35.952,33.933-60.066,70.435-60.178c25.163-0.077,50.327-0.012,75.49-0.021
	c6.926-0.002,15.533-8.658,15.533-15.61c0.003-196.475,0.003-392.949-0.008-589.424c0-1.757-0.156-3.514-0.246-5.407
	C711.612,312.825,382.065,312.825,51.918,312.825z M747.924,181.826c-0.543-36.928-21.358-58.092-56.27-56.577
	c-22.874,0.993-39.878,14.753-44.67,37.118c-1.653,7.715-2.179,15.85-1.96,23.757c0.914,32.944,23.595,53.283,56.394,51.099
	c21.297-1.418,37.075-13.81,42.845-34.369C746.176,196.039,746.743,188.846,747.924,181.826z M484.395,127.368
	c0,2.28,0,4.09,0,5.899c0,15.164,0.215,30.332-0.098,45.489c-0.144,6.947-0.577,14.054-2.194,20.771
	c-3.324,13.812-14.559,20.499-29.349,18.428c-11.56-1.618-16.779-8.869-16.998-23.621c-0.022-1.499-0.008-2.999-0.008-4.499
	c-0.001-18.996-0.001-37.993-0.001-56.989c0-1.768,0-3.535,0-5.36c-8.169,0-15.589,0-23.562,0c0,2.086,0.001,3.879,0,5.672
	c0,20.496-0.036,40.992,0.031,61.488c0.014,4.156,0.173,8.344,0.694,12.462c1.677,13.232,7.628,23.923,21.091,27.503
	c8.006,2.128,16.785,2.508,25.11,1.986c10.867-0.68,19.78-6.267,26.801-15.955c1.103,4.574,1.841,8.294,2.962,11.894
	c0.344,1.105,1.699,2.64,2.655,2.688c5.256,0.263,10.532,0.125,15.904,0.125c0-36.37,0-72.086,0-107.98
	C499.765,127.368,492.468,127.368,484.395,127.368z M321.667,253.57c0,5.293,0.23,10.436-0.079,15.546
	c-0.214,3.53,1.455,4.881,4.481,5.106c5.627,0.422,11.296,1.216,16.894,0.901c17.848-1.004,30.266-11.653,33.921-29.123
	c1.218-5.818,1.766-11.877,1.785-17.829c0.146-43.458,0.079-86.916,0.079-130.374c0-1.764,0-3.526,0-5.248
	c-8.349,0-15.918,0-23.832,0c0,2.331,0,4.304,0,6.275c0,43.459,0.027,86.917-0.047,130.375c-0.007,3.967-0.275,8.015-1.098,11.882
	c-1.944,9.14-8.047,14.06-17.403,13.981C331.75,255.024,327.138,254.155,321.667,253.57z M540.493,83.408
	c0,50.946,0,101.283,0,151.563c7.784,0,15.179,0,22.467,0c0-50.735,0-101.069,0-151.563
	C555.313,83.408,548.051,83.408,540.493,83.408z M596.449,127.421c0,36.148,0,71.82,0,107.604c7.732,0,15.122,0,22.567,0
	c0-36.021,0-71.695,0-107.604C611.424,127.421,604.157,127.421,596.449,127.421z M608.057,86.19
	c-8.331-0.05-13.052,4.328-13.188,12.23c-0.142,8.191,4.619,12.908,13.03,12.908c8.122,0,12.978-4.67,13-12.502
	C620.921,90.903,616.181,86.238,608.057,86.19z"/>
<path fill-rule="evenodd" clip-rule="evenodd" fill="#453753" d="M632.337,741.292c16.299,0,31.776,0,47.717,0
	c0,15.957,0,31.642,0,47.782c-15.647,0-31.243,0-47.536,0c0,26.146,0,51.854,0,77.833c-18.799,0-36.897,0-55.717,0
	c0-25.712,0-51.41,0-77.595c-54.625,0-108.534,0-163.227,0c0-4.729,0-8.987,0-13.246c0-9.165-0.161-18.336,0.107-27.494
	c0.073-2.478,0.905-5.293,2.306-7.32c52.636-76.194,105.366-152.324,158.19-228.388c1.125-1.621,3.484-3.352,5.294-3.38
	c16.661-0.256,33.327-0.151,49.992-0.131c0.797,0.001,1.593,0.208,2.873,0.387C632.337,586.816,632.337,663.738,632.337,741.292z
	 M577.552,741.168c0-56.115,0-111.675,0-166.767c-31.432,58.43-74.145,110.135-110.022,166.767
	C503.988,741.168,539.944,741.168,577.552,741.168z"/>
<path fill-rule="evenodd" clip-rule="evenodd" fill="#453753" d="M724.368,180.578c-1.587,7.845-2.325,15.193-4.627,22.014
	c-3.559,10.543-11.946,15.561-23.616,15.552c-11.684-0.009-20.144-5.029-23.853-15.365c-5.161-14.379-5.148-29.075,0.033-43.467
	c3.713-10.312,11.947-14.675,22.549-14.901c10.828-0.231,20.078,3.235,24.181,13.911
	C721.78,165.467,722.696,173.317,724.368,180.578z"/>
</svg>
