<?xml version="1.0" encoding="utf-8"?>
<!-- Generator: Adobe Illustrator 16.0.3, SVG Export Plug-In . SVG Version: 6.00 Build 0)  -->
<!DOCTYPE svg PUBLIC "-//W3C//DTD SVG 1.1//EN" "http://www.w3.org/Graphics/SVG/1.1/DTD/svg11.dtd">
<svg version="1.1" id="Layer_1" xmlns="http://www.w3.org/2000/svg" xmlns:xlink="http://www.w3.org/1999/xlink" x="0px" y="0px"
	 width="577.428px" height="593.848px" viewBox="0 0 577.428 593.848" enable-background="new 0 0 577.428 593.848"
	 xml:space="preserve">
<path fill="#221A15" d="M281.436,217.837c2.844-10.958,5.675-21.956,10.64-32.167c1.881-3.867,3.66-7.817,5.797-11.606
	c3.482-6.176,8.811-9.313,15.102-11.402c1.962-0.652,3.741-1.645,5.633-2.41c0.809-0.327,0.873-1.031,1.147-1.65
	c1.152-2.605,1.762-5.483,3.938-7.577c0.363-0.35,0.567-1.029,0.571-1.56c0.026-2.141,0.369-4.092,2.357-5.363
	c0.33-0.211,0.266-0.618,0.239-0.977c-0.263-3.661-0.522-7.325-0.798-11.192c-2.119,1.465-4.132,2.942-6.235,4.276
	c-1.102,0.699-2.508,2.025-3.612,1.177c-1.211-0.931,0.101-2.459,0.449-3.686c0.48-1.695,1.09-3.355,1.676-5.019
	c0.396-1.116-0.115-1.276-1.004-0.967c-2.402,0.833-4.122,2.578-5.78,4.4c-0.483,0.532-0.737,1.607-1.706,1.208
	c-0.813-0.335-1.136-1.196-1.164-2.115c-0.063-2.071,0.878-3.826,1.759-5.592c0.497-0.997,1.09-1.944,1.644-2.919
	c-0.214-0.116-0.332-0.239-0.438-0.228c-2.008,0.203-3.993,0.074-4.89-2.046c-0.9-2.125,0.126-3.942,1.773-5.23
	c1.383-1.083,1.14-1.813,0.142-2.978c-2.562-2.992-4.04-6.573-5.502-10.203c-1.292-3.202-1.524-6.348-0.827-9.646
	c0.404-0.364,0.426-0.952,0.778-1.348c1.554-5.536,5.019-9.384,10.315-11.563c4.511-1.855,4.488-1.789,0.744-4.882
	c-0.613-0.507-2.146-0.635-1.639-1.799c0.377-0.865,1.643-0.517,2.518-0.441c2.683,0.231,5.359,0.527,8.037,0.814
	c0.848,0.09,1.375,0.066,1.512-1.087c0.675-5.646,5.064-7.969,9.443-10.221c1.287-0.66,1.443,0.359,1.406,1.277
	c-0.043,1.056-0.293,2.111-0.275,3.164c0.014,0.911,0.199,1.868,0.846,2.579c0.547,0.602,1.133,1.64,2.018,1.188
	c0.74-0.38,0.039-1.281-0.191-1.874c-0.572-1.478,0.346-1.727,1.42-1.903c3.967-0.649,7.891-0.357,11.797,0.509
	c0.961,0.213,1.922,0.979,2.684-0.775c0.443-1.022,2.227-1.44,3.617-1.302c7.799,0.779,15.377,2.355,22.059,6.748
	c7.742,5.089,11.4,12.657,12.664,21.551c0.465,3.289,0.625,6.623,0.871,9.94c0.064,0.88,0.252,2.033-1.063,2.172
	c-1.459,0.155-1.238-1.142-1.293-1.953c-0.225-3.316-2.043-5.538-4.867-7.579c0.553,3.99,0.771,7.635-0.01,11.245
	c-0.35,1.616-0.516,3.337-1.861,4.581c-0.488,0.451-0.445,0.86,0.18,1.319c1.348,0.991,2.086,2.439,2.627,3.994
	c0.18,0.521,0.619,1.136-0.004,1.518c-0.637,0.389-1.104-0.224-1.313-0.715c-0.52-1.218-1.816-1.719-2.445-2.818
	c-0.195-0.345-0.408-0.849-0.926-0.6c-0.447,0.215-0.32,0.67-0.283,1.116c0.346,4.295,0.65,8.594,0.969,12.893
	c-0.238,2.119-0.25,4.239,0.01,6.356c-0.342,6.159-2.27,11.679-7.215,15.61c-4.047,3.218-8.992,4.147-14.063,4.41
	c-2.268,0.117-4.514-0.08-6.742-0.488c-0.469-0.132-0.658-0.01-0.439,0.483c1.875,2.779,4.447,3.194,7.621,2.733
	c5.736-0.833,10.486,1.334,14.295,5.616c0.699,0.788,1.396,1.644,1.836,2.592c3.828,8.247,9.928,15.012,14.781,22.591
	c3.094,4.836,6.797,9.357,10.695,13.588c6.637,7.204,13.527,14.186,20.547,21.017c2.936,2.857,5.623,5.927,8.506,8.818
	c6.143,6.151,12.494,12.034,20.402,15.935c1.715,0.847,3.488,1.495,5.336,1.922c1.037,0.238,1.576,0.702,1.629,1.836
	c0.08,1.69,0.461,3.365-0.006,5.064c-0.229,0.837-0.096,1.486,0.99,1.694c1.793,0.343,3.686,1.722,5.271,1.13
	c1.721-0.642,1.176-3.102,1.682-4.736c1.391-4.48,3.824-8.328,6.805-11.86c1.639-1.94,3.473-1.688,5.012,0.591
	c3.318,4.911,5.318,10.262,5.213,16.2c7.961-0.845,14.568,2.1,20.641,6.761c1.793,1.376,3.309,2.822,3.256,5.3
	c-0.047,2.135-0.912,3.043-3.041,3.292c-3.857,0.453-7.109-1.479-10.57-2.6c-0.516-0.167-0.949-0.692-1.729-0.309
	c0.592,1.045,1.189,2.091,1.781,3.143c0.396,0.709,0.676,1.527,0.098,2.175c-0.486,0.545-1.254,0.479-1.994,0.276
	c-0.662-0.182-1.375-0.185-2.313-0.296c0.744,1.777,1.242,3.38,0.246,4.97c-1.057,1.688-2.801,1.656-4.842,1.611
	c1.182,1.466,2.277,2.621,3.133,3.933c1.109,1.708,2.664,3.817,1.336,5.613c-1.201,1.626-3.65,0.458-5.08-0.283
	c-3.031-1.573-6.299-1.482-9.439-2.211c-5.203-1.206-9.557-4.066-13.133-7.985c-1.889-2.071-2.869-4.666-3.117-7.505
	c-0.119-1.351-2.174-3.498-3.459-3.478c-0.834,0.014-1.305,0.824-1.709,1.507c-1.021,1.73-2.35,3.189-3.902,4.442
	c-0.436,0.353-0.74,0.604-1.578,0.201c-4.824-2.31-9.68-4.536-14.264-7.333c-1.068-0.651-2.193-1.253-3.248-1.939
	c-5.313-3.468-10.459-7.225-15.939-10.399c-4.949-2.867-9.027-6.688-13.217-10.435c-0.213-0.06-0.447-0.529-0.627,0.035
	c2.178,4.983,4.881,9.73,6.537,14.949c1.553,4.896,3.014,9.845,4.965,14.585c4.268,10.374,7,21.165,9.311,32.089
	c0.656,3.101,1.057,6.255,1.574,9.385c0.572,0.628,0.121,1.599,0.744,2.208c-0.086,1.969,0.676,4.063-0.912,5.81
	c-0.578,0.639-1.143,1.374-1.977,1.54c-1.898,0.373-1.564,1.339-1.037,2.691c4.029,10.412,8.277,20.752,13.186,30.764
	c3.115,6.352,5.938,12.876,9.479,19.01c3.893,6.752,6.943,13.953,10.916,20.633c3.488,5.868,6.135,12.151,9.568,18.016
	c4.088,6.979,7.148,14.452,10.846,21.612c1.471,2.854,2.816,5.75,4.172,8.649c0.268,0.573,0.566,1.152,0.709,1.763
	c0.75,3.177,0.734,3.182,3.51,1.322c6.15-4.121,11.885-8.793,17.729-13.322c4.098-3.175,8.635-5.568,13.73-6.776
	c0.139-0.031,0.271-0.092,0.41-0.102c6.693-0.494,7.744,0.871,7.258,7.062c-0.369,4.697-2.07,9.031-4.945,12.649
	c-3.568,4.492-7.236,8.946-11.92,12.44c-2.777,2.068-5.156,4.663-7.9,6.786c-3.83,2.959-6.834,6.73-10.322,10.013
	c-2.922,2.748-5.539,5.869-8.906,8.099c-4.365,2.889-9.006,5.041-14.479,4.236c-2.594-0.384-3.563-1.301-4.156-3.905
	c-0.152-0.668,0.076-1.437-0.662-2.134c-1.924,2.568-4.928,3.664-7.357,5.552c-1.109,0.859-1.604,0.402-2.104-0.55
	c-0.691-1.311-1.332-2.653-2.092-3.926c-4.518-7.549-8.047-15.604-12.094-23.393c-3.795-7.307-6.627-15.03-10.311-22.355
	c-3.857-7.664-6.49-15.83-10.141-23.552c-3.875-8.197-6.559-16.875-10.379-25.062c-3.869-8.289-6.523-17.026-10.086-25.407
	c-4.863-11.442-7.854-23.394-10.713-35.434c-0.842-3.538-1.297-7.125-2.156-10.676c-0.908-0.021-0.834,0.808-1.061,1.302
	c-1.264,2.756-2.328,5.606-3.988,8.17c-1.793,2.776-4.268,4.504-7.627,4.587c-1.33,0.033-1.684,0.667-1.859,1.753
	c-1.066,6.626-2.15,13.247-3.23,19.871c-0.297,0.434-0.371,0.981-0.699,1.401c-1.605,10.916-2.883,21.862-3.766,32.861
	c-0.885,10.985-0.721,21.921,1.002,32.825c0.793,5.017,1.332,10.104,2.717,14.979c2.021,7.102,3.238,14.366,4.939,21.527
	c0.561,2.361,2.67,3.042,4.338,3.997c6.746,3.856,14.027,6.451,21.461,8.664c6.684,1.99,13.578,3.186,20.164,5.519
	c2.467,0.874,3.893,2.438,3.959,4.428c0.061,1.848-1.482,3.756-3.717,4.706c-2.789,1.187-5.598,2.294-8.625,2.734
	c-1.17-0.299-2.561,0.07-3.434-1.132c0.016-1.175,1.029-0.979,1.689-1.153c3.148-0.829,6.383-1.385,9.285-2.987
	c0.809-0.444,1.766-0.805,1.787-1.904c0.02-1.145-0.986-1.441-1.805-1.844c-1.789-0.877-3.65-1.533-5.607-1.949
	c-8.607-1.828-17.137-3.997-25.318-7.249c-10.59-4.209-20.227-9.896-27.57-18.904c-1.563-1.92-3.383-3.615-4.791-5.681
	c-1.721-2.523-3.289-5.009-3.93-8.13c-1.035-5.038-3.684-9.472-6-14.015c-4.35-8.533-10.4-15.898-16.369-23.26
	c-5.207-6.421-10.854-12.497-16.631-18.438c-6.762-6.952-13.609-13.824-20.322-20.817c-4.603-4.794-9.27-9.534-13.822-14.386
	c-7.178-7.649-14.036-15.549-20.771-23.582c-3.886-4.636-7.061-9.759-10.785-14.482c-3.329-4.221-5.915-8.815-7.947-13.75
	c-1.327-3.225-2.02-6.622-2.718-10.033c-0.455-2.222-0.913-4.412-0.942-6.685c0.197-1.507,0.2-3-0.252-4.472
	c-0.298-3.301-0.128-6.607-0.117-9.909c0.002-0.761,0.038-1.57,0.8-2.06c0.945,0.32,0.653,1.146,0.668,1.79
	c0.044,1.835,0.018,3.671,0.022,5.507c0.048-7.598-0.499-15.195,0.038-22.792c-0.146,0.905,0.179,1.856-0.336,2.721
	c-1.557-0.081-1.116-1.349-1.133-2.147c-0.141-6.661-0.948-13.236-2.28-19.758c-0.836-4.098-2.005-8.088-3.552-11.973
	c-0.364-0.914-0.833-1.806-0.739-2.842c0.083-0.369,0.243-0.674,0.655-0.758c0.776,0.196,1.109,0.84,1.396,1.476
	c2.778,6.178,5.012,12.53,6.082,19.247c-0.063,0.766,0.172,1.446,0.611,2.067c1.02,2.987,1.179,6.134,1.409,9.219
	c0.662,8.9,0.911,17.816,0.202,26.74c-0.19,2.396-0.216,4.804-0.478,7.201c-0.115,1.048-0.122,2.132,0.204,3.166
	c0.489,1.556,1.191,1.87,2.473,0.859c4.282-3.38,8.42-6.926,12.304-10.772c4.534-4.49,8.634-9.35,12.759-14.205
	c2.232-2.627,4.221-5.347,5.531-8.505c0.775-1.868,1.965-2.643,3.917-2.495c0.845,0.064,1.7,0.013,2.551-0.007
	c1.854-0.045,3.447-0.76,4.838-1.938c1.74-1.475,1.8-2.105,0.451-3.937c-1.603-2.177-1.601-2.176-2.938,0.153
	c-0.496,0.859-0.969,1.742-1.769,2.37c-0.539,0.422-1.167,0.649-1.737,0.136c-0.504-0.454-0.398-1.095,0.005-1.538
	c1.674-1.841,1.649-3.959,1.166-6.198c-0.15-0.689-0.204-1.445-0.037-2.117c0.503-2.017,0.216-3.886-0.795-5.671
	c-0.045-0.756-0.246-1.459-0.706-2.076c-1.099-1.984-1.065-4.233-1.507-6.372c-0.499-2.409-2.714-3.677-4.979-2.916
	c-1.05,0.353-1.406,0.876-0.622,1.854c1.291,1.608,2.326,3.376,3.296,5.197c1.076,2.017,1.06,3.876-0.258,5.786
	c-1.263,1.83-1.957,3.901-2.409,6.084c-0.453,2.194-0.239,4.296,0.899,6.163c1.249,2.048,0.891,3.737-0.582,5.407
	c-3.95,4.482-8.296,8.52-13.321,11.779c-2.675,1.734-5.361,3.472-8.246,4.838c-1.835,0.868-2.705,2.1-2.451,4.163
	c0.121,0.973,0.102,1.989-0.102,2.965c-0.191,0.926-0.486,1.928-1.688,1.801c-1.248-0.132-1.156-1.145-1.16-2.115
	c-0.029-6.658,0.717-13.294,0.545-19.956c-0.284-11.028-1.345-21.969-5.288-32.344c-1.513-3.982-4.015-7.656-7.061-10.746
	c-2.67-2.711-6.158-2.938-9.731-2.408c-2.523,0.375-5.037,0.787-7.607,0.684c-6.094-0.245-10.467-3.08-13.055-8.614
	c-0.812-1.734-1.33-3.587-2.105-5.339c-0.509-1.147-1.291-1.751-2.603-1.806c-5.52-0.228-10.736-1.54-15.455-4.725
	c2.374,5.399,4.591,10.679,4.912,16.527c-0.007,0.788-0.005,1.576-0.006,2.364c-0.227,4.816-2.393,9.011-4.447,13.189
	c-1.496,3.042-3.466,5.828-5.884,8.284c-4.476,4.547-5.458,10.396-5.865,16.427c-0.654,2.938-0.463,5.872,0.029,8.803
	c0.268,8.049,1.933,15.853,4.03,23.598c0.896,3.304,2.295,6.381,3.582,9.517c0.331,0.804,0.829,1.498,1.551,1.981
	c3.284,2.193,5.34,5.408,7.309,8.702c0.369,0.618,0.612,1.28,0.729,1.983c0.175,1.057,0.081,2.068-1.129,2.417
	c-1.227,0.353-1.845-0.449-2.182-1.479c-0.418-1.28-0.874-2.524-1.539-3.716c-1.356-2.433-3.519-3.821-5.943-4.919
	c-3.928-1.778-8.103-2.706-12.366-2.715c-7.638-0.015-14.652-2.16-21.39-5.512c-1.648-0.819-3.306-1.597-5.058-2.202
	c-2.828-0.976-4.504-3.041-5.204-5.952c-0.465-1.933-0.515-3.936-1.07-5.849c-0.362-1.252-0.796-2.532-2.136-2.99
	c-2.777-0.949-4.323-2.833-4.781-5.762c-1.41,2.469-0.615,4.795,0.327,7.114c0.091,0.453,0.084,0.902-0.042,1.348
	c-2.313,3.695-1.997,5.788,1.34,8.852c0.104,0.098,0.223,0.182,0.309,0.292c0.579,0.741,1.927,1.383,1.272,2.396
	c-0.792,1.228-2.113,0.388-3.042-0.105c-2.088-1.11-3.495-2.848-4.035-5.208c-0.111-0.485-0.14-0.982-0.223-1.471
	c-0.194-1.162-1.074-1.513-2.033-1.419c-1.1,0.105-1.535,0.96-1.411,2.001c0.109,0.911,0.384,1.802,0.31,2.735
	c-0.121,1.538-0.638,2.764-2.351,3.099c-0.553,0.109-1.16,0.199-1.271,0.919c-0.103,0.665,0.293,1.057,0.81,1.359
	c4.523,2.662,9.249,4.309,14.592,2.979c1.18-0.294,2.363-0.61,3.339-1.327c1.656-1.217,3.186-1.005,4.942-0.126
	c5.502,2.75,10.347,6.379,14.861,10.521c7.499,6.884,16.429,10.302,26.541,11.047c3.132,0.231,6.207-0.002,9.307-0.082
	c2.615-0.067,2.958-0.402,3.61-2.913c0.203-0.781,0.148-1.747,1.135-2.13c0.346,0.93,1.635,1.067,1.809,2.148
	c-0.299,4.167-1.231,8.236-1.832,12.357c-1.221,8.4-2.812,16.734-4.531,25.044c-0.315,1.52-0.621,3.051-1.239,4.488
	c-0.291,0.562-0.779,1.035-0.761,1.735c-2.026,9.134-4.512,18.151-6.769,27.228c-0.564,2.269-1.142,4.539-1.648,6.816
	c-0.62,2.786-1.828,5.351-2.689,8.045c-2.893,9.045-4.596,18.445-7.908,27.347c-3.156,8.486-5.86,17.191-10.116,25.205
	c-3.049,5.736-5.99,11.637-10.13,16.688c-3.98,4.857-7.861,9.781-12.497,14.143c-5.639,5.305-11.445,10.379-17.553,15.089
	c-5.771,4.448-11.75,8.636-17.744,12.793c-7.043,4.885-13.967,9.939-20.963,14.89c-4.301,3.043-9.174,5.073-13.931,7.257
	c-3.629,1.667-7.017,3.695-10.36,5.832c-0.664,0.425-1.225,0.972-1.623,1.658c-1.134,1.956-0.373,3.825,1.805,4.451
	c0.683,0.195,1.384,0.306,2.086,0.413c1.931,0.583,3.852,0.394,5.772-0.06c5.592-0.372,11.021-1.893,16.597-2.376
	c1.057-0.091,2.108-0.221,3.172-0.238c7.559-0.123,15.116-0.265,22.675-0.001c3.187,0.113,6.341,0.552,9.506,0.875
	c5.839,0.596,11.739,0.353,17.55,1.304c2.236,0.366,4.484,0.691,6.516,1.802c3.211,1.755,3.852,4.79,1.542,7.62
	c-1.254,1.539-2.76,2.836-4.239,4.161c-1.705,1.523-1.454,2.623,0.741,3.258c2.379,0.687,4.782,1.311,7.281,1.416
	c2.334,0.037,4.667,0.047,7-0.015c5.727-0.098,11.216-1.646,16.741-2.879c7.71-1.72,15.521-2.484,23.369-3.143
	c6.636-0.559,13.273-1.109,19.916-1.525c5.654-0.354,11.313-0.657,16.97-0.971c9.971-0.552,19.958-0.72,29.933-1.221
	c5.163-0.26,10.339-0.266,15.509-0.421c15.806-0.475,31.576-1.271,47.251-3.44c2.319-0.32,4.615-0.8,6.943-1.035
	c3.65-0.367,6.873-1.639,9.484-4.279c1.895-0.064,2.221-1.416,2.307-2.904c0.164-2.77,0.201-5.521-1.963-7.702
	c-1.402-0.718-1.652-2.24-2.365-3.423c-1.459-2.423-2.854-4.895-3.631-7.64c-1.277-4.511-0.018-8.282,3.802-10.994
	c2.905-2.063,6.151-3.398,9.72-3.858c0.859,0.31,1.551,0.82,1.955,1.664c-2.488,0.944-4.977,1.894-7.469,2.827
	c-5.34,2.002-7.275,6.439-4.847,11.563c1.497,3.162,3.669,5.968,5.38,8.998c2.996,5.312,2.348,12.253-4.17,16.134
	c-3.188,1.896-6.79,2.357-10.338,2.946c-15.48,2.564-31.101,3.445-46.759,3.927c-18.282,0.563-36.58,0.702-54.843,1.753
	c-10.395,0.599-20.764,1.617-31.151,2.375c-6.003,0.438-12.027,0.723-17.95,1.816c-5.562,1.024-11.046,2.461-16.6,3.53
	c-7.829,1.505-15.624,1.361-23.315-0.975c-3.163-0.96-4.083-3.124-2.465-6.002c0.781-1.39,1.925-2.467,3.278-3.256
	c0.554-0.322,1.102-0.632,1.536-1.083c0.89-0.927,1.9-1.925,1.517-3.319c-0.38-1.376-1.724-1.766-2.965-2.103
	c-3.911-1.062-7.906-1.676-11.949-1.644c-6.896,0.05-13.687-1.167-20.557-1.469c-12.653-0.552-25.193,0.091-37.655,2.453
	c-3.461,0.656-7.016,0.935-10.559,0.14c-2.339-0.525-4.429-1.442-5.163-3.869c-0.788-2.603-0.005-4.941,2.173-6.637
	c3.804-2.959,8.042-5.233,12.371-7.289c6.374-3.03,12.548-6.331,18.24-10.571c7.064-5.263,14.284-10.32,21.539-15.317
	c6.979-4.808,13.709-9.914,20.188-15.38c7.746-6.534,14.692-13.737,20.827-21.846c3.815-5.043,6.607-10.566,9.687-15.989
	c4.851-8.545,7.475-17.942,10.893-27.048c2.542-6.77,4.595-13.664,6.26-20.66c1.159-4.862,1.952-9.845,3.426-14.612
	c2.922-9.449,5.293-19.034,7.647-28.627c1.107-4.516,1.863-9.127,3.177-13.578c2.37-8.033,3.62-16.295,5.401-24.447
	c0.163-0.746,0.153-1.53,0.228-2.341c-10.783,1.584-21.02,0.092-30.724-4.503c-4.086-1.935-7.691-4.699-10.98-7.842
	c-3.833-3.664-8.029-6.882-12.385-9.897c-0.8-0.554-1.625-0.955-2.502-0.284c-4.538,3.473-9.54,2.813-14.585,1.65
	c-1.511-0.347-2.883-1.1-4.3-1.727c-1.714-0.759-3.089-2.78-5.452-1.449c-0.688,0.387-1.446-0.352-2.059-0.836
	c-2.126-1.685-2.97-4.235-4.09-6.522c-0.388-0.793,1.056-2.023,1.949-2.495c1.059-0.56,0.908-1.059,0.677-1.899
	c-0.679-2.457-0.367-2.96,2.015-3.81c1.551-0.554-0.415-1.556,0.235-2.252c-0.252-1.311-0.314-2.621,0.032-3.928
	c0.884-2.296,2.412-0.974,3.756-0.605c0.322-1.361-0.332-2.563-0.358-3.836c-0.043-2.146,0.597-2.779,2.761-2.54
	c2.266,0.25,3.545,1.91,4.886,3.456c0.501,0.579,0.89,1.255,1.477,2.096c0.83-1.846,1.692-3.362,3.871-3.482
	c1.33-0.074,2.085-0.139,1.626,1.602c-0.467,1.774-0.17,3.392,1.922,4.063c3.889,1.244,4.774,4.43,5.187,7.961
	c0.157,1.347,0.344,2.657,0.892,3.985c0.908,2.2,2.556,3.29,4.583,4.002c6.093,2.146,11.894,5.249,18.41,6.029
	c4.354,0.521,8.752,0.643,13.115,1.101c3.251,0.343,3.162,0.48,2.026-2.764c-4.746-13.55-7.215-27.419-5.906-41.839
	c0.661-7.27,3.6-13.235,8.962-18.292c3.268-3.082,4.621-7.511,5.984-11.771c1.934-6.044,0.462-11.887-0.971-17.728
	c-0.941-3.833-2.422-7.627-4.371-10.888c-1.792-2.997-3.946-5.844-5.509-9.159c-0.613,0.426-1.146,0.758-1.634,1.144
	c-1.928,1.524-1.869,2.177,0.276,3.367c1.79,0.993,2.082,2.632,0.794,4.232c-0.642,0.797-2.094,1.388-1.657,2.49
	c0.407,1.029,1.856,0.651,2.875,0.764c2.367,0.261,2.762,1.57,1.165,4.184c2.063,0.551,2.043,2.195,1.75,3.757
	c-0.198,1.056-0.581,2.018,0.173,2.974c0.288,0.363,0.152,0.733-0.15,0.897c-0.27,0.147-0.744,0.21-0.987,0.069
	c-1.191-0.699-2.038-1.64-1.307-3.123c0.732-1.487,1.085-2.502-1.254-2.79c-1.868-0.23-0.953-1.389-0.283-2.251
	c0.373-0.479,1.201-0.785,0.935-1.519c-0.281-0.775-1.11-0.378-1.698-0.471c-1.239-0.196-2.645-0.104-3.269-1.51
	c-0.707-1.592,0.524-2.472,1.431-3.442c1.81-1.934,1.806-2.055-0.497-3.105c-0.696-0.317-1.432-0.825-1.417-1.442
	c0.049-1.875-1.041-1.605-2.289-1.61c-5.128-0.022-9.611-1.949-13.643-4.984c-2.081-1.567-4.167-3.159-6.052-4.948
	c-2.411-2.287-3.391-5.256-2.76-8.519c0.956-4.939,0.101-9.507-2.105-13.959c-1.366-2.756-3.276-5.384-3.181-8.646
	c0.177-6.156,0.694-12.306,2.33-18.25c1.029-3.741,3.416-6.727,6.676-8.966c1.102-0.758,2.006-1.798,3.077-2.607
	c8.077-6.102,16.945-10.172,27.29-9.899c5.989,0.157,11.222,2.172,14.542,7.598c2.197,3.591,5.272,6.027,9.27,7.33
	c0.804,0.262,1.589,0.6,2.356,0.959c4.805,2.25,5.769,4.105,5.18,8.646c-0.127,0.98-0.257,1.782,1.015,2.065
	c0.562,0.125,0.902,0.649,1.156,1.179c0.795,1.666,2.056,2.842,3.732,3.614c1.493,0.688,2.241,1.871,2.241,3.543
	c0,1.186,0.423,2.021,1.562,2.735c1.483,0.93,2.277,2.511,2.236,4.348c-0.031,1.343,0.4,2.44,1.236,3.503
	c1.281,1.631,1.143,5.049-0.368,6.39c-0.788,0.699-0.225,1.082-0.103,1.616c0.909,3.942,0.61,7.604-2.51,10.577
	c-0.349,0.332-0.602,0.586-0.329,1.052c1.109,1.889,0.678,3.862,0.208,5.783c-0.229,0.935-0.07,1.178,0.862,1.411
	c2.517,0.627,3.133,1.832,2.377,4.4c-0.255,0.866-0.459,1.559,0.579,2.102c0.731,0.382,1.055,1.223,0.974,2.007
	c-0.189,1.834,0.776,2.834,2.179,3.771c1.464,0.977,1.709,4.72,0.556,6.021c-0.331,0.373-0.698,0.486-1.117,0.24
	c-0.473-0.279-0.754-0.761-0.501-1.259c1.16-2.294,0.248-3.641-1.836-4.743c-1.017-0.536-0.966-1.811-0.987-2.884
	c-0.016-0.776,0.118-1.715-0.836-1.976c-2.055-0.562-1.874-1.583-0.976-3.121c1.159-1.986,0.572-2.834-1.678-2.982
	c-1.127-0.074-1.501,0.294-1.484,1.408c0.036,2.422-0.392,4.796-1.04,7.121c-1.891,6.791-6.314,11.061-13.106,12.792
	c-1.511,0.385-1.415,0.92-0.821,2.008c1.083,1.985,2.077,4.017,3.118,6.025c2.567,4.955,8.984,8.17,16.059,6.287
	c1.92-0.51,3.861-0.883,5.856-0.87c4.212,0.029,7.344,2.039,9.983,5.2c4.333,5.19,6.245,11.468,7.884,17.776
	c2.946,11.34,3.389,22.943,2.842,34.604c-0.035,0.746-0.483,1.742,0.144,2.207c0.814,0.604,1.573-0.304,2.258-0.716
	c6.613-3.999,13.092-8.172,17.916-14.403c0.242-0.311,0.703-0.445,0.967-0.745c1.018-1.155,1.736-2.115,1.076-4.039
	c-1.731-5.052-1.017-9.948,2.479-14.159c0.694-0.837,0.653-1.333,0.226-2.166c-1.322-2.574-2.524-5.209-5.331-6.592
	c-1.213-0.598-1.049-1.502-0.393-2.471c2.121-3.128,7.875-3.708,10.593-1.026c0.837,0.826,1.583,1.743,2.481,2.741
	c0.728-1.436,1.468-2.839,2.154-4.268c0.433-0.901,0.908-1.762,1.638-2.456c1.322-1.254,2.18-1.114,2.892,0.53
	c0.451,1.039,0.778,2.127,0.777,3.284C280.917,218.232,281.163,218.183,281.436,217.837z"/>
<path fill="#211914" d="M402.616,491.015c1.176,0.425,2.352,0.848,3.525,1.273c-2.955,0.54-5.904,1.103-8.867,1.609
	c-0.826,0.142-1.678,0.128-2.521,0.188c-0.695,0.395-1.508-0.035-2.209,0.324c-0.775,0.035-1.547,0.069-2.32,0.104
	c-1.043,0.395-2.168-0.052-3.211,0.322c-1.623,0.121-3.242,0.379-4.871,0.093c-2.426,0.04-4.861,0.757-7.273-0.354
	c-0.502-0.231-1.373,0.157-1.906,0.69c-3.197,0.035-6.391,0.069-9.586,0.104c-1.172,0.418-2.428-0.084-3.6,0.321
	c-1.227,0.037-2.449,0.074-3.676,0.11c-0.871,0.374-1.834-0.052-2.709,0.309c-3.643,0.47-7.285,0.939-10.93,1.408
	c-0.242,0.395-0.908-0.589-0.998,0.307c-0.236,0.041-0.473,0.081-0.709,0.121c-0.867-0.088-1.262-0.835-1.836-1.328
	c0.643-1.012,1.768-1.056,2.758-1.317c2.104-0.559,4.262-0.816,6.424-0.994c0.654,0.039,1.324-0.007,1.939,0.291
	c0.436,0.39,0.813,0.92,1.502,0.701c-0.465,0.052-0.893-0.06-1.203-0.489c-0.043-0.225,0.018-0.411,0.195-0.56
	c0.293-0.182,0.607-0.278,0.945-0.32c1.268-0.044,2.531-0.124,3.709,0.556c0.703,0.407,1.561,0.329,2.281,0.175
	c3.721-0.786,7.457,0.071,10.861-0.186c-2.025,0.063-4.361-0.006-6.695-0.223c-0.469-0.046-1.258,0.187-0.891-0.814
	c1.607-0.791,3.32-0.374,4.99-0.452c3.932-0.043,7.871,0.326,11.795-0.229c1.273-0.244,2.566-0.193,3.854-0.193
	c1.963,0.017,3.934,0.244,5.881-0.185c0.588-0.134,1.186-0.187,1.785-0.195c1.143,0.004,2.295,0.135,3.412-0.223
	c0.449-0.105,0.902-0.159,1.361-0.18c1.016-0.018,2.039,0.091,3.021-0.283C398.761,491.25,400.612,490.199,402.616,491.015z"/>
<path fill="#221A15" d="M372.962,495.267c0.955-1.553,0.926-1.505,2.664-0.415c0.404,0.255,1.1,0.05,1.662,0.053
	c1.615,0.011,3.236,0.018,4.854,0.024C379.099,495.484,376.026,495.312,372.962,495.267z"/>
<path fill="#19130F" d="M382.687,134.465c-0.604-2.118-0.586-4.237-0.008-6.356C382.876,130.228,382.935,132.347,382.687,134.465z"
	/>
<path fill="#B7B7B8" d="M425.265,320.912c-1.115-0.444-0.73-1.394-0.744-2.208C425.737,319.114,425.29,320.083,425.265,320.912z"/>
<path fill="#221A15" d="M341.466,497.825c-0.082-0.397-1.127-0.5-0.467-1.05c0.84-0.698,1.006,0.416,1.465,0.743
	C342.21,497.876,341.851,497.896,341.466,497.825z"/>
<path fill="#231B19" d="M103.595,262.557c-0.011,1.311-0.021,2.62-0.032,3.929C102.997,265.172,102.917,263.862,103.595,262.557z"/>
<path fill="#221A15" d="M359.776,495.691c1.145-0.726,2.396-0.227,3.596-0.321C362.204,495.791,360.993,495.769,359.776,495.691z"/>
<path fill="#221A15" d="M387.013,494.837c1.01-0.702,2.139-0.22,3.209-0.321C389.198,495.059,388.097,494.863,387.013,494.837z"/>
<path fill="#A5A6A6" d="M363.669,360.049c-0.047-0.605-0.283-1.308,0.699-1.401C364.54,359.316,364.501,359.88,363.669,360.049z"/>
<path fill="#221A15" d="M353.394,496.11c0.84-0.653,1.801-0.253,2.709-0.309C355.239,496.245,354.319,496.214,353.394,496.11z"/>
<path fill="#686869" d="M281.436,217.837c0.028,0.413,0.128,1.077-0.31,1.08c-0.759,0.003-0.396-0.702-0.414-1.141
	C280.954,217.795,281.196,217.816,281.436,217.837z"/>
<path fill="#6E6968" d="M303.124,91.014c0.182,0.702-0.043,1.172-0.777,1.348C302.249,91.706,302.274,91.123,303.124,91.014z"/>
<path fill="#C4CED7" d="M402.134,247.696c-0.225-0.342-0.447-0.685-0.826-1.269c0.918,0.196,1.139,0.771,1.451,1.234
	C402.55,247.673,402.343,247.685,402.134,247.696z"/>
<path fill="#221A15" d="M392.544,494.41c0.666-0.605,1.467-0.275,2.211-0.324C394.05,494.401,393.312,494.512,392.544,494.41z"/>
<path fill="#4C4948" d="M354.231,154.48c-0.289-0.083-0.832-0.062-0.654-0.486c0.258-0.611,0.721-0.319,1.092,0.002
	C354.522,154.157,354.376,154.318,354.231,154.48z"/>
<path fill="#ECECEE" d="M393.604,492.316c-0.357,0.029-0.717,0.06-1.076,0.09c-1.154,0.413-2.396-0.117-3.547,0.33
	c-0.52,0.026-1.037,0.056-1.559,0.086c-2.043,0.475-4.146-0.168-6.186,0.355c-1.205-0.216-2.402-0.049-3.6,0.063
	c-3.143,0.374-6.295,0.064-9.441,0.173c-0.904,0.031-1.826-0.151-2.709,0.19c-1.623-0.243-3.242-0.092-4.859,0.073
	c-1.826,0.916-3.801,0.813-5.738,0.717c-1.258-0.062-2.5-0.275-3.746,0.051c-0.246,0.027-0.49,0.056-0.736,0.084
	c-0.744,0.358-1.592-0.021-2.336,0.331c-3.119,0.241-6.174,0.806-9.154,1.759c-2.826,0.659-5.6,1.521-8.096,3.008
	c-5.314,3.165-6.754,7.48-4.41,13.208c1.369,3.345,3.359,6.372,5.18,9.479c1.889,2.936,2.469,6.007,0.982,9.302
	c-0.207,0.459-0.438,0.874-0.936,1.071c-2.258,3.039-5.4,4.282-9.051,4.884c-17.877,2.949-35.9,4.057-53.981,4.598
	c-25.086,0.75-50.164,1.682-75.208,3.42c-14.09,0.978-28.04,2.732-41.793,5.997c-2.188,0.521-4.453,0.836-6.736,0.75
	c-2.407-0.338-4.814-0.316-7.223-0.018c-2.94-0.013-5.704-0.976-8.511-1.651c-1.479-0.359-1.799-1.508-1.095-2.828
	c0.36-0.675,0.854-1.236,1.549-1.683c1.611-1.033,3.07-2.29,4.217-3.832c1.888-2.54,1.301-5.111-1.535-6.517
	c-2.967-1.467-6.237-1.962-9.467-2.12c-14.493-0.709-28.93-2.575-43.494-1.886c-6.605,0.313-13.092,1.293-19.583,2.407
	c-1.105,0.19-2.247,0.177-3.371,0.258c-1.982-0.027-3.965-0.01-5.948-0.017c-0.896-0.156-1.842-0.18-2.679-0.494
	c-1.27-0.477-2.094-1.437-2.167-2.88c-0.094-1.851,0.964-3.097,2.345-4.038c6.561-4.488,13.997-7.304,21.013-10.924
	c1.127-0.582,2.199-1.289,3.234-2.026c4.489-3.201,8.904-6.51,13.438-9.644c9.114-6.304,18.236-12.602,27-19.38
	c5.584-4.318,10.958-8.895,16.039-13.842c3.614-3.52,6.704-7.428,10.027-11.168c4.368-4.917,7.203-10.744,10.542-16.297
	c4.516-7.51,7.004-15.822,10.245-23.852c3.608-8.938,5.293-18.422,8.316-27.489c5.083-15.242,8.498-30.895,12.479-46.413
	c0.366-0.386,0.393-0.965,0.765-1.348c3.313-13.754,5.251-27.761,7.673-41.68c0.048-0.272,0.007-0.562,0.009-0.844
	c-0.966-2.245,0.018-4.376,0.754-6.331c0.919-2.44,1.728-4.913,2.585-7.37c0.722-2.069,1.111-2.261,3.1-1.382
	c2.984,1.317,6.047,2.33,9.292,2.753c0.894,0.324,1.822,0.258,2.747,0.248c1.422,0.015,2.844,0.01,4.265-0.026
	c0.895,0.041,1.792,0.11,2.666-0.172c3.472-0.628,6.725-1.892,9.89-3.407c0.923-0.522,2.103-0.684,2.682-1.981
	c-0.91-0.245-1.384,0.444-1.986,0.719c-4.404,2.402-9.015,4.122-14.089,4.354c-1.543-0.012-3.085-0.002-4.626,0
	c-4.325,0.223-8.099-1.679-11.992-3.123c-1.222-0.453-0.774-1.696-1.167-2.543c-1.229-2.594-3.44-4.475-4.958-6.872
	c-3.253-5.139-6.846-10.069-9.801-15.391c-3.561-6.407-6.186-13.199-7.669-20.401c-0.055-0.577-0.257-1.079-0.754-1.427
	c-0.278-0.31-0.382-0.655-0.216-1.056c0.479-0.474,1.042-0.946,1.2-1.586c0.092-0.375,1.031,0,0.506-0.687
	c0.009-0.209,0.095-0.378,0.248-0.518c1.001-0.592,2.129-0.824,3.216-1.175c4.083-1.405,7.917-3.409,11.919-5.003
	c6.167-2.458,12.349-4.886,18.419-7.572c4.836-2.14,9.833-3.95,14.362-6.764c0.991-0.615,2.024-1.345,3.33-1.186
	c0.811,0.249,0.764,0.998,0.942,1.614c2.286,6.024,4.298,12.125,5.336,18.509c0.795,4.897,1.359,9.818,1.566,14.778
	c0.053,1.269,0.193,2.53,0.294,3.796c0.388,0.277,0.477,0.691,0.482,1.124c0.038,3.401,0.037,6.803,0,10.205
	c-0.005,0.432-0.092,0.848-0.477,1.128c-0.497,4.154-0.313,8.326-0.342,12.493c0.364,1.41-0.234,2.83,0.045,4.241
	c0.709,4.045,1.247,8.122,2.421,12.074c1.9,6.395,4.779,12.27,9.079,17.419c0.905,1.085,1.658,2.298,2.433,3.482
	c4.924,7.531,10.811,14.328,16.627,21.142c3.242,3.798,6.519,7.606,9.99,11.216c6.843,7.115,13.598,14.32,20.63,21.242
	c3.375,3.321,6.525,6.84,9.879,10.172c7.258,7.213,14.201,14.7,20.875,22.467c3.365,3.917,6.303,8.13,9.572,12.095
	c4.531,5.487,7.809,11.685,11.094,17.942c2.09,3.979,3.371,8.122,4.586,12.385c0.918,3.231,3.217,5.856,5.395,8.323
	c2.648,3,5.154,6.181,8.26,8.762c6.961,5.781,14.715,10.108,23.219,13.271c7.926,2.952,16.096,4.875,24.283,6.807
	c2.004,0.473,3.895,1.243,5.752,2.134c0.82,0.394,1.598,0.803,1.627,1.746c0.035,1.053-0.551,1.813-1.518,2.348
	c-3.268,1.807-6.83,2.673-10.434,3.423c-0.545,0.113-1.076,0.291-1.613,0.438c-1.943,0.313-3.887,0.626-5.83,0.938
	C395.765,492.403,394.63,491.874,393.604,492.316z"/>
<path fill="#74797E" d="M281.921,256.993c-0.067-0.634-0.127-1.267-0.202-1.9c-0.142-1.193-0.481-2.4-0.394-3.576
	c0.109-1.442,1.751-1.103,2.612-1.748c2.21-1.658,3.899-3.72,5.204-6.09c0.817-1.482,1.075-3.115-0.291-4.521
	c-0.508-0.522-0.536-1.018-0.406-1.719c0.317-1.735-0.275-3.154-2.07-3.644c-1.037-0.282-0.977-0.697-0.672-1.477
	c0.526-1.348,0.582-2.771,0.434-4.191c-0.112-1.093-0.456-2.313-1.512-2.631c-1.654-0.5-1.483-1.492-1.298-2.752
	c1.47-9.996,4.068-19.714,8.037-28.973c2.641-6.157,5.16-12.389,8.176-18.377c2.3-4.563,5.852-7.96,10.748-9.722
	c2.663-0.957,5.357-1.818,8.014-3.547c-0.902,4.042-1.819,7.763-2.555,11.52c-1.652,8.431-2.309,16.966-2.395,25.546
	c-0.023,2.499,0.484,2.878,2.925,2.333c3.481-0.776,6.746-2.097,9.726-4.077c1.807-1.199,3.594-2.425,5.621-3.795
	c-0.906,4.464-2.451,8.422-3.67,12.47c-0.817,2.718-0.4,4.917,1.525,7.026c7.539,8.254,15.268,16.339,23.682,23.691
	c6.699,5.854,14.031,10.908,21.639,15.583c4.848,2.979,7.117,7.921,8.318,13.354c0.197,0.897,0.363,1.803,0.543,2.705
	c0.342,0.41,0.4,0.965,0.717,1.387c0.986,6.424,1.633,12.898,3.613,19.158c1.045,3.305,0.025,6.741-0.355,10.107
	c-0.848,7.509-4.557,14.053-7.109,20.983c-1.371,3.723-2.947,7.384-5.01,10.78c-1.107,1.823-2.406,3.164-4.904,3.718
	c-6.285,1.396-12.238-0.015-18.279-1.138c-0.807-0.149-1.609-0.306-2.744-0.521c1.447-1.265,2.148-2.687,2.674-4.236
	c0.449-1.323,1.545-1.483,2.787-1.278c2.082,0.343,4.283,1.049,5.59-1.511c1.043-2.033,0.586-4.792-1.609-6.748
	c-1.943-1.734-3.631-3.72-5.627-5.382c-0.918-0.769-0.947-1.472-0.053-2.244c0.262-0.229,0.559-0.439,0.766-0.714
	c1.699-2.251,1.01-4.164-1.756-4.303c-1.838-0.092-2.627-0.83-3.119-2.454c-0.344-1.138-0.953-2.21-1.543-3.254
	c-2.168-3.838-4.963-4.541-8.873-2.324c-2.076,1.176-3.953,2.783-6.496,2.975c-0.568,0.044-1.115,0.18-1.67-0.021
	c-0.453-0.165-1.09-0.09-1.279-0.622c-0.218-0.609,0.471-0.772,0.771-1.114c1.541-1.74,3.275-3.338,4.602-5.225
	c1.59-2.261,0.992-3.716-1.322-5.197c-1.658-1.062-3.131-2.416-4.671-3.657c-0.337-0.272-0.597-0.613-0.257-1.085
	c0.957-1.331,0.656-2.868,0.631-4.331c-0.193-11.016-0.922-22.006-5.187-32.307c-3.185-7.694-6.403-15.399-10.343-22.761
	c-0.393-0.732-0.918-1.403-1.439-2.056c-3.875-4.849-0.939-9.289,0.82-13.793c0.463-1.178,1.03-2.314,1.502-3.49
	c0.082-0.208,0.008-0.605-0.148-0.754c-0.361-0.347-0.588,0.012-0.834,0.271c-0.785,0.826-1.354,1.784-1.826,2.813
	c-4.229,9.16-6.561,18.764-7.367,28.839c-0.923,11.529,1.263,22.345,7.016,32.275c4.266,7.357,9.725,13.861,16.438,19.212
	c0.98,0.78,1.911,1.622,3.056,2.6c-9.792,4.318-16.666,11.119-20.057,21.375c-0.998-1.387-2.055-2.858-3.114-4.327
	c-5.133-7.111-9.808-14.491-14.212-22.096c-4.986-8.609-8.53-17.645-10.718-27.282C282.191,258.28,282.46,257.453,281.921,256.993z"
	/>
<path fill="#74787E" d="M383.644,319.985c-0.527-1.267,0.508-2.078,0.889-3.087c2.129-5.629,4.375-11.227,5.063-17.273
	c0.15-1.302,0.408-1.607,1.793-0.918c2.867,1.428,4.387,3.651,5.291,6.648c1.965,6.513,4.209,12.961,7.006,19.146
	c3.732,8.251,6.488,16.908,10.477,25.022c3.342,6.795,5.846,13.956,9.301,20.673c3.852,7.491,6.885,15.375,10.926,22.745
	c3.336,6.084,5.992,12.502,9.451,18.497c3.783,6.56,6.932,13.457,10.75,19.979c2.033,3.474,3.934,7.009,5.896,10.518
	c0.139,0.248,0.248,0.527,0.436,0.727c0.461,0.482,0.826,1.38,1.672,0.926c0.967-0.521,0.482-1.377,0.117-2.043
	c-2.584-4.703-4.916-9.533-7.662-14.164c-2.885-4.864-4.98-10.191-7.754-15.13c-4.201-7.472-7.5-15.386-11.541-22.912
	c-3.652-6.812-6.344-14.056-9.969-20.84c-3.943-7.383-6.637-15.309-10.391-22.745c-3.863-7.657-6.498-15.826-10.197-23.521
	c-2.672-5.555-4.67-11.355-7.076-17.001c-0.27-0.632-0.469-1.295-0.408-2.193c3.699,3.106,7.414,6.196,11.094,9.324
	c2.205,1.875,3.947,4.258,6.393,5.883c0.764,0.507,0.867,1.44,1.119,2.239c2.246,7.163,4.348,14.382,7.256,21.313
	c3.445,8.209,6.75,16.505,10.744,24.447c3.396,6.761,6.264,13.786,10.02,20.347c3.727,6.512,6.588,13.475,10.408,19.904
	c3.695,6.219,6.404,12.934,10.063,19.138c3.891,6.598,6.932,13.593,10.313,20.432c0.563,1.137,1.553,1.979,2.004,3.208
	c0.35,0.955,0.387,1.531-0.711,1.954c-3.871,1.492-6.664,4.385-9.584,7.206c-4.588,4.433-7.154,10.096-10.262,15.475
	c-2.752,4.761-4.303,9.884-5.633,15.727c-1.713-3.474-3.049-6.574-4.717-9.483c-3.916-6.827-6.607-14.241-10.266-21.169
	c-3.877-7.338-6.609-15.168-10.283-22.566c-3.908-7.869-6.65-16.22-10.369-24.138c-3.611-7.695-6.174-15.799-9.742-23.479
	c-4.154-8.933-7.098-18.319-10.834-27.397c-5.092-12.374-8.057-25.279-10.311-38.396c-0.277-0.316-0.377-0.691-0.377-1.101
	C383.985,321.247,384.173,320.543,383.644,319.985z"/>
<path fill="#FFFFFF" d="M318.856,386.693c-0.531,1.942-0.092,3.943-0.342,5.896c-0.572,0.258-0.758-0.227-1.025-0.511
	c-4.348-4.633-8.596-9.365-13.061-13.882c-7.096-7.178-14.142-14.403-21.247-21.567c-3.43-3.458-6.571-7.195-10.134-10.499
	c-3.748-3.476-6.743-7.603-10.287-11.229c-3.67-3.753-6.525-8.146-10.009-12.016c-3.984-4.429-7.003-9.544-10.627-14.208
	c-3.174-4.087-5.584-8.522-7.469-13.271c-0.751-1.896-1.163-3.938-1.589-5.942c-0.111-0.521-0.225-1.523,1.034-1.297
	c1.215,0.218,2.199-0.474,3.097-1.155c3.936-2.993,7.726-6.136,11.25-9.634c4.419-4.386,8.449-9.1,12.588-13.732
	c3.088-3.456,5.851-7.024,7.658-11.291c0.314-0.745,0.747-0.952,1.472-0.791c2.61,0.579,5.064-0.019,7.435-1.069
	c0.845-0.374,1.205-0.405,1.309,0.718c0.418,4.516,1.037,9.035,2.532,13.317c2.859,8.182,6.044,16.259,10.459,23.745
	c2.82,4.786,5.87,9.459,9.106,13.975c3.323,4.634,7.01,9.006,10.515,13.511c0.56,0.718,1.093,1.01,1.948,0.464
	c0.952-0.605,1.952-1.134,2.934-1.685c0.545-0.306,0.802-1.392,1.707-0.72c0.762,0.569,1.244,1.295,1.177,2.35
	c-0.19,3.045,0.245,5.979,1.136,8.935c1.125,3.723,3.418,6.731,5.391,9.941c0.62,1.01,0.748,1.797,0.363,2.925
	c-1.259,3.693-1.787,7.57-2.645,11.368c-0.346,0.41-0.407,0.965-0.704,1.4c-1.698,10.276-3.098,20.59-3.845,30.985
	C319.149,383.386,319.349,385.048,318.856,386.693z"/>
<path fill="#74797F" d="M421.745,321.622c-4.959-5.705-10.443-10.425-16.078-14.897c-4.461-3.54-8.959-7.144-14.1-9.748
	c-1.23-0.625-1.678-1.491-1.564-2.888c0.514-6.377-1.557-12.448-2.348-18.671c-0.625-4.91-1.582-9.748-2.854-14.563
	c-1.299-4.913-3.463-9.367-6.383-13.33c-2.525-3.428-2.631-6.957-2.363-10.796c0.717-10.313,1.273-20.639,2.133-30.94
	c0.379-4.55-0.117-9.054-0.047-13.579c0.041-2.67-2.047-3.893-3.736-5.326c-1.809-1.533-3.732-2.93-5.502-4.61
	c2.965,0.674,6.098-0.025,8.854,1.491c0.449,0.248,0.881,0.552,1.309,0.018c0.371-0.465,0.162-0.94-0.066-1.39
	c-0.945-1.858-2.283-3.472-3.771-4.849c-3.613-3.339-6.271-7.46-9.49-11.112c-2.174-2.467-4.65-4.67-6.633-7.42
	c8.406-0.393,13.236,0.692,18.051,9.307c2.822,5.054,6.205,9.751,9.463,14.527c1.477,2.164,2.721,4.487,4.176,6.666
	c3.775,5.654,8.039,10.958,12.643,15.929c3.162,3.417,6.262,6.925,9.65,10.125c7.199,6.798,13.863,14.123,20.871,21.101
	c5.455,5.434,11.469,10.333,18.703,13.392c0.783,0.332,1.559,0.699,2.367,0.944c2.455,0.741,2.549,0.782,1.082,2.972
	c-3.881,5.787-5.551,12.319-6.527,19.073c-0.221,1.517-0.576,1.521-1.83,0.933c-11.197-5.251-21.238-12.403-31.65-18.962
	c-6.082-3.832-10.984-8.724-15.764-13.983c-7.902-8.692-11.777-19.299-15.531-30.066c-0.963-2.76-1.922-5.606-3.832-7.946
	c-0.344-0.422-0.676-1.14-1.316-0.816c-0.803,0.406-0.318,1.124-0.045,1.651c1.516,2.915,2.156,6.144,3.326,9.172
	c3.156,8.174,6.377,16.362,10.723,23.974c3.873,6.783,6.842,13.943,10.098,20.998c4.285,9.289,6.578,19.25,10.16,28.757
	c3.92,10.391,6.121,21.141,7.771,32.051C421.823,319.645,422.022,320.469,421.745,321.622z"/>
<path fill="#F3E3E3" d="M180.262,204.253c-0.785-6.417-2.952-12.939-5.895-17.742c0.488-0.376,0.773,0.048,1.093,0.286
	c4.788,3.547,10.234,5.059,16.115,5.004c1.444-0.013,2.219,0.343,2.66,1.718c0.475,1.479,1.104,2.909,1.688,4.352
	c3.085,7.625,8.864,10.895,16.982,9.669c2.099-0.318,4.21-0.618,6.326-0.737c4.596-0.258,7.569,2.22,10.192,5.758
	c6.033,8.138,7.833,17.6,9.021,27.279c1.338,10.882,0.716,21.797,0.315,32.704c-0.016,0.425-0.058,0.85-0.047,1.274
	c0.013,0.492-0.005,1.052,0.664,1.143c0.776,0.105,1.029-0.526,1.068-1.057c0.125-1.693,0.201-3.396,0.168-5.093
	c-0.025-1.251,0.343-1.862,1.583-2.501c6.741-3.472,13.183-7.392,18.542-12.904c1.664-1.711,3.493-3.258,4.83-5.258
	c0.508-0.761,1.067-1.602,0.422-2.547c-3.357-4.924-1.865-9.636,0.895-14.074c1.005-1.616,1.18-2.822,0.433-4.465
	c-1.036-2.28-2.201-4.468-4.048-6.172c-1.091-1.006-0.587-1.5,0.354-2.014c2.421-1.326,7.037-0.491,6.89,3.479
	c-0.081,2.146,0.768,4.087,1.238,6.113c0.459,0.509,0.232,1.301,0.737,1.792c1.595,1.854,1.305,3.912,0.855,6.099
	c-0.2,0.979,0.17,2.101,0.382,3.137c0.413,2.025-0.01,3.804-1.49,5.25c-0.321,0.313-0.777,0.516-0.377,0.941
	c0.398,0.424,0.941,0.281,1.291-0.152c0.887-1.1,1.902-2.167,2.171-3.599c0.163-0.871,0.419-1.179,1.341-1.085
	c0.77,0.078,1.401,0.059,1.414,1.079c0.007,0.585,0.324,1.081,0.743,1.482c1.404,1.345,1.234,2.805-0.427,4.166
	c-2.45,2.008-5.25,2.775-8.337,2.252c-1.738-0.294-2.534,0.329-3.067,1.959c-1.349,4.126-4.482,7.073-7.053,10.411
	c-5.202,6.756-11.411,12.532-17.512,18.412c-2.071,1.995-4.505,3.609-6.719,5.463c-1.358,1.139-2.096,0.621-2.692-0.761
	c-0.796-1.851-0.495-3.775-0.342-5.662c1.13-13.954,1.152-27.877-1.025-41.748c-0.505-0.491-0.275-1.289-0.748-1.792
	c-1.292-7.262-3.458-14.233-6.9-20.781c-0.686-0.302-0.756-1.132-1.325-1.532c-1.134-0.703-2.042,0.056-2.978,0.482
	c-9.082,4.137-18.171,8.259-27.355,12.163c-6.645,2.825-13.302,5.622-19.985,8.349c-1.151,0.611-2.647,0.578-3.443,1.85
	c-0.177,0.8,0.019,1.567,0.189,2.338c0.861,8.113,4.131,15.44,7.805,22.531c2.568,4.955,4.542,10.044,5.759,15.44
	c1.279,5.662,2.511,11.337,3.685,17.021c0.331,1.602,0.794,3.157,1.398,4.676c0.118,0.598,0.176,1.183-0.401,1.604
	c-0.221,0.738-0.485,1.465-0.655,2.215c-0.72,3.174-0.704,3.254-3.979,3.489c-11.507,0.823-22.422-0.724-32.102-7.723
	c-2.301-1.664-4.431-3.479-6.509-5.371c-4.113-3.742-8.763-6.633-13.726-9.082c-0.93-0.458-1.632-0.177-2.375,0.273
	c-5.819,3.526-11.604,2.844-17.379-0.119c-0.689-0.354-1.384-0.717-2.112-0.967c-1.421-0.483-1.023-1.688-1.063-2.657
	c-0.058-1.395,1.043-0.531,1.549-0.604c2.079-0.3,3.214-2.232,1.957-4.548c-1.099-2.024,0.82-2.624,1.149-3.921
	c0.114-0.449,0.664-0.101,0.833,0.141c0.622,0.89,2.485-0.155,2.489,1.905c0.005,3.333,1.712,5.748,4.872,7.02
	c0.51,0.206,1.16,0.655,1.564,0.14c0.557-0.712-0.239-1.163-0.687-1.506c-2.31-1.767-4.288-3.687-4.056-6.94
	c0.096-1.35,0.446-2.486,1.885-2.956c0.304-0.479,0.443-0.947-0.08-1.378c-1.974-3.766-1.851-6.624,0.417-8.976
	c0.759,0.469,0.452,1.246,0.511,1.885c0.231,2.491,1.289,4.322,3.87,4.935c1.715,0.407,2.384,1.738,2.742,3.204
	c0.417,1.717,0.685,3.477,0.895,5.233c0.43,3.623,2.369,5.758,5.867,6.872c2.675,0.854,5.233,2.133,7.757,3.395
	c5.31,2.654,10.959,3.737,16.828,3.901c5.153,0.145,10.071,1.132,14.752,3.424c3.48,1.705,5.333,4.508,6.344,8.057
	c0.252,0.883,0.334,2.02,1.646,1.683c1.29-0.333,0.87-1.404,0.65-2.271c-0.416-1.65-1.331-3.102-2.346-4.382
	c-1.682-2.124-2.968-4.695-5.74-5.774c-0.603-0.234-0.931-0.798-1.204-1.416c-3.623-8.182-5.89-16.734-7.101-25.584
	c-0.374-2.733-0.833-5.46-0.75-8.235c-0.023-3.116-0.033-6.23-0.007-9.346c0.316-5.955,1.318-11.707,5.682-16.2
	c4.786-4.927,7.67-10.878,9.699-17.318c0.399-1.269,0.551-2.615,0.817-3.927C180.801,205.972,180.789,205.113,180.262,204.253z"/>
<path fill="#74797E" d="M343.978,333.995c2.588-0.868,3.928,0.199,3.379,2.774c-1.428,6.7-2.383,13.478-3.391,20.244
	c-0.43,0.441-0.361,1.004-0.377,1.546c0.002,0.392-0.104,0.747-0.344,1.059c-1.59,12.982-2.615,26.006-3.168,39.075
	c-0.143,3.321-0.309,6.641-0.346,9.964c-0.008,0.604-0.176,1.417,0.695,1.554c1.014,0.155,1.129-0.706,1.174-1.399
	c0.244-3.736,0.434-7.475,0.656-11.212c0.314-5.291,0.641-10.582,0.963-15.872c0.656-0.869,0.279-1.876,0.383-2.82
	c0.049-0.784-0.156-1.607,0.367-2.313c1.137-13.151,2.57-26.266,4.746-39.293c0.299-1.787,0.805-2.414,2.789-1.901
	c4.23,1.09,8.502,2.128,12.924,2.083c1.236-0.012,1.408,0.523,1.131,1.592c-0.439,1.707-0.773,3.442-1.15,5.166
	c-0.381,0.381-0.416,0.956-0.756,1.361c-1.469,8.074-2.98,16.138-4.031,24.28c-1.082,8.358-1.906,16.733-2.455,25.142
	c-0.557,8.499-0.617,16.974,0.381,25.458c1.207,10.275,3.338,20.38,5.346,30.513c0.609,3.088,2.232,5.907,2.381,9.297
	c-3.824-2.02-6.217-5.319-8.922-8.269c-1.281-1.396-2.498-2.855-3.672-4.343c-2.129-2.701-3.48-5.718-4.305-9.112
	c-1.945-8.03-6.529-14.831-10.787-21.747c-3.865-6.279-8.844-11.735-13.322-17.563c-0.332-0.434-0.854-0.721-1.26-1.105
	c-1.52-1.44-2.535-2.947-2.467-5.312c0.243-8.298,1.082-16.527,2.247-24.733c0.538-0.553,0.339-1.259,0.396-1.912
	c-0.002-0.413,0.102-0.787,0.375-1.105c1.056-8.259,2.521-16.438,4.688-24.485c0.269-1.001,0.442-1.49,1.644-0.911
	c1.773,0.858,3.463,0.305,4.893-0.913c0.986-0.839,1.965-1.207,3.285-0.916c3.07,0.68,3.664,0.341,5.123-2.526
	C343.604,334.98,343.622,334.39,343.978,333.995z"/>
<path fill="#F3E3E3" d="M356.8,151.879c-9.184-1.063-17.221-4.089-22.828-12.109c-2.234-3.198-3.281-6.423-3.09-10.214
	c0.066-1.34,0.287-2.332,1.914-2.46c0.787-0.063,1.969-0.223,1.617-1.416c-0.297-1.004-1.369-0.612-2.029-0.353
	c-4.101,1.618-10.375-2.548-11.459-5.905c-1.065-3.292,0.15-6.983,2.932-8.145c2.544-1.064,3.318-0.524,4.178,3.032
	c-1.129,0.364-2.946-0.252-3.201,1.533c-0.191,1.333,1.193,0.454,1.783,0.934c-0.433,1.238-0.68,2.535-0.359,3.87
	c0.084,0.343,0.243,0.706,0.639,0.753c0.571,0.069,0.66-0.411,0.779-0.813c0.04-0.134,0.051-0.278,0.06-0.419
	c0.065-1.047-0.233-2.713,0.704-2.885c1.047-0.192,1.734,1.339,2.352,2.313c1.635,2.579,4.215,4.108,6.516,5.948
	c0.576,0.462,1.303,0.729,1.967,0.25c0.648-0.468,0.307-1.166,0.152-1.769c-1.098-4.249-2.238-8.486-3.301-12.745
	c-0.664-2.664-1.178-5.361-0.975-8.304c1.359,0.706,2.584,1.375,3.838,1.982c0.965,0.468,2.002,0.738,3.09,0.657
	c1.166-0.085,2.705,0.254,3.125-1.176c0.361-1.225-0.629-2.235-1.582-3.011c-1.227-0.995-2.025-2.268-2.756-3.854
	c3.656,0.304,6.754,1.486,9.51,3.577c1.137,0.861,2.215,1.479,2.955-0.413c0.656-0.193,0.539-0.728,0.402-1.144
	c-0.084-0.248-0.25,0.153-0.42,0.146c-0.27-1.15-0.539-2.3-0.836-3.563c1.641,0.098,2.676,1.025,3.709,1.908
	c1.768,1.512,3.471,3.099,5.254,4.589c0.963,0.806,2.041,1.387,3.066,0.013c0.275-1.095,0.23-2.193,0.014-3.29
	c-0.043-0.351-0.084-0.7-0.125-1.051c-0.213-0.355-0.211-0.698,0.055-1.028c0.191,0.29,0.393,0.575,0.578,0.87
	c0.393,0.621,0.828,1.211,1.68,1.014c0.715-0.167,0.973-0.781,1.111-1.419c0.781-3.638,2.48-7.073,2.248-10.983
	c6.76,3.287,10.105,13.289,10.027,22.233c-1.607-1.101-3.088-2.139-4.596-3.139c-0.588-0.39-1.441-0.872-1.846-0.096
	c-0.404,0.779,0.676,0.824,1.125,1.188c1.539,1.248,3.111,2.464,4.551,3.822c1.412,1.337,0.752,4.878-0.93,5.761
	c-1.203,0.63-3.596,1.256-3.156,2.191c0.68,1.441,2.404-0.101,3.629-0.487c0.914-0.286,1.125-0.021,1.189,0.776
	c0.521,6.544,1.832,13.12,0.115,19.634c-2.289,8.665-7.059,12.568-16.576,13.233C361.331,151.922,359.065,151.823,356.8,151.879z"/>
<path fill="#3C2D17" d="M317.298,74.429c2.236,0.227,4.49,0.356,6.708,0.708c2.313,0.366,2.835,0,2.593-2.238
	c-0.316-2.914,2.578-7.118,5.4-7.938c0.93-0.27,0.965,0.257,0.949,0.866c-0.09,3.971,2.449,5.725,5.756,6.781
	c0.848,0.271,1.941,0.571,2.564-0.255c0.678-0.898-0.508-1.259-0.889-1.858c-0.379-0.593-0.822-1.23-0.449-1.971
	c0.324-0.64,0.994-0.411,1.529-0.428c7.65-0.244,14.656,1.537,20.813,6.326c4.916,3.824,6.051,8.966,5.4,14.725
	c-0.227,1.999-0.984,3.938-1.584,6.243c-1.256-1.688-2.602-2.773-4.119-3.625c-0.516-0.29-1.1-0.891-1.732-0.38
	c-0.721,0.579-0.574,1.427-0.26,2.154c0.813,1.87,1.459,3.775,1.859,6.301c-1.586-1.294-2.861-2.238-4.023-3.305
	c-1.637-1.505-3.479-2.636-5.529-3.46c-0.762-0.306-1.561-0.541-2.223-0.018c-0.791,0.626-0.541,1.521-0.258,2.352
	c0.117,0.334,0.205,0.677,0.318,1.013c0.131,0.393,0.434,0.824,0.045,1.176c-0.402,0.36-0.793-0.047-1.158-0.202
	c-2.873-1.238-5.789-2.222-8.994-2.089c-2.449,0.102-2.883,0.788-1.684,2.978c0.904,1.65,2.369,2.958,3.164,4.983
	c-2.318-0.26-4.002-1.416-5.75-2.403c-0.791-0.446-1.574-1.245-2.498-0.613c-0.936,0.64-0.803,1.787-0.686,2.755
	c0.555,4.586,1.756,9.049,2.719,13.557c0.381,1.779,1.246,3.452,1.18,5.53c-4.084-2.754-6.258-6.652-7.686-11.068
	c-0.219-0.668-0.336-1.37-0.472-2.062c-0.093-0.463,0.069-1.124-0.61-1.178c-0.717-0.058-0.668,0.589-0.687,1.068
	c-0.03,0.82-0.545,0.587-1.041,0.55c-6.283-0.469-8.259,5.081-7.271,9.512c0.654,2.931,2.225,5.437,5.188,6.841
	c2.568,1.217,2.942,3.387,0.331,4.615c-2.039,0.959-3.17,3.209-5.572,4.065c0.32-2.699,1.447-4.998,1.988-7.444
	c0.146-0.653,0.766-1.363,0.012-1.95c-0.792-0.615-0.997,0.417-1.498,0.633c-1.413,0.613-3.041,0.544-4.429,1.314
	c-1.216,0.676-2.647,0.974-3.731,2.483c-0.157-1.692,0.535-2.841,1.256-3.562c1.423-1.422,1.921-3.471,3.535-4.719
	c0.478-0.37,1.055-0.987,0.627-1.624c-0.482-0.717-1.25-0.406-1.92-0.104c-1.367,0.616-2.787,1.058-4.302,0.952
	c-1.405-0.098-2.132-0.763-1.486-2.246c0.571-1.305,1.209-2.655,2.612-3.194c1.798-0.692,1.307-1.492,0.329-2.462
	c-3.618-3.597-5.983-7.949-6.903-12.91c-1.373-7.386,0.869-13.684,8-17.784c1.533-0.882,3.099-1.705,4.658-2.538
	c0.623-0.332,1.26-0.716,2.01-0.471c0.555,0.182,1.148,0.46,1.444-0.279c0.267-0.674-0.364-1.026-0.765-1.374
	c-0.947-0.823-1.949-1.583-2.926-2.369C317.2,74.671,317.249,74.55,317.298,74.429z"/>
<path fill="#F3E3E3" d="M208.248,168.086c0.103,3.731-0.646,7.319-1.92,10.798c-3.5,9.558-14.063,12.854-23.698,9.47
	c-4.718-1.658-8.338-4.539-11.436-8.412c-2.143-2.679-3.444-5.647-4.888-8.688c-1.136-2.393-1.23-4.784-1.869-7.154
	c-0.238-0.883-0.426-1.876-0.966-2.561c-1.705-2.167-1.323-4.813-1.84-7.24c-0.305-1.427,0.553-2.599,1.58-3.539
	c1.402-1.283,2.328-2.766,2.687-4.686c0.483-2.582,2.249-4.393,4.23-5.926c3.436-2.659,5.848-6.271,8.85-9.331
	c0.454-0.463,0.671-1.255,0.784-1.93c0.16-0.966,0.258-1.767,1.53-1.869c1.212-0.098,2.08-0.03,2.795,1.238
	c1.77,3.142,2.517,3.413,5.947,2.894c0.278-0.042,0.708-0.163,0.825-0.032c1.761,1.977,4.97,1.668,6.431,4.15
	c0.848,1.442,2.419,2.12,3.729,3.061c2.219,1.593,4.204,3.337,4.744,6.229c0.126,0.671,0.423,1.388,0.855,1.903
	c0.6,0.715-0.068,1.648-0.147,1.648c-2.43-0.006-0.832,1.483-0.689,2.127c0.45,2.042,1.755,3.92,0.469,6.177
	c-0.514,0.9,0.207,1.931,0.907,2.668c0.831,0.874,1.318,1.829,1.109,3.06C207.915,164.121,207.949,166.104,208.248,168.086z"/>
<path fill="#82633D" d="M149.574,143.009c-3.829,5.593-0.605,11.226,3.927,15.982c0.92,0.965,1.294,1.595,0.94,3.01
	c-0.957,3.811,3.186,8.552,7.674,9.082c0.729,0.087,1.895-0.332,2.048,0.581c0.168,1.001-0.737,1.86-1.646,2.283
	c-2.492,1.159-5.087,0.932-7.655,0.239c-6.491-1.75-11.404-5.872-15.622-10.836c-1.627-1.916-0.942-4.563-0.611-6.814
	c0.646-4.406-0.356-8.428-2.112-12.359c-0.636-1.423-1.421-2.777-2.09-4.187c-1.277-2.691-1.742-5.461-1.17-8.46
	c0.501-2.631,0.705-5.321,0.978-7.992c0.525-5.123,2.462-9.357,6.502-12.851c5.42-4.687,11.131-8.771,17.984-10.958
	c4.674-1.49,9.511-2.141,14.436-1.369c3.958,0.62,7.27,2.403,9.485,5.8c3.05,4.679,6.943,8.16,12.482,9.571
	c0.81,0.207,1.579,0.638,2.316,1.056c1.247,0.709,1.402,1.054,1.62,3.14c-1.706-1.815-3.202-3.704-5.844-3.589
	c-1.335,0.058-2.869-0.266-3.969,0.277c-3.508,1.729-6.416,0.274-9.407-1.231c-6.208-3.122-11.765-2.287-17.432,1.862
	c-4.058,2.971-6.231,6.717-7.855,11.201c-1.153,3.183-2.762,6.201-4.167,9.292c-0.405,0.361-0.424,0.949-0.78,1.337
	c0.001,0.958,0.004,1.917,0.005,2.875c0.342,0.402,0.379,0.972,0.743,1.363c0.01,0.124,0.011,0.248,0.002,0.372
	C149.984,142.061,149.972,142.649,149.574,143.009z"/>
<path fill="#82633D" d="M150.36,146.804c1.198-2.644,2.309-5.202,1.479-8.327c-0.39-1.468,0.43-3.217,1.296-4.618
	c1.839-2.975,3.107-6.205,4.354-9.443c2.372-6.157,7.145-9.462,13.274-10.957c3.932-0.958,7.352,0.901,10.589,2.813
	c2.325,1.374,4.567,1.405,7.12,0.794c5.31-1.267,8.046-0.842,9.668,4.712c0.336,1.153,0.996,2.042,2.374,2.069
	c1.301,0.026,2.054,0.793,2.569,1.904c0.237,0.512,0.45,1.301,0.848,1.432c4.65,1.532,3.853,7.002,7.021,9.622
	c0.945,0.78,2.608,7.658,2.532,8.382c-0.115,1.113-0.519,0.891-1.482,0.838c-3.07-0.168-4.126-1.92-5.029-4.568
	c-0.962-2.825-3.627-4.42-6.027-6.063c-0.229-0.156-0.645-0.169-0.744-0.365c-1.526-3.04-4.998-3.486-7.275-5.507
	c-1.01-0.896-2.156-0.742-3.204-0.39c-1.796,0.604-2.804-0.141-3.646-1.608c-1.677-2.924-3.425-3.512-6.539-2.302
	c-1.183,0.458-1.911,1.309-1.846,2.575c0.072,1.418-0.527,2.4-1.508,3.333c-3.27,3.109-5.944,6.799-9.419,9.716
	c-0.943,0.793-1.647,1.87-1.878,3.037c-0.675,3.421-2.858,5.925-4.879,8.546c-0.45,0.584-0.795,1.298-0.575,1.978
	c0.459,1.417,0.22,2.272-1.406,2.408c-0.13,0.01-0.244,0.147-0.377,0.188c-0.946,0.292-1.321,2.002-2.294,1.505
	c-0.979-0.501-1.705-1.679-2.307-2.698c-1.186-2.008-2.353-4.053-2.675-6.433C149.845,148.523,149.854,147.665,150.36,146.804z"/>
<path fill="#74797E" d="M355.118,157.786c2.061,0.52,2.92,2.375,4.135,3.8c5.174,6.065,10.391,12.1,15.037,18.903
	c-3.355-0.338-6.736,0.049-9.736-1.874c-0.471-0.303-1.021-0.777-1.498-0.254c-0.576,0.635,0.037,1.248,0.455,1.64
	c1.848,1.744,3.754,3.423,5.648,5.117c2.365,2.117,4.723,4.241,6.846,6.614c0.557,0.622,0.809,1.274,0.805,2.107
	c-0.039,8.223-0.727,16.404-1.539,24.578c-0.168,1.689-0.322,3.38-0.543,5.062c-0.711,5.37-1.221,10.757-1.279,16.369
	c-1.1-0.468-1.436-1.438-2.002-2.144c-2.742-3.405-4.932-7.251-8.199-10.235c-1.033-0.944-1.084-2.268-1.268-3.517
	c-1.23-8.323-2.463-16.646-3.656-24.976c-1.156-8.05-1.875-16.173-3.705-24.108c-0.861-3.745-2.197-7.381-3.412-11.38
	c0.963,0.455,1.361,1.065,1.771,1.649c0.525,0.747,1.262,1.272,2.133,1.1c1.08-0.214,0.977-1.335,1.035-2.111
	c0.154-2.005-0.494-3.901-1.07-5.794C354.884,158.132,354.899,157.951,355.118,157.786z"/>
<path fill="#F3E3E3" d="M320.226,317.218c0.801-2.836-0.797-4.823-2.33-6.903c-2.766-3.76-2.721-3.796,0.219-7.446
	c0.442-0.552,0.884-1.114,1.391-1.606c1.115-1.084,2.143-2.762,3.443-3.024c1.607-0.323,2.073,1.935,3.097,3.004
	c2.814,2.946,7.343,3.598,10.896,1.402c1.201-0.744,2.313-1.651,3.564-2.297c2.141-1.107,3.775-0.555,4.973,1.506
	c0.889,1.529,1.838,3.026,2.641,4.6c0.455,0.896,1.037,1.599,2.002,1.708c2.639,0.295,2.002,1.563,0.91,3.072
	c-1.373-0.74-2.82-1.872-4.174,0.1c-1.041-1.439-1.438-3.039-2.088-4.521c-0.277-0.634-0.715-1.086-1.479-0.894
	c-0.828,0.208-0.676,0.944-0.463,1.382c1.957,4.003,3.215,8.478,7.236,11.133c0.467,0.311,0.988,0.547,1.506,0.772
	c0.502,0.218,1.088,0.595,1.523-0.046c0.51-0.748-0.164-1.18-0.611-1.572c-0.797-0.698-1.658-1.325-2.5-1.978
	c-1.107-0.86-1.617-1.931-1.184-3.442c1.119,0.256,1.781,1.095,2.445,1.872c2.049,2.39,3.986,4.875,6.287,7.043
	c0.621,0.586,1.121,1.29,1.291,2.155c0.301,1.528-0.551,2.46-2.107,2.3c-0.488-0.053-0.963-0.225-1.447-0.32
	c-2.615-0.511-4.316,0.248-5.201,2.778c-0.873,2.499-2.287,3.591-5.016,3.5c-3.098-0.104-3.273,0.206-4.033,3.291
	c-0.287,1.162-1.088,1.584-2.051,1.267c-2.186-0.72-3.844-0.106-5.617,1.282c-2.152,1.683-2.68,1.098-4.485-1.01
	c-2.466-2.871-3.894-6.319-5.944-9.407c-1.328-1.997-1.895-4.484-2.317-6.909C320.163,319.12,320.645,318.108,320.226,317.218z"/>
<path fill="#74797E" d="M333.882,191.962c0.41-0.294,0.818-0.588,1.229-0.883c0.264-0.266,0.533-0.243,0.805-0.006
	c2.111,3.919,4.008,7.976,6.391,11.725c3.396,5.35,6.879,10.689,10.834,15.629c3.344,4.179,6.385,8.633,10.037,12.535
	c4.461,4.767,7.646,10.454,11.775,15.445c0.936,1.132,1.574,2.513,2.348,3.779c0.047,0.391-0.063,0.611-0.508,0.458
	c-4.17-2.783-8.297-5.638-12.543-8.308c-1.633-1.027-3.1-2.218-4.541-3.453c-5.307-4.546-10.508-9.197-15.588-14.001
	c-4.615-4.363-8.746-9.17-13.324-13.548c-1.332-1.276-1.463-2.73-0.9-4.467c1.236-3.821,2.326-7.691,3.479-11.54
	C333.573,194.208,332.968,192.971,333.882,191.962z"/>
<path fill="#FFFFFF" d="M326.64,281.702c0.078,0.615,0.155,1.229,0.309,2.426c-1.87-1.691-3.492-2.955-4.87-4.444
	c-3.036-3.28-5.406-7.052-7.826-10.804c-8.789-13.625-9.188-28.378-6.163-43.639c0.22-1.11,0.441-2.221,0.708-3.32
	c0.079-0.321,0.315-0.602,0.483-0.911c0.789,0.812,0.98,1.89,1.42,2.84c3.403,7.332,6.843,14.639,9.724,22.207
	c3.334,8.757,5.658,17.686,5.778,27.11c0.01,0.622,0.201,1.242,0.309,1.863C327.026,277.245,326.798,279.475,326.64,281.702z"/>
<path fill="#F3E3E3" d="M476.731,263.418c0.391-1.36,0.793-2.717,1.16-4.084c0.184-0.691,0.381-1.528-0.504-1.818
	c-0.797-0.261-1.629,0.209-1.924,0.906c-1.414,3.318-2.309,6.751-0.941,10.302c0.73,1.898,2.5,2.299,4.332,2.48
	c0.637,0.063,1.41-0.554,1.996,0.466c-1.398,0.866-4.109,0.354-3.709,3.208c0.266,1.887,1.521,3.284,2.51,4.859
	c-1.699,0.262-3.732-0.489-4.695,1.347c-1.705,3.25,0.65,5.202,3.121,7.377c-3.547-0.409-6.277-1.582-8.744-3.347
	c-3.477-2.484-7.104-5.09-7.418-9.758c-0.262-3.93-2.766-5.168-5.785-6.057c-4.26-1.254-4.295-1.188-2.871-5.353
	c0.504-1.473,1.049-2.937,1.648-4.372c0.604-1.441,1.377-2.225,3.121-1.177c2.387,1.436,5.068,2.104,7.861,2.401
	c1.736,0.187,2.512-0.268,2.805-2.129c0.703-4.472,2.492-8.545,5.178-12.206c0.377-0.514,0.762-1.027,1.191-1.497
	c1.969-2.158,2.189-2.145,3.688,0.373c3.348,5.619,4.695,11.645,3.66,18.152c-0.215,1.346-0.596,2.632-1.289,3.8
	c-1.23,2.076-2.682,2.188-4.342,0.377C476.44,266.255,476.519,264.838,476.731,263.418z"/>
<path fill="#74797E" d="M335.915,191.073c-0.268,0.002-0.537,0.004-0.805,0.006c-0.492-1.796-1.162-1.996-2.773-0.766
	c-1.576,1.204-3.111,2.46-4.686,3.669c-3.234,2.489-6.867,4.198-10.712,5.509c-1.288,0.439-1.886,0.393-1.847-1.267
	c0.364-14.737,2.357-29.191,7.217-43.173c0.322-0.928,0.652-1.836,1.402-2.294c3.716,4.271,3.32,9.693,4.113,14.79
	c0.896,5.771,2.445,11.369,4.787,16.698C333.624,186.546,335.05,188.68,335.915,191.073z"/>
<path fill="#424041" d="M359.733,223.084c-5.016-6.352-10.059-12.059-13.604-18.851c-2.629-5.04-4.191-10.454-4.99-16.035
	c-0.518-3.601,0.805-7.103,1.508-10.618c0.127-0.639,0.453-0.976,1.152-0.985c0.479-0.005,1.014-0.046,1.426-0.261
	c2.602-1.354,2.637-1.404,4.443,1.039c1.594,2.151,3.121,4.355,4.58,6.596c0.799,1.224,0.615,2.759,0.75,4.119
	c1.104,11.074,2.844,22.053,4.725,33.012C359.806,221.577,359.733,222.081,359.733,223.084z"/>
<path fill="#3C2D17" d="M389.819,96.101c-1.57-1.487-3.016-2.695-4.631-3.7c-0.805-0.5-1.609-0.729-2.363-0.192
	c-0.746,0.527-0.566,1.39-0.326,2.151c1.191,3.775,1.332,7.609,0.664,11.491c-0.162,0.957-0.367,1.896-1.305,3.215
	c0.232-4.018-0.225-7.403-1.24-10.686c-1.582-5.103-4.014-9.681-8.781-12.522c-1.531-0.913-2.074-2.181-2.264-3.771
	c-0.469-3.959-2.516-6.954-5.607-9.351c-2.748-2.131-5.65-3.98-9.045-5.09c0.365-1.299,1.289-1.243,2.191-1.261
	c3.684-0.072,7.051,1.397,10.488,2.345c4.336,1.197,8.514,2.833,12.137,5.797c5.119,4.183,8.025,9.527,9.359,15.839
	C389.472,92.132,390.327,93.857,389.819,96.101z"/>
<path fill="#77767A" d="M486.812,460.401c3.795-3.747,7.018-8.035,11.125-11.487c0.342-0.288,0.695-0.479,1.141-0.479
	c6.051-0.001,12.102-0.001,18.344-0.001c-2.838,4.378-5.828,8.162-9.303,11.567c-0.902,0.883-1.609,1.313-3.078,0.999
	c-1.959-0.418-4.076-0.104-6.129-0.104c-3.955,0-7.91,0-11.867,0C486.966,460.731,486.89,460.567,486.812,460.401z"/>
<path fill="#76757A" d="M505.021,462.661c-3.111,2.694-6.066,4.883-8.564,7.507c-3.396,3.571-7.695,3.209-11.914,3.386
	c-3.111,0.131-6.232,0.218-9.322-0.349c-0.398-0.073-0.922,0.09-1.152-0.35c-0.252-0.483,0.217-0.78,0.496-1.052
	c3.406-3.291,6.832-6.563,10.246-9.848c0.332-0.319,0.641-0.414,1.129-0.297c5.865,1.387,11.83,0.92,17.77,0.92
	C503.964,462.579,504.22,462.61,505.021,462.661z"/>
<path fill="#F3E3E3" d="M329.94,133.833c0.275,3.233,1.504,5.978,3.664,8.471c2.387,2.752,4.84,5.358,8.014,7.189
	c0.719,0.415,0.6,1.018,0.627,1.639c0.07,1.701,0.406,3.269,1.506,4.697c1.063,1.377,0.656,3.128,0.656,4.738
	c-0.002,0.599-0.574,0.504-0.977,0.511c-0.881,0.018-1.713,0.243-2.371,0.808c-1.365,1.174-1.852,0.469-2.213-0.882
	c-0.434-1.631-0.99-3.216-1.336-4.886c-0.424-2.048-2.4-3.054-3.803-4.399c-1.262-1.206-2.691-2.241-4.092-3.29
	c-0.557-0.417-0.52-0.961-0.577-1.508c-0.567-5.419-1.175-10.834-1.644-16.262c-0.069-0.812-0.295-1.48-0.581-2.183
	c-0.363-0.893-0.127-1.347,0.903-1.188c0.67,0.594,1.904-0.483,2.342,0.795c-0.039,0.36-0.082,0.721-0.121,1.082
	C329.661,130.72,329.661,132.276,329.94,133.833z"/>
<path fill="#FFFFFF" d="M340.231,190.214c-0.23,1.444,0.463,2.787,0.457,4.206c0.152,0.449-0.055,0.541-0.445,0.449
	c-2.369-4.516-4.229-9.267-6.389-13.873c-2.691-5.747-4.025-11.81-5.207-17.953c-0.02-0.47-0.59-1.113,0.396-1.269
	c1.104,1.459,2.152,2.968,3.336,4.36c0.66,0.778,1.521,1.434,2.707,1.044c0.584-1.058-0.107-2.271,0.406-3.338
	c0.221-1.168,0.443-2.336,0.664-3.505c0.172-0.005,0.342-0.01,0.512-0.016c0.139,2.228,1.805,4.052,0.988,6.614
	c-0.584,1.843-0.506,3.822,1.367,5.347c2.232,1.815,3.434,3.877,1.852,7.029c-1.576,3.149-1.512,6.688-0.723,10.147
	C340.46,189.679,340.419,189.939,340.231,190.214z"/>
<path fill="#423F40" d="M464.438,492.456c-1.965-0.422-2.039-1.78-2.488-2.812c-1.355-3.105-0.395-6.37,0.703-9.009
	c2.721-6.564,5.967-13.001,11.064-18.148c3.637-3.67,7.785-6.665,12.521-8.93c2.338-1.118,4.361-3.045,6.258-4.883
	c2.352-2.279,5.354-3.67,7.539-6.123c0.131,0.126,0.26,0.253,0.393,0.377c-0.93,0.939-1.779,1.979-2.807,2.798
	c-2.666,2.125-4.791,4.773-7.199,7.146c-5.123,5.054-10.002,10.352-15.396,15.145c-4.51,4.009-8.031,8.919-10.818,14.268
	C462.56,485.451,462.026,488.839,464.438,492.456z"/>
<path fill="#76757A" d="M490.968,474.911c-1.648,1.813-2.9,3.324-4.301,4.68c-0.904,0.872-2.025,1.297-3.402,1.392
	c-4.715,0.32-9.348,1.426-14.088,1.551c-0.664,0.017-1.58,0.369-1.945-0.291c-0.361-0.647,0.383-1.296,0.729-1.873
	c1.158-1.941,2.428-3.815,3.945-5.509c0.49-0.549,0.975-1.011,1.807-0.807C479.21,475.398,484.808,474.941,490.968,474.911z"/>
<path fill="#1F2021" d="M458.425,478.241c0.24-2.243,0.609-4.41,1.609-6.379c3.646-7.175,8.875-13.012,15.301-17.803
	c0.498-0.371,1.113-0.583,1.678-0.865c0.643-0.321,1.303-1.24,2.012-0.366c0.605,0.752,0.535,1.773-0.043,2.578
	c-0.404,0.564-0.936,1.093-1.52,1.468c-4.801,3.061-7.807,7.646-10.846,12.285c-1.883,2.873-3.303,5.92-4.414,9.11
	c-0.561,1.608-1.961,1.711-2.992,1.851C457.843,480.304,458.87,478.821,458.425,478.241z"/>
<path fill="#F3E3E3" d="M506.147,271.921c-1.412,1.311-2.973,0.599-4.412,0.188c-5.039-1.441-9.828-3.487-14.258-6.327
	c-0.645-0.413-1.371-0.711-1.967-1.182c-0.785-0.62-0.945-1.455-0.742-2.474c0.246-1.224,1.172-0.889,1.822-0.863
	c7.873,0.309,14.803,2.635,19.611,9.373C506.499,271.079,506.509,271.509,506.147,271.921z"/>
<path fill="#76757A" d="M520.226,440.521c-0.006,0.352,0.025,0.709-0.025,1.055c-0.754,4.931-1.152,5.231-6.064,5.183
	c-4.52-0.045-9.043-0.009-14.057-0.009c2.82-2.375,4.361-5.521,8.664-5.56c3.73-0.035,7.479-1.133,11.057-2.447
	C520.897,439.107,520.331,439.87,520.226,440.521z"/>
<path fill="#76757A" d="M482.819,483.011c-4.129,4.861-9.027,7.871-14.904,9.21c-1.744,0.397-2.012-1.423-2.596-2.471
	c-0.51-0.911-0.463-2.059-0.336-3.128c0.291-2.496,0.73-2.875,3.225-2.764c4.328,0.193,8.625-0.084,12.902-0.753
	C481.567,483.035,482.036,483.052,482.819,483.011z"/>
<path fill="#FFFFFF" d="M334.153,164.658c-1.301-0.42-1.967-1.542-2.725-2.534c-1.98-2.594-3.638-5.398-5.283-8.208
	c-1.104-1.884-0.721-5.623,0.738-7.456c1.943,3.175,4.146,6.135,7.215,8.322c1.295,0.922,1.85,1.887,1.193,3.537
	c-0.455,1.141-0.854,2.396-0.674,3.703C334.146,162.845,334.813,163.868,334.153,164.658z"/>
<path fill="#424041" d="M338.927,168.239c0.049-2.646,1.586-4.664,3.775-5.177c1.479-0.347,3.725,0.977,4.793,2.789
	c0.227,0.388,0.398,0.758,0.232,1.19c-0.531,1.372-0.49,2.848-0.254,4.191c0.42,2.374-1.611,2.63-2.795,3.373
	c-0.936,0.585-1.609-0.658-2.258-1.404c-0.59-0.684-1.373-1.202-2.078-1.785C339.271,170.527,339.021,169.304,338.927,168.239z"/>
<path fill="#221A15" d="M187.344,300.255c0.016-0.482,0.032-0.964,0.048-1.444c0.548-1.043,1.258-2.022,0.251-3.252
	c-0.371-0.452,0.001-1.077,0.44-1.498c1.351-2.68,2.139-5.604,3.594-8.236c0.645-0.733,0.339-2.122,1.646-2.399
	c0.043,0.055,0.131,0.115,0.125,0.165c-0.295,2.558,1.777,2.679,3.377,3.313c2.869,1.135,5.788,2.03,8.907,2.084
	c1.697,0.295,3.395,0.293,5.092,0.002c4.98-0.361,9.493-2.215,13.915-4.357c0.697-0.178,0.666,0.246,0.512,0.674
	c-0.188,0.521-0.683,0.882-0.811,1.445c-3.172,1.66-6.385,3.203-10.029,3.521c-0.874,0.381-1.854-0.088-2.724,0.337
	c-1.564,0.211-3.128,0.289-4.693,0.008c-0.881-0.433-1.875,0.028-2.763-0.347c-3.523-0.101-6.694-1.396-9.754-2.979
	c-1.005-0.519-1.446-0.476-1.744,0.698c-1.074,4.238-3.043,8.197-3.978,12.481c-0.117,0.536-0.05,1.11-0.068,1.667
	C188.156,301.568,187.128,301.356,187.344,300.255z"/>
<path fill="#FFFFFF" d="M284.255,228.891c-0.348,4.311-2.878,7.172-6.109,9.446c-1.476,1.039-2.772,0.167-2.777-1.745
	c-0.004-2.388,0.875-4.556,2.105-6.579c0.477-0.782,1.076-1.507,1.437-2.337c0.674-1.55,2.034-2.242,3.408-1.922
	C283.683,226.071,284.097,227.597,284.255,228.891z"/>
<path fill="#F2E2E2" d="M488.679,291.345c-4.316-0.675-7.895-2.619-10.9-5.662c-0.344-0.349-0.662-0.748-0.895-1.177
	c-0.334-0.617-0.768-1.335-0.367-1.999c0.422-0.704,1.271-0.443,1.947-0.417c0.559,0.022,1.16,0.087,1.654,0.319
	c3.451,1.613,6.26,3.976,8.229,7.273c0.178,0.298,0.293,0.644,0.381,0.983C488.774,290.843,488.704,291.053,488.679,291.345z"/>
<path fill="#FDFEFF" d="M116.268,267.185c-0.189,1.124-0.042,2.266-1.269,2.622c-1.074,0.312-1.708-0.436-2.255-1.206
	c-0.987-1.39-1.713-2.917-2.315-4.507c-0.684-1.806-1.367-3.613-2.034-5.427c-0.349-0.95,0.047-1.258,1.002-1.197
	c0.741,0.047,1.427,0.242,1.949,0.714C114.063,260.649,115.456,263.839,116.268,267.185z"/>
<path fill="#F2E2E2" d="M489.687,279.749c-0.053,1.313-0.74,1.968-2.148,1.935c-3.146-0.072-7.311-3.09-8.367-6.057
	c-0.191-0.531-0.322-0.878,0.316-1.187c1.965-0.948,9.84,1.608,10.123,4.818C489.62,279.398,489.653,279.538,489.687,279.749z"/>
<path fill="#FCFCFB" d="M352.606,178.662c-0.381-0.507-0.68-1.108-1.154-1.509c-3.344-2.843-2.82-6.409-1.775-9.972
	c0.367-1.249-0.301-1.659-0.994-2.236c-2.814-2.347-2.971-2.701-2.648-6.252c1.957,1.306,3.535,2.554,4.102,5.057
	c1.029,4.546,2.078,9.084,2.871,13.676C353.04,177.891,353.634,178.538,352.606,178.662z"/>
<path fill="#FDFEFF" d="M352.946,162.194c-1.748-1.849-3.762-3.411-5.832-4.848c-2.115-1.466-2.865-3.475-3.09-5.848
	c-0.086-0.445,0.057-0.656,0.535-0.526c5.789,1.23,7.594,5.759,8.877,10.719C353.509,162.09,353.376,162.287,352.946,162.194z"/>
<path fill="#FBFCFC" d="M278.381,215.578c1.043,5.513,0.143,10.253-3.613,14.437C272.953,225.839,274.758,218.539,278.381,215.578z"
	/>
<path fill="#1F2022" d="M457.235,478.295c-0.199,1.123-0.383,1.792-0.428,2.471c-0.139,2.065,0.363,2.443,2.184,1.443
	c1.109-0.606,1.176-0.122,1.211,0.752c0.035,0.876-0.158,1.589-0.756,2.318c-1.654,2.011-3.393,3.895-5.678,5.206
	c-0.293,0.167-0.521,0.576-0.906,0.354c-0.455-0.263-0.322-0.736-0.227-1.137c0.707-3.004,1.355-6.031,3.107-8.661
	C456.237,480.301,456.122,479.262,457.235,478.295z"/>
<path fill="#F2E2E2" d="M493.368,275.197c-4.15,0.517-7.066-1.81-10.293-3.076c-0.666-0.26-1.578-1.109-1.336-1.91
	c0.328-1.08,1.4-1.507,2.584-1.426C488.507,269.076,490.983,271.749,493.368,275.197z"/>
<path fill="#F2E1E0" d="M160.561,159.174c0.36,1.19-0.558,0.813-1.095,0.886c-0.663,0.091-1.313,0.291-1.499,0.988
	c-0.193,0.726,0.455,0.643,0.909,0.817c0.572,0.22,0.011,0.66,0.014,1.002c0.02,1.931,0.803,2.623,2.946,2.517
	c0.138-1.15-1.813-1.592-0.939-3.107c0.661,0.894,1.741,1.406,1.845,2.605c0.079,0.919,0.897,2.301-0.13,2.667
	c-1.245,0.443-2.554,1.665-4.238,0.086c-3.031-2.842-3.363-6.201-0.423-9.031c0.514-0.493,1.017-1.018,1.84-0.781
	C160.163,158.208,160.193,158.788,160.561,159.174z"/>
<path fill="#76757A" d="M520.226,440.521c-0.104-0.603,0.176-1.297-0.426-1.779c-0.445-1.123-1.316-0.815-2.152-0.642
	c-3.027,0.63-6.057,1.255-9.146,1.718c3.023-2.79,6.463-4.651,10.65-4.958c0.982-0.071,1.264,0.536,1.328,1.275
	C520.61,437.604,520.894,439.095,520.226,440.521z"/>
<path fill="#FAFAFA" d="M104.568,264.45c0.077-0.588-0.373-1.457,0.251-1.718c0.802-0.335,1.158,0.628,1.556,1.132
	c1.115,1.413,2.211,2.854,3.161,4.38c0.595,0.957,1.066,2.419,0.143,3.115c-0.985,0.741-2.187-0.152-2.859-1.115
	C105.611,268.511,104.304,266.775,104.568,264.45z"/>
<path fill="#F9F9F9" d="M102.94,270.607c1.591,0.471,2.926,1.242,4.026,2.37c0.536,0.549,1.145,1.142,1.39,1.833
	c0.324,0.915,2.126,1.727,0.796,2.745c-1.199,0.917-2.39-0.221-3.294-1.111c-1.353-1.333-2.729-2.683-3.401-4.521
	C102.28,271.44,101.851,270.639,102.94,270.607z"/>
<path fill="#1E1612" d="M230.757,265.389c-0.001-4.152-0.004-8.305-0.005-12.455c0-1.94,0-3.878,0-5.818
	c0.221,0.001,0.441,0.003,0.663,0.005c0,9.442,0,18.884,0,28.324C230.521,272.132,231.082,268.734,230.757,265.389z"/>
<path fill="#EEDFDE" d="M212.908,149.521c0.279,2.014,0.558,4.042-0.237,5.997c-0.313,0.771-0.33,2.025-1.632,1.8
	c-0.995-0.173-2.17-0.363-2.175-1.833c0-0.196-0.139-0.393-0.213-0.589c-0.249-1.129-0.243-2.259-0.003-3.389
	c1.216-1.018,1.445,0.247,1.669,0.867c0.251,0.697,0.287,1.408,1.253,1.367c0.403-0.018,0.604-0.244,0.663-0.661
	c0.118-0.833,0.008-1.54-0.821-1.976c-0.461-0.243-0.905-0.519-1.376-0.79c0.516-0.626,1.17-0.286,1.649-0.551
	C212.094,149.688,212.374,148.954,212.908,149.521z"/>
<path fill="#434548" d="M332.815,292.754c-0.957,2.828-2.725,4.667-4.672,6.281c-1.512,1.255-1.92-0.707-2.725-1.322
	c-0.849-0.647-0.291-1.168,0.408-1.59C327.965,294.83,329.96,293.249,332.815,292.754z"/>
<path fill="#FBFBFB" d="M280.78,241.971c-0.967,0.09-0.961-0.625-0.941-1.248c0.046-1.344,4.639-5.425,6.053-5.42
	c1.055,0.003,1.411,0.573,1.126,1.52C286.556,238.359,282.31,241.827,280.78,241.971z"/>
<path fill="#FAFAF9" d="M105.706,280.795c0.035,0.663-0.047,1.348-0.659,1.679c-0.677,0.366-1.22-0.135-1.652-0.599
	c-1.259-1.352-2.162-2.945-3.023-4.566c-0.447-0.84-0.09-1.091,0.731-1.183C103.086,275.903,105.66,278.485,105.706,280.795z"/>
<path fill="#F7F8F7" d="M280.898,248.114c1.14-3.233,3.492-5.38,5.948-7.423c0.67-0.559,0.82,0.1,0.842,0.612
	C287.787,243.64,283.659,247.871,280.898,248.114z"/>
<path fill="#211914" d="M331.642,532.688c1.811-3.466,1.168-6.921-0.049-10.374c0.162-0.274,0.455-0.454,0.641-0.156
	c2.008,3.217,1.883,6.725,1.184,10.237C333.284,533.06,332.417,533.662,331.642,532.688z"/>
<path fill="#424447" d="M314.519,308.944c2.301,2.885,2.301,3.903,0.219,5.069c-1.013,0.566-1.357,0.294-1.357-0.83
	C313.38,311.735,313.94,310.468,314.519,308.944z"/>
<path fill="#414346" d="M450.772,275.856c0.227-1.943,0.328-3.342,0.578-4.715c0.113-0.613,0.24-1.544,1.35-1.022
	c0.77,0.364,1.393,0.788,0.91,1.775C452.97,273.205,452.335,274.524,450.772,275.856z"/>
<path fill="#404346" d="M418.099,321.508c1.85,1.13,2.473,2.535,3.486,3.58c0.648,0.672-0.113,1.138-0.605,1.48
	c-0.602,0.419-1.01,0.201-1.248-0.505C419.272,324.693,418.761,323.342,418.099,321.508z"/>
<path fill="#EDDEDE" d="M212.088,148.485c-1.724,0.09-3.347,0.379-4.247,2.118c-1.104-0.015-0.45-0.766-0.511-1.218
	c1.541-2.536,3.253-2.855,4.744-0.887L212.088,148.485z"/>
<path fill="#FEEFEE" d="M164.053,244.271c0.658,3.115,0.645,6.229,0.007,9.345C163.649,250.502,163.519,247.388,164.053,244.271z"/>
<path fill="#FEEFEF" d="M356.8,151.879c2.268-0.608,4.535-0.656,6.797,0.034C361.329,152.413,359.063,152.339,356.8,151.879z"/>
<path fill="#F5F7F9" d="M50.411,534.452c1.985-0.632,3.967-0.658,5.948,0.018C54.375,534.939,52.392,534.985,50.411,534.452z"/>
<path fill="#F3E4E4" d="M353.312,99.739c0.141-0.523-0.086-1.132,0.482-1.702c0.813,0.999,0.621,2.208,0.289,3.093
	c-0.309,0.825-0.615,0.024-0.754-0.393C353.323,100.404,353.317,100.071,353.312,99.739z"/>
<path fill="#1A130F" d="M326.64,281.702c-0.043-2.225-0.087-4.446-0.129-6.671c0.114-0.19,0.415-0.575,0.411-0.436
	C326.853,276.963,327.415,279.366,326.64,281.702z"/>
<path fill="#F7F7F8" d="M137.647,552.321c2.408-0.619,4.816-0.664,7.222,0.016C142.461,552.609,140.054,552.621,137.647,552.321z"/>
<path fill="#302F31" d="M333.882,191.962c-0.318,1.098,0.393,2.353-0.51,3.363C332.907,194.108,332.237,192.859,333.882,191.962z"/>
<path fill="#18120F" d="M230.462,282.125c-0.654-1.406-0.309-2.824-0.046-4.241C231.085,279.291,231.021,280.706,230.462,282.125z"
	/>
<path fill="#1A130F" d="M318.856,386.693c0.042-1.656,0.085-3.313,0.127-4.971c0.761,1.935,0.17,3.921,0.061,5.913
	C318.982,387.321,318.919,387.008,318.856,386.693z"/>
<path fill="#FEEFEE" d="M208.248,168.086c-0.627-1.984-0.655-3.966,0.017-5.946C208.555,164.123,208.491,166.105,208.248,168.086z"
	/>
<path fill="#5F666F" d="M355.118,157.786c-0.016,0.182-0.027,0.364-0.043,0.544c-0.65-0.869-0.744-2.119-1.699-2.819
	C354.563,155.747,355.349,156.319,355.118,157.786z"/>
<path fill="#596069" d="M343.972,379.094c-0.17,0.902,0.695,2.098-0.752,2.635c-0.002-0.836-0.004-1.67-0.004-2.505
	C343.421,378.909,343.679,378.906,343.972,379.094z"/>
<path fill="#D8C9C8" d="M180.262,204.253c1.206,0.863,1.205,1.721-0.011,2.574C180.254,205.969,180.257,205.11,180.262,204.253z"/>
<path fill="#382B1F" d="M150.36,146.804c0.005,0.858,0.009,1.717,0.014,2.575C149.112,148.527,149.127,147.668,150.36,146.804z"/>
<path fill="#2A292C" d="M343.972,379.094c-0.254,0.045-0.504,0.087-0.756,0.13c0.193-0.893-0.693-2.095,0.754-2.63
	C343.97,377.428,343.97,378.261,343.972,379.094z"/>
<path fill="#D2CFCD" d="M485.737,266.761c-0.795-0.068-1.576,0.359-1.775-0.701c-0.035-0.183,0.086-0.561,0.182-0.575
	C485.026,265.344,485.261,266.051,485.737,266.761z"/>
<path fill="#231A18" d="M329.94,133.833c-0.508-1.556-0.518-3.111,0-4.667C329.94,130.72,329.94,132.276,329.94,133.833z"/>
<path fill="#302725" d="M476.731,263.418c0.02,1.416,0.033,2.834,0.051,4.25C476.067,266.259,476.146,264.841,476.731,263.418z"/>
<path fill="#424549" d="M458.202,254.271c-0.084,0.679-0.168,1.359-0.287,2.338C456.89,255.468,457.769,254.901,458.202,254.271z"/>
<path fill="#17100F" d="M340.231,190.214c-0.025-0.252-0.053-0.505-0.08-0.758c0.055-0.874,0.113-1.747,0.166-2.622
	C340.493,187.975,340.995,189.13,340.231,190.214z"/>
<path fill="#312825" d="M335.489,163.839c-0.166,1.109,0.273,2.292-0.406,3.338C335.212,166.063,334.69,164.87,335.489,163.839z"/>
<path fill="#333538" d="M281.921,256.993c1.009,0.246,0.81,1.042,0.796,1.752C281.624,258.537,281.939,257.689,281.921,256.993z"/>
<path fill="#897D7C" d="M272.489,230.261c-1.072-0.259-0.833-1.055-0.737-1.792C272.754,228.753,272.464,229.573,272.489,230.261z"
	/>
<path fill="#241C19" d="M208.647,151.504c0.001,1.13,0.002,2.26,0.003,3.389C208.049,153.765,208.054,152.635,208.647,151.504z"/>
<path fill="#736766" d="M230.896,236.111c1.066,0.258,0.749,1.091,0.749,1.794C230.635,237.624,230.825,236.843,230.896,236.111z"/>
<path fill="#5A616A" d="M323.569,366.363c-0.033,0.682,0.317,1.539-0.779,1.747c0.01-0.555,0.018-1.11,0.027-1.665
	C323.038,366.143,323.292,366.146,323.569,366.363z"/>
<path fill="#51565C" d="M383.644,319.985c1.086,0.23,0.75,1.073,0.762,1.767c-0.283,0.214-0.537,0.211-0.76-0.09
	C383.646,321.103,383.646,320.544,383.644,319.985z"/>
<path fill="#847977" d="M364.448,97.318c-0.02,0.343-0.037,0.686-0.055,1.029c-0.764-0.188-1.07-0.744-0.688-1.36
	C364.015,96.493,364.382,96.776,364.448,97.318z"/>
<path fill="#352A28" d="M364.519,99.397c0.348,1.098,0.436,2.195-0.014,3.29C364.511,101.591,364.515,100.494,364.519,99.397z"/>
<path fill="#231A18" d="M330.06,128.083c-0.551-0.939-1.717-0.07-2.342-0.795C328.456,127.68,329.806,126.265,330.06,128.083z"/>
<path fill="#221916" d="M223.247,213.469c0.25,0.621,0.501,1.242,0.75,1.862c-0.146,0.173-0.294,0.347-0.441,0.52
	c-0.269-0.458-0.537-0.917-0.805-1.375C222.714,214.041,222.83,213.681,223.247,213.469z"/>
<path fill="#5C626C" d="M343.224,358.363c-0.064-0.62-0.113-1.231,0.744-1.35c0.004,0.418,0.01,0.836,0.014,1.254
	C343.761,358.558,343.507,358.563,343.224,358.363z"/>
<path fill="#37393D" d="M343.224,358.363c0.252-0.032,0.504-0.063,0.758-0.096c0.07,0.624,0.1,1.223-0.736,1.352
	C343.237,359.2,343.229,358.782,343.224,358.363z"/>
<path fill="#3D3F43" d="M323.569,366.363c-0.25,0.025-0.501,0.053-0.752,0.082c-0.099-0.641-0.092-1.224,0.744-1.353
	C323.563,365.516,323.566,365.939,323.569,366.363z"/>
<path fill="#898685" d="M181.007,344.658c0.099,0.65,0.018,1.198-0.765,1.348C180.096,345.329,180.252,344.823,181.007,344.658z"/>
<path fill="#241C19" d="M212.908,149.521c-0.407,0.081-0.814,0.16-1.221,0.24c0.135-0.425,0.268-0.851,0.402-1.276l-0.014,0.012
	C212.705,148.553,212.98,148.895,212.908,149.521z"/>
<path fill="#5E482F" d="M149.574,143.009c-0.033-0.615-0.039-1.213,0.781-1.326C150.459,142.34,150.403,142.903,149.574,143.009z"/>
<path fill="#5E482F" d="M150.352,141.312c-0.843-0.13-0.82-0.731-0.744-1.362C150.427,140.092,150.449,140.67,150.352,141.312z"/>
<path fill="#C6B7B6" d="M160.561,159.174c-0.889-0.089-0.767-0.755-0.77-1.35C161.065,157.693,160.471,158.628,160.561,159.174z"/>
<path fill="#59442C" d="M149.603,137.076c-0.08-0.645-0.067-1.235,0.781-1.338C150.433,136.365,150.412,136.95,149.603,137.076z"/>
<path fill="#AFAEAD" d="M322.827,350.738c-0.176-0.673-0.108-1.224,0.705-1.4C323.583,349.948,323.812,350.647,322.827,350.738z"/>
<path fill="#433937" d="M506.147,271.921c0.018-0.428,0.039-0.856,0.057-1.284c0.338,0.068,0.697,0.127,0.732,0.564
	C506.983,271.768,506.562,271.847,506.147,271.921z"/>
<path fill="#3F4247" d="M384.376,269.868c-0.818-0.161-0.809-0.753-0.715-1.385C384.503,268.631,384.487,269.225,384.376,269.868z"
	/>
<path fill="#716564" d="M118.919,267.665c0.47,0.153,0.93,0.321,0.841,0.959c-0.065,0.47-0.401,0.473-0.762,0.419
	C118.972,268.584,118.946,268.124,118.919,267.665z"/>
<path fill="#8D8986" d="M352.606,178.662c0.566-0.273,0.168-0.857,0.4-1.237c0.135,0.438,0.295,0.869,0.389,1.316
	c0.051,0.235,0.039,0.614-0.34,0.519C352.868,179.212,352.755,178.87,352.606,178.662z"/>
<path fill="#241C17" d="M320.226,317.218c0.389,0.895,0.332,1.851,0.374,2.789C319.841,319.163,320.322,318.151,320.226,317.218z"/>
<path fill="#312825" d="M334.153,164.658c0.248-0.863-0.018-1.815,0.463-2.635C334.575,162.92,335.079,163.914,334.153,164.658z"/>
<path fill="#2E3034" d="M383.646,321.661c0.256,0.029,0.506,0.058,0.76,0.088c0.002,0.418,0.006,0.835,0.01,1.251
	C383.556,322.898,383.579,322.293,383.646,321.661z"/>
<path fill="#4F565E" d="M343.978,333.995c0.076,0.646,0.074,1.248-0.787,1.346C343.169,334.726,343.118,334.094,343.978,333.995z"/>
<path fill="#A8A6A3" d="M329.042,161.773c-0.52,0.301-0.17,0.875-0.396,1.269c-0.393-0.379-0.346-0.89-0.387-1.365
	c-0.021-0.244-0.069-0.645,0.334-0.549C328.784,161.175,328.896,161.548,329.042,161.773z"/>
<path fill="#4E535A" d="M363.655,345.602c-0.086-0.641-0.09-1.238,0.756-1.362C364.493,344.88,364.464,345.458,363.655,345.602z"/>
<path fill="#BFBCB9" d="M344.56,150.973c-0.18,0.175-0.357,0.351-0.537,0.526c-0.246-0.244-1.006-0.228-0.656-0.746
	C343.673,150.304,344.216,150.564,344.56,150.973z"/>
<path fill="#241C19" d="M207.331,149.384c0.053,0.455-0.268,1.067,0.511,1.218c-0.144,0.259-0.419,0.454-0.613,0.215
	C206.853,150.355,206.914,149.836,207.331,149.384z"/>
<path fill="#43464D" d="M376.792,250.643c0.17-0.153,0.34-0.305,0.508-0.458c0.332,0.24,0.838,0.667,0.586,0.92
	C377.442,251.553,377.089,250.993,376.792,250.643z"/>
<path fill="#ABA7A4" d="M340.243,194.868c0.148-0.15,0.297-0.298,0.445-0.449c0.359,0.438,0.643,0.948,0.137,1.379
	C340.716,195.89,340.282,195.3,340.243,194.868z"/>
<path fill="#5F5855" d="M352.946,162.194c0.338,0.002,0.398-0.266,0.492-0.502c0.299,0.102,0.811,0.195,0.586,0.576
	C353.769,162.702,353.272,162.755,352.946,162.194z"/>
<path fill="#9A9592" d="M210.109,162.804c0.405,0.56,0.32,1,0.156,1.459C209.721,163.908,209.87,163.454,210.109,162.804z"/>
<path fill="#221A15" d="M351.144,494.444c3.139-0.549,6.307-0.71,9.484-0.768c1.822,0.829,3.742,0.19,5.609,0.367
	c1.57,0.152,3.178-0.225,4.723,0.575C364.349,494.237,357.749,495.844,351.144,494.444z"/>
<path fill="#221A15" d="M386.185,494.338c-2.461,0-4.926,0-7.389,0c0-0.219,0-0.438,0.002-0.657
	C381.261,493.67,383.724,493.398,386.185,494.338z"/>
<path fill="#221A15" d="M365.485,493.604c4.035-0.638,8.098-0.381,12.152-0.363c-1.676,0.809-3.451,0.294-5.176,0.363
	C370.142,493.697,367.812,493.613,365.485,493.604z"/>
<path fill="#221A15" d="M397.354,492.987c-1.516,0.728-2.795,0.864-4.113,0C394.56,492.987,395.88,492.987,397.354,492.987z"/>
<path fill="#221A15" d="M388.103,493.929c1.473-0.948,2.354-0.819,3.219,0C390.45,493.929,389.577,493.929,388.103,493.929z"/>
<path fill="#221A15" d="M353.034,495.036c-0.027,0.187-0.012,0.285-0.051,0.32c-0.781,0.697-1.703,0.353-2.578,0.305
	c-0.031-0.002-0.113-0.504-0.053-0.535C351.237,494.696,352.13,494.914,353.034,495.036z"/>
<path fill="#221A15" d="M381.237,493.178c2.041-0.492,4.115-0.389,6.184-0.355C385.401,493.628,383.296,493.021,381.237,493.178z"/>
<path fill="#221A15" d="M388.981,492.736c1.152-0.434,2.354-0.337,3.547-0.33C391.405,493.149,390.165,492.645,388.981,492.736z"/>
<path fill="#221A15" d="M393.604,492.316c1.063-0.12,2.123-0.241,3.184-0.363C395.802,492.732,394.667,492.206,393.604,492.316z"/>
<path fill="#221A15" d="M345.849,496.24c-0.115,0.416-0.424,0.378-0.67,0.339c-0.15-0.024-0.398-0.233-0.381-0.316
	c0.059-0.308,0.328-0.454,0.621-0.376C345.589,495.933,345.718,496.127,345.849,496.24z"/>
<path fill="#221A15" d="M348.073,494.859c0.73-0.442,1.541-0.34,2.336-0.331c0,0.126,0,0.253,0,0.377
	C349.63,494.891,348.853,494.875,348.073,494.859z"/>
<path fill="#221A15" d="M193.323,283.425c-0.385,0.848-0.771,1.696-1.156,2.543c-2.841-3.193-5.308-6.672-7.788-10.388
	c1.298,5.76,2.57,11.309,3.876,16.852c0.157,0.668,0.546,1.333,0.073,2.027c-0.626,0.432-0.555,0.979-0.094,1.413
	c1.648,1.559,0.639,2.305-0.842,2.938c-1.792-3.218-1.974-6.882-2.813-10.357c-1.127-4.671-1.904-9.431-3.16-14.065
	c-0.925-3.413-1.881-6.835-3.704-9.985c-2.833-4.898-4.924-10.144-6.831-15.49c-1.168-3.274-2.085-6.509-2.233-9.966
	c-0.357-0.892,0.072-1.875-0.325-2.762c1.008-1.072,2.361-1.405,3.717-1.73c0.967-0.02,2.098-0.552,2.612,0.839
	c-1.123,0.21-2.069,1.041-3.282,0.934c-0.439,0.417-1.312,0.331-1.371,1.187c0.001,0.477-0.063,0.933-0.372,1.319
	c-0.09,0.367-0.1,0.707,0.31,0.903c0.488,0.282,0.468,0.902,0.841,1.262c1.744,7.396,4.209,14.561,8.078,21.098
	c3.542,5.986,7.498,11.735,11.418,17.489C191.2,280.837,192.449,281.999,193.323,283.425z"/>
<path fill="#1E1612" d="M261.035,500.382c-7.268,1.889-14.683,3.028-22.089,4.173c-14.938,2.307-29.955,3.675-45.085,3.063
	c-14.81-0.604-29.252-3.038-42.918-9.124c-1.612-0.718-3.265-1.348-4.81-2.205c-0.566-0.314-1.387-0.422-1.39-1.7
	c2.175,0.915,4.232,1.706,6.23,2.629c9.354,4.322,19.295,6.454,29.424,7.797c11.06,1.467,22.18,1.708,33.298,0.883
	c12.008-0.892,23.945-2.406,35.767-4.742c2.841-0.561,5.695-1.061,8.542-1.589C259.124,499.436,260.294,499.11,261.035,500.382z"/>
<path fill="#221A17" d="M249.562,417.484c-9.054,0.095-17.867,1.663-26.499,4.342c-0.941,0.294-1.908,0.503-2.862,0.751
	c-0.666-0.043-1.235-0.231-1.454-0.953c8.228-3.19,16.739-5.057,25.537-5.845c16.633-1.492,32.761,1.087,48.667,5.663
	c0.726,0.209,1.993,0.325,1.613,1.502c-0.311,0.96-1.411,0.5-2.069,0.297c-5.896-1.813-11.883-3.254-17.959-4.266
	c-5.303-0.883-10.632-1.7-16.044-1.511C255.515,417.803,252.539,417.773,249.562,417.484z"/>
<path fill="#211815" d="M261.035,500.382c-0.95-0.496-1.974-0.714-3.03-0.817c8.03-1.959,16.073-3.864,24.084-5.896
	c5.962-1.512,11.888-3.159,17.816-4.799c9.127-2.527,18.241-5.106,27.364-7.65c0.646-0.18,1.574-0.7,1.882,0.155
	c0.336,0.938-0.777,1.005-1.364,1.181c-7.856,2.351-15.698,4.758-23.598,6.957c-10.079,2.808-20.18,5.543-30.326,8.092
	C269.629,498.67,265.412,499.928,261.035,500.382z"/>
<path fill="#221A17" d="M174.656,235.293c-0.871-0.279-1.741-0.559-2.611-0.839c5.967-2.547,11.943-5.074,17.898-7.651
	c6.601-2.855,13.188-5.743,19.767-8.649c3.676-1.624,7.298-3.373,11.004-4.922c0.704-0.295,1.87-1.534,2.532,0.238
	c-0.065,0.385-0.112,0.779-0.496,1.006c-1.159,0.317-2.201,0.881-3.253,1.452c-9.326,5.06-19.216,8.833-29.034,12.779
	c-3.862,1.554-7.662,3.255-11.498,4.872C177.541,234.178,176.206,235.007,174.656,235.293z"/>
<path fill="#1F1714" d="M218.747,421.624c0.484,0.318,0.969,0.637,1.454,0.953c-6.73,2.738-13.295,5.81-19.467,9.673
	c-0.24,0.149-0.483,0.295-0.71,0.464c-5.059,3.711-10.242,7.269-14.75,11.67c-2.158,2.106-4.127,4.374-5.12,7.31
	c-0.246,0.975-0.3,1.948-0.001,2.923c-0.247,0.836,0.778,1.053,0.942,1.679c-0.67,0.477-0.98,0.109-1.273-0.329
	c-1.45-2.15-1.296-6.067,0.439-8.001c2.774-3.094,5.587-6.164,8.804-8.806C198.047,431.786,207.674,425.476,218.747,421.624z"/>
<path fill="#1F1713" d="M196.751,358.294c0.553-0.64,1.117-0.388,1.625-0.292c10.097,1.92,19.973,0.887,29.758-2.019
	c5.304-1.574,10.269-3.959,15.386-5.979c0.487-0.192,1.116-0.766,1.482-0.072c0.354,0.67-0.409,0.956-0.886,1.188
	c-14.278,6.912-29.073,10.96-45.106,8.106C198.205,359.083,197.381,358.975,196.751,358.294z"/>
<path fill="#211915" d="M207.317,350.274c0.769-1.153,1.907-0.357,2.858-0.544c0.762-0.286,1.603,0.043,2.356-0.302
	c6.887-1.29,13.468-3.659,20.144-5.695c0.635-0.194,1.542-0.905,1.857-0.129c0.345,0.848-0.781,0.954-1.408,1.149
	c-6.262,1.938-12.378,4.41-18.936,5.276c-1.185,0.155-2.389,0.178-3.583,0.26C209.509,350.497,208.413,350.526,207.317,350.274z"/>
<path fill="#221A17" d="M224.441,286.749c-0.326-0.528-0.463-0.993,0.256-1.355c0.329-0.166,0.528-0.479,0.044-0.763
	c0.817-0.545,1.826-1.761,2.594-0.568c0.655,1.017-0.817,1.554-1.581,2.096C225.371,286.43,224.882,286.557,224.441,286.749z"/>
<path fill="#F0F0F2" d="M204.946,360.534c2.798,0,5.595,0,8.392,0c0.001,0.07,0.002,0.141,0.002,0.21c-2.777,0-5.555,0-8.333,0
	C204.988,360.675,204.967,360.604,204.946,360.534z"/>
<path fill="#F7F8FA" d="M249.562,417.484c2.976-0.264,5.952-0.274,8.928-0.018C255.515,418.146,252.539,418.127,249.562,417.484z"/>
<path fill="#EFEFF0" d="M169.631,238.731c-0.045-0.568-0.09-1.138-0.136-1.706c0.253-1.101,1.014-0.54,1.617-0.493
	C170.859,237.427,171.256,238.76,169.631,238.731z"/>
<path fill="#221A17" d="M210.826,288.986c-1.699,0.61-3.396,0.615-5.093-0.002C207.431,288.986,209.128,288.986,210.826,288.986z"/>
<path fill="#201916" d="M255.226,495.067c-1.417,0.564-2.829,0.381-4.241,0.142C252.402,494.688,253.813,494.906,255.226,495.067z"
	/>
<path fill="#312B28" d="M207.317,350.274c1.097,0.005,2.192,0.009,3.287,0.014C209.509,350.542,208.411,350.988,207.317,350.274z"/>
<path fill="#2A221E" d="M171.113,236.533c-0.596-0.021-1.267-0.294-1.617,0.493c0.053-1.61,1.234-0.576,1.878-0.8
	C171.279,236.322,171.193,236.424,171.113,236.533z"/>
<path fill="#EAEBEC" d="M180.152,454.615c-0.433-0.974-0.527-1.946,0.001-2.921C180.153,452.668,180.152,453.641,180.152,454.615z"
	/>
<path fill="#221A17" d="M204.233,290.268c0.927,0.073,1.919-0.383,2.763,0.348C206.059,290.621,205.106,290.758,204.233,290.268z"/>
<path fill="#221A17" d="M211.689,290.608c0.833-0.71,1.809-0.277,2.723-0.337C213.55,290.748,212.611,290.62,211.689,290.608z"/>
<path fill="#7D7A78" d="M170.782,240.896c-0.771-0.094-0.799-0.682-0.84-1.263C170.853,239.636,170.888,240.219,170.782,240.896z"/>
<path fill="#312B28" d="M212.533,349.429c-0.715,0.648-1.552,0.34-2.355,0.302C210.961,349.63,211.747,349.529,212.533,349.429z"/>
<path fill="#221A17" d="M381.14,284.544c0.092,1.464-0.213,2.803-1.754,3.486c-1.6,0.71-2.83,0.033-4-1.063
	c-1.387-1.298-2.363-2.729-2.441-4.717c-0.074-1.887,0.646-3.108,2.477-3.674c1.859-0.574,3.33-0.113,4.428,1.517
	C380.749,281.427,381.192,282.887,381.14,284.544z"/>
<path fill="#211A18" d="M366.079,261.977c-0.033-2.134,0.457-3.778,2.52-4.353c1.408-0.393,3.691,0.996,4.469,2.595
	c0.465,0.959,0.725,1.979,0.729,3.057c0.006,1.739-0.436,3.271-2.229,3.929c-1.723,0.634-3.615-0.233-4.664-2.008
	C366.278,264.139,366.028,262.98,366.079,261.977z"/>
<path fill="#211A18" d="M446.487,263.854c1.873-0.035,2.973,0.965,3.002,2.726c0.031,2.003-1.459,3.646-3.311,3.65
	c-1.84,0.003-3.285-1.319-3.375-3.086C442.702,265.095,444.04,263.9,446.487,263.854z"/>
<path fill="#2A221E" d="M168.328,236.183c0.686,0.853,0.3,1.831,0.324,2.762C168.245,238.06,168.238,237.127,168.328,236.183z"/>
<path fill="#221A17" d="M361.515,104.775c-0.33,1.001-1.168,1.053-1.885,1.267c-5.242,1.567-10.24,3.635-14.592,7.047
	c-0.33,0.259-0.709,0.497-1.105,0.616c-0.432,0.13-1.004,0.431-1.281-0.225c-0.201-0.473,0.162-0.845,0.502-1.06
	c4.332-2.739,8.277-6.193,13.424-7.444C358.181,104.585,359.812,103.948,361.515,104.775z"/>
<path fill="#231A17" d="M360.507,120.557c-4.588-1.202-9.529-1.567-14.357-2.549c-0.553-0.112-1.258-0.174-1.182-0.912
	c0.076-0.767,0.74-0.969,1.436-0.881c4.955,0.63,9.971,0.917,14.75,2.555c0.572,0.196,1.381,0.398,1.17,1.224
	C362.118,120.796,361.327,120.568,360.507,120.557z"/>
<path fill="#231A18" d="M368.437,128.553c1.797-1.398,3.783-1.732,5.727-2.136c0.688-0.143,1.404-0.156,2.111-0.184
	c1.158-0.045,2.348-0.01,2.912,1.233c0.535,1.174,0.018,2.234-0.723,3.131c-1.254,1.524-2.871,2.45-4.842,2.779
	c-0.615,0.104-1.215,0.178-1.385-0.507c-0.145-0.575,0.438-0.83,0.898-1.005c1.314-0.501,2.674-0.912,3.674-1.986
	c0.471-0.507,1.205-0.999,0.934-1.765c-0.293-0.821-1.189-0.632-1.859-0.612c-1.625,0.046-3.215,0.302-4.766,0.862
	C370.382,128.628,369.62,129.194,368.437,128.553z"/>
<path fill="#241C19" d="M379.937,136.707c0-0.372,0.008-0.3,0-0.23c-0.176,1.478-0.236,3.094-1.934,3.672
	c-0.859,0.294-1.135-0.575-1.336-1.274c-0.494-1.701,0.18-4.242,1.287-4.84C379.161,133.384,379.981,134.304,379.937,136.707z"/>
<path fill="#221A15" d="M203.539,176.598c-0.846,2.646-3.163,3.916-5.257,5.22c-5.317,3.311-11.035,4.655-17.186,2.525
	c-3.004-1.041-4.789-3.299-5.834-6.214c-0.072-0.199-0.185-0.414-0.165-0.61c0.103-0.979-1.563-1.509-0.698-2.639
	c0.781-1.021,1.991-1.38,3.155-1.595c8.679-1.604,17.37-3.142,26.054-4.714c1.248-0.226,1.713,0.437,1.754,1.509
	c0.06,1.562-0.09,3.102-0.875,4.509c-0.75-0.732-2.131-0.005-2.696-1.167c0.076-0.549,0.816-1.002,0.449-1.548
	c-0.428-0.636-1.189-0.312-1.771-0.182c-6.69,1.496-13.493,2.356-20.228,3.596c-0.763,0.141-1.522,0.329-2.237,0.641
	c-0.589,0.26-1.25,0.553-1.016,1.368c0.194,0.67,0.812,0.694,1.405,0.629c0.421-0.047,0.836-0.138,1.26-0.163
	c0.733-0.037,1.476,0.022,2.171-0.29c0.846-0.08,1.734-1.44,2.531,0.075c0.117,0.63-0.046,1.147-0.605,1.505
	c-1.142,0.55-2.361,0.689-3.605,0.678c-0.587-0.005-1.177-0.065-1.768-0.07c-0.284-0.002-0.477,0.047-0.192,0.033
	c0.02-0.001,0.044,0.07,0.083,0.115c1.322,1.315,2.941,2.04,4.683,2.549c0.577,0.17,1.261,0.146,1.592,0.799
	c1.328,0.515,2.788-0.143,4.119,0.455c0.235,0.105-0.134,0.005,0.141-0.066c-0.235,0.104-0.427,0.006-0.613-0.13
	c0.03-0.796,0.663-0.842,1.204-0.913c4.032-0.521,7.364-2.348,10.119-5.311c0.573-0.616,1.211-1.194,2.01-1.537
	C202.304,175.73,203.088,175.808,203.539,176.598z"/>
<path fill="#221A17" d="M166.676,151.509c0.346-2.95,0.724-5.72,3.868-6.86c3.281-1.19,5.628-0.426,8.209,2.564
	c0.551,0.639,1.056,1.362,1.73,1.833c0.509,0.354,0.712,0.716,0.542,1.196c-0.243,0.673-0.923,0.541-1.437,0.475
	c-0.81-0.102-1.372-0.722-1.927-1.242c-2.845-2.668-9.2-0.312-9.228,3.509c-0.001,0.278-0.11,0.554-0.139,0.833
	c-0.047,0.455-0.205,0.907-0.676,0.952c-0.571,0.053-0.593-0.507-0.654-0.899C166.835,153.035,166.757,152.192,166.676,151.509z"/>
<path fill="#221A16" d="M191.199,145.834c0.247-4.877,5.161-8.027,9.707-6.311c1.847,0.698,2.46,2.238,2.974,3.84
	c0.303,0.946-0.328,1.346-1.211,0.985c-0.768-0.313-1.459-0.807-2.199-1.193c-3.28-1.711-6.278-0.645-7.769,2.77
	c-0.222,0.507-0.277,1.218-1.022,1.114C190.994,146.943,191.179,146.313,191.199,145.834z"/>
<path fill="#231A17" d="M198.864,153.788c-0.107,1.244,0.552,2.295,0.831,3.441c0.116,0.481,0.394,1.208-0.286,1.493
	c-0.677,0.285-1.046-0.3-1.245-0.835c-0.737-1.985-1.542-3.96-1.496-6.139c0.028-1.318,0.168-2.665,1.619-3.153
	c1.636-0.55,2.542,0.882,3.157,1.867c1.165,1.865,1.343,4.129,1.636,6.301c0.06,0.445-0.055,0.904-0.545,1.019
	c-0.401,0.094-0.674-0.126-1.019-0.472c-1.739-1.745-1.255-4.246-2.261-6.22C198.593,151.768,198.565,151.962,198.864,153.788z"/>
<path fill="#221917" d="M174.625,154.49c-1.111,2.897-0.153,5.119,0.558,7.391c0.214,0.685,1.369,1.653,0.168,2.134
	c-0.891,0.357-1.242-0.901-1.574-1.646c-0.962-2.159-1.575-4.395-1.318-6.795c0.128-1.21,0.556-2.275,1.845-2.56
	c1.321-0.292,2.132,0.559,2.645,1.644c0.822,1.736,1.36,3.569,1.589,5.479c0.053,0.446,0.249,1.076-0.45,1.225
	c-0.604,0.128-0.899-0.357-1.059-0.832c-0.543-1.608-1.029-3.235-1.575-4.843C175.35,155.38,175.077,155.131,174.625,154.49z"/>
<path fill="#221A15" d="M203.539,176.598c-0.413-0.546-1.625,0.454-1.644-0.85c-0.998-0.922-2.025-0.248-2.982,0.024
	c-2.729,0.773-5.372,1.822-8.102,2.595c-1.093,0.309-2.201,0.576-3.352,0.438c-0.49-0.06-1.122-0.097-1.236-0.641
	c-0.125-0.601,0.519-0.762,0.95-0.944c0.849-0.358,1.738-0.617,2.62-0.879c3.126-0.929,6.186-2.076,9.346-2.893
	c0.883-0.229,1.782-0.584,2.629,0.118c0.92,0.305,2.225-0.414,2.722,1.021C204.171,175.258,203.854,175.928,203.539,176.598z"/>
<path fill="#221917" d="M192.639,166.743c-1.385,0.07-2.485,2.013-3.146,0.208c-0.53-1.444,1.074-1.691,2.12-1.98
	c1.334-0.368,3.1-1.074,3.833,0.359c0.683,1.335-1.227,1.928-2.028,2.82c-0.139,0.155-0.316,0.281-0.493,0.396
	c-0.452,0.292-0.952,0.909-1.464,0.412c-0.606-0.588,0.202-0.94,0.49-1.355C192.097,167.388,192.274,167.195,192.639,166.743z"/>
<path fill="#322926" d="M203.677,166.402c0,0.473-0.215,0.87-0.678,0.885c-0.461,0.015-0.707-0.377-0.739-0.835
	c-0.033-0.477,0.192-0.849,0.671-0.869C203.418,165.563,203.637,165.936,203.677,166.402z"/>
<path fill="#EEDEDE" d="M198.864,153.788c-0.486-1.015-0.667-2.033-0.009-3.048c0.013-0.02,0.15,0.002,0.189,0.044
	c0.084,0.088,0.142,0.204,0.21,0.308C198.608,151.916,199.076,152.901,198.864,153.788z"/>
<path fill="#FFFFFF" d="M188.328,294.457c-1.947-6.619-3.17-13.406-4.412-20.311c1.412,1.976,2.79,3.979,4.247,5.922
	c0.998,1.329,1.788,2.816,3.163,3.87c0.572,0.438,1.086,1.137,0.842,2.027c-1.134,2.454-2.452,4.836-3.004,7.521
	C189.062,293.979,189.039,294.505,188.328,294.457z"/>
<path fill="#221A17" d="M215.007,289.247c1.189-0.391,1.821-0.938,2.791-0.526C217.016,289.078,216.377,289.443,215.007,289.247z"/>
<path fill="#221A17" d="M207.75,290.086c1.124-0.339,1.654-0.37,2.575,0C209.404,290.086,208.869,290.086,207.75,290.086z"/>
<path fill="#413E3F" d="M379.335,283.786c0.068,0.997,0.041,2.065-0.99,2.37c-1.074,0.316-1.822-0.521-2.338-1.387
	c-0.541-0.902-1.027-1.843-0.924-2.969c0.074-0.814-0.207-1.836,0.898-2.111c1.059-0.265,1.93,0.248,2.486,1.166
	C379.017,281.76,379.487,282.712,379.335,283.786z"/>
<path fill="#413F40" d="M372.552,262.656c0.035,1.429,0.012,2.94-1.598,3.102c-1.641,0.165-2.719-0.92-3.068-2.588
	c-0.014-0.068-0.012-0.14-0.021-0.207c-0.223-1.384-0.553-2.785,0.742-3.879c0.695-0.589,1.311-0.123,1.951,0.132
	C372.188,259.865,372.663,261.153,372.552,262.656z"/>
<path fill="#3F3D3D" d="M447.405,266.576c-0.002,0.858-0.283,1.455-1.049,1.436c-0.703-0.02-1.422-0.29-1.43-1.207
	c-0.004-0.803,0.648-1.054,1.26-1.176C446.985,265.47,447.29,266.024,447.405,266.576z"/>
<path fill="#898481" d="M378.286,136.443c0.307,0.392,0.236,0.777,0.012,1.148c-0.018,0.027-0.307-0.032-0.35-0.114
	C377.71,137.035,377.849,136.689,378.286,136.443z"/>
<path fill="#FFFFFF" d="M201.765,173.567c-4.174,0.487-7.967,2.314-11.972,3.398c-1.132,0.307-2.249,0.668-3.335,1.184
	c2.11,0.451,4.043-0.275,5.989-0.881c2.827-0.881,5.642-1.804,8.477-2.66c1.029-0.311,1.644-0.087,0.969,1.141
	c-3.644,4.229-8.107,6.973-13.741,7.599c-1.19,0.44-2.379,0.452-3.566-0.006c-2.492-0.886-5.406-0.994-6.891-3.737
	c0.655-0.517,1.506,0.021,2.179-0.405c1.241,0.138,2.426-0.196,3.626-0.421c0.215-0.172,0.485,0.995,0.665-0.026
	c0.082-0.459,0.173-0.92-0.122-1.346c-0.973-0.935-1.247,1.132-2.15,0.501c-0.671,0.439-1.51-0.084-2.177,0.38
	c-1.177-0.241-2.694,1.445-3.553-0.705c-0.386-0.967-0.402-1.464,0.722-1.901c2.664-1.036,5.476-1.293,8.244-1.794
	c5.334-0.968,10.67-1.935,16.018-2.818c0.669-0.111,1.706-1.092,2.118,0.182C203.638,172.397,202.942,173.228,201.765,173.567z"/>
<path fill="#18120F" d="M184.587,183.342c1.189,0.001,2.377,0.004,3.566,0.006c0.276,0.05,0.553,0.1,0.83,0.149
	c0.007,0.103,0.014,0.206,0.021,0.309c-1.626,0-3.255,0.031-4.877-0.055C183.99,183.742,184.388,183.452,184.587,183.342z"/>
<path fill="#2E2622" d="M184.043,177.405c0.411,0.363,0.433,0.872,0.382,1.334c-0.062,0.565,0.747,1.466-0.095,1.609
	c-0.909,0.155-0.649-0.97-0.832-1.571C184.084,178.48,183.979,177.91,184.043,177.405z"/>
<path fill="#2E2622" d="M179.874,179.2c-0.726,0.135-1.453,0.27-2.179,0.405C178.276,178.684,179.145,179.315,179.874,179.2z"/>
<path fill="#2E2622" d="M179.717,178.286c0.669-0.45,1.438-0.328,2.178-0.38C181.262,178.574,180.46,178.265,179.717,178.286z"/>
<path fill="#7C5E3A" d="M169.077,147.633c1.507-2.289,3.692-2.757,5.972-1.073c-2.018,0.267-3.871,0.533-5.475,1.557
	C169.159,148.213,168.966,148.079,169.077,147.633z"/>
<path fill="#59442C" d="M169.077,147.633c0.167,0.161,0.332,0.323,0.498,0.484c-0.32,0.351-0.64,0.703-1.042,1.145
	C168.317,148.45,168.71,148.047,169.077,147.633z"/>
<path fill="#684F32" d="M197.095,140.26c0.625-0.387,1.188-0.29,1.858-0.105C198.319,140.657,197.751,140.481,197.095,140.26z"/>
</svg>
