<?xml version="1.0" encoding="utf-8"?>
<!-- Generator: Adobe Illustrator 16.0.3, SVG Export Plug-In . SVG Version: 6.00 Build 0)  -->
<!DOCTYPE svg PUBLIC "-//W3C//DTD SVG 1.1//EN" "http://www.w3.org/Graphics/SVG/1.1/DTD/svg11.dtd">
<svg version="1.1" id="Layer_1" xmlns="http://www.w3.org/2000/svg" xmlns:xlink="http://www.w3.org/1999/xlink" x="0px" y="0px"
	 width="577.428px" height="593.848px" viewBox="17.287 99.71 577.428 593.848"
	 enable-background="new 17.287 99.71 577.428 593.848" xml:space="preserve">
<path fill="#221A15" d="M303.9,287.806c3.424-13.195,6.832-26.438,12.811-38.733c2.265-4.656,4.406-9.413,6.979-13.975
	c4.194-7.437,10.609-11.214,18.185-13.729c2.362-0.785,4.505-1.981,6.783-2.902c0.973-0.394,1.051-1.242,1.381-1.987
	c1.388-3.137,2.121-6.602,4.741-9.124c0.438-0.421,0.683-1.239,0.689-1.878c0.031-2.578,0.443-4.927,2.838-6.458
	c0.398-0.254,0.319-0.744,0.288-1.176c-0.317-4.409-0.629-8.82-0.96-13.477c-2.553,1.765-4.976,3.543-7.509,5.149
	c-1.326,0.841-3.02,2.438-4.35,1.417c-1.458-1.121,0.121-2.961,0.541-4.438c0.579-2.041,1.312-4.04,2.019-6.043
	c0.476-1.344-0.139-1.537-1.209-1.165c-2.893,1.003-4.964,3.104-6.961,5.299c-0.582,0.641-0.888,1.935-2.054,1.454
	c-0.979-0.404-1.368-1.44-1.401-2.547c-0.077-2.494,1.057-4.607,2.117-6.733c0.599-1.2,1.313-2.341,1.98-3.516
	c-0.258-0.139-0.401-0.288-0.529-0.274c-2.418,0.244-4.807,0.089-5.887-2.464c-1.084-2.559,0.151-4.747,2.134-6.298
	c1.666-1.305,1.373-2.184,0.171-3.586c-3.084-3.603-4.865-7.914-6.625-12.285c-1.555-3.856-1.836-7.644-0.995-11.616
	c0.486-0.439,0.513-1.146,0.937-1.623c1.871-6.666,6.042-11.299,12.421-13.923c5.431-2.234,5.404-2.154,0.896-5.879
	c-0.738-0.61-2.586-0.765-1.974-2.166c0.454-1.041,1.978-0.622,3.033-0.531c3.229,0.279,6.452,0.635,9.676,0.98
	c1.021,0.109,1.657,0.08,1.822-1.308c0.811-6.799,6.096-9.596,11.371-12.307c1.549-0.795,1.736,0.432,1.691,1.537
	c-0.051,1.272-0.351,2.542-0.33,3.81c0.017,1.097,0.24,2.249,1.019,3.105c0.657,0.724,1.362,1.975,2.428,1.43
	c0.892-0.458,0.046-1.542-0.231-2.256c-0.688-1.779,0.416-2.079,1.711-2.291c4.776-0.782,9.5-0.43,14.204,0.613
	c1.157,0.257,2.313,1.179,3.231-0.933c0.536-1.231,2.682-1.735,4.356-1.568c9.39,0.938,18.515,2.836,26.56,8.125
	c9.324,6.128,13.729,15.241,15.249,25.95c0.562,3.96,0.754,7.975,1.049,11.969c0.078,1.059,0.305,2.448-1.277,2.616
	c-1.759,0.187-1.491-1.375-1.558-2.351c-0.271-3.994-2.46-6.669-5.86-9.126c0.665,4.804,0.928,9.193-0.012,13.54
	c-0.421,1.945-0.621,4.018-2.241,5.516c-0.589,0.543-0.537,1.035,0.216,1.588c1.623,1.193,2.512,2.937,3.162,4.809
	c0.217,0.627,0.746,1.368-0.004,1.827c-0.767,0.469-1.328-0.269-1.58-0.861c-0.626-1.466-2.188-2.069-2.944-3.393
	c-0.236-0.415-0.492-1.022-1.116-0.722c-0.538,0.258-0.384,0.807-0.341,1.343c0.418,5.172,0.785,10.349,1.168,15.524
	c-0.288,2.552-0.303,5.104,0.01,7.654c-0.411,7.416-2.732,14.063-8.686,18.796c-4.874,3.875-10.827,4.994-16.933,5.31
	c-2.732,0.141-5.436-0.096-8.12-0.588c-0.564-0.159-0.791-0.012-0.527,0.582c2.257,3.346,5.353,3.846,9.175,3.291
	c6.907-1.004,12.627,1.606,17.212,6.762c0.844,0.949,1.683,1.98,2.212,3.121c4.609,9.93,11.954,18.076,17.797,27.202
	c3.727,5.823,8.186,11.267,12.88,16.362c7.991,8.674,16.287,17.081,24.74,25.307c3.534,3.44,6.771,7.137,10.243,10.617
	c7.396,7.408,15.044,14.491,24.566,19.188c2.066,1.019,4.2,1.8,6.427,2.314c1.247,0.288,1.896,0.847,1.96,2.211
	c0.097,2.036,0.554,4.053-0.007,6.098c-0.276,1.009-0.116,1.79,1.191,2.04c2.159,0.413,4.439,2.074,6.348,1.361
	c2.073-0.774,1.416-3.735,2.026-5.703c1.673-5.395,4.605-10.029,8.193-14.282c1.973-2.335,4.182-2.032,6.035,0.712
	c3.995,5.913,6.404,12.356,6.277,19.507c9.587-1.018,17.542,2.528,24.854,8.14c2.159,1.657,3.983,3.399,3.92,6.382
	c-0.056,2.571-1.098,3.663-3.661,3.964c-4.646,0.545-8.561-1.782-12.728-3.13c-0.62-0.201-1.143-0.835-2.081-0.372
	c0.713,1.258,1.432,2.518,2.143,3.783c0.479,0.855,0.816,1.84,0.12,2.62c-0.586,0.656-1.512,0.577-2.402,0.333
	c-0.799-0.219-1.656-0.223-2.785-0.356c0.895,2.14,1.496,4.069,0.296,5.983c-1.273,2.032-3.371,1.995-5.83,1.94
	c1.424,1.766,2.742,3.157,3.771,4.737c1.337,2.055,3.209,4.595,1.61,6.758c-1.446,1.958-4.396,0.551-6.117-0.341
	c-3.651-1.894-7.585-1.785-11.366-2.662c-6.265-1.453-11.507-4.896-15.813-9.616c-2.276-2.494-3.456-5.618-3.755-9.036
	c-0.142-1.627-2.616-4.212-4.165-4.187c-1.003,0.016-1.57,0.991-2.057,1.814c-1.229,2.084-2.83,3.841-4.699,5.35
	c-0.525,0.424-0.892,0.725-1.899,0.242c-5.811-2.782-11.656-5.463-17.175-8.83c-1.287-0.785-2.643-1.509-3.911-2.337
	c-6.399-4.175-12.595-8.698-19.195-12.521c-5.959-3.452-10.869-8.053-15.915-12.564c-0.255-0.073-0.538-0.638-0.753,0.042
	c2.62,6,5.875,11.716,7.87,18.001c1.871,5.894,3.63,11.853,5.979,17.561c5.139,12.491,8.43,25.486,11.211,38.639
	c0.789,3.733,1.272,7.532,1.896,11.301c0.688,0.756,0.146,1.925,0.896,2.659c-0.104,2.37,0.812,4.891-1.098,6.995
	c-0.696,0.769-1.377,1.654-2.382,1.854c-2.285,0.45-1.881,1.612-1.249,3.241c4.853,12.538,9.967,24.988,15.878,37.043
	c3.75,7.648,7.15,15.504,11.413,22.89c4.689,8.13,8.362,16.801,13.144,24.844c4.2,7.066,7.387,14.632,11.521,21.693
	c4.923,8.405,8.61,17.403,13.061,26.024c1.771,3.437,3.391,6.924,5.023,10.415c0.322,0.69,0.682,1.388,0.854,2.122
	c0.902,3.826,0.884,3.832,4.227,1.593c7.405-4.963,14.31-10.588,21.346-16.042c4.934-3.823,10.397-6.705,16.533-8.159
	c0.166-0.038,0.327-0.111,0.495-0.123c8.059-0.595,9.325,1.049,8.738,8.503c-0.444,5.657-2.493,10.874-5.955,15.232
	c-4.296,5.409-8.712,10.772-14.353,14.979c-3.344,2.491-6.209,5.616-9.512,8.171c-4.612,3.564-8.229,8.105-12.43,12.057
	c-3.517,3.308-6.669,7.067-10.724,9.752c-5.255,3.478-10.843,6.069-17.433,5.1c-3.124-0.462-4.289-1.565-5.004-4.702
	c-0.184-0.803,0.091-1.729-0.797-2.569c-2.317,3.093-5.935,4.412-8.861,6.685c-1.336,1.035-1.929,0.485-2.532-0.662
	c-0.832-1.579-1.604-3.195-2.52-4.727c-5.44-9.09-9.69-18.789-14.562-28.168c-4.568-8.798-7.979-18.098-12.415-26.918
	c-4.645-9.229-7.815-19.062-12.211-28.359c-4.666-9.871-7.897-20.32-12.497-30.177c-4.659-9.982-7.854-20.502-12.144-30.594
	c-5.857-13.777-9.457-28.168-12.899-42.666c-1.013-4.261-1.563-8.579-2.596-12.854c-1.095-0.027-1.006,0.971-1.279,1.567
	c-1.521,3.318-2.803,6.751-4.8,9.838c-2.161,3.343-5.14,5.423-9.184,5.522c-1.603,0.04-2.028,0.803-2.239,2.111
	c-1.285,7.979-2.591,15.951-3.89,23.927c-0.357,0.523-0.447,1.182-0.842,1.688c-1.934,13.143-3.471,26.325-4.535,39.568
	c-1.064,13.229-0.869,26.396,1.207,39.526c0.955,6.041,1.604,12.166,3.272,18.038c2.432,8.55,3.897,17.298,5.946,25.921
	c0.675,2.843,3.215,3.663,5.224,4.813c8.123,4.644,16.889,7.768,25.842,10.433c8.047,2.396,16.35,3.835,24.28,6.644
	c2.969,1.052,4.685,2.937,4.765,5.331c0.074,2.226-1.783,4.523-4.474,5.667c-3.359,1.429-6.742,2.763-10.385,3.292
	c-1.409-0.359-3.084,0.085-4.136-1.362c0.019-1.415,1.239-1.179,2.034-1.389c3.793-0.998,7.687-1.667,11.182-3.596
	c0.973-0.536,2.125-0.97,2.151-2.293c0.025-1.379-1.188-1.737-2.173-2.221c-2.154-1.056-4.394-1.846-6.752-2.347
	c-10.364-2.202-20.635-4.813-30.487-8.729c-12.751-5.068-24.355-11.916-33.196-22.763c-1.883-2.311-4.074-4.352-5.771-6.84
	c-2.071-3.039-3.959-6.031-4.731-9.79c-1.247-6.065-4.436-11.404-7.225-16.875c-5.238-10.274-12.522-19.143-19.71-28.007
	c-6.27-7.731-13.068-15.048-20.025-22.202c-8.142-8.372-16.387-16.646-24.471-25.067c-5.542-5.773-11.162-11.481-16.643-17.321
	c-8.644-9.211-16.901-18.723-25.011-28.396c-4.68-5.583-8.502-11.751-12.986-17.438c-4.008-5.083-7.122-10.616-9.569-16.558
	c-1.598-3.883-2.432-7.974-3.273-12.081c-0.548-2.675-1.099-5.313-1.134-8.049c0.237-1.814,0.24-3.612-0.304-5.384
	c-0.359-3.975-0.155-7.956-0.141-11.933c0.003-0.916,0.046-1.89,0.963-2.479c1.138,0.386,0.786,1.379,0.805,2.156
	c0.053,2.209,0.021,4.42,0.026,6.63c0.058-9.148-0.6-18.297,0.046-27.444c-0.176,1.09,0.216,2.236-0.405,3.277
	c-1.875-0.099-1.344-1.626-1.364-2.587c-0.17-8.02-1.142-15.937-2.745-23.791c-1.007-4.934-2.414-9.739-4.278-14.416
	c-0.438-1.1-1.002-2.175-0.889-3.422c0.1-0.444,0.292-0.812,0.789-0.913c0.934,0.236,1.335,1.011,1.68,1.777
	c3.345,7.439,6.035,15.087,7.323,23.176c-0.076,0.922,0.207,1.741,0.736,2.489c1.228,3.597,1.42,7.385,1.697,11.1
	c0.797,10.717,1.097,21.453,0.243,32.197c-0.229,2.885-0.26,5.786-0.575,8.672c-0.138,1.262-0.147,2.567,0.245,3.812
	c0.589,1.874,1.434,2.253,2.977,1.035c5.157-4.069,10.139-8.339,14.816-12.971c5.46-5.406,10.396-11.258,15.364-17.104
	c2.688-3.164,5.083-6.44,6.66-10.241c0.933-2.249,2.366-3.183,4.716-3.005c1.018,0.077,2.047,0.016,3.072-0.008
	c2.233-0.054,4.15-0.915,5.826-2.334c2.095-1.775,2.167-2.535,0.543-4.74c-1.93-2.622-1.927-2.62-3.538,0.183
	c-0.596,1.036-1.167,2.098-2.13,2.854c-0.648,0.509-1.405,0.781-2.091,0.164c-0.608-0.547-0.48-1.318,0.005-1.852
	c2.016-2.216,1.987-4.767,1.404-7.463c-0.18-0.83-0.246-1.739-0.044-2.548c0.606-2.429,0.259-4.679-0.958-6.829
	c-0.054-0.909-0.295-1.756-0.849-2.499c-1.323-2.389-1.282-5.097-1.815-7.673c-0.6-2.901-3.267-4.428-5.994-3.511
	c-1.264,0.425-1.693,1.056-0.749,2.232c1.554,1.937,2.8,4.066,3.969,6.258c1.295,2.429,1.276,4.669-0.311,6.967
	c-1.521,2.203-2.357,4.697-2.901,7.326c-0.545,2.642-0.288,5.173,1.083,7.421c1.504,2.466,1.073,4.5-0.701,6.511
	c-4.756,5.397-9.989,10.259-16.04,14.183c-3.221,2.089-6.456,4.181-9.929,5.826c-2.209,1.046-3.257,2.528-2.951,5.012
	c0.146,1.173,0.122,2.396-0.122,3.571c-0.23,1.114-0.585,2.321-2.032,2.168c-1.502-0.158-1.392-1.378-1.397-2.547
	c-0.035-8.017,0.863-16.007,0.656-24.03c-0.342-13.279-1.619-26.453-6.367-38.946c-1.822-4.795-4.835-9.218-8.502-12.939
	c-3.215-3.265-7.415-3.538-11.718-2.899c-3.038,0.451-6.065,0.947-9.16,0.823c-7.338-0.295-12.604-3.708-15.72-10.372
	c-0.977-2.088-1.601-4.319-2.535-6.429c-0.612-1.381-1.554-2.108-3.134-2.174c-6.647-0.275-12.928-1.854-18.61-5.689
	c2.858,6.501,5.528,12.859,5.915,19.9c-0.008,0.949-0.006,1.898-0.007,2.847c-0.273,5.799-2.881,10.85-5.355,15.881
	c-1.801,3.663-4.174,7.017-7.085,9.975c-5.39,5.476-6.572,12.519-7.062,19.78c-0.788,3.537-0.558,7.07,0.035,10.6
	c0.322,9.692,2.327,19.088,4.853,28.415c1.078,3.977,2.763,7.683,4.313,11.458c0.398,0.969,0.998,1.805,1.868,2.387
	c3.954,2.641,6.43,6.512,8.801,10.478c0.444,0.744,0.737,1.541,0.877,2.388c0.211,1.272,0.098,2.49-1.359,2.91
	c-1.477,0.425-2.222-0.54-2.627-1.781c-0.504-1.542-1.052-3.039-1.853-4.474c-1.633-2.929-4.237-4.602-7.156-5.923
	c-4.73-2.141-9.757-3.259-14.891-3.269c-9.196-0.018-17.642-2.602-25.756-6.637c-1.985-0.987-3.98-1.923-6.09-2.651
	c-3.405-1.175-5.423-3.662-6.266-7.168c-0.56-2.327-0.62-4.738-1.288-7.042c-0.437-1.508-0.959-3.049-2.573-3.601
	c-3.343-1.143-5.205-3.411-5.757-6.937c-1.697,2.973-0.74,5.773,0.394,8.566c0.11,0.545,0.102,1.086-0.05,1.622
	c-2.785,4.45-2.405,6.97,1.613,10.66c0.125,0.116,0.269,0.218,0.373,0.351c0.697,0.892,2.32,1.664,1.531,2.885
	c-0.954,1.478-2.544,0.467-3.663-0.127c-2.514-1.337-4.209-3.429-4.859-6.271c-0.134-0.584-0.169-1.182-0.269-1.771
	c-0.234-1.399-1.293-1.821-2.448-1.709c-1.324,0.127-1.848,1.157-1.699,2.41c0.131,1.097,0.462,2.17,0.373,3.294
	c-0.146,1.851-0.768,3.327-2.831,3.731c-0.666,0.131-1.396,0.239-1.53,1.106c-0.124,0.801,0.354,1.272,0.976,1.638
	c5.446,3.205,11.136,5.187,17.57,3.586c1.421-0.354,2.846-0.735,4.02-1.598c1.994-1.466,3.836-1.21,5.951-0.153
	c6.626,3.312,12.459,7.682,17.895,12.671c9.029,8.288,19.782,12.404,31.958,13.301c3.771,0.278,7.474-0.003,11.207-0.099
	c3.149-0.082,3.562-0.485,4.346-3.508c0.244-0.941,0.179-2.104,1.367-2.565c0.416,1.121,1.969,1.286,2.178,2.587
	c-0.36,5.017-1.483,9.918-2.205,14.88c-1.471,10.115-3.386,20.15-5.456,30.156c-0.379,1.83-0.747,3.674-1.492,5.405
	c-0.35,0.675-0.938,1.246-0.916,2.089c-2.439,10.998-5.432,21.857-8.15,32.786c-0.68,2.731-1.375,5.465-1.985,8.208
	c-0.746,3.354-2.201,6.442-3.238,9.686c-3.483,10.892-5.534,22.21-9.522,32.929c-3.8,10.218-7.056,20.701-12.181,30.349
	c-3.671,6.909-7.213,14.013-12.198,20.096c-4.792,5.849-9.466,11.777-15.048,17.029c-6.79,6.388-13.782,12.497-21.136,18.168
	c-6.948,5.357-14.148,10.4-21.365,15.405c-8.481,5.882-16.818,11.968-25.242,17.929c-5.18,3.664-11.047,6.109-16.775,8.739
	c-4.37,2.006-8.449,4.449-12.475,7.022c-0.799,0.511-1.475,1.169-1.954,1.996c-1.365,2.356-0.449,4.606,2.173,5.36
	c0.822,0.235,1.666,0.368,2.512,0.498c2.325,0.702,4.639,0.473,6.951-0.073c6.734-0.448,13.27-2.278,19.985-2.86
	c1.272-0.109,2.538-0.266,3.819-0.287c9.102-0.149,18.202-0.319,27.304-0.001c3.837,0.136,7.635,0.664,11.446,1.054
	c7.031,0.716,14.136,0.423,21.132,1.569c2.693,0.441,5.4,0.833,7.846,2.17c3.867,2.113,4.639,5.767,1.857,9.175
	c-1.51,1.853-3.323,3.415-5.104,5.01c-2.052,1.834-1.75,3.159,0.892,3.923c2.865,0.827,5.758,1.578,8.767,1.705
	c2.811,0.045,5.62,0.057,8.429-0.017c6.896-0.117,13.505-1.982,20.158-3.467c9.284-2.07,18.69-2.991,28.139-3.784
	c7.99-0.672,15.982-1.335,23.981-1.836c6.808-0.426,13.621-0.792,20.434-1.169c12.006-0.665,24.032-0.867,36.042-1.47
	c6.217-0.313,12.45-0.32,18.675-0.507c19.032-0.572,38.02-1.53,56.897-4.143c2.792-0.386,5.557-0.963,8.36-1.246
	c4.396-0.443,8.277-1.974,11.42-5.153c2.283-0.078,2.674-1.705,2.779-3.498c0.196-3.334,0.242-6.646-2.365-9.273
	c-1.688-0.864-1.989-2.698-2.848-4.122c-1.756-2.917-3.436-5.894-4.371-9.198c-1.539-5.433-0.023-9.974,4.577-13.239
	c3.499-2.484,7.406-4.092,11.704-4.646c1.034,0.373,1.866,0.987,2.354,2.004c-2.997,1.136-5.992,2.279-8.993,3.404
	c-6.429,2.41-8.761,7.754-5.837,13.923c1.804,3.807,4.419,7.185,6.479,10.834c3.608,6.396,2.826,14.754-5.021,19.427
	c-3.839,2.283-8.176,2.838-12.449,3.547c-18.64,3.088-37.449,4.149-56.303,4.729c-22.013,0.678-44.046,0.846-66.037,2.111
	c-12.517,0.721-25.003,1.948-37.51,2.86c-7.228,0.527-14.482,0.87-21.613,2.187c-6.697,1.234-13.301,2.963-19.989,4.25
	c-9.427,1.813-18.813,1.64-28.074-1.173c-3.809-1.156-4.917-3.761-2.969-7.227c0.94-1.673,2.318-2.97,3.947-3.92
	c0.667-0.389,1.327-0.761,1.849-1.305c1.072-1.115,2.288-2.317,1.826-3.997c-0.457-1.656-2.075-2.125-3.57-2.531
	c-4.709-1.278-9.52-2.018-14.388-1.98c-8.303,0.061-16.481-1.405-24.753-1.767c-15.235-0.665-30.335,0.109-45.341,2.953
	c-4.168,0.79-8.448,1.125-12.714,0.168c-2.817-0.632-5.333-1.736-6.217-4.658c-0.948-3.134-0.006-5.951,2.617-7.992
	c4.581-3.563,9.683-6.301,14.896-8.777c7.675-3.648,15.109-7.623,21.963-12.729c8.506-6.336,17.199-12.427,25.935-18.444
	c8.403-5.789,16.507-11.937,24.309-18.519c9.327-7.868,17.691-16.541,25.078-26.305c4.594-6.072,7.956-12.723,11.664-19.253
	c5.841-10.289,9-21.604,13.117-32.568c3.061-8.153,5.532-16.454,7.538-24.878c1.395-5.855,2.35-11.854,4.125-17.595
	c3.518-11.378,6.373-22.919,9.208-34.47c1.334-5.438,2.244-10.99,3.826-16.35c2.854-9.673,4.359-19.621,6.503-29.438
	c0.196-0.898,0.185-1.842,0.274-2.818c-12.984,1.907-25.31,0.11-36.995-5.422c-4.92-2.329-9.261-5.658-13.222-9.443
	c-4.615-4.411-9.668-8.286-14.913-11.917c-0.963-0.667-1.957-1.15-3.012-0.342c-5.464,4.182-11.488,3.387-17.563,1.987
	c-1.819-0.418-3.472-1.324-5.178-2.079c-2.064-0.914-3.72-3.347-6.565-1.745c-0.828,0.466-1.741-0.423-2.479-1.007
	c-2.56-2.028-3.576-5.1-4.925-7.854c-0.467-0.954,1.271-2.436,2.347-3.004c1.275-0.674,1.094-1.275,0.815-2.286
	c-0.818-2.959-0.442-3.565,2.426-4.589c1.867-0.666-0.499-1.873,0.283-2.71c-0.303-1.579-0.378-3.156,0.039-4.73
	c1.064-2.765,2.904-1.173,4.523-0.729c0.388-1.639-0.4-3.087-0.431-4.619c-0.052-2.585,0.719-3.347,3.325-3.058
	c2.728,0.302,4.268,2.3,5.883,4.161c0.604,0.697,1.071,1.511,1.778,2.524c1-2.223,2.038-4.05,4.662-4.194
	c1.601-0.089,2.511-0.168,1.958,1.929c-0.563,2.136-0.206,4.084,2.314,4.891c4.683,1.499,5.749,5.334,6.245,9.586
	c0.189,1.622,0.414,3.199,1.074,4.799c1.093,2.648,3.078,3.961,5.518,4.819c7.337,2.583,14.321,6.32,22.168,7.259
	c5.242,0.627,10.539,0.775,15.792,1.327c3.915,0.411,3.808,0.578,2.44-3.329c-5.715-16.315-8.688-33.016-7.111-50.378
	c0.795-8.755,4.334-15.937,10.791-22.027c3.935-3.711,5.564-9.044,7.205-14.174c2.328-7.278,0.556-14.313-1.169-21.347
	c-1.133-4.616-2.916-9.184-5.263-13.11c-2.157-3.608-4.751-7.037-6.633-11.028c-0.738,0.513-1.379,0.912-1.968,1.377
	c-2.321,1.835-2.25,2.621,0.333,4.054c2.155,1.196,2.507,3.169,0.956,5.096c-0.773,0.96-2.522,1.671-1.995,2.999
	c0.491,1.238,2.235,0.784,3.462,0.919c2.85,0.315,3.325,1.891,1.403,5.038c2.483,0.663,2.46,2.643,2.107,4.524
	c-0.239,1.272-0.7,2.43,0.208,3.581c0.346,0.438,0.183,0.883-0.181,1.081c-0.325,0.177-0.896,0.253-1.188,0.083
	c-1.434-0.842-2.454-1.975-1.574-3.761c0.882-1.79,1.307-3.013-1.51-3.359c-2.249-0.277-1.147-1.673-0.341-2.711
	c0.449-0.577,1.446-0.946,1.126-1.829c-0.338-0.934-1.336-0.455-2.045-0.567c-1.492-0.237-3.184-0.125-3.936-1.819
	c-0.851-1.917,0.631-2.976,1.723-4.144c2.179-2.329,2.175-2.475-0.598-3.739c-0.838-0.382-1.724-0.994-1.705-1.737
	c0.059-2.257-1.253-1.933-2.756-1.939c-6.175-0.027-11.573-2.346-16.428-6.001c-2.506-1.887-5.017-3.804-7.287-5.958
	c-2.903-2.753-4.083-6.329-3.323-10.257c1.151-5.948,0.121-11.448-2.535-16.809c-1.645-3.319-3.944-6.483-3.83-10.411
	c0.214-7.412,0.836-14.817,2.806-21.975c1.239-4.504,4.113-8.1,8.039-10.796c1.327-0.912,2.416-2.165,3.705-3.139
	c9.725-7.348,20.403-12.249,32.86-11.92c7.211,0.189,13.512,2.615,17.509,9.149c2.646,4.324,6.348,7.257,11.162,8.826
	c0.969,0.316,1.914,0.722,2.838,1.155c5.785,2.71,6.946,4.942,6.237,10.41c-0.153,1.18-0.309,2.146,1.222,2.486
	c0.677,0.151,1.087,0.782,1.392,1.419c0.958,2.006,2.476,3.422,4.494,4.352c1.798,0.828,2.698,2.253,2.699,4.266
	c0,1.428,0.509,2.433,1.88,3.293c1.786,1.12,2.742,3.024,2.692,5.235c-0.037,1.618,0.482,2.939,1.488,4.219
	c1.543,1.964,1.377,6.08-0.443,7.694c-0.949,0.841-0.271,1.302-0.124,1.945c1.094,4.747,0.735,9.156-3.023,12.736
	c-0.42,0.4-0.725,0.706-0.396,1.266c1.335,2.275,0.816,4.651,0.25,6.964c-0.276,1.126-0.085,1.418,1.038,1.699
	c3.03,0.755,3.772,2.205,2.862,5.298c-0.307,1.043-0.553,1.877,0.697,2.531c0.88,0.46,1.27,1.473,1.172,2.417
	c-0.228,2.208,0.935,3.413,2.624,4.541c1.763,1.177,2.059,5.684,0.67,7.25c-0.398,0.449-0.84,0.586-1.345,0.289
	c-0.57-0.336-0.908-0.916-0.604-1.516c1.397-2.762,0.299-4.384-2.211-5.711c-1.224-0.646-1.164-2.18-1.189-3.473
	c-0.019-0.934,0.142-2.065-1.007-2.379c-2.474-0.676-2.256-1.905-1.174-3.758c1.395-2.391,0.689-3.413-2.021-3.591
	c-1.357-0.089-1.807,0.354-1.787,1.695c0.043,2.916-0.473,5.775-1.252,8.574c-2.277,8.177-7.603,13.319-15.782,15.403
	c-1.819,0.463-1.703,1.108-0.988,2.418c1.303,2.39,2.501,4.836,3.754,7.254c3.092,5.966,10.818,9.838,19.337,7.571
	c2.313-0.615,4.65-1.063,7.052-1.048c5.071,0.035,8.843,2.455,12.021,6.262c5.217,6.25,7.52,13.809,9.493,21.404
	c3.547,13.655,4.08,27.627,3.422,41.667c-0.042,0.899-0.582,2.099,0.173,2.658c0.98,0.727,1.894-0.366,2.718-0.863
	c7.963-4.815,15.765-9.839,21.573-17.342c0.291-0.375,0.846-0.536,1.164-0.897c1.226-1.391,2.09-2.548,1.296-4.864
	c-2.085-6.083-1.225-11.978,2.985-17.049c0.836-1.007,0.787-1.604,0.272-2.607c-1.592-3.099-3.04-6.273-6.419-7.938
	c-1.461-0.72-1.263-1.809-0.473-2.975c2.553-3.767,9.482-4.465,12.755-1.236c1.008,0.994,1.906,2.099,2.987,3.3
	c0.877-1.729,1.768-3.419,2.594-5.139c0.521-1.085,1.092-2.121,1.972-2.957c1.592-1.51,2.624-1.341,3.482,0.638
	c0.543,1.251,0.937,2.562,0.936,3.954C303.275,288.282,303.572,288.223,303.9,287.806z"/>
<path fill="#211914" d="M449.815,616.744c1.415,0.512,2.831,1.021,4.245,1.533c-3.558,0.651-7.11,1.328-10.676,1.939
	c-0.995,0.171-2.022,0.154-3.036,0.226c-0.837,0.476-1.818-0.042-2.661,0.391c-0.933,0.042-1.862,0.084-2.794,0.126
	c-1.255,0.475-2.61-0.063-3.867,0.388c-1.953,0.146-3.903,0.456-5.865,0.112c-2.921,0.048-5.854,0.911-8.759-0.426
	c-0.604-0.279-1.651,0.19-2.295,0.831c-3.849,0.042-7.695,0.083-11.542,0.125c-1.411,0.503-2.923-0.101-4.334,0.387
	c-1.476,0.045-2.949,0.089-4.425,0.133c-1.05,0.45-2.21-0.063-3.262,0.372c-4.387,0.565-8.773,1.131-13.161,1.695
	c-0.293,0.475-1.095-0.709-1.202,0.369c-0.285,0.049-0.569,0.098-0.854,0.146c-1.045-0.106-1.52-1.005-2.212-1.6
	c0.776-1.218,2.129-1.27,3.322-1.586c2.533-0.672,5.13-0.982,7.734-1.196c0.788,0.047,1.596-0.009,2.336,0.349
	c0.525,0.47,0.979,1.108,1.808,0.845c-0.559,0.063-1.074-0.072-1.447-0.589c-0.053-0.271,0.02-0.495,0.234-0.674
	c0.352-0.219,0.732-0.335,1.139-0.385c1.527-0.053,3.048-0.15,4.465,0.669c0.848,0.49,1.879,0.396,2.748,0.21
	c4.481-0.947,8.979,0.086,13.078-0.224c-2.438,0.076-5.252-0.007-8.061-0.268c-0.565-0.055-1.517,0.225-1.073-0.98
	c1.936-0.953,3.997-0.45,6.008-0.545c4.734-0.052,9.479,0.393,14.202-0.274c1.534-0.294,3.09-0.234,4.641-0.234
	c2.363,0.021,4.735,0.294,7.082-0.222c0.708-0.161,1.427-0.224,2.148-0.235c1.376,0.004,2.763,0.162,4.11-0.268
	c0.54-0.127,1.087-0.192,1.64-0.217c1.222-0.021,2.454,0.11,3.636-0.341C445.174,617.028,447.401,615.763,449.815,616.744z"/>
<path fill="#221A15" d="M414.107,621.864c1.151-1.87,1.117-1.812,3.209-0.5c0.487,0.308,1.323,0.061,2.001,0.064
	c1.946,0.012,3.896,0.021,5.844,0.029C421.496,622.126,417.799,621.919,414.107,621.864z"/>
<path fill="#19130F" d="M425.818,187.417c-0.726-2.55-0.707-5.102-0.01-7.654C426.045,182.314,426.115,184.866,425.818,187.417z"/>
<path fill="#B7B7B8" d="M477.086,411.921c-1.342-0.535-0.879-1.678-0.896-2.659C477.655,409.756,477.118,410.923,477.086,411.921z"
	/>
<path fill="#221A15" d="M376.183,624.945c-0.098-0.478-1.358-0.602-0.563-1.264c1.013-0.841,1.211,0.501,1.766,0.895
	C377.078,625.006,376.646,625.029,376.183,624.945z"/>
<path fill="#231B19" d="M89.758,341.655c-0.013,1.577-0.026,3.153-0.039,4.73C89.038,344.803,88.942,343.226,89.758,341.655z"/>
<path fill="#221A15" d="M398.231,622.376c1.377-0.874,2.886-0.272,4.331-0.387C401.154,622.496,399.695,622.469,398.231,622.376z"/>
<path fill="#221A15" d="M431.026,621.347c1.217-0.845,2.576-0.265,3.866-0.387C433.657,621.613,432.332,621.379,431.026,621.347z"/>
<path fill="#A5A6A6" d="M402.918,459.046c-0.056-0.729-0.34-1.574,0.842-1.688C403.966,458.164,403.92,458.843,402.918,459.046z"/>
<path fill="#221A15" d="M390.546,622.881c1.012-0.787,2.167-0.305,3.262-0.372C392.768,623.043,391.661,623.005,390.546,622.881z"/>
<path fill="#686869" d="M303.9,287.806c0.032,0.497,0.154,1.297-0.373,1.3c-0.915,0.004-0.477-0.845-0.498-1.374
	C303.32,287.756,303.61,287.781,303.9,287.806z"/>
<path fill="#6E6968" d="M330.016,135.096c0.217,0.845-0.053,1.412-0.937,1.623C328.961,135.929,328.992,135.227,330.016,135.096z"/>
<path fill="#C4CED7" d="M449.234,323.76c-0.27-0.412-0.538-0.824-0.996-1.527c1.107,0.235,1.373,0.928,1.749,1.485
	C449.736,323.732,449.486,323.746,449.234,323.76z"/>
<path fill="#221A15" d="M437.688,620.833c0.8-0.729,1.765-0.331,2.662-0.391C439.499,620.822,438.611,620.955,437.688,620.833z"/>
<path fill="#4C4948" d="M391.554,211.517c-0.349-0.1-1.002-0.074-0.788-0.585c0.31-0.736,0.869-0.384,1.315,0.003
	C391.905,211.128,391.729,211.322,391.554,211.517z"/>
<path fill="#ECECEE" d="M438.965,618.313c-0.432,0.035-0.864,0.071-1.297,0.107c-1.39,0.497-2.886-0.141-4.271,0.397
	c-0.625,0.033-1.25,0.068-1.876,0.104c-2.459,0.571-4.994-0.202-7.449,0.429c-1.45-0.261-2.893-0.06-4.334,0.076
	c-3.783,0.45-7.58,0.077-11.369,0.208c-1.089,0.037-2.199-0.183-3.263,0.229c-1.954-0.293-3.902-0.11-5.85,0.088
	c-2.199,1.103-4.576,0.979-6.909,0.863c-1.515-0.074-3.011-0.332-4.512,0.061c-0.296,0.033-0.59,0.067-0.886,0.102
	c-0.896,0.431-1.916-0.027-2.812,0.398c-3.755,0.29-7.435,0.97-11.023,2.118c-3.403,0.793-6.742,1.831-9.748,3.621
	c-6.4,3.812-8.133,9.008-5.31,15.905c1.647,4.027,4.044,7.672,6.236,11.414c2.273,3.535,2.973,7.233,1.183,11.201
	c-0.248,0.553-0.526,1.053-1.125,1.29c-2.719,3.659-6.504,5.156-10.9,5.881c-21.526,3.551-43.227,4.884-64.999,5.535
	c-30.207,0.903-60.403,2.025-90.56,4.118c-16.966,1.178-33.763,3.29-50.324,7.222c-2.635,0.626-5.362,1.007-8.111,0.903
	c-2.898-0.407-5.797-0.382-8.697-0.021c-3.54-0.016-6.868-1.175-10.248-1.989c-1.78-0.432-2.167-1.816-1.318-3.405
	c0.433-0.812,1.028-1.489,1.865-2.026c1.94-1.244,3.697-2.758,5.078-4.614c2.273-3.059,1.566-6.156-1.848-7.847
	c-3.573-1.767-7.51-2.362-11.4-2.553c-17.451-0.854-34.835-3.1-52.371-2.271c-7.953,0.377-15.765,1.557-23.58,2.899
	c-1.331,0.229-2.705,0.213-4.059,0.311c-2.387-0.034-4.775-0.013-7.162-0.021c-1.08-0.188-2.219-0.216-3.226-0.595
	c-1.529-0.574-2.521-1.729-2.609-3.467c-0.114-2.229,1.161-3.729,2.823-4.863c7.9-5.404,16.854-8.795,25.302-13.154
	c1.357-0.7,2.648-1.552,3.894-2.44c5.405-3.854,10.721-7.838,16.18-11.612c10.974-7.59,21.958-15.173,32.511-23.335
	c6.724-5.2,13.195-10.71,19.313-16.668c4.351-4.237,8.072-8.943,12.073-13.447c5.26-5.92,8.673-12.938,12.694-19.623
	c5.438-9.043,8.434-19.052,12.336-28.72c4.344-10.763,6.373-22.182,10.013-33.1c6.121-18.354,10.232-37.202,15.027-55.887
	c0.441-0.465,0.473-1.162,0.921-1.623c3.989-16.562,6.323-33.428,9.24-50.187c0.058-0.329,0.009-0.676,0.01-1.016
	c-1.163-2.704,0.022-5.27,0.909-7.623c1.107-2.939,2.08-5.916,3.113-8.876c0.87-2.492,1.338-2.721,3.733-1.664
	c3.593,1.587,7.282,2.806,11.188,3.316c1.076,0.39,2.194,0.31,3.307,0.298c1.713,0.018,3.425,0.011,5.136-0.032
	c1.077,0.05,2.158,0.134,3.21-0.207c4.181-0.755,8.098-2.277,11.909-4.102c1.111-0.629,2.532-0.823,3.229-2.386
	c-1.095-0.295-1.667,0.535-2.392,0.865c-5.302,2.893-10.855,4.964-16.965,5.243c-1.858-0.015-3.715-0.002-5.571,0
	c-5.208,0.267-9.752-2.022-14.44-3.761c-1.472-0.546-0.932-2.043-1.406-3.062c-1.479-3.123-4.142-5.388-5.97-8.275
	c-3.918-6.188-8.243-12.125-11.802-18.532c-4.287-7.715-7.448-15.893-9.234-24.565c-0.066-0.695-0.31-1.299-0.908-1.719
	c-0.335-0.374-0.46-0.79-0.26-1.272c0.577-0.57,1.255-1.139,1.445-1.91c0.111-0.451,1.242,0,0.609-0.827
	c0.011-0.252,0.115-0.455,0.299-0.624c1.205-0.713,2.564-0.992,3.873-1.415c4.917-1.693,9.532-4.105,14.352-6.025
	c7.426-2.958,14.87-5.883,22.179-9.117c5.824-2.577,11.841-4.756,17.294-8.144c1.193-0.741,2.437-1.62,4.01-1.428
	c0.976,0.3,0.92,1.201,1.134,1.944c2.752,7.253,5.176,14.6,6.425,22.286c0.958,5.897,1.637,11.823,1.886,17.796
	c0.064,1.526,0.233,3.046,0.354,4.57c0.468,0.333,0.575,0.832,0.581,1.353c0.045,4.096,0.044,8.192,0,12.288
	c-0.006,0.521-0.11,1.021-0.574,1.358c-0.599,5.002-0.377,10.026-0.412,15.044c0.439,1.698-0.282,3.408,0.055,5.107
	c0.854,4.87,1.501,9.779,2.915,14.538c2.288,7.701,5.754,14.775,10.932,20.975c1.089,1.306,1.996,2.767,2.929,4.193
	c5.929,9.069,13.017,17.253,20.021,25.457c3.904,4.573,7.849,9.159,12.029,13.506c8.24,8.567,16.374,17.243,24.842,25.578
	c4.063,3.999,7.857,8.235,11.895,12.247c8.739,8.686,17.1,17.701,25.136,27.053c4.052,4.717,7.589,9.79,11.526,14.563
	c5.456,6.609,9.403,14.071,13.359,21.606c2.516,4.79,4.058,9.78,5.52,14.913c1.108,3.891,3.874,7.051,6.497,10.021
	c3.19,3.613,6.206,7.443,9.945,10.551c8.382,6.961,17.719,12.171,27.959,15.981c9.543,3.554,19.381,5.87,29.239,8.195
	c2.414,0.569,4.689,1.497,6.927,2.569c0.988,0.475,1.922,0.967,1.959,2.103c0.041,1.267-0.665,2.183-1.829,2.827
	c-3.934,2.175-8.222,3.219-12.563,4.121c-0.655,0.137-1.295,0.351-1.941,0.528c-2.34,0.377-4.68,0.754-7.02,1.13
	C441.564,618.417,440.198,617.779,438.965,618.313z"/>
<path fill="#74797E" d="M304.484,334.955c-0.081-0.763-0.153-1.526-0.244-2.288c-0.171-1.437-0.579-2.89-0.473-4.305
	c0.131-1.737,2.108-1.329,3.145-2.105c2.661-1.996,4.695-4.48,6.266-7.333c0.983-1.786,1.294-3.751-0.351-5.443
	c-0.611-0.63-0.645-1.226-0.488-2.07c0.382-2.089-0.332-3.797-2.493-4.387c-1.248-0.34-1.176-0.84-0.81-1.779
	c0.634-1.623,0.701-3.336,0.523-5.046c-0.135-1.316-0.549-2.785-1.821-3.168c-1.992-0.602-1.786-1.796-1.563-3.314
	c1.769-12.036,4.898-23.738,9.678-34.887c3.179-7.414,6.212-14.918,9.844-22.128c2.769-5.494,7.045-9.585,12.943-11.706
	c3.206-1.152,6.45-2.189,9.649-4.271c-1.087,4.868-2.191,9.348-3.077,13.871c-1.99,10.152-2.78,20.429-2.883,30.761
	c-0.029,3.009,0.582,3.466,3.522,2.81c4.192-0.935,8.123-2.525,11.711-4.909c2.175-1.444,4.326-2.921,6.767-4.57
	c-1.09,5.375-2.951,10.141-4.418,15.015c-0.984,3.273-0.482,5.921,1.837,8.46c9.078,9.939,18.383,19.674,28.515,28.527
	c8.067,7.049,16.896,13.134,26.056,18.763c5.836,3.587,8.57,9.537,10.015,16.08c0.238,1.081,0.438,2.171,0.655,3.258
	c0.411,0.493,0.481,1.161,0.862,1.669c1.189,7.736,1.967,15.531,4.352,23.069c1.259,3.979,0.029,8.117-0.428,12.17
	c-1.021,9.042-5.487,16.922-8.562,25.267c-1.65,4.482-3.547,8.89-6.031,12.981c-1.334,2.196-2.899,3.81-5.905,4.477
	c-7.568,1.68-14.736-0.018-22.01-1.37c-0.972-0.18-1.94-0.368-3.306-0.627c1.742-1.523,2.587-3.235,3.22-5.101
	c0.542-1.594,1.861-1.787,3.357-1.54c2.507,0.413,5.156,1.264,6.731-1.818c1.254-2.448,0.706-5.771-1.938-8.126
	c-2.342-2.088-4.373-4.479-6.777-6.481c-1.106-0.924-1.139-1.771-0.063-2.702c0.316-0.275,0.673-0.529,0.922-0.859
	c2.045-2.711,1.217-5.015-2.115-5.181c-2.211-0.11-3.163-1-3.756-2.955c-0.414-1.37-1.146-2.661-1.857-3.919
	c-2.61-4.621-5.976-5.467-10.684-2.798c-2.499,1.417-4.76,3.352-7.823,3.583c-0.683,0.052-1.341,0.215-2.009-0.027
	c-0.546-0.198-1.313-0.108-1.542-0.749c-0.262-0.734,0.566-0.931,0.931-1.342c1.854-2.095,3.942-4.019,5.539-6.291
	c1.914-2.723,1.195-4.475-1.591-6.258c-1.997-1.278-3.77-2.909-5.625-4.404c-0.406-0.328-0.719-0.738-0.31-1.306
	c1.153-1.603,0.79-3.454,0.76-5.215c-0.232-13.264-1.11-26.498-6.245-38.902c-3.834-9.264-7.71-18.543-12.454-27.407
	c-0.473-0.882-1.105-1.689-1.734-2.476c-4.666-5.839-1.13-11.185,0.989-16.608c0.556-1.419,1.24-2.787,1.807-4.202
	c0.1-0.25,0.011-0.729-0.178-0.909c-0.435-0.418-0.707,0.015-1.004,0.327c-0.945,0.994-1.629,2.148-2.199,3.387
	c-5.092,11.03-7.9,22.593-8.871,34.725c-1.111,13.882,1.521,26.906,8.448,38.863c5.135,8.86,11.71,16.691,19.794,23.133
	c1.18,0.939,2.3,1.953,3.68,3.13c-11.792,5.2-20.069,13.39-24.152,25.738c-1.201-1.67-2.473-3.441-3.749-5.21
	c-6.181-8.563-11.811-17.449-17.113-26.606c-6.004-10.367-10.272-21.245-12.905-32.851
	C304.81,336.504,305.133,335.509,304.484,334.955z"/>
<path fill="#74787E" d="M426.971,410.805c-0.635-1.525,0.61-2.502,1.069-3.717c2.563-6.777,5.269-13.518,6.097-20.8
	c0.18-1.568,0.491-1.934,2.157-1.104c3.453,1.718,5.282,4.396,6.371,8.006c2.367,7.841,5.069,15.606,8.437,23.053
	c4.493,9.936,7.813,20.36,12.615,30.13c4.023,8.183,7.039,16.806,11.199,24.894c4.638,9.019,8.29,18.512,13.155,27.387
	c4.017,7.325,7.216,15.054,11.38,22.273c4.556,7.898,8.348,16.203,12.945,24.056c2.448,4.183,4.736,8.44,7.101,12.664
	c0.166,0.299,0.297,0.635,0.524,0.875c0.554,0.582,0.995,1.662,2.012,1.115c1.166-0.628,0.582-1.658,0.142-2.46
	c-3.112-5.663-5.919-11.479-9.225-17.055c-3.474-5.857-5.997-12.272-9.339-18.219c-5.057-8.996-9.03-18.525-13.895-27.589
	c-4.398-8.201-7.64-16.923-12.003-25.093c-4.748-8.89-7.993-18.433-12.513-27.388c-4.652-9.22-7.823-19.056-12.278-28.322
	c-3.217-6.689-5.623-13.674-8.521-20.472c-0.324-0.761-0.565-1.558-0.491-2.641c4.455,3.74,8.927,7.461,13.358,11.228
	c2.656,2.258,4.752,5.127,7.697,7.083c0.92,0.61,1.044,1.734,1.347,2.697c2.706,8.625,5.236,17.318,8.737,25.662
	c4.149,9.885,8.129,19.874,12.937,29.438c4.09,8.14,7.544,16.6,12.065,24.5c4.488,7.841,7.933,16.224,12.533,23.967
	c4.45,7.488,7.713,15.574,12.117,23.044c4.684,7.944,8.347,16.367,12.418,24.602c0.676,1.369,1.87,2.383,2.411,3.863
	c0.422,1.15,0.466,1.843-0.854,2.353c-4.662,1.797-8.025,5.28-11.541,8.677c-5.524,5.338-8.616,12.156-12.357,18.633
	c-3.313,5.733-5.18,11.901-6.781,18.937c-2.063-4.183-3.672-7.916-5.682-11.42c-4.714-8.22-7.954-17.147-12.36-25.489
	c-4.668-8.836-7.958-18.264-12.382-27.173c-4.705-9.476-8.008-19.53-12.485-29.065c-4.35-9.265-7.435-19.023-11.732-28.271
	c-5.001-10.756-8.545-22.058-13.044-32.989c-6.133-14.9-9.703-30.44-12.416-46.233c-0.334-0.381-0.455-0.833-0.454-1.326
	C427.381,412.324,427.607,411.477,426.971,410.805z"/>
<path fill="#FFFFFF" d="M348.958,491.13c-0.64,2.338-0.109,4.748-0.411,7.099c-0.689,0.31-0.913-0.274-1.234-0.616
	c-5.236-5.578-10.351-11.277-15.728-16.716c-8.544-8.642-17.027-17.342-25.583-25.968c-4.13-4.164-7.912-8.664-12.203-12.643
	c-4.513-4.185-8.12-9.154-12.387-13.52c-4.419-4.52-7.857-9.809-12.052-14.469c-4.798-5.332-8.433-11.491-12.797-17.108
	c-3.822-4.922-6.724-10.261-8.993-15.979c-0.905-2.283-1.401-4.742-1.914-7.156c-0.134-0.626-0.271-1.833,1.245-1.561
	c1.463,0.263,2.647-0.57,3.729-1.392c4.739-3.603,9.303-7.387,13.546-11.599c5.321-5.282,10.173-10.957,15.157-16.535
	c3.719-4.162,7.045-8.459,9.221-13.596c0.379-0.896,0.899-1.146,1.772-0.952c3.144,0.696,6.098-0.022,8.952-1.287
	c1.018-0.451,1.452-0.488,1.577,0.864c0.503,5.438,1.247,10.879,3.049,16.036c3.442,9.852,7.278,19.577,12.594,28.592
	c3.396,5.763,7.067,11.39,10.966,16.826c4.001,5.58,8.439,10.845,12.66,16.269c0.673,0.865,1.316,1.216,2.347,0.559
	c1.145-0.729,2.349-1.365,3.532-2.029c0.655-0.367,0.965-1.676,2.055-0.866c0.918,0.685,1.498,1.559,1.417,2.829
	c-0.23,3.667,0.295,7.2,1.368,10.758c1.354,4.483,4.114,8.106,6.49,11.971c0.747,1.215,0.901,2.163,0.438,3.522
	c-1.516,4.447-2.153,9.115-3.185,13.688c-0.415,0.494-0.49,1.161-0.848,1.686c-2.044,12.374-3.729,24.793-4.629,37.31
	C349.311,487.146,349.552,489.148,348.958,491.13z"/>
<path fill="#74797F" d="M472.85,412.775c-5.973-6.869-12.576-12.551-19.362-17.937c-5.372-4.263-10.788-8.601-16.977-11.739
	c-1.483-0.752-2.02-1.795-1.884-3.477c0.619-7.679-1.874-14.988-2.827-22.482c-0.752-5.911-1.905-11.738-3.436-17.534
	c-1.563-5.917-4.169-11.279-7.686-16.052c-3.039-4.127-3.167-8.376-2.846-13c0.865-12.418,1.535-24.851,2.568-37.255
	c0.456-5.479-0.139-10.902-0.055-16.351c0.05-3.215-2.464-4.687-4.5-6.413c-2.177-1.846-4.493-3.528-6.624-5.551
	c3.57,0.812,7.342-0.03,10.66,1.796c0.542,0.298,1.061,0.665,1.575,0.022c0.448-0.561,0.197-1.133-0.079-1.674
	c-1.139-2.237-2.748-4.181-4.541-5.838c-4.351-4.021-7.551-8.983-11.428-13.381c-2.618-2.97-5.598-5.623-7.985-8.935
	c10.122-0.473,15.936,0.833,21.733,11.207c3.401,6.086,7.474,11.742,11.397,17.493c1.777,2.605,3.274,5.402,5.026,8.026
	c4.547,6.809,9.682,13.196,15.223,19.181c3.809,4.114,7.54,8.339,11.621,12.192c8.67,8.186,16.693,17.005,25.131,25.408
	c6.569,6.543,13.809,12.441,22.522,16.125c0.942,0.399,1.875,0.841,2.85,1.136c2.955,0.893,3.069,0.941,1.303,3.579
	c-4.673,6.967-6.685,14.833-7.86,22.966c-0.265,1.826-0.695,1.83-2.204,1.123c-13.482-6.323-25.572-14.936-38.11-22.833
	c-7.325-4.614-13.228-10.504-18.982-16.837c-9.514-10.466-14.182-23.238-18.702-36.203c-1.158-3.323-2.313-6.751-4.613-9.568
	c-0.415-0.508-0.816-1.372-1.585-0.983c-0.968,0.489-0.385,1.353-0.055,1.988c1.824,3.51,2.597,7.398,4.005,11.045
	c3.801,9.843,7.678,19.702,12.911,28.868c4.663,8.167,8.238,16.789,12.158,25.284c5.161,11.184,7.921,23.178,12.236,34.627
	c4.718,12.511,7.369,25.455,9.358,38.593C472.942,410.395,473.184,411.387,472.85,412.775z"/>
<path fill="#F3E3E3" d="M182.074,271.45c-0.945-7.727-3.554-15.581-7.098-21.363c0.588-0.453,0.931,0.058,1.317,0.344
	c5.765,4.271,12.323,6.092,19.404,6.026c1.738-0.016,2.672,0.413,3.203,2.068c0.571,1.781,1.33,3.503,2.033,5.24
	c3.715,9.181,10.673,13.119,20.449,11.642c2.527-0.382,5.069-0.744,7.617-0.887c5.534-0.31,9.114,2.673,12.272,6.934
	c7.264,9.799,9.431,21.193,10.863,32.847c1.611,13.104,0.862,26.247,0.379,39.379c-0.019,0.511-0.069,1.023-0.057,1.534
	c0.015,0.592-0.006,1.266,0.799,1.376c0.935,0.128,1.239-0.634,1.286-1.271c0.15-2.039,0.242-4.091,0.202-6.134
	c-0.03-1.506,0.413-2.242,1.906-3.011c8.116-4.18,15.874-8.9,22.327-15.538c2.004-2.061,4.206-3.923,5.816-6.332
	c0.612-0.915,1.285-1.928,0.509-3.066c-4.043-5.93-2.246-11.602,1.077-16.947c1.21-1.946,1.421-3.399,0.521-5.376
	c-1.248-2.746-2.65-5.38-4.875-7.432c-1.314-1.211-0.707-1.806,0.426-2.425c2.915-1.597,8.474-0.591,8.296,4.189
	c-0.096,2.584,0.925,4.921,1.491,7.36c0.553,0.614,0.28,1.567,0.888,2.158c1.921,2.233,1.571,4.712,1.031,7.344
	c-0.242,1.18,0.205,2.53,0.459,3.778c0.497,2.438-0.012,4.581-1.794,6.322c-0.387,0.378-0.935,0.621-0.454,1.134
	c0.479,0.511,1.133,0.338,1.554-0.184c1.069-1.324,2.291-2.609,2.614-4.333c0.196-1.048,0.505-1.419,1.614-1.306
	c0.927,0.094,1.688,0.071,1.703,1.298c0.008,0.706,0.39,1.302,0.895,1.786c1.692,1.619,1.486,3.376-0.513,5.015
	c-2.951,2.418-6.322,3.342-10.04,2.712c-2.093-0.354-3.051,0.395-3.693,2.359c-1.625,4.968-5.397,8.517-8.493,12.537
	c-6.264,8.135-13.74,15.09-21.087,22.169c-2.494,2.403-5.425,4.346-8.09,6.579c-1.635,1.371-2.524,0.748-3.242-0.916
	c-0.959-2.229-0.596-4.548-0.412-6.819c1.36-16.803,1.387-33.567-1.234-50.269c-0.608-0.591-0.331-1.552-0.901-2.159
	c-1.555-8.744-4.164-17.138-8.309-25.022c-0.826-0.363-0.91-1.363-1.595-1.844c-1.366-0.847-2.459,0.067-3.585,0.58
	c-10.936,4.982-21.88,9.945-32.939,14.646c-8.001,3.401-16.017,6.769-24.064,10.053c-1.386,0.735-3.188,0.695-4.146,2.227
	c-0.213,0.963,0.023,1.887,0.228,2.816c1.037,9.769,4.974,18.592,9.398,27.13c3.092,5.967,5.468,12.094,6.934,18.592
	c1.54,6.818,3.023,13.65,4.437,20.497c0.398,1.928,0.956,3.801,1.684,5.629c0.142,0.72,0.212,1.424-0.483,1.933
	c-0.266,0.888-0.584,1.764-0.789,2.667c-0.866,3.821-0.847,3.918-4.791,4.201c-13.856,0.991-26.999-0.871-38.655-9.299
	c-2.771-2.004-5.335-4.19-7.837-6.467c-4.953-4.506-10.552-7.988-16.528-10.936c-1.119-0.552-1.965-0.213-2.859,0.329
	c-7.007,4.246-13.973,3.424-20.927-0.144c-0.83-0.425-1.666-0.863-2.543-1.163c-1.711-0.583-1.232-2.034-1.28-3.201
	c-0.069-1.678,1.256-0.64,1.866-0.728c2.503-0.361,3.87-2.687,2.356-5.475c-1.324-2.438,0.987-3.16,1.384-4.722
	c0.137-0.54,0.799-0.121,1.002,0.169c0.749,1.072,2.993-0.186,2.997,2.294c0.006,4.014,2.062,6.922,5.867,8.454
	c0.614,0.247,1.396,0.789,1.883,0.167c0.671-0.857-0.288-1.4-0.827-1.813c-2.781-2.127-5.163-4.438-4.884-8.356
	c0.116-1.626,0.537-2.995,2.27-3.56c0.366-0.577,0.534-1.141-0.096-1.66c-2.377-4.535-2.228-7.976,0.503-10.807
	c0.914,0.563,0.544,1.5,0.615,2.269c0.278,2.999,1.552,5.204,4.66,5.942c2.065,0.49,2.871,2.092,3.301,3.858
	c0.503,2.066,0.825,4.186,1.077,6.301c0.518,4.363,2.853,6.933,7.065,8.276c3.222,1.028,6.302,2.568,9.341,4.087
	c6.394,3.195,13.196,4.5,20.263,4.698c6.205,0.173,12.127,1.362,17.764,4.123c4.19,2.053,6.421,5.428,7.639,9.7
	c0.304,1.064,0.402,2.433,1.982,2.026c1.553-0.4,1.047-1.69,0.783-2.734c-0.501-1.986-1.603-3.734-2.825-5.276
	c-2.025-2.557-3.574-5.654-6.911-6.953c-0.726-0.282-1.122-0.961-1.45-1.704c-4.362-9.852-7.091-20.151-8.55-30.807
	c-0.45-3.292-1.003-6.574-0.903-9.917c-0.028-3.751-0.04-7.501-0.009-11.253c0.381-7.17,1.587-14.097,6.841-19.507
	c5.763-5.933,9.236-13.099,11.679-20.853c0.481-1.528,0.664-3.149,0.984-4.728C182.723,273.519,182.709,272.485,182.074,271.45z"/>
<path fill="#74797E" d="M379.208,427.675c3.116-1.046,4.728,0.239,4.067,3.341c-1.718,8.067-2.869,16.228-4.083,24.376
	c-0.516,0.531-0.434,1.209-0.453,1.861c0.003,0.472-0.125,0.899-0.415,1.274c-1.914,15.633-3.147,31.315-3.814,47.052
	c-0.17,3.999-0.371,7.995-0.416,11.997c-0.008,0.728-0.21,1.707,0.838,1.871c1.219,0.188,1.36-0.85,1.414-1.685
	c0.293-4.498,0.522-9,0.79-13.5c0.378-6.371,0.771-12.742,1.158-19.112c0.79-1.046,0.337-2.259,0.461-3.396
	c0.06-0.944-0.189-1.936,0.442-2.786c1.369-15.836,3.096-31.627,5.715-47.313c0.359-2.152,0.969-2.907,3.359-2.29
	c5.094,1.313,10.238,2.563,15.563,2.509c1.488-0.015,1.693,0.63,1.361,1.916c-0.529,2.056-0.931,4.146-1.386,6.221
	c-0.459,0.459-0.5,1.151-0.91,1.639c-1.769,9.722-3.588,19.431-4.855,29.237c-1.301,10.063-2.294,20.148-2.956,30.272
	c-0.67,10.235-0.742,20.439,0.459,30.656c1.455,12.373,4.02,24.539,6.437,36.74c0.735,3.719,2.688,7.113,2.867,11.195
	c-4.605-2.432-7.486-6.405-10.743-9.957c-1.542-1.681-3.008-3.437-4.421-5.229c-2.564-3.252-4.192-6.884-5.184-10.972
	c-2.342-9.67-7.86-17.859-12.988-26.187c-4.654-7.56-10.65-14.13-16.042-21.147c-0.4-0.522-1.028-0.867-1.517-1.331
	c-1.83-1.735-3.053-3.549-2.97-6.396c0.292-9.991,1.302-19.9,2.705-29.781c0.649-0.666,0.409-1.516,0.477-2.303
	c-0.003-0.497,0.122-0.948,0.451-1.331c1.272-9.944,3.035-19.793,5.646-29.483c0.324-1.205,0.533-1.794,1.978-1.097
	c2.136,1.033,4.17,0.366,5.892-1.099c1.188-1.011,2.366-1.455,3.956-1.104c3.696,0.818,4.412,0.411,6.169-3.042
	C378.758,428.861,378.78,428.149,379.208,427.675z"/>
<path fill="#F3E3E3" d="M394.647,208.386c-11.059-1.28-20.735-4.924-27.487-14.582c-2.692-3.851-3.952-7.734-3.722-12.299
	c0.081-1.613,0.345-2.808,2.306-2.962c0.946-0.075,2.37-0.268,1.945-1.705c-0.356-1.209-1.648-0.737-2.441-0.425
	c-4.938,1.948-12.493-3.068-13.8-7.11c-1.282-3.964,0.183-8.409,3.531-9.808c3.063-1.281,3.997-0.631,5.031,3.651
	c-1.361,0.438-3.548-0.303-3.856,1.846c-0.23,1.605,1.439,0.547,2.148,1.124c-0.521,1.491-0.818,3.053-0.432,4.66
	c0.101,0.413,0.292,0.85,0.769,0.907c0.687,0.083,0.794-0.495,0.938-0.98c0.048-0.161,0.061-0.335,0.071-0.505
	c0.079-1.261-0.281-3.267,0.849-3.474c1.26-0.231,2.087,1.612,2.831,2.786c1.968,3.105,5.075,4.947,7.845,7.162
	c0.695,0.556,1.569,0.878,2.369,0.301c0.781-0.563,0.37-1.403,0.183-2.129c-1.322-5.116-2.696-10.219-3.974-15.347
	c-0.799-3.208-1.419-6.455-1.173-9.999c1.636,0.85,3.109,1.657,4.62,2.387c1.163,0.563,2.411,0.888,3.72,0.791
	c1.405-0.103,3.258,0.306,3.764-1.416c0.435-1.475-0.757-2.691-1.906-3.625c-1.477-1.198-2.437-2.731-3.317-4.642
	c4.401,0.366,8.131,1.789,11.451,4.307c1.367,1.037,2.666,1.781,3.558-0.497c0.791-0.233,0.649-0.876,0.483-1.378
	c-0.1-0.298-0.301,0.184-0.504,0.176c-0.325-1.384-0.649-2.769-1.007-4.29c1.976,0.118,3.222,1.234,4.465,2.298
	c2.128,1.82,4.179,3.731,6.326,5.526c1.161,0.97,2.459,1.67,3.693,0.016c0.332-1.319,0.279-2.64,0.016-3.961
	c-0.051-0.422-0.101-0.843-0.149-1.265c-0.256-0.428-0.254-0.841,0.065-1.239c0.232,0.349,0.474,0.693,0.697,1.048
	c0.473,0.748,0.996,1.458,2.021,1.221c0.861-0.2,1.173-0.94,1.339-1.709c0.941-4.381,2.986-8.517,2.708-13.225
	c8.14,3.958,12.168,16.001,12.074,26.771c-1.935-1.326-3.719-2.576-5.534-3.78c-0.708-0.469-1.737-1.05-2.223-0.116
	c-0.486,0.938,0.813,0.992,1.354,1.43c1.854,1.502,3.747,2.967,5.479,4.602c1.703,1.61,0.907,5.874-1.118,6.937
	c-1.448,0.759-4.331,1.513-3.8,2.639c0.818,1.735,2.895-0.122,4.37-0.587c1.099-0.345,1.354-0.025,1.431,0.935
	c0.628,7.88,2.207,15.798,0.138,23.641c-2.755,10.434-8.498,15.134-19.959,15.935C400.104,208.437,397.375,208.318,394.647,208.386z
	"/>
<path fill="#3C2D17" d="M347.082,115.126c2.693,0.273,5.406,0.429,8.077,0.853c2.784,0.441,3.414,0,3.121-2.695
	c-0.38-3.508,3.105-8.57,6.503-9.558c1.119-0.325,1.161,0.31,1.144,1.042c-0.11,4.782,2.948,6.894,6.93,8.166
	c1.021,0.327,2.338,0.687,3.089-0.307c0.815-1.082-0.612-1.516-1.071-2.238c-0.455-0.713-0.989-1.482-0.54-2.373
	c0.389-0.77,1.196-0.494,1.842-0.515c9.211-0.293,17.647,1.851,25.06,7.617c5.919,4.604,7.286,10.796,6.502,17.73
	c-0.272,2.407-1.184,4.743-1.907,7.517c-1.512-2.033-3.133-3.339-4.96-4.365c-0.621-0.349-1.323-1.072-2.087-0.457
	c-0.866,0.697-0.691,1.718-0.312,2.594c0.979,2.251,1.758,4.546,2.238,7.587c-1.908-1.558-3.444-2.694-4.843-3.98
	c-1.972-1.812-4.188-3.173-6.659-4.166c-0.917-0.368-1.878-0.651-2.675-0.021c-0.954,0.754-0.653,1.832-0.311,2.832
	c0.14,0.403,0.246,0.816,0.383,1.22c0.158,0.473,0.523,0.992,0.053,1.416c-0.483,0.434-0.954-0.056-1.392-0.243
	c-3.46-1.491-6.973-2.675-10.832-2.515c-2.948,0.122-3.47,0.949-2.026,3.586c1.088,1.987,2.851,3.561,3.81,6
	c-2.792-0.313-4.821-1.705-6.924-2.893c-0.953-0.538-1.896-1.499-3.009-0.739c-1.127,0.77-0.966,2.152-0.825,3.317
	c0.667,5.523,2.115,10.896,3.273,16.325c0.458,2.142,1.501,4.156,1.422,6.658c-4.918-3.316-7.536-8.01-9.256-13.327
	c-0.262-0.805-0.403-1.65-0.567-2.483c-0.111-0.558,0.084-1.353-0.734-1.419c-0.865-0.07-0.806,0.709-0.827,1.286
	c-0.037,0.988-0.657,0.707-1.254,0.663c-7.566-0.565-9.945,6.118-8.754,11.454c0.788,3.529,2.678,6.546,6.247,8.237
	c3.093,1.465,3.543,4.078,0.398,5.557c-2.455,1.155-3.816,3.864-6.71,4.896c0.386-3.25,1.743-6.019,2.396-8.964
	c0.175-0.787,0.921-1.641,0.013-2.348c-0.954-0.741-1.201,0.502-1.803,0.762c-1.702,0.738-3.662,0.655-5.333,1.583
	c-1.465,0.814-3.188,1.173-4.494,2.99c-0.189-2.038,0.645-3.421,1.513-4.289c1.713-1.712,2.313-4.179,4.256-5.682
	c0.575-0.445,1.271-1.189,0.756-1.955c-0.581-0.863-1.506-0.489-2.313-0.125c-1.646,0.742-3.356,1.274-5.179,1.146
	c-1.692-0.118-2.567-0.919-1.79-2.704c0.688-1.572,1.456-3.197,3.145-3.846c2.165-0.833,1.574-1.796,0.397-2.964
	c-4.357-4.332-7.204-9.572-8.313-15.545c-1.652-8.894,1.046-16.477,9.633-21.414c1.846-1.062,3.731-2.053,5.609-3.056
	c0.75-0.4,1.518-0.862,2.42-0.567c0.668,0.219,1.383,0.555,1.739-0.335c0.322-0.812-0.438-1.236-0.92-1.655
	c-1.141-0.991-2.347-1.906-3.524-2.852C346.964,115.418,347.022,115.272,347.082,115.126z"/>
<path fill="#F3E3E3" d="M215.772,227.901c0.124,4.493-0.777,8.813-2.312,13.002c-4.214,11.508-16.933,15.477-28.535,11.402
	c-5.681-1.996-10.04-5.465-13.77-10.128c-2.581-3.226-4.147-6.8-5.886-10.462c-1.368-2.881-1.481-5.761-2.25-8.615
	c-0.286-1.063-0.513-2.259-1.163-3.083c-2.053-2.61-1.593-5.796-2.215-8.718c-0.367-1.718,0.666-3.13,1.902-4.262
	c1.688-1.545,2.803-3.33,3.235-5.642c0.582-3.109,2.708-5.29,5.093-7.136c4.138-3.202,7.041-7.552,10.657-11.236
	c0.546-0.557,0.808-1.511,0.943-2.324c0.193-1.164,0.311-2.127,1.843-2.25c1.46-0.118,2.505-0.036,3.365,1.491
	c2.131,3.783,3.031,4.11,7.162,3.485c0.335-0.051,0.852-0.196,0.993-0.038c2.121,2.38,5.985,2.008,7.744,4.997
	c1.021,1.736,2.913,2.553,4.49,3.686c2.671,1.918,5.062,4.018,5.712,7.5c0.151,0.808,0.509,1.671,1.029,2.292
	c0.722,0.861-0.082,1.984-0.177,1.984c-2.926-0.007-1.001,1.786-0.83,2.561c0.542,2.459,2.113,4.72,0.564,7.438
	c-0.618,1.084,0.249,2.325,1.092,3.212c1,1.053,1.587,2.202,1.336,3.684C215.372,223.126,215.413,225.513,215.772,227.901z"/>
<path fill="#82633D" d="M145.122,197.705c-4.61,6.735-0.729,13.517,4.728,19.244c1.108,1.162,1.559,1.92,1.132,3.624
	c-1.152,4.589,3.836,10.298,9.24,10.936c0.878,0.104,2.282-0.399,2.467,0.699c0.202,1.205-0.888,2.24-1.983,2.749
	c-3.001,1.396-6.125,1.122-9.217,0.288c-7.816-2.107-13.732-7.07-18.811-13.048c-1.959-2.307-1.134-5.494-0.736-8.205
	c0.778-5.305-0.429-10.148-2.543-14.882c-0.765-1.713-1.711-3.344-2.517-5.041c-1.538-3.241-2.098-6.576-1.409-10.187
	c0.604-3.168,0.849-6.408,1.178-9.624c0.632-6.168,2.964-11.267,7.83-15.474c6.526-5.643,13.403-10.561,21.655-13.194
	c5.628-1.795,11.453-2.578,17.382-1.649c4.765,0.746,8.754,2.894,11.422,6.984c3.673,5.633,8.36,9.825,15.029,11.524
	c0.976,0.249,1.902,0.768,2.789,1.272c1.501,0.853,1.688,1.268,1.95,3.78c-2.054-2.185-3.855-4.46-7.036-4.321
	c-1.608,0.07-3.454-0.32-4.78,0.333c-4.224,2.083-7.725,0.33-11.327-1.482c-7.476-3.759-14.167-2.753-20.99,2.242
	c-4.886,3.577-7.503,8.088-9.459,13.487c-1.388,3.833-3.326,7.466-5.018,11.188c-0.488,0.436-0.51,1.143-0.94,1.611
	c0.002,1.153,0.005,2.308,0.007,3.461c0.412,0.485,0.457,1.17,0.895,1.641c0.012,0.149,0.013,0.299,0.003,0.448
	C145.616,196.563,145.601,197.271,145.122,197.705z"/>
<path fill="#82633D" d="M146.069,202.274c1.442-3.184,2.78-6.264,1.78-10.027c-0.469-1.768,0.517-3.874,1.56-5.561
	c2.215-3.582,3.742-7.471,5.244-11.37c2.856-7.414,8.603-11.394,15.983-13.193c4.734-1.154,8.853,1.085,12.75,3.387
	c2.8,1.654,5.5,1.691,8.573,0.957c6.394-1.526,9.689-1.014,11.642,5.673c0.405,1.389,1.2,2.459,2.858,2.492
	c1.567,0.031,2.473,0.955,3.094,2.293c0.286,0.616,0.542,1.566,1.021,1.724c5.6,1.844,4.64,8.431,8.455,11.586
	c1.138,0.94,3.14,9.221,3.049,10.093c-0.138,1.34-0.625,1.073-1.785,1.009c-3.697-0.202-4.969-2.312-6.055-5.5
	c-1.159-3.402-4.368-5.323-7.258-7.301c-0.275-0.188-0.777-0.204-0.896-0.439c-1.838-3.66-6.018-4.198-8.76-6.631
	c-1.216-1.08-2.596-0.894-3.857-0.47c-2.163,0.728-3.377-0.17-4.391-1.937c-2.02-3.521-4.124-4.228-7.874-2.772
	c-1.424,0.552-2.301,1.576-2.223,3.1c0.087,1.708-0.635,2.89-1.816,4.013c-3.938,3.744-7.157,8.187-11.342,11.699
	c-1.136,0.955-1.984,2.251-2.262,3.657c-0.813,4.12-3.442,7.134-5.875,10.291c-0.542,0.703-0.957,1.563-0.692,2.381
	c0.553,1.706,0.265,2.736-1.693,2.899c-0.157,0.013-0.294,0.178-0.455,0.227c-1.139,0.352-1.59,2.411-2.762,1.812
	c-1.179-0.603-2.053-2.021-2.778-3.249c-1.428-2.418-2.833-4.88-3.221-7.746C145.449,204.344,145.46,203.311,146.069,202.274z"/>
<path fill="#74797E" d="M392.622,215.497c2.481,0.626,3.517,2.861,4.979,4.576c6.23,7.303,12.511,14.57,18.105,22.762
	c-4.04-0.407-8.11,0.059-11.722-2.256c-0.567-0.364-1.231-0.936-1.805-0.306c-0.693,0.764,0.046,1.502,0.548,1.975
	c2.225,2.099,4.521,4.121,6.801,6.161c2.85,2.549,5.688,5.107,8.244,7.964c0.67,0.749,0.973,1.534,0.968,2.537
	c-0.047,9.902-0.873,19.752-1.853,29.595c-0.201,2.033-0.387,4.07-0.653,6.095c-0.855,6.467-1.469,12.953-1.542,19.711
	c-1.322-0.564-1.727-1.732-2.41-2.583c-3.301-4.099-5.937-8.731-9.871-12.324c-1.245-1.137-1.306-2.731-1.528-4.234
	c-1.482-10.022-2.965-20.045-4.402-30.074c-1.391-9.693-2.258-19.475-4.46-29.03c-1.039-4.509-2.646-8.887-4.11-13.703
	c1.159,0.547,1.64,1.282,2.134,1.986c0.631,0.899,1.519,1.532,2.566,1.324c1.302-0.258,1.178-1.608,1.248-2.542
	c0.185-2.414-0.594-4.698-1.29-6.977C392.341,215.915,392.358,215.696,392.622,215.497z"/>
<path fill="#F3E3E3" d="M350.607,407.473c0.964-3.415-0.96-5.808-2.806-8.313c-3.33-4.527-3.276-4.57,0.263-8.967
	c0.534-0.664,1.065-1.341,1.675-1.933c1.344-1.306,2.58-3.327,4.146-3.642c1.936-0.389,2.497,2.329,3.729,3.617
	c3.389,3.547,8.842,4.331,13.12,1.688c1.447-0.895,2.785-1.988,4.291-2.766c2.579-1.333,4.547-0.667,5.988,1.814
	c1.07,1.841,2.214,3.644,3.179,5.539c0.549,1.079,1.25,1.925,2.412,2.056c3.176,0.355,2.411,1.881,1.095,3.7
	c-1.653-0.892-3.396-2.255-5.024,0.12c-1.255-1.734-1.733-3.66-2.516-5.445c-0.333-0.763-0.859-1.307-1.78-1.076
	c-0.996,0.25-0.813,1.137-0.557,1.664c2.356,4.82,3.87,10.208,8.713,13.406c0.563,0.373,1.19,0.658,1.813,0.929
	c0.606,0.263,1.311,0.716,1.835-0.055c0.615-0.901-0.197-1.42-0.736-1.893c-0.961-0.841-1.998-1.596-3.009-2.381
	c-1.334-1.036-1.95-2.325-1.427-4.145c1.347,0.308,2.144,1.318,2.945,2.254c2.466,2.878,4.801,5.87,7.57,8.48
	c0.748,0.706,1.351,1.554,1.555,2.596c0.361,1.84-0.663,2.962-2.537,2.769c-0.588-0.063-1.159-0.271-1.744-0.385
	c-3.15-0.616-5.196,0.297-6.262,3.344c-1.052,3.01-2.754,4.324-6.039,4.215c-3.731-0.126-3.943,0.248-4.857,3.963
	c-0.345,1.398-1.309,1.907-2.469,1.525c-2.632-0.867-4.628-0.129-6.765,1.543c-2.591,2.027-3.225,1.323-5.4-1.215
	c-2.969-3.458-4.688-7.61-7.158-11.328c-1.599-2.404-2.282-5.399-2.79-8.319C350.531,409.763,351.111,408.545,350.607,407.473z"/>
<path fill="#74797E" d="M367.051,256.65c0.493-0.355,0.986-0.709,1.479-1.064c0.319-0.32,0.643-0.293,0.968-0.007
	c2.544,4.719,4.827,9.604,7.695,14.118c4.091,6.442,8.285,12.872,13.046,18.819c4.027,5.032,7.688,10.395,12.087,15.094
	c5.37,5.739,9.206,12.587,14.178,18.597c1.128,1.364,1.896,3.026,2.827,4.551c0.056,0.471-0.074,0.735-0.61,0.55
	c-5.023-3.35-9.992-6.789-15.104-10.003c-1.966-1.236-3.732-2.671-5.468-4.159c-6.39-5.473-12.652-11.073-18.771-16.859
	c-5.556-5.254-10.529-11.042-16.043-16.313c-1.605-1.537-1.762-3.287-1.085-5.378c1.49-4.602,2.802-9.261,4.188-13.896
	C366.679,259.355,365.951,257.864,367.051,256.65z"/>
<path fill="#FFFFFF" d="M358.33,364.708c0.094,0.74,0.188,1.48,0.372,2.92c-2.252-2.036-4.205-3.557-5.864-5.35
	c-3.655-3.951-6.51-8.492-9.424-13.01c-10.583-16.407-11.064-34.17-7.421-52.547c0.265-1.336,0.531-2.674,0.853-3.998
	c0.095-0.386,0.379-0.725,0.582-1.097c0.949,0.978,1.18,2.276,1.709,3.42c4.098,8.829,8.24,17.627,11.709,26.74
	c4.014,10.545,6.813,21.296,6.958,32.644c0.01,0.75,0.242,1.496,0.372,2.244C358.797,359.341,358.521,362.025,358.33,364.708z"/>
<path fill="#F3E3E3" d="M539.06,342.691c0.468-1.638,0.954-3.271,1.395-4.917c0.222-0.833,0.459-1.841-0.605-2.19
	c-0.96-0.315-1.963,0.252-2.319,1.092c-1.702,3.995-2.779,8.128-1.133,12.404c0.879,2.285,3.012,2.768,5.216,2.986
	c0.768,0.076,1.698-0.666,2.405,0.561c-1.684,1.044-4.948,0.426-4.466,3.863c0.32,2.271,1.831,3.956,3.022,5.852
	c-2.047,0.315-4.495-0.589-5.654,1.621c-2.053,3.913,0.784,6.264,3.758,8.883c-4.271-0.492-7.558-1.904-10.529-4.029
	c-4.187-2.993-8.554-6.129-8.931-11.751c-0.317-4.731-3.332-6.222-6.968-7.292c-5.129-1.511-5.17-1.43-3.455-6.446
	c0.606-1.773,1.262-3.535,1.984-5.264c0.727-1.736,1.658-2.679,3.757-1.417c2.875,1.729,6.104,2.532,9.466,2.892
	c2.093,0.224,3.026-0.323,3.378-2.565c0.845-5.383,3.001-10.289,6.235-14.697c0.454-0.618,0.917-1.236,1.434-1.802
	c2.372-2.599,2.635-2.582,4.441,0.449c4.029,6.765,5.653,14.021,4.406,21.857c-0.258,1.621-0.717,3.17-1.552,4.577
	c-1.481,2.499-3.229,2.633-5.228,0.453C538.708,346.107,538.803,344.4,539.06,342.691z"/>
<path fill="#74797E" d="M369.498,255.579c-0.322,0.002-0.646,0.005-0.968,0.007c-0.593-2.163-1.399-2.403-3.34-0.922
	c-1.898,1.449-3.747,2.962-5.642,4.418c-3.894,2.997-8.268,5.055-12.898,6.634c-1.551,0.528-2.271,0.473-2.223-1.526
	c0.438-17.745,2.838-35.15,8.69-51.985c0.388-1.118,0.785-2.211,1.689-2.763c4.473,5.143,3.998,11.671,4.952,17.809
	c1.08,6.948,2.944,13.689,5.764,20.106C366.741,250.128,368.457,252.697,369.498,255.579z"/>
<path fill="#424041" d="M398.18,294.125c-6.041-7.649-12.114-14.521-16.381-22.699c-3.165-6.069-5.046-12.588-6.01-19.308
	c-0.622-4.336,0.97-8.552,1.816-12.785c0.154-0.77,0.546-1.175,1.388-1.186c0.576-0.007,1.221-0.056,1.716-0.314
	c3.133-1.63,3.175-1.691,5.353,1.251c1.917,2.59,3.755,5.244,5.514,7.943c0.961,1.473,0.739,3.322,0.902,4.959
	c1.329,13.335,3.424,26.554,5.689,39.75C398.266,292.31,398.18,292.916,398.18,294.125z"/>
<path fill="#3C2D17" d="M434.406,141.221c-1.89-1.791-3.632-3.245-5.576-4.455c-0.97-0.603-1.937-0.878-2.847-0.232
	c-0.896,0.635-0.681,1.673-0.392,2.59c1.435,4.546,1.604,9.162,0.801,13.836c-0.197,1.152-0.443,2.284-1.573,3.871
	c0.281-4.838-0.269-8.914-1.493-12.866c-1.904-6.145-4.832-11.657-10.573-15.078c-1.844-1.099-2.497-2.626-2.725-4.541
	c-0.565-4.767-3.03-8.374-6.752-11.26c-3.31-2.566-6.804-4.792-10.892-6.129c0.439-1.564,1.554-1.497,2.639-1.519
	c4.435-0.087,8.49,1.682,12.63,2.824c5.219,1.441,10.25,3.412,14.614,6.98c6.164,5.037,9.663,11.472,11.27,19.072
	C433.987,136.443,435.018,138.52,434.406,141.221z"/>
<path fill="#77767A" d="M551.197,579.883c4.568-4.512,8.449-9.676,13.395-13.833c0.411-0.347,0.837-0.576,1.373-0.577
	c7.286-0.001,14.572-0.001,22.088-0.001c-3.417,5.271-7.018,9.828-11.201,13.928c-1.087,1.064-1.938,1.581-3.706,1.204
	c-2.36-0.504-4.91-0.125-7.38-0.125c-4.763,0-9.525,0-14.289,0C551.382,580.28,551.29,580.082,551.197,579.883z"/>
<path fill="#76757A" d="M573.123,582.604c-3.747,3.244-7.307,5.879-10.314,9.039c-4.088,4.3-9.266,3.864-14.346,4.077
	c-3.745,0.157-7.505,0.261-11.226-0.42c-0.479-0.088-1.108,0.107-1.386-0.421c-0.304-0.582,0.26-0.94,0.596-1.267
	c4.103-3.963,8.228-7.903,12.339-11.857c0.4-0.385,0.771-0.499,1.359-0.358c7.063,1.669,14.244,1.108,21.396,1.108
	C571.85,582.505,572.158,582.542,573.123,582.604z"/>
<path fill="#F3E3E3" d="M362.305,186.655c0.331,3.894,1.81,7.198,4.412,10.201c2.874,3.314,5.828,6.452,9.649,8.656
	c0.866,0.5,0.723,1.226,0.754,1.974c0.085,2.048,0.489,3.936,1.815,5.655c1.28,1.659,0.791,3.767,0.789,5.705
	c-0.001,0.721-0.691,0.607-1.176,0.616c-1.061,0.021-2.063,0.292-2.854,0.973c-1.643,1.414-2.23,0.565-2.665-1.062
	c-0.523-1.964-1.193-3.873-1.609-5.884c-0.51-2.465-2.889-3.677-4.579-5.297c-1.518-1.452-3.239-2.698-4.926-3.961
	c-0.671-0.502-0.627-1.157-0.695-1.816c-0.684-6.525-1.414-13.046-1.979-19.581c-0.084-0.977-0.356-1.782-0.7-2.629
	c-0.437-1.075-0.153-1.622,1.088-1.43c0.806,0.715,2.293-0.582,2.819,0.957c-0.048,0.434-0.097,0.868-0.145,1.302
	C361.968,182.907,361.969,184.781,362.305,186.655z"/>
<path fill="#FFFFFF" d="M374.697,254.545c-0.278,1.738,0.558,3.355,0.549,5.064c0.184,0.54-0.064,0.651-0.535,0.54
	c-2.854-5.437-5.092-11.158-7.692-16.704c-3.242-6.92-4.847-14.221-6.271-21.618c-0.023-0.566-0.711-1.34,0.478-1.528
	c1.329,1.757,2.59,3.574,4.015,5.25c0.796,0.937,1.833,1.727,3.26,1.257c0.704-1.274-0.128-2.735,0.49-4.02
	c0.267-1.407,0.533-2.813,0.8-4.22c0.206-0.006,0.411-0.012,0.616-0.019c0.166,2.683,2.174,4.879,1.191,7.964
	c-0.705,2.219-0.611,4.602,1.646,6.438c2.688,2.186,4.133,4.669,2.229,8.464c-1.898,3.792-1.821,8.053-0.871,12.218
	C374.972,253.901,374.922,254.214,374.697,254.545z"/>
<path fill="#423F40" d="M524.256,618.48c-2.364-0.508-2.454-2.144-2.996-3.385c-1.633-3.74-0.474-7.671,0.846-10.848
	c3.277-7.904,7.185-15.654,13.324-21.852c4.379-4.42,9.375-8.026,15.078-10.753c2.813-1.346,5.252-3.666,7.535-5.88
	c2.831-2.744,6.446-4.419,9.077-7.372c0.157,0.151,0.314,0.304,0.474,0.454c-1.12,1.131-2.144,2.383-3.38,3.368
	c-3.211,2.56-5.771,5.748-8.669,8.604c-6.17,6.085-12.044,12.464-18.539,18.236c-5.431,4.827-9.672,10.739-13.027,17.18
	C521.993,610.045,521.352,614.124,524.256,618.48z"/>
<path fill="#76757A" d="M556.201,597.354c-1.986,2.184-3.492,4.002-5.18,5.634c-1.087,1.051-2.438,1.563-4.095,1.677
	c-5.677,0.385-11.257,1.716-16.964,1.866c-0.799,0.021-1.903,0.446-2.343-0.349c-0.433-0.781,0.462-1.561,0.877-2.256
	c1.396-2.338,2.925-4.594,4.751-6.633c0.591-0.661,1.173-1.217,2.176-0.972C542.043,597.94,548.783,597.391,556.201,597.354z"/>
<path fill="#1F2021" d="M517.016,601.363c0.289-2.701,0.733-5.309,1.938-7.68c4.39-8.64,10.685-15.668,18.424-21.437
	c0.599-0.446,1.341-0.702,2.019-1.042c0.775-0.387,1.568-1.493,2.422-0.44c0.731,0.905,0.646,2.134-0.051,3.104
	c-0.487,0.68-1.127,1.316-1.83,1.767c-5.781,3.685-9.401,9.208-13.06,14.793c-2.266,3.46-3.977,7.128-5.313,10.969
	c-0.676,1.938-2.362,2.061-3.604,2.229C516.314,603.847,517.551,602.063,517.016,601.363z"/>
<path fill="#F3E3E3" d="M574.479,352.929c-1.701,1.579-3.58,0.721-5.312,0.227c-6.069-1.735-11.836-4.198-17.169-7.618
	c-0.775-0.498-1.651-0.857-2.367-1.423c-0.945-0.747-1.14-1.751-0.895-2.978c0.296-1.474,1.411-1.07,2.194-1.039
	c9.48,0.371,17.825,3.172,23.615,11.286C574.901,351.916,574.913,352.433,574.479,352.929z"/>
<path fill="#76757A" d="M591.432,555.944c-0.009,0.424,0.03,0.854-0.032,1.271c-0.909,5.936-1.387,6.299-7.301,6.24
	c-5.443-0.054-10.891-0.011-16.927-0.011c3.395-2.859,5.252-6.647,10.432-6.694c4.493-0.042,9.006-1.364,13.314-2.946
	C592.24,554.242,591.558,555.16,591.432,555.944z"/>
<path fill="#76757A" d="M546.39,607.106c-4.972,5.854-10.87,9.479-17.947,11.091c-2.101,0.478-2.423-1.714-3.127-2.975
	c-0.613-1.098-0.556-2.479-0.404-3.767c0.351-3.005,0.879-3.462,3.883-3.327c5.211,0.232,10.387-0.102,15.537-0.907
	C544.881,607.136,545.447,607.156,546.39,607.106z"/>
<path fill="#FFFFFF" d="M367.378,223.772c-1.567-0.506-2.368-1.856-3.28-3.051c-2.385-3.123-4.381-6.5-6.363-9.883
	c-1.329-2.268-0.867-6.771,0.89-8.978c2.34,3.823,4.991,7.387,8.688,10.021c1.559,1.11,2.225,2.272,1.435,4.259
	c-0.547,1.373-1.026,2.886-0.811,4.459C367.368,221.589,368.172,222.821,367.378,223.772z"/>
<path fill="#424041" d="M373.126,228.084c0.058-3.186,1.909-5.615,4.546-6.234c1.78-0.418,4.485,1.177,5.771,3.358
	c0.274,0.467,0.48,0.913,0.279,1.433c-0.638,1.652-0.59,3.43-0.304,5.047c0.505,2.859-1.94,3.167-3.367,4.061
	c-1.125,0.705-1.938-0.792-2.717-1.691c-0.711-0.823-1.655-1.447-2.504-2.149C373.539,230.84,373.238,229.366,373.126,228.084z"/>
<path fill="#221A15" d="M190.602,387.047c0.019-0.58,0.039-1.16,0.058-1.739c0.661-1.256,1.515-2.435,0.303-3.916
	c-0.447-0.545,0.001-1.296,0.53-1.803c1.626-3.227,2.575-6.748,4.328-9.918c0.776-0.883,0.408-2.556,1.982-2.889
	c0.053,0.066,0.158,0.139,0.151,0.198c-0.356,3.081,2.14,3.226,4.067,3.989c3.454,1.367,6.969,2.445,10.725,2.509
	c2.044,0.356,4.088,0.353,6.132,0.002c5.997-0.434,11.43-2.666,16.755-5.245c0.839-0.215,0.801,0.295,0.616,0.81
	c-0.226,0.628-0.822,1.062-0.977,1.74c-3.819,2-7.688,3.858-12.076,4.241c-1.053,0.458-2.233-0.106-3.28,0.406
	c-1.883,0.253-3.767,0.347-5.651,0.009c-1.061-0.521-2.257,0.034-3.327-0.417c-4.242-0.122-8.06-1.681-11.745-3.586
	c-1.211-0.626-1.742-0.574-2.1,0.84c-1.294,5.104-3.665,9.87-4.79,15.029c-0.141,0.645-0.06,1.337-0.082,2.007
	C191.58,388.629,190.342,388.374,190.602,387.047z"/>
<path fill="#FFFFFF" d="M307.294,301.116c-0.419,5.191-3.466,8.636-7.355,11.374c-1.778,1.251-3.339,0.201-3.344-2.102
	c-0.005-2.875,1.052-5.485,2.535-7.921c0.574-0.942,1.295-1.815,1.73-2.815c0.812-1.866,2.45-2.699,4.104-2.314
	C306.605,297.72,307.104,299.559,307.294,301.116z"/>
<path fill="#F2E2E2" d="M553.445,376.319c-5.199-0.813-9.506-3.154-13.125-6.819c-0.414-0.42-0.798-0.9-1.078-1.417
	c-0.402-0.743-0.924-1.606-0.443-2.406c0.51-0.849,1.532-0.534,2.346-0.502c0.672,0.026,1.396,0.105,1.992,0.384
	c4.155,1.942,7.538,4.786,9.907,8.757c0.214,0.36,0.353,0.776,0.459,1.185C553.561,375.714,553.476,375.967,553.445,376.319z"/>
<path fill="#FDFEFF" d="M105.018,347.226c-0.228,1.354-0.05,2.729-1.528,3.158c-1.293,0.375-2.056-0.524-2.715-1.453
	c-1.189-1.673-2.063-3.512-2.788-5.426c-0.824-2.175-1.646-4.351-2.449-6.534c-0.42-1.145,0.056-1.515,1.207-1.442
	c0.892,0.057,1.719,0.291,2.347,0.859C102.364,339.358,104.04,343.198,105.018,347.226z"/>
<path fill="#F2E2E2" d="M554.658,362.356c-0.063,1.582-0.891,2.369-2.588,2.33c-3.788-0.088-8.802-3.721-10.074-7.293
	c-0.229-0.64-0.388-1.058,0.381-1.429c2.365-1.142,11.848,1.937,12.188,5.801C554.579,361.934,554.617,362.101,554.658,362.356z"/>
<path fill="#FCFCFB" d="M389.599,240.635c-0.459-0.611-0.821-1.334-1.391-1.817c-4.027-3.424-3.397-7.717-2.138-12.008
	c0.441-1.504-0.363-1.998-1.197-2.693c-3.389-2.826-3.578-3.252-3.188-7.528c2.354,1.573,4.255,3.075,4.938,6.089
	c1.239,5.474,2.501,10.938,3.457,16.468C390.119,239.706,390.835,240.486,389.599,240.635z"/>
<path fill="#FDFEFF" d="M390.007,220.806c-2.106-2.226-4.53-4.107-7.023-5.837c-2.546-1.766-3.45-4.184-3.721-7.042
	c-0.104-0.536,0.069-0.79,0.646-0.633c6.97,1.481,9.144,6.934,10.689,12.907C390.685,220.68,390.524,220.917,390.007,220.806z"/>
<path fill="#FBFCFC" d="M300.221,285.086c1.257,6.638,0.172,12.345-4.35,17.383C293.685,297.442,295.858,288.651,300.221,285.086z"
	/>
<path fill="#1F2022" d="M515.584,601.429c-0.241,1.352-0.461,2.157-0.517,2.974c-0.167,2.488,0.439,2.943,2.631,1.739
	c1.334-0.731,1.415-0.148,1.458,0.905c0.042,1.055-0.19,1.913-0.912,2.791c-1.99,2.422-4.084,4.69-6.836,6.269
	c-0.353,0.202-0.628,0.694-1.092,0.427c-0.546-0.316-0.386-0.887-0.271-1.369c0.851-3.617,1.631-7.262,3.742-10.429
	C514.381,603.844,514.242,602.593,515.584,601.429z"/>
<path fill="#F2E2E2" d="M559.092,356.875c-4.999,0.622-8.51-2.18-12.395-3.704c-0.802-0.314-1.9-1.336-1.608-2.301
	c0.394-1.3,1.685-1.813,3.11-1.715C553.238,349.505,556.221,352.722,559.092,356.875z"/>
<path fill="#F2E1E0" d="M158.352,217.169c0.434,1.433-0.672,0.979-1.319,1.067c-0.798,0.11-1.58,0.35-1.804,1.19
	c-0.233,0.874,0.548,0.774,1.094,0.984c0.689,0.265,0.013,0.795,0.017,1.207c0.024,2.325,0.967,3.158,3.547,3.031
	c0.166-1.385-2.183-1.917-1.131-3.742c0.796,1.077,2.096,1.693,2.221,3.137c0.096,1.107,1.081,2.771-0.156,3.211
	c-1.499,0.533-3.075,2.005-5.103,0.104c-3.65-3.422-4.049-7.467-0.509-10.874c0.618-0.594,1.224-1.226,2.216-0.941
	C157.873,216.006,157.909,216.704,158.352,217.169z"/>
<path fill="#76757A" d="M591.432,555.944c-0.126-0.725,0.212-1.561-0.514-2.141c-0.536-1.353-1.584-0.983-2.591-0.774
	c-3.646,0.759-7.294,1.512-11.014,2.07c3.64-3.361,7.782-5.602,12.824-5.971c1.183-0.086,1.521,0.645,1.6,1.536
	C591.895,552.433,592.235,554.227,591.432,555.944z"/>
<path fill="#FAFAFA" d="M90.93,343.933c0.093-0.707-0.449-1.754,0.303-2.068c0.966-0.402,1.395,0.757,1.873,1.363
	c1.342,1.702,2.663,3.438,3.806,5.275c0.717,1.152,1.284,2.912,0.172,3.75c-1.186,0.894-2.634-0.182-3.443-1.342
	C92.186,348.823,90.612,346.734,90.93,343.933z"/>
<path fill="#F9F9F9" d="M88.97,351.348c1.916,0.567,3.523,1.496,4.848,2.854c0.645,0.662,1.378,1.375,1.673,2.207
	c0.39,1.102,2.56,2.08,0.958,3.306c-1.443,1.104-2.877-0.266-3.966-1.339c-1.629-1.605-3.285-3.23-4.095-5.444
	C88.175,352.351,87.658,351.386,88.97,351.348z"/>
<path fill="#1E1612" d="M242.877,345.065c-0.002-5-0.005-10-0.007-14.999c0-2.335,0-4.67,0-7.005
	c0.266,0.002,0.532,0.003,0.798,0.005c0,11.369,0,22.738,0,34.107C242.593,353.184,243.267,349.093,242.877,345.065z"/>
<path fill="#EEDFDE" d="M221.384,205.546c0.335,2.425,0.671,4.867-0.286,7.221c-0.377,0.928-0.397,2.438-1.965,2.167
	c-1.198-0.208-2.613-0.437-2.619-2.208c0-0.236-0.167-0.473-0.256-0.709c-0.3-1.36-0.292-2.72-0.004-4.081
	c1.464-1.225,1.74,0.298,2.009,1.044c0.303,0.839,0.346,1.696,1.51,1.646c0.485-0.021,0.727-0.293,0.798-0.796
	c0.142-1.003,0.01-1.854-0.988-2.379c-0.556-0.292-1.09-0.624-1.657-0.951c0.621-0.754,1.409-0.344,1.985-0.664
	C220.404,205.746,220.741,204.863,221.384,205.546z"/>
<path fill="#434548" d="M365.766,378.015c-1.151,3.406-3.281,5.62-5.624,7.563c-1.822,1.512-2.313-0.852-3.281-1.591
	c-1.022-0.78-0.35-1.407,0.491-1.915C359.926,380.515,362.329,378.611,365.766,378.015z"/>
<path fill="#FBFBFB" d="M303.11,316.866c-1.163,0.109-1.157-0.753-1.132-1.503c0.054-1.618,5.584-6.532,7.288-6.526
	c1.27,0.004,1.699,0.69,1.355,1.83C310.064,312.518,304.952,316.694,303.11,316.866z"/>
<path fill="#FAFAF9" d="M92.3,363.615c0.042,0.798-0.057,1.624-0.794,2.022c-0.815,0.44-1.469-0.163-1.989-0.722
	c-1.516-1.627-2.604-3.546-3.641-5.498c-0.538-1.012-0.108-1.313,0.881-1.424C89.146,357.725,92.244,360.834,92.3,363.615z"/>
<path fill="#F7F8F7" d="M303.252,324.263c1.372-3.892,4.205-6.478,7.162-8.938c0.807-0.672,0.988,0.121,1.014,0.737
	C311.547,318.876,306.576,323.97,303.252,324.263z"/>
<path fill="#211914" d="M364.353,666.925c2.181-4.174,1.406-8.334-0.058-12.491c0.195-0.331,0.548-0.547,0.771-0.189
	c2.418,3.873,2.268,8.098,1.425,12.327C366.33,667.372,365.287,668.097,364.353,666.925z"/>
<path fill="#424447" d="M343.734,397.51c2.772,3.474,2.772,4.7,0.264,6.104c-1.219,0.682-1.635,0.354-1.635-1
	C342.364,400.871,343.038,399.345,343.734,397.51z"/>
<path fill="#414346" d="M507.802,357.668c0.272-2.34,0.394-4.024,0.695-5.677c0.136-0.738,0.29-1.859,1.625-1.23
	c0.928,0.438,1.678,0.948,1.096,2.137C510.446,354.477,509.683,356.065,507.802,357.668z"/>
<path fill="#404346" d="M468.457,412.639c2.229,1.36,2.979,3.052,4.198,4.31c0.782,0.809-0.136,1.37-0.729,1.782
	c-0.723,0.505-1.216,0.243-1.502-0.607C469.871,416.474,469.255,414.847,468.457,412.639z"/>
<path fill="#EDDEDE" d="M220.397,204.298c-2.075,0.108-4.03,0.457-5.114,2.55c-1.33-0.018-0.542-0.922-0.615-1.467
	c1.856-3.053,3.917-3.438,5.713-1.068L220.397,204.298z"/>
<path fill="#FEEFEE" d="M162.557,319.636c0.792,3.751,0.777,7.501,0.009,11.253C162.071,327.139,161.914,323.388,162.557,319.636z"
	/>
<path fill="#FEEFEF" d="M394.647,208.386c2.73-0.732,5.46-0.79,8.184,0.04C400.1,209.028,397.372,208.939,394.647,208.386z"/>
<path fill="#F5F7F9" d="M25.718,669.048c2.39-0.76,4.777-0.792,7.162,0.021C30.491,669.635,28.104,669.69,25.718,669.048z"/>
<path fill="#F3E4E4" d="M390.447,145.602c0.169-0.63-0.103-1.364,0.581-2.049c0.978,1.203,0.746,2.659,0.348,3.724
	c-0.371,0.994-0.74,0.029-0.908-0.473C390.461,146.403,390.454,146.002,390.447,145.602z"/>
<path fill="#1A130F" d="M358.33,364.708c-0.052-2.678-0.104-5.355-0.154-8.033c0.137-0.229,0.499-0.692,0.494-0.525
	C358.586,359.001,359.264,361.894,358.33,364.708z"/>
<path fill="#F7F7F8" d="M130.761,690.564c2.9-0.745,5.799-0.798,8.697,0.02C136.558,690.912,133.659,690.926,130.761,690.564z"/>
<path fill="#302F31" d="M367.051,256.65c-0.383,1.322,0.473,2.833-0.613,4.049C365.878,259.234,365.07,257.73,367.051,256.65z"/>
<path fill="#18120F" d="M242.521,365.217c-0.787-1.694-0.372-3.401-0.055-5.107C243.272,361.804,243.194,363.508,242.521,365.217z"
	/>
<path fill="#1A130F" d="M348.958,491.13c0.051-1.995,0.103-3.99,0.153-5.986c0.916,2.33,0.204,4.721,0.074,7.12
	C349.11,491.886,349.034,491.508,348.958,491.13z"/>
<path fill="#FEEFEE" d="M215.772,227.901c-0.755-2.389-0.788-4.776,0.021-7.16C216.142,223.128,216.065,225.515,215.772,227.901z"/>
<path fill="#5F666F" d="M392.622,215.497c-0.019,0.219-0.034,0.438-0.052,0.656c-0.783-1.046-0.895-2.552-2.046-3.394
	C391.954,213.042,392.9,213.732,392.622,215.497z"/>
<path fill="#596069" d="M379.199,481.979c-0.203,1.086,0.838,2.525-0.905,3.172c-0.001-1.006-0.003-2.011-0.004-3.016
	C378.536,481.756,378.848,481.753,379.199,481.979z"/>
<path fill="#D8C9C8" d="M182.074,271.45c1.452,1.039,1.451,2.072-0.013,3.099C182.065,273.516,182.069,272.482,182.074,271.45z"/>
<path fill="#382B1F" d="M146.069,202.274c0.005,1.033,0.011,2.067,0.017,3.1C144.566,204.349,144.584,203.315,146.069,202.274z"/>
<path fill="#2A292C" d="M379.199,481.979c-0.305,0.053-0.606,0.104-0.909,0.156c0.232-1.075-0.836-2.523,0.908-3.166
	C379.198,479.973,379.198,480.976,379.199,481.979z"/>
<path fill="#D2CFCD" d="M549.902,346.717c-0.957-0.083-1.896,0.431-2.137-0.845c-0.041-0.22,0.104-0.675,0.218-0.692
	C549.048,345.01,549.33,345.862,549.902,346.717z"/>
<path fill="#231A18" d="M362.305,186.655c-0.613-1.873-0.624-3.746,0-5.62C362.305,182.907,362.305,184.781,362.305,186.655z"/>
<path fill="#302725" d="M539.06,342.691c0.021,1.706,0.039,3.412,0.059,5.118C538.26,346.112,538.354,344.405,539.06,342.691z"/>
<path fill="#424549" d="M516.747,331.677c-0.101,0.817-0.201,1.635-0.347,2.815C515.167,333.118,516.226,332.435,516.747,331.677z"
	/>
<path fill="#17100F" d="M374.697,254.545c-0.031-0.304-0.063-0.609-0.097-0.913c0.067-1.052,0.135-2.104,0.201-3.157
	C375.011,251.848,375.617,253.24,374.697,254.545z"/>
<path fill="#312825" d="M368.987,222.786c-0.201,1.335,0.328,2.76-0.49,4.02C368.652,225.465,368.024,224.028,368.987,222.786z"/>
<path fill="#333538" d="M304.484,334.955c1.215,0.296,0.975,1.254,0.959,2.109C304.126,336.815,304.506,335.793,304.484,334.955z"/>
<path fill="#897D7C" d="M293.127,302.765c-1.291-0.311-1.003-1.27-0.888-2.158C293.447,300.951,293.097,301.937,293.127,302.765z"/>
<path fill="#241C19" d="M216.254,207.934c0.001,1.361,0.003,2.721,0.004,4.081C215.533,210.656,215.539,209.296,216.254,207.934z"/>
<path fill="#736766" d="M243.044,309.811c1.283,0.31,0.902,1.313,0.901,2.159C242.729,311.632,242.958,310.692,243.044,309.811z"/>
<path fill="#5A616A" d="M354.634,466.649c-0.04,0.822,0.382,1.854-0.939,2.104c0.012-0.668,0.022-1.337,0.034-2.005
	C353.994,466.384,354.3,466.387,354.634,466.649z"/>
<path fill="#51565C" d="M426.971,410.805c1.306,0.278,0.902,1.292,0.916,2.127c-0.34,0.257-0.647,0.254-0.914-0.108
	C426.972,412.15,426.972,411.478,426.971,410.805z"/>
<path fill="#847977" d="M403.856,142.687c-0.022,0.413-0.045,0.826-0.065,1.239c-0.92-0.226-1.289-0.896-0.827-1.638
	C403.335,141.694,403.777,142.034,403.856,142.687z"/>
<path fill="#352A28" d="M403.94,145.191c0.419,1.322,0.526,2.643-0.016,3.961C403.931,147.832,403.936,146.512,403.94,145.191z"/>
<path fill="#231A18" d="M362.448,179.732c-0.664-1.131-2.067-0.084-2.819-0.957C360.518,179.246,362.144,177.542,362.448,179.732z"
	/>
<path fill="#221916" d="M233.833,282.547c0.301,0.747,0.603,1.495,0.903,2.242c-0.176,0.208-0.354,0.417-0.531,0.626
	c-0.323-0.552-0.646-1.104-0.969-1.656C233.192,283.235,233.331,282.802,233.833,282.547z"/>
<path fill="#5C626C" d="M378.3,457.017c-0.077-0.747-0.136-1.483,0.894-1.625c0.006,0.503,0.013,1.006,0.019,1.509
	C378.947,457.25,378.64,457.257,378.3,457.017z"/>
<path fill="#37393D" d="M378.3,457.017c0.304-0.039,0.607-0.077,0.911-0.116c0.086,0.751,0.12,1.473-0.887,1.628
	C378.316,458.024,378.308,457.521,378.3,457.017z"/>
<path fill="#3D3F43" d="M354.634,466.649c-0.302,0.031-0.604,0.064-0.906,0.099c-0.119-0.771-0.11-1.474,0.895-1.629
	C354.625,465.629,354.63,466.139,354.634,466.649z"/>
<path fill="#898685" d="M182.971,440.514c0.119,0.783,0.022,1.443-0.921,1.623C181.874,441.321,182.063,440.713,182.971,440.514z"/>
<path fill="#241C19" d="M221.384,205.546c-0.49,0.097-0.981,0.192-1.471,0.289c0.162-0.512,0.323-1.025,0.484-1.537l-0.016,0.015
	C221.139,204.38,221.471,204.792,221.384,205.546z"/>
<path fill="#5E482F" d="M145.122,197.705c-0.04-0.74-0.047-1.461,0.941-1.596C146.188,196.899,146.12,197.577,145.122,197.705z"/>
<path fill="#5E482F" d="M146.059,195.661c-1.015-0.156-0.987-0.88-0.896-1.64C146.15,194.192,146.176,194.888,146.059,195.661z"/>
<path fill="#C6B7B6" d="M158.352,217.169c-1.07-0.108-0.924-0.909-0.927-1.625C158.959,215.386,158.244,216.512,158.352,217.169z"/>
<path fill="#59442C" d="M145.157,190.56c-0.096-0.776-0.081-1.487,0.941-1.611C146.156,189.704,146.131,190.409,145.157,190.56z"/>
<path fill="#AFAEAD" d="M353.74,447.835c-0.212-0.811-0.131-1.474,0.848-1.686C354.65,446.884,354.925,447.726,353.74,447.835z"/>
<path fill="#433937" d="M574.479,352.929c0.022-0.515,0.047-1.03,0.068-1.545c0.406,0.082,0.839,0.152,0.883,0.679
	C575.485,352.745,574.977,352.84,574.479,352.929z"/>
<path fill="#3F4247" d="M427.852,350.458c-0.986-0.194-0.974-0.907-0.862-1.668C428.004,348.968,427.985,349.683,427.852,350.458z"
	/>
<path fill="#716564" d="M108.21,347.805c0.566,0.185,1.12,0.387,1.013,1.155c-0.079,0.566-0.483,0.569-0.917,0.504
	C108.274,348.911,108.243,348.358,108.21,347.805z"/>
<path fill="#8D8986" d="M389.599,240.635c0.681-0.329,0.202-1.032,0.481-1.49c0.161,0.527,0.355,1.047,0.468,1.585
	c0.06,0.283,0.046,0.739-0.409,0.625C389.913,241.297,389.776,240.886,389.599,240.635z"/>
<path fill="#241C17" d="M350.607,407.473c0.468,1.077,0.4,2.227,0.451,3.358C350.145,409.814,350.724,408.597,350.607,407.473z"/>
<path fill="#312825" d="M367.378,223.772c0.298-1.039-0.021-2.185,0.557-3.173C367.885,221.68,368.493,222.877,367.378,223.772z"/>
<path fill="#2E3034" d="M426.973,412.822c0.306,0.036,0.609,0.071,0.914,0.107c0.003,0.503,0.007,1.005,0.011,1.507
	C426.864,414.313,426.892,413.583,426.973,412.822z"/>
<path fill="#4F565E" d="M379.208,427.675c0.09,0.777,0.089,1.502-0.948,1.62C378.233,428.554,378.173,427.793,379.208,427.675z"/>
<path fill="#A8A6A3" d="M361.224,220.299c-0.627,0.363-0.205,1.054-0.478,1.528c-0.474-0.456-0.417-1.071-0.466-1.643
	c-0.025-0.294-0.084-0.777,0.403-0.661C360.913,219.578,361.047,220.028,361.224,220.299z"/>
<path fill="#4E535A" d="M402.901,441.649c-0.103-0.771-0.108-1.49,0.911-1.639C403.91,440.781,403.876,441.477,402.901,441.649z"/>
<path fill="#BFBCB9" d="M379.908,207.294c-0.216,0.211-0.431,0.422-0.646,0.633c-0.297-0.294-1.212-0.274-0.79-0.898
	C378.84,206.488,379.493,206.802,379.908,207.294z"/>
<path fill="#241C19" d="M214.668,205.381c0.064,0.548-0.323,1.285,0.615,1.467c-0.173,0.312-0.505,0.546-0.738,0.259
	C214.093,206.55,214.166,205.925,214.668,205.381z"/>
<path fill="#43464D" d="M418.721,327.308c0.203-0.184,0.407-0.367,0.61-0.55c0.399,0.289,1.009,0.802,0.705,1.108
	C419.502,328.404,419.077,327.731,418.721,327.308z"/>
<path fill="#ABA7A4" d="M374.711,260.149c0.178-0.18,0.356-0.359,0.535-0.54c0.434,0.527,0.775,1.141,0.165,1.66
	C375.28,261.38,374.758,260.669,374.711,260.149z"/>
<path fill="#5F5855" d="M390.007,220.806c0.406,0.002,0.479-0.32,0.592-0.605c0.361,0.122,0.975,0.235,0.705,0.693
	C390.996,221.417,390.399,221.481,390.007,220.806z"/>
<path fill="#9A9592" d="M218.014,221.54c0.488,0.674,0.385,1.204,0.188,1.758C217.547,222.869,217.726,222.322,218.014,221.54z"/>
<path fill="#221A15" d="M387.836,620.874c3.778-0.66,7.594-0.854,11.421-0.924c2.193,0.998,4.506,0.229,6.755,0.443
	c1.89,0.182,3.825-0.271,5.685,0.692C403.737,620.625,395.79,622.56,387.836,620.874z"/>
<path fill="#221A15" d="M430.03,620.746c-2.965,0-5.931,0-8.896,0c0-0.264,0-0.527,0.001-0.791
	C424.102,619.941,427.066,619.614,430.03,620.746z"/>
<path fill="#221A15" d="M405.105,619.862c4.858-0.768,9.75-0.459,14.632-0.438c-2.016,0.974-4.154,0.354-6.23,0.438
	C410.711,619.975,407.906,619.873,405.105,619.862z"/>
<path fill="#221A15" d="M443.48,619.12c-1.827,0.876-3.367,1.04-4.954,0C440.114,619.12,441.703,619.12,443.48,619.12z"/>
<path fill="#221A15" d="M432.339,620.254c1.772-1.143,2.833-0.987,3.876,0C435.165,620.254,434.115,620.254,432.339,620.254z"/>
<path fill="#221A15" d="M390.112,621.587c-0.032,0.225-0.013,0.343-0.061,0.386c-0.941,0.84-2.05,0.424-3.104,0.366
	c-0.038-0.002-0.136-0.607-0.063-0.644C387.949,621.178,389.024,621.439,390.112,621.587z"/>
<path fill="#221A15" d="M424.071,619.35c2.458-0.593,4.956-0.469,7.448-0.429C429.086,619.891,426.552,619.161,424.071,619.35z"/>
<path fill="#221A15" d="M433.396,618.817c1.388-0.521,2.835-0.405,4.271-0.397C436.315,619.315,434.822,618.707,433.396,618.817z"/>
<path fill="#221A15" d="M438.965,618.313c1.277-0.146,2.555-0.291,3.832-0.438C441.609,618.813,440.244,618.179,438.965,618.313z"/>
<path fill="#221A15" d="M381.461,623.036c-0.14,0.501-0.511,0.456-0.807,0.408c-0.18-0.029-0.479-0.28-0.46-0.381
	c0.071-0.37,0.396-0.546,0.749-0.452C381.146,622.666,381.304,622.9,381.461,623.036z"/>
<path fill="#221A15" d="M384.14,621.374c0.88-0.532,1.854-0.409,2.812-0.398c0,0.151,0,0.304,0,0.454
	C386.014,621.411,385.076,621.393,384.14,621.374z"/>
<path fill="#221A15" d="M197.802,366.782c-0.464,1.021-0.928,2.042-1.393,3.062c-3.421-3.845-6.391-8.033-9.377-12.508
	c1.563,6.936,3.095,13.617,4.667,20.291c0.189,0.805,0.658,1.606,0.088,2.441c-0.754,0.52-0.668,1.178-0.113,1.702
	c1.985,1.876,0.77,2.775-1.014,3.539c-2.157-3.875-2.376-8.287-3.386-12.472c-1.357-5.625-2.293-11.357-3.805-16.936
	c-1.114-4.111-2.266-8.231-4.46-12.025c-3.411-5.898-5.929-12.214-8.225-18.651c-1.406-3.943-2.51-7.838-2.689-12.001
	c-0.43-1.073,0.086-2.258-0.391-3.326c1.214-1.291,2.843-1.691,4.476-2.083c1.165-0.024,2.526-0.665,3.145,1.01
	c-1.352,0.253-2.491,1.254-3.952,1.124c-0.529,0.503-1.58,0.399-1.651,1.429c0.002,0.574-0.076,1.124-0.447,1.589
	c-0.108,0.442-0.12,0.851,0.373,1.087c0.588,0.34,0.563,1.087,1.012,1.52c2.1,8.907,5.069,17.533,9.727,25.405
	c4.266,7.209,9.028,14.131,13.749,21.059C195.245,363.666,196.749,365.064,197.802,366.782z"/>
<path fill="#1E1612" d="M279.335,628.023c-8.752,2.275-17.68,3.647-26.598,5.025c-17.987,2.778-36.069,4.426-54.289,3.688
	c-17.833-0.726-35.223-3.659-51.678-10.986c-1.941-0.864-3.931-1.623-5.792-2.656c-0.682-0.378-1.67-0.508-1.674-2.047
	c2.619,1.102,5.097,2.055,7.502,3.166c11.264,5.204,23.234,7.771,35.43,9.388c13.317,1.766,26.707,2.056,40.095,1.063
	c14.459-1.073,28.832-2.897,43.068-5.71c3.421-0.676,6.857-1.277,10.286-1.913C277.033,626.884,278.443,626.492,279.335,628.023z"/>
<path fill="#221A17" d="M265.52,528.205c-10.903,0.114-21.514,2.003-31.908,5.229c-1.133,0.353-2.297,0.605-3.447,0.904
	c-0.801-0.052-1.487-0.279-1.751-1.149c9.908-3.84,20.156-6.088,30.75-7.037c20.028-1.797,39.448,1.309,58.602,6.82
	c0.873,0.251,2.4,0.391,1.942,1.807c-0.374,1.156-1.699,0.603-2.491,0.358c-7.1-2.182-14.31-3.918-21.626-5.136
	c-6.386-1.063-12.802-2.048-19.319-1.819C272.688,528.589,269.104,528.554,265.52,528.205z"/>
<path fill="#211815" d="M279.335,628.023c-1.144-0.597-2.377-0.859-3.649-0.984c9.669-2.358,19.354-4.652,29.001-7.099
	c7.178-1.82,14.315-3.803,21.452-5.778c10.99-3.043,21.965-6.148,32.95-9.212c0.777-0.217,1.895-0.843,2.265,0.188
	c0.405,1.13-0.935,1.209-1.642,1.421c-9.46,2.83-18.902,5.729-28.414,8.377c-12.137,3.38-24.3,6.674-36.517,9.744
	C289.682,625.962,284.605,627.477,279.335,628.023z"/>
<path fill="#221A17" d="M175.324,308.825c-1.048-0.336-2.096-0.673-3.144-1.01c7.185-3.068,14.381-6.11,21.551-9.213
	c7.948-3.439,15.88-6.916,23.802-10.415c4.426-1.955,8.788-4.061,13.25-5.926c0.848-0.355,2.252-1.847,3.049,0.287
	c-0.078,0.463-0.135,0.938-0.597,1.211c-1.396,0.381-2.65,1.061-3.917,1.748c-11.229,6.092-23.139,10.636-34.96,15.388
	c-4.65,1.87-9.226,3.92-13.845,5.866C178.798,307.483,177.19,308.48,175.324,308.825z"/>
<path fill="#1F1714" d="M228.414,533.189c0.583,0.384,1.167,0.768,1.751,1.149c-8.104,3.297-16.009,6.995-23.441,11.646
	c-0.289,0.181-0.581,0.356-0.855,0.559c-6.091,4.469-12.333,8.753-17.761,14.053c-2.598,2.536-4.97,5.266-6.165,8.801
	c-0.296,1.173-0.362,2.346-0.001,3.519c-0.298,1.007,0.937,1.269,1.134,2.021c-0.806,0.575-1.18,0.132-1.533-0.395
	c-1.746-2.59-1.56-7.307,0.529-9.635c3.34-3.725,6.728-7.422,10.601-10.602C203.49,545.427,215.082,537.828,228.414,533.189z"/>
<path fill="#1F1713" d="M201.929,456.934c0.666-0.771,1.345-0.468,1.957-0.352c12.158,2.312,24.05,1.067,35.833-2.431
	c6.386-1.896,12.365-4.767,18.526-7.2c0.586-0.231,1.344-0.922,1.785-0.087c0.425,0.807-0.493,1.151-1.067,1.431
	c-17.192,8.323-35.007,13.197-54.313,9.761C203.68,457.883,202.688,457.753,201.929,456.934z"/>
<path fill="#211915" d="M214.652,447.276c0.925-1.388,2.296-0.43,3.442-0.655c0.917-0.344,1.929,0.053,2.837-0.362
	c8.292-1.554,16.217-4.407,24.255-6.859c0.765-0.233,1.857-1.089,2.236-0.155c0.416,1.021-0.94,1.149-1.695,1.384
	c-7.54,2.334-14.904,5.31-22.801,6.353c-1.427,0.188-2.876,0.214-4.315,0.313C217.291,447.545,215.971,447.58,214.652,447.276z"/>
<path fill="#221A17" d="M235.271,370.784c-0.392-0.636-0.557-1.195,0.308-1.632c0.396-0.2,0.636-0.577,0.053-0.917
	c0.984-0.657,2.199-2.122,3.124-0.685c0.788,1.223-0.984,1.871-1.904,2.523C236.39,370.401,235.802,370.553,235.271,370.784z"/>
<path fill="#F0F0F2" d="M211.797,459.631c3.369,0,6.737,0,10.105,0c0.001,0.084,0.002,0.169,0.003,0.253c-3.345,0-6.689,0-10.034,0
	C211.847,459.8,211.822,459.715,211.797,459.631z"/>
<path fill="#F7F8FA" d="M265.52,528.205c3.583-0.317,7.167-0.33,10.75-0.021C272.688,529.003,269.104,528.979,265.52,528.205z"/>
<path fill="#EFEFF0" d="M169.274,312.966c-0.055-0.685-0.109-1.37-0.164-2.054c0.305-1.326,1.22-0.65,1.947-0.594
	C170.752,311.395,171.23,313,169.274,312.966z"/>
<path fill="#221A17" d="M218.877,373.479c-2.045,0.734-4.089,0.74-6.132-0.002C214.789,373.478,216.833,373.479,218.877,373.479z"/>
<path fill="#201916" d="M272.34,621.625c-1.706,0.679-3.406,0.458-5.106,0.17C268.939,621.168,270.639,621.431,272.34,621.625z"/>
<path fill="#312B28" d="M214.652,447.276c1.32,0.006,2.639,0.011,3.958,0.017C217.291,447.599,215.969,448.137,214.652,447.276z"/>
<path fill="#2A221E" d="M171.058,310.318c-0.717-0.026-1.526-0.354-1.947,0.594c0.064-1.939,1.486-0.693,2.261-0.964
	C171.258,310.064,171.154,310.188,171.058,310.318z"/>
<path fill="#EAEBEC" d="M181.942,572.915c-0.522-1.172-0.635-2.344,0.001-3.517C181.943,570.57,181.942,571.742,181.942,572.915z"/>
<path fill="#221A17" d="M210.938,375.022c1.116,0.088,2.311-0.461,3.327,0.417C213.137,375.447,211.99,375.611,210.938,375.022z"/>
<path fill="#221A17" d="M219.916,375.431c1.004-0.855,2.178-0.333,3.279-0.406C222.157,375.599,221.027,375.445,219.916,375.431z"/>
<path fill="#7D7A78" d="M170.659,315.572c-0.928-0.113-0.962-0.821-1.012-1.52C170.745,314.054,170.787,314.757,170.659,315.572z"/>
<path fill="#312B28" d="M220.932,446.259c-0.861,0.78-1.869,0.409-2.836,0.362C219.04,446.501,219.986,446.38,220.932,446.259z"/>
<path fill="#221A17" d="M423.954,368.129c0.11,1.764-0.255,3.375-2.11,4.198c-1.928,0.854-3.409,0.04-4.819-1.28
	c-1.669-1.562-2.844-3.286-2.938-5.68c-0.089-2.271,0.778-3.743,2.982-4.424c2.238-0.691,4.009-0.136,5.332,1.826
	C423.483,364.376,424.018,366.134,423.954,368.129z"/>
<path fill="#211A18" d="M405.821,340.955c-0.042-2.568,0.549-4.549,3.032-5.241c1.697-0.473,4.446,1.199,5.381,3.125
	c0.561,1.155,0.874,2.382,0.878,3.681c0.007,2.094-0.525,3.938-2.683,4.73c-2.076,0.764-4.353-0.281-5.616-2.417
	C406.061,343.559,405.758,342.164,405.821,340.955z"/>
<path fill="#211A18" d="M502.642,343.216c2.255-0.043,3.58,1.161,3.613,3.282c0.039,2.411-1.757,4.39-3.986,4.394
	c-2.215,0.005-3.956-1.588-4.063-3.715C498.084,344.71,499.693,343.272,502.642,343.216z"/>
<path fill="#2A221E" d="M167.704,309.897c0.826,1.026,0.361,2.204,0.39,3.325C167.604,312.157,167.596,311.034,167.704,309.897z"/>
<path fill="#221A17" d="M400.323,151.666c-0.396,1.206-1.405,1.268-2.267,1.526c-6.313,1.887-12.331,4.377-17.571,8.485
	c-0.397,0.312-0.855,0.598-1.331,0.742c-0.521,0.157-1.209,0.519-1.545-0.271c-0.241-0.569,0.196-1.017,0.607-1.276
	c5.216-3.298,9.965-7.457,16.162-8.963C396.309,151.438,398.272,150.67,400.323,151.666z"/>
<path fill="#231A17" d="M399.111,170.669c-5.525-1.447-11.474-1.887-17.29-3.069c-0.664-0.135-1.512-0.209-1.422-1.098
	c0.093-0.924,0.892-1.167,1.729-1.061c5.967,0.759,12.007,1.105,17.761,3.077c0.688,0.236,1.663,0.479,1.409,1.474
	C401.051,170.958,400.099,170.683,399.111,170.669z"/>
<path fill="#231A18" d="M408.659,180.298c2.163-1.684,4.556-2.085,6.896-2.572c0.827-0.172,1.691-0.188,2.541-0.221
	c1.396-0.055,2.827-0.012,3.507,1.484c0.644,1.414,0.02,2.69-0.87,3.771c-1.51,1.835-3.458,2.95-5.83,3.346
	c-0.742,0.125-1.463,0.214-1.669-0.611c-0.173-0.692,0.529-1,1.082-1.21c1.583-0.604,3.22-1.098,4.425-2.392
	c0.567-0.611,1.451-1.203,1.124-2.125c-0.352-0.988-1.431-0.76-2.238-0.737c-1.958,0.056-3.872,0.364-5.739,1.038
	C411,180.388,410.083,181.07,408.659,180.298z"/>
<path fill="#241C19" d="M422.507,190.116c0-0.447,0.009-0.361-0.001-0.277c-0.212,1.779-0.285,3.725-2.327,4.422
	c-1.036,0.354-1.368-0.693-1.611-1.535c-0.594-2.048,0.218-5.108,1.552-5.828C421.571,186.115,422.561,187.222,422.507,190.116z"/>
<path fill="#221A15" d="M210.102,238.149c-1.019,3.187-3.808,4.715-6.33,6.286c-6.402,3.987-13.287,5.605-20.693,3.041
	c-3.618-1.253-5.766-3.973-7.025-7.483c-0.086-0.239-0.223-0.498-0.198-0.734c0.124-1.179-1.882-1.817-0.841-3.178
	c0.94-1.229,2.397-1.662,3.799-1.921c10.45-1.931,20.915-3.783,31.372-5.676c1.503-0.272,2.063,0.526,2.113,1.817
	c0.071,1.88-0.109,3.735-1.054,5.429c-0.902-0.882-2.566-0.006-3.246-1.406c0.092-0.661,0.983-1.207,0.54-1.864
	c-0.515-0.765-1.432-0.375-2.132-0.219c-8.056,1.802-16.247,2.838-24.356,4.33c-0.919,0.169-1.833,0.396-2.693,0.772
	c-0.71,0.312-1.506,0.665-1.223,1.646c0.233,0.807,0.978,0.836,1.691,0.758c0.507-0.056,1.007-0.166,1.518-0.196
	c0.882-0.044,1.777,0.026,2.614-0.349c1.018-0.096,2.088-1.734,3.047,0.091c0.141,0.759-0.056,1.381-0.729,1.812
	c-1.375,0.662-2.843,0.83-4.341,0.816c-0.707-0.006-1.417-0.078-2.128-0.084c-0.342-0.003-0.574,0.057-0.232,0.039
	c0.024-0.001,0.054,0.085,0.101,0.139c1.591,1.583,3.542,2.456,5.638,3.07c0.695,0.204,1.519,0.176,1.917,0.962
	c1.599,0.62,3.357-0.172,4.96,0.548c0.283,0.127-0.161,0.006,0.17-0.08c-0.283,0.126-0.515,0.007-0.739-0.157
	c0.036-0.958,0.798-1.014,1.45-1.099c4.855-0.628,8.867-2.827,12.184-6.395c0.69-0.742,1.458-1.438,2.42-1.85
	C208.615,237.105,209.56,237.198,210.102,238.149z"/>
<path fill="#221A17" d="M165.715,207.939c0.417-3.552,0.872-6.887,4.657-8.26c3.951-1.433,6.777-0.513,9.885,3.088
	c0.663,0.769,1.271,1.64,2.083,2.207c0.612,0.427,0.858,0.863,0.652,1.44c-0.292,0.811-1.111,0.651-1.73,0.572
	c-0.975-0.123-1.652-0.87-2.32-1.496c-3.426-3.212-11.077-0.375-11.111,4.226c-0.002,0.335-0.132,0.667-0.167,1.004
	c-0.057,0.547-0.247,1.092-0.814,1.146c-0.688,0.064-0.713-0.61-0.787-1.083C165.907,209.777,165.813,208.762,165.715,207.939z"/>
<path fill="#221A16" d="M195.243,201.106c0.298-5.872,6.215-9.666,11.688-7.599c2.224,0.84,2.963,2.695,3.581,4.624
	c0.365,1.139-0.394,1.621-1.458,1.187c-0.924-0.377-1.757-0.972-2.648-1.437c-3.949-2.061-7.559-0.777-9.354,3.335
	c-0.267,0.611-0.334,1.466-1.231,1.341C194.997,202.442,195.22,201.683,195.243,201.106z"/>
<path fill="#231A17" d="M204.473,210.684c-0.129,1.497,0.664,2.763,1,4.143c0.14,0.579,0.474,1.454-0.344,1.798
	c-0.816,0.343-1.26-0.361-1.499-1.006c-0.888-2.39-1.857-4.768-1.801-7.392c0.034-1.587,0.202-3.209,1.949-3.796
	c1.97-0.662,3.062,1.062,3.802,2.248c1.402,2.246,1.617,4.973,1.97,7.587c0.072,0.536-0.066,1.089-0.656,1.227
	c-0.483,0.113-0.812-0.151-1.227-0.568c-2.094-2.101-1.512-5.113-2.723-7.49C204.147,208.251,204.114,208.485,204.473,210.684z"/>
<path fill="#221917" d="M175.286,211.529c-1.338,3.488-0.184,6.163,0.672,8.899c0.258,0.824,1.649,1.99,0.203,2.569
	c-1.073,0.431-1.495-1.085-1.895-1.982c-1.158-2.6-1.896-5.292-1.587-8.182c0.155-1.457,0.669-2.74,2.222-3.082
	c1.591-0.351,2.567,0.673,3.185,1.979c0.989,2.09,1.637,4.298,1.913,6.597c0.064,0.537,0.3,1.296-0.542,1.475
	c-0.727,0.154-1.083-0.431-1.275-1.002c-0.653-1.937-1.239-3.896-1.896-5.831C176.159,212.601,175.831,212.301,175.286,211.529z"/>
<path fill="#221A15" d="M210.102,238.149c-0.497-0.657-1.956,0.547-1.979-1.023c-1.201-1.11-2.438-0.298-3.591,0.029
	c-3.285,0.932-6.468,2.194-9.755,3.125c-1.317,0.373-2.65,0.694-4.037,0.527c-0.59-0.072-1.351-0.116-1.488-0.771
	c-0.151-0.723,0.625-0.918,1.143-1.137c1.022-0.431,2.093-0.743,3.155-1.059c3.764-1.119,7.448-2.499,11.253-3.483
	c1.064-0.275,2.146-0.703,3.166,0.142c1.108,0.367,2.679-0.498,3.277,1.229C210.864,236.536,210.482,237.343,210.102,238.149z"/>
<path fill="#221917" d="M196.978,226.283c-1.668,0.084-2.992,2.424-3.789,0.25c-0.638-1.739,1.293-2.036,2.552-2.384
	c1.607-0.443,3.733-1.293,4.615,0.432c0.822,1.608-1.477,2.322-2.442,3.396c-0.167,0.187-0.381,0.339-0.593,0.477
	c-0.544,0.352-1.146,1.095-1.764,0.496c-0.73-0.708,0.244-1.132,0.591-1.632C196.325,227.06,196.538,226.827,196.978,226.283z"/>
<path fill="#322926" d="M210.269,225.873c0,0.569-0.259,1.047-0.817,1.065c-0.555,0.018-0.851-0.454-0.889-1.005
	c-0.04-0.574,0.231-1.022,0.808-1.046C209.957,224.862,210.22,225.311,210.269,225.873z"/>
<path fill="#EEDEDE" d="M204.473,210.684c-0.586-1.222-0.803-2.448-0.011-3.671c0.016-0.024,0.181,0.003,0.228,0.053
	c0.102,0.107,0.171,0.245,0.253,0.371C204.165,208.429,204.729,209.616,204.473,210.684z"/>
<path fill="#FFFFFF" d="M191.787,380.067c-2.345-7.971-3.817-16.144-5.313-24.458c1.7,2.38,3.359,4.792,5.114,7.131
	c1.201,1.601,2.152,3.392,3.808,4.661c0.688,0.527,1.308,1.368,1.014,2.441c-1.366,2.954-2.952,5.822-3.617,9.054
	C192.671,379.489,192.642,380.123,191.787,380.067z"/>
<path fill="#221A17" d="M223.911,373.792c1.433-0.47,2.193-1.13,3.361-0.634C226.33,373.589,225.561,374.029,223.911,373.792z"/>
<path fill="#221A17" d="M215.174,374.803c1.353-0.409,1.991-0.445,3.1,0C217.165,374.803,216.521,374.803,215.174,374.803z"/>
<path fill="#413E3F" d="M421.781,367.217c0.082,1.201,0.049,2.487-1.191,2.853c-1.294,0.382-2.195-0.627-2.816-1.669
	c-0.65-1.087-1.238-2.22-1.112-3.575c0.09-0.98-0.249-2.211,1.081-2.542c1.276-0.318,2.323,0.298,2.994,1.403
	C421.398,364.778,421.966,365.924,421.781,367.217z"/>
<path fill="#413F40" d="M413.614,341.773c0.041,1.721,0.015,3.541-1.925,3.736c-1.975,0.198-3.272-1.109-3.693-3.116
	c-0.018-0.082-0.014-0.168-0.027-0.251c-0.268-1.665-0.664-3.352,0.894-4.67c0.838-0.709,1.577-0.148,2.35,0.159
	C413.176,338.413,413.749,339.964,413.614,341.773z"/>
<path fill="#3F3D3D" d="M503.747,346.494c-0.004,1.034-0.343,1.752-1.265,1.728c-0.845-0.023-1.711-0.349-1.719-1.453
	c-0.005-0.966,0.781-1.269,1.516-1.416C503.24,345.161,503.607,345.829,503.747,346.494z"/>
<path fill="#898481" d="M420.52,189.799c0.369,0.471,0.284,0.935,0.013,1.382c-0.021,0.033-0.369-0.038-0.422-0.137
	C419.825,190.511,419.992,190.095,420.52,189.799z"/>
<path fill="#FFFFFF" d="M207.967,234.5c-5.026,0.586-9.594,2.786-14.416,4.092c-1.363,0.369-2.708,0.805-4.016,1.425
	c2.541,0.543,4.869-0.331,7.212-1.061c3.404-1.061,6.793-2.173,10.207-3.203c1.239-0.374,1.979-0.105,1.167,1.373
	c-4.387,5.092-9.761,8.397-16.546,9.15c-1.433,0.53-2.864,0.544-4.294-0.007c-3-1.067-6.509-1.197-8.297-4.5
	c0.789-0.622,1.814,0.026,2.623-0.488c1.494,0.166,2.922-0.236,4.366-0.507c0.259-0.207,0.584,1.198,0.801-0.032
	c0.098-0.553,0.208-1.108-0.146-1.621c-1.172-1.126-1.502,1.363-2.589,0.604c-0.808,0.529-1.819-0.102-2.622,0.457
	c-1.417-0.29-3.244,1.74-4.278-0.848c-0.464-1.164-0.484-1.763,0.87-2.289c3.208-1.247,6.594-1.557,9.926-2.16
	c6.423-1.165,12.848-2.33,19.288-3.394c0.806-0.133,2.054-1.315,2.55,0.219C210.221,233.092,209.384,234.092,207.967,234.5z"/>
<path fill="#18120F" d="M187.282,246.27c1.432,0.002,2.863,0.005,4.294,0.007c0.333,0.06,0.666,0.12,0.999,0.18
	c0.009,0.124,0.017,0.248,0.026,0.372c-1.958,0-3.92,0.037-5.873-0.066C186.563,246.752,187.043,246.403,187.282,246.27z"/>
<path fill="#2E2622" d="M186.628,239.121c0.494,0.437,0.521,1.05,0.46,1.607c-0.075,0.68,0.9,1.765-0.114,1.938
	c-1.094,0.187-0.781-1.168-1.002-1.892C186.677,240.416,186.551,239.729,186.628,239.121z"/>
<path fill="#2E2622" d="M181.607,241.282c-0.874,0.163-1.749,0.325-2.623,0.488C179.683,240.661,180.729,241.421,181.607,241.282z"
	/>
<path fill="#2E2622" d="M181.418,240.182c0.806-0.542,1.732-0.395,2.622-0.457C183.279,240.529,182.313,240.156,181.418,240.182z"/>
<path fill="#7C5E3A" d="M168.606,203.273c1.815-2.756,4.446-3.32,7.191-1.292c-2.43,0.321-4.661,0.642-6.592,1.875
	C168.705,203.971,168.473,203.809,168.606,203.273z"/>
<path fill="#59442C" d="M168.606,203.273c0.2,0.194,0.399,0.389,0.599,0.583c-0.385,0.423-0.77,0.846-1.255,1.379
	C167.692,204.256,168.165,203.771,168.606,203.273z"/>
<path fill="#684F32" d="M202.343,194.394c0.752-0.466,1.431-0.349,2.237-0.127C203.817,194.872,203.134,194.661,202.343,194.394z"/>
</svg>
