<?xml version="1.0" encoding="utf-8"?>
<!-- Generator: Adobe Illustrator 16.0.3, SVG Export Plug-In . SVG Version: 6.00 Build 0)  -->
<!DOCTYPE svg PUBLIC "-//W3C//DTD SVG 1.1//EN" "http://www.w3.org/Graphics/SVG/1.1/DTD/svg11.dtd">
<svg version="1.1" id="Layer_1" xmlns="http://www.w3.org/2000/svg" xmlns:xlink="http://www.w3.org/1999/xlink" x="0px" y="0px"
	 width="573.183px" height="326.033px" viewBox="33.332 210.153 573.183 326.033"
	 enable-background="new 33.332 210.153 573.183 326.033" xml:space="preserve">
<g>
	<path fill="#221A15" d="M113.063,292.003c0.392-2.439,0.752-2.628,2.761-1.468c1.648,0.951,3.451,0.854,5.253,0.753
		c0.725-0.28,1.379-0.251,1.6,0.622c0.205,0.811-0.335,1.264-1.014,1.519c-1.598,0.6-3.193,0.438-4.792-0.048
		c-1.666-0.506-1.658-0.477-1.72,1.248c-0.151,4.267,0.646,8.263,3.242,11.767c0.12,0.129,0.226,0.27,0.321,0.417
		c0.827,1.417,2.138,2.27,3.528,3.037c0.775,0.427,1.813,0.75,1.753,1.827c-0.063,1.136-1.156,1.376-2.023,1.77
		c-1.34,0.607-2.748,0.98-4.165,1.336c-0.163,0.032-0.341,0.041-0.488,0.114c-0.539,0.265-1.486-0.074-1.63,0.565
		c-0.16,0.71,0.543,1.306,1.076,1.784c1.412,1.269,3.12,2.082,4.96,2.308c1.928,0.237,3.908,0.289,5.853-0.104
		c2.521-0.489,4.732-1.682,6.95-2.917c2.148-1.196,2.384-3.573,3.569-5.354c0.314-0.472-0.208-0.94-0.562-1.297
		c-3.547-3.572-4.074-7.944-3.374-12.647c-0.038-0.612,0.055-1.198,0.354-1.742c1.317-2.904,3.179-5.3,6.182-6.641
		c1.312-0.586,2.695-0.872,4.11-0.798c3.186,0.168,5.489,2.422,5.835,5.727c0.229,2.203,0.898,4.438-0.504,6.571
		c-0.36,0.548-0.158,1.419-0.176,2.322c2.586-1.009,4.329-2.829,5.978-4.713c1.032-1.181,1.922-2.491,2.781-3.819
		c2.319-3.585,2.396-7.409,1.344-11.365c-0.578-2.174-1.553-4.232-1.913-6.476c-0.081-0.507-0.166-1.005,0.006-1.501
		c0.333-0.963,1.008-1.159,1.825-0.522c0.547,0.427,0.909,1.013,1.164,1.64c1.276,3.138,3.953,4.774,6.883,6.54
		c0.08-2.169-0.507-4.037-0.784-5.934c-0.174-1.184-0.225-2.362-0.121-3.538c0.132-1.495,1.007-1.965,2.345-1.263
		c1.146,0.602,2.158,1.433,3.267,2.103c2.614,1.578,5.327,2.924,8.344,3.583c1.025,0.225,1.214-0.088,0.923-1.016
		c-0.642-2.049-1.606-3.967-2.375-5.964c-0.425-1.103-0.894-2.195-0.821-3.419c0.529-1.377,1.724-1.553,2.924-1.446
		c2.588,0.229,4.895,1.155,6.815,2.985c2.166,2.064,4.099,4.32,5.84,6.748c1.114,1.554,2.349,2.995,4.062,4.34
		c0.19-1.837,0.243-3.484-0.035-5.127c-0.18-1.065-0.256-2.131-0.104-3.19c0.307-2.144,1.627-2.713,3.465-1.569
		c2.15,1.339,3.647,3.311,5.158,5.268c0.549,0.712,1.005,1.493,1.521,2.229c1.059,1.664,2.149,3.313,2.973,5.114
		c0.358,0.784,0.776,1.681-0.194,2.255c-0.986,0.584-1.688-0.108-2.28-0.854c-0.42-0.53-0.705-1.149-1.353-2.111
		c-0.771,6.514-3.962,12.132-3.746,18.794c0.711-0.681,1.081-1.283,1.498-1.844c0.084-0.138,0.18-0.268,0.282-0.392
		c2.459-2.821,4.871-5.673,6.289-9.209c0.206-0.515,0.446-1.025,0.828-1.449c0.131-0.11,0.278-0.191,0.439-0.247
		c1.94-0.096,1.938-0.096,1.97-1.992c0.062-3.723,0.036-7.427-0.853-11.088c-0.279-1.149-0.688-2.653,0.541-3.442
		c1.313-0.843,2.451,0.274,3.502,0.986c1.516,1.026,2.751,2.431,4.522,3.508c-0.25-3.249-0.918-6.184-1.73-9.097
		c-2.993-10.734-8.937-19.56-17.658-26.385c-5.934-4.643-12.802-7.118-20.409-7.717c-3.072-0.241-6.042,0.242-9.063,0.207
		c0.353,0.098,0.69,0.187,1.01,0.337c6.588,2.485,12.779,5.71,18.456,9.896c0.144,0.085,0.276,0.184,0.405,0.288
		c2.959,2.506,5.765,5.164,8.009,8.348c0.598,0.848,1.915,1.881,0.634,2.848c-1.158,0.875-1.803-0.592-2.443-1.348
		c-0.507-0.6-1.072-1.147-1.547-1.773c-1.094-1.533-2.422-2.838-3.928-3.967c-0.139-0.085-0.267-0.184-0.392-0.288
		c-4.7-4.421-10.263-7.471-16.098-10.064c-2.623-1.165-5.338-2.109-8.109-2.882c-3.62-1.146-7.373-1.654-11.125-1.767
		c-3.986-0.119-8.004,0.159-11.553,2.399c-0.872,0.55-1.686,0.278-2.568-0.063c-4.532-1.748-9.193-2.478-14.053-1.768
		c-1.323,0.193-1.18,0.716-0.603,1.521c0.495,0.692,1.056,1.377,1.771,1.797c2.692,1.581,5.217,3.535,8.568,3.655
		c1.687,0.061,1.911,0.917,0.811,2.515c-1.646,0.562-3.396,0.565-5.069,1.135c-11.07,3.76-16.858,11.648-18.389,23.019
		c-0.251,1.859-0.229,3.706-0.295,5.562c-0.022,0.621,0.197,1.398-0.7,1.679c-0.076-1.135-0.513-2.23-0.356-3.389
		c0.199-1.912,0.202-3.824-0.002-5.736c0.597-8.769,4.389-15.671,11.897-20.418c2.214-1.399,4.6-2.449,7.291-3.52
		c-1.313-0.636-2.37-1.114-3.396-1.65c-2.258-1.181-4.003-2.913-5.205-5.146c-0.973-1.807-0.547-2.73,1.48-3.135
		c5.757-1.146,11.423-0.8,16.922,1.326c0.911,0.353,1.621,0.369,2.521-0.064c4.361-2.098,9.034-2.168,13.721-1.825
		c2.969,0.218,5.907,0.719,8.799,1.49c2.109,0.563,4.095-0.497,6.152-0.708c12.578-1.291,23.545,2.405,32.662,10.979
		c9.377,8.819,14.721,19.833,16.214,32.676c0.195,1.688,0.34,3.364,0.241,5.054c-0.043,0.733-0.2,1.537-1.013,1.791
		c-0.904,0.281-1.278-0.485-1.674-1.1c-1.497-2.329-3.327-4.314-5.923-5.937c0.169,1.682,0.306,3.046,0.443,4.411
		c-0.173,2.251-0.204,4.502,0.01,6.752c-0.405,4.158-1.307,8.194-3.011,12.024c-0.201,0.452-0.524,0.866-0.855,1.241
		c-0.399,0.454-0.907,0.658-1.512,0.346c-0.601-0.311-0.518-0.875-0.374-1.328c0.338-1.064,0.789-2.093,1.177-3.143
		c0.267-0.722,0.771-1.396,0.507-2.271c-0.763,0.209-0.914,0.951-1.289,1.464c-2.025,2.773-3.914,5.653-6.054,8.334
		c-1.611,2.019-1.639,3.884-0.157,5.927c0.988-0.582,2.02-1.259,3.111-1.819c1.988-1.021,4.089-1.202,6.221-0.523
		c2.523,0.804,3.402,2.543,2.33,4.991c-1.74,3.975-4.943,6.418-9.16,6.817c-2.889,0.272-4.058,1.458-4.875,4.063
		c-1.126,3.591-3.798,5.861-6.937,8.085c-4.098,2.902-8.024,6.375-9.916,11.407c-0.673,1.787-1.472,3.525-2.7,5.021
		c-0.577,0.704-0.475,1.046,0.423,1.412c2.077,0.848,4.135,1.764,5.896,3.213c1.17,0.963,1.505,1.992,1.372,3.647
		c-0.294,3.668-0.796,7.26-1.891,10.766c-0.26,0.834,0.314,0.943,0.847,1.104c11.546,3.475,22.822,7.866,34.693,10.241
		c3.139,0.628,6.234,1.433,9.292,2.384c0.842,0.262,1.667,0.659,2.605,0.168c0.266-0.14,0.815,0.01,1.107,0.213
		c1.671,1.158,3.713,1.224,5.521,1.957c0.557,0.226,0.833,0.115,1.017-0.409c0.26-0.741,0.811-1.243,1.496-1.521
		c5.737-2.331,10.194-6.547,15.029-10.2c2.049-1.548,4.012-3.212,6.337-5.083c-2.951-0.223-5.383,0.324-7.812,0.899
		c-3.167,0.751-6.259,1.796-9.473,2.374c-2.318,0.417-4.497,0.318-6.27-1.425c-0.511-0.502-0.942-0.466-1.503-0.299
		c-0.807,0.24-1.677,0.342-2.421,0.706c-3.38,1.652-6.428,0.263-9.46-1.003c-1.434-0.599-1.683-2.244-0.674-3.934
		c1.057-1.771,2.631-3.094,4.219-4.352c3.978-3.15,8.375-5.443,13.457-6.241c0.207-0.032,0.398-0.165,0.782-0.333
		c-0.862-1.027-1.705-1.924-2.424-2.91c-1.71-2.349-3.707-4.603-3.232-7.851c0.111-0.764-0.378-0.638-0.819-0.638
		c-2.877-0.003-5.755,0.007-8.632-0.023c-0.857-0.01-1.523,0.28-2.073,0.922c-1.957,2.281-4.582,3.121-7.448,3.436
		c-1.461-0.197-2.921-0.195-4.382-0.001c-2.612-0.228-4.864-1.229-6.605-3.212c-1.235-1.407-1.151-2.345,0.182-3.755
		c0.536,0.041,1.042,0.125,1.132,0.8c-0.421,1.306,0.222,2.097,1.254,2.785c1.698,1.135,3.614,1.531,5.577,1.589
		c1.552,0.046,3.122-0.089,4.659-0.408c0.445-0.14,0.919-0.172,1.355-0.345c0.313-0.13,0.64-0.219,0.942-0.315
		c0.111-0.066,0.108-0.069-0.032-0.013c-0.095,0.037-0.149,0.049-0.171,0.052c-0.366,0.101-0.705,0.25-1.063,0.347
		c-0.497,0.158-1.02,0.206-1.514,0.379c-1.958,0.135-3.911,0.496-5.872,0.078c-0.769-0.163-1.571-0.289-1.964-1.122
		c0.1-0.739,0.665-0.969,1.267-1.16c1.903,0.001,3.811,0.296,5.713-0.124c0.962-0.213,1.999-0.074,2.701-1.076
		c0.305-0.436,1.024-0.419,1.58-0.483c4.924-0.573,9.849-0.823,14.803-0.304c2.233,0.233,4.495,0.166,6.74-0.009
		c0.692-0.053,1.379-0.108,2.071-0.097c-2.377,0.193-4.758,0.234-7.137,0.142c-0.603-0.023-1.519,0.211-1.494-0.928
		c3.132-0.086,6.262-0.022,9.396-0.05c-3.618,0-7.238-0.008-10.856-0.313c2.251-0.404,4.505-0.327,6.323-0.358
		c-4.166-0.271-8.75,0.548-13.349,0.3c-0.764-0.041-1.601,0.184-2.211-0.523c0.788-0.401,1.642-0.281,2.471-0.28
		c4.477,0.009,8.954,0.009,13.43,0.094c1.012,0.02,1.718-0.245,2.207-1.108c0.276-0.061,0.479,0.08,0.678,0.238
		c1.668,0.705,3.258,1.107,4.906-0.217c0.969-0.777,1.862-0.174,1.841,1.115c-0.024,1.386-0.852,2.291-1.936,2.994
		c-2.255,1.463-4.818,1.846-7.422,2.038c-0.954,0.07-1.918-0.012-2.876,0.021c-1.535,0.052-1.78,0.451-1.185,1.897
		c0.303,0.734,0.748,1.386,1.212,2.028c1.863,2.583,4.105,4.8,6.623,6.724c1.956,1.496,3.546,3.472,5.95,4.396
		c1.217,0.467,2.384,0.962,3.715,1.05c1.233,0.08,2.466,0.295,3.579,0.914c0.348,0.193,0.724,0.364,1.122,0.35
		c3.545-0.133,7.047-0.133,9.733-3.203c2.371-2.709,4.967-5.242,7.939-7.337c0.629-0.443,1.219-0.957,0.508-1.783
		c-1.817-2.11-2.951-4.667-4.54-6.929c-1.367-1.947-2.967-3.587-5.294-4.269c-4.522-1.324-8.192-4.236-12.242-6.437
		c-0.997-0.434-2.012-0.322-3.029-0.098c-0.894,0.277-1.735,0.7-2.646,0.929c-0.859-0.031-0.78-0.553-0.59-1.133
		c2.74-1.855,5.719-2.036,8.57-0.607c3.865,1.937,7.762,3.749,11.81,5.278c2.49,0.941,4.224,2.964,5.698,5.134
		c1.518,2.233,2.982,4.503,4.423,6.786c0.573,0.908,1.03,1.152,2.106,0.528c3.451-2.003,7.119-3.104,11.121-1.777
		c0.646,0.215,0.783-0.09,0.947-0.561c1.05-2.99,3.345-4.89,5.869-6.541c3.118-2.041,6.128-4.17,8.648-6.979
		c2.504-2.79,5.751-2.763,9.063-1.817c1.03,0.294,1.896,0.275,2.858-0.225c2.525-1.313,5.264-2.21,7.69-3.806
		c-4.739-6.376-6.265-13.678-6.704-21.313c-0.362-6.313-0.169-12.635-0.297-18.952c-0.018-0.865-0.096-1.299-1.194-1.707
		c-2.427-0.9-3.225-3.323-3.862-5.608c-0.339-1.211-0.721-2.31-1.477-3.342c-1.394-1.905-1.093-4.055-0.534-6.162
		c0.242-0.917,0.575-1.827,0.989-2.682c1.409-2.905,2.015-5.925,1.705-9.161c-0.299-3.135,1.004-5.683,3.532-7.418
		c3.196-2.197,5.576-4.942,7.257-8.455c1.76-3.679,4.863-5.726,8.973-5.918c2.393-0.112,4.041-1.022,5.457-3.021
		c2.111-2.98,5.181-4.018,8.784-3.103c0.78,0.198,1.032,0.224,0.989-0.783c-0.13-3.026,1.186-4.937,4.034-6.157
		c2.028-0.869,4.182-1.335,6.336-1.698c3.287-0.556,6.226-1.815,8.925-3.749c1.137-0.815,2.359-1.539,3.616-2.154
		c2.384-1.166,4.795-1.085,7.104,0.242c1.989,1.144,3.854,2.518,6.074,3.223c1.787,0.368,3.58,0.226,5.374,0.067
		c1.991,0.146,3.306,1.413,4.332,2.897c1.709,2.47,3.801,4.395,6.539,5.675c2.184,1.021,3.396,2.747,3.073,5.272
		c-0.246,1.926,0.737,3.102,2.306,3.916c0.896,0.464,1.818,0.892,2.767,1.232c3.449,1.244,5.244,3.828,5.663,7.319
		c0.443,3.708,1.771,7.05,3.551,10.274c1.165,2.111,2.266,4.262,2.532,6.719c-0.188,1.573-0.203,3.146,0.009,4.72
		c-0.33,3.554,0.958,6.615,2.915,9.46c2.854,4.154,3.427,8.428,0.931,12.992c-1.099,2.01-1.269,4.096-0.128,6.273
		c1.797,3.43,1.174,6.637-1.317,9.515c-0.588,0.678-1.257,1.292-1.927,1.893c-1.423,1.276-3.228,2.085-2.599,4.774
		c0.378,1.619-0.824,3.338-2.429,4.345c-1.237,0.775-2.495,1.52-3.763,2.247c-1.509,0.868-2.737,2.013-3.378,3.646
		c-0.533,1.361-1.523,2.226-2.878,2.261c-3.74,0.099-7.505,0.979-11.221-0.18c-0.693-0.216-1.529-0.357-2.002-0.83
		c-1.555-1.557-2.445-0.869-3.439,0.638c-0.594,0.898-0.911,2.41-1.528,2.674c-1.753,0.746-1.466,1.598-0.761,2.787
		c0.568,0.957,0.589,2.091,1.771,2.863c3.254,2.13,6.761,2.348,10.388,1.827c3.726-0.534,7.424-1.258,11.13-1.92
		c7.378-1.318,13.244,1.216,17.467,7.253c5.343,7.638,8.482,16.189,9.377,25.468c0.161,1.676,1.113,2.821,1.668,4.174
		c3.242,7.893,5.771,16.036,8.695,24.037c4.357,11.912,8.184,23.986,10.731,36.443c2.711,13.253,3.993,26.61,3.31,40.128
		c-0.089,1.749,0.378,2.134,2.07,2.091c7.101-0.18,14.205-0.207,21.308-0.291c5.029,0.284,10.057,0.057,15.083,0.029
		c0.216-0.161-0.102-0.347,0.021-0.155c0.052,0.08,0.022,0.14-0.086,0.145c-2.447,0.097-4.896,0.295-7.337-0.11
		c5.342-0.503,10.704-0.154,16.053-0.399c6.084-0.278,12.188,0.096,18.258-0.563c1.952-0.211,3.384,0.483,4.744,1.951
		c13.81,14.894,27.98,29.441,42.045,44.095c6.798,7.081,13.559,14.199,20.312,21.323c0.493,0.52,1.416,0.896,1.027,1.922
		c-0.418,1.104-1.376,0.784-2.17,0.784c-35.886,0.013-71.771,0.011-107.659,0.016c-127.801,0.019-255.604,0.041-383.405,0.054
		c-17.829,0.002-35.658,0-53.487-0.078c-8.007-0.034-16.012-0.17-24.019-0.013c-2.466,0.048-2.85-0.605-1.807-2.805
		c9.924-20.924,19.848-41.849,29.764-62.775c1.948-4.114,1.932-4.127,6.547-4.146c1.296-0.005,2.592,0.03,3.888,0.049
		c0.428,0.208,0.886,0.126,1.331,0.127c10.925,0.004,21.851,0.007,32.775-0.01c0.467-0.001,1.021,0.256,1.407-0.261
		c-4.553-8.466-6.236-17.757-7.687-27.093c-1.517-9.763-2.44-19.592-2.053-29.479c0.615-15.657,2.884-31.021,9.089-45.564
		c2.666-6.249,6.403-11.757,12.042-15.77c0.49-0.35,0.725-0.755,0.853-1.359c0.476-2.248,0.904-4.514,1.897-6.62
		c1.43-3.033,3.753-4.737,7.146-4.729c1.246,0.003,1.679-0.318,1.863-1.659c0.745-5.396,1.971-10.707,3.258-16.281
		c-1.158,0.709-2.106,1.331-3.092,1.886c-3.633,2.045-7.454,3.063-11.658,2.25c-3.996-0.772-6.783-3.117-8.745-6.549
		c-0.885-1.548-0.459-2.216,1.401-2.349c2.188-0.155,4.351-0.396,6.532-1.383c-4.351-3.417-7.007-7.663-7.384-13.157
		C113.266,296.279,113.256,294.141,113.063,292.003z"/>
	<path fill="#3C2D17" d="M134.677,295.727c-0.008,0.445-0.335,0.889-0.003,1.335c-1.02,1.915-0.555,3.96-0.358,5.921
		c0.264,2.629,1.313,4.993,3.389,6.762c0.907,0.772,1.125,1.5,0.11,2.332c-0.128,0.104-0.22,0.262-0.267,0.425
		c-1.388,4.852-5.686,5.736-9.649,7.068c-0.207,0.069-0.442,0.07-0.656,0.144c-3.611,0.551-7.052,0.291-10.139-1.956
		c-0.812-0.591-1.691-1.333-1.646-2.198c0.055-1.048,1.416-0.504,2.094-0.925c1.813-0.367,3.56-0.949,5.244-1.715
		c0.572-0.261,1.202-0.604,1.232-1.255c0.03-0.671-0.609-1.016-1.171-1.284c-1.74-0.833-3.309-1.878-4.433-3.49l0.002,0.003
		c-2.798-3.737-3.614-8.041-3.536-12.579c0.023-1.402,0.427-1.641,1.813-1.179c1.54,0.514,3.097,0.58,4.642,0.184
		c1.583-0.407,1.708-0.816,0.827-2.184c-0.173-0.27-0.103-0.691-0.502-0.816c-1.44-3.831-3.012-7.622-3.608-11.713
		c-1.066-5.171-1.126-10.357,0.038-15.506c2.222-9.822,7.825-16.714,17.563-19.971c1.759-0.588,3.468-1.291,5.375-1.104
		c0.427-0.561,1.161-1.063,0.75-1.879c-0.412-0.817-1.211-0.641-1.953-0.502c-0.387,0.072-0.801,0.084-1.168-0.079
		c-2.976-1.33-6.091-2.429-8.359-4.949c-0.448-0.498-1.021-1.046-0.769-1.75c0.242-0.677,1.001-0.576,1.617-0.637
		c4.907-0.484,9.671,0.044,14.206,2.066c0.631,0.281,1.176,0.366,1.745-0.017c3.773-2.54,8.07-2.617,12.361-2.515
		c3.497,0.085,6.938,0.71,10.315,1.642c9.173,2.716,17.598,6.843,24.823,13.219l-0.002-0.002c1.411,1.218,2.826,2.432,3.896,3.982
		c0.964,0.939,1.678,2.096,2.631,3.041c0.366,0.363,0.7,0.99,1.386,0.447c0.616-0.487,0.569-1.021,0.158-1.616
		c-1.953-2.819-4.131-5.454-6.781-7.637c-0.775-0.64-1.409-1.452-2.304-1.947l0.004,0.003c-5.492-4.245-11.584-7.394-18.048-9.86
		c-0.257-0.098-0.547-0.139-0.716-0.398c-0.105-0.668,0.324-0.704,0.819-0.745c10.959-0.892,20.968,1.713,29.389,8.863
		c8.203,6.966,13.846,15.723,16.525,26.271c0.568,2.236,1.095,4.467,1.326,6.762c0.043,0.434,0.277,0.954-0.234,1.216
		c-0.481,0.248-0.874-0.205-1.183-0.455c-1.176-0.952-2.308-1.96-3.546-2.835c-0.368-0.261-0.724-0.537-1.14-0.72
		c-0.618-0.271-1.26-0.655-1.921-0.246c-0.739,0.457-0.639,1.273-0.579,1.98c0.178,2.125,0.784,4.183,0.995,6.311
		c0.223,2.252,0.107,4.501,0.131,6.75c0.011,1.12-0.109,2.213-1.756,1.523c-0.238-0.1-0.54,0.104-0.771,0.278l0.003-0.002
		c-1.497,3.247-3.376,6.253-5.613,9.044c-0.489,0.609-1.12,1.098-1.499,1.795l0.003-0.003c-0.554,0.753-1.199,1.422-1.886,2.396
		c-0.685-2.036-0.209-3.736,0.123-5.371c0.931-4.595,2.826-8.943,3.372-13.598c0.781-0.028,0.886,0.477,1.085,0.849
		c0.267,0.497,0.506,1.034,0.896,1.419c0.483,0.474,1.133,0.853,1.824,0.46c0.772-0.438,0.552-1.112,0.252-1.768
		c-0.914-1.994-2.028-3.87-3.332-5.633c-1.681-2.665-3.446-5.271-6.125-7.054c-0.701-0.467-1.443-1.324-2.398-0.789
		c-0.973,0.545-1.127,1.571-1.109,2.649c0.034,2.135,0.229,4.257,0.341,6.386c0.021,0.416,0.207,0.976-0.332,1.199
		c-0.521,0.217-0.801-0.279-1.12-0.571c-2.167-1.985-3.641-4.545-5.548-6.739c-2.583-2.973-5.176-6.036-9.494-6.445
		c-1.285-0.121-2.769-0.463-3.46,1.233c0.355,2.726,1.773,5.068,2.719,7.581c0.349,0.926,1.213,2.085,0.675,2.787
		c-0.656,0.854-1.902,0.01-2.824-0.25c-3.061-0.862-5.785-2.451-8.404-4.22c-0.512-0.345-1.013-0.715-1.541-1.028
		c-1.371-0.813-2.124-0.446-2.279,1.128c-0.196,1.983,0.381,3.898,0.638,5.841c0.125,0.945,0.286,1.889,0.472,2.827
		c0.177,0.888-0.295,1.032-0.938,0.617c-2.497-1.612-5.111-3.107-6.303-6.087c-0.269-0.674-0.579-1.351-1.164-1.84
		c-0.298-0.249-0.556-0.612-1.011-0.475c-0.515,0.154-0.631,0.627-0.679,1.07c-0.104,0.97,0.142,1.91,0.436,2.814
		c0.363,1.119,0.718,2.242,1.132,3.345c2.137,5.705,1.282,10.882-2.62,15.606c-1.804,2.183-3.69,4.232-6.129,5.709
		c-0.319,0.192-0.677,0.528-1.068,0.313c-0.427-0.235-0.207-0.709-0.206-1.08c0.006-1.74,1.3-3.186,1.021-5.037
		c-0.366-2.43-0.258-4.94-2.209-6.89c-1.317-1.317-2.89-1.709-4.605-1.555C139.237,288.651,136.438,291.563,134.677,295.727z"/>
	<path fill="#201814" d="M218.648,339.1c-0.364,0.224-0.728,0.447-1.092,0.67c-1.405,0.308-1.567-0.907-2.007-1.704
		c-0.343-0.621-0.458-1.394-1.4-1.379c-0.3-0.194-0.6-0.39-0.899-0.584c1.725-0.803,2.318-2.228,2.598-4.05
		c0.449-2.943,2.188-4.719,5.235-5.35c3.198-0.66,3.173-0.795,4.491,2.121c0.46,1.02,0.935,2.032,1.351,3.069
		c0.738,1.837,2.497,3.055,4.496,3.059c0.561,0.001,1.121-0.005,1.682-0.007c5.674,0,11.348,0,17.021,0
		c0.001,0.123,0.001,0.245,0.002,0.368c-2.455,0-4.909,0-7.364,0c-0.001,0.112-0.003,0.225-0.004,0.338c3.698,0,7.396,0,11.094,0
		c-0.001,0.141-0.002,0.282-0.003,0.424c-3.422,0-6.845,0-10.267,0c-0.933,0.655-1.953,0.396-2.96,0.289
		c-2.229-0.453-4.485-0.114-6.724-0.218c-1.508-0.049-3.035,0.101-4.499-0.455c-0.382-0.146-0.731-0.057-1.077,0.245
		c-1.098,0.96-1.574,0.876-1.942-0.521c-0.564-2.137-1.542-4.095-2.343-6.13c-0.509-1.295-1.19-1.538-2.459-1.079
		c-3.11,1.127-5.415,5.764-4.355,8.852C217.511,337.896,218.43,338.244,218.648,339.1z"/>
	<path fill="#232A32" d="M141.11,242.208c-5.585,0.561-10.538,2.686-14.67,6.436c-5.652,5.13-8.122,11.735-8.773,19.266
		c-0.314,3.626,0.49,7.126,0.395,10.695c-0.672-1.687-1.002-3.456-1.26-5.243c0.577-1.412,0.189-2.885,0.258-4.327
		c0.271-5.656,1.683-10.976,4.739-15.773c3.906-6.132,9.802-9.421,16.61-11.299c0.844-0.232,1.795-0.071,2.696-0.093
		c0.104,0.073,0.14,0.147,0.106,0.224C141.177,242.171,141.146,242.208,141.11,242.208z"/>
	<path fill="#232A33" d="M121.671,290.318c0.62,0.601,1.655,1.119,1.357,2.09c-0.338,1.101-1.535,1.233-2.541,1.257
		c-1.277,0.029-2.586,0.239-3.828-0.289c-1.497-0.637-1.639,0.382-1.599,1.403c0.152,3.895,0.758,7.685,2.883,11.068
		c0.209,0.332,0.493,0.616,0.483,1.045c-2.07-1.798-2.661-4.332-3.325-6.808c-0.589-2.195-0.382-4.458-0.405-6.699
		c-0.01-1.003,0.407-1.124,1.267-0.797c1.691,0.646,3.424,1.109,5.247,0.547c0.523-0.161,1.218-0.212,1.217-0.947
		c-0.002-0.872-0.735-0.843-1.351-0.9C121.349,291.01,121.994,290.961,121.671,290.318z"/>
	<path fill="#19110F" d="M109.592,466.273c-0.301,0.593-0.861,0.432-1.342,0.432c-10.969,0.008-21.938,0.007-32.905,0.003
		c-0.44,0-0.911,0.095-1.267-0.292c10.6-0.019,21.198-0.034,31.798-0.059C107.114,466.354,108.354,466.303,109.592,466.273z"/>
	<path fill="#221916" d="M257.258,326.94c0.324,0.255-0.06,0.853,0.484,1.001c-0.104,0.849-0.913,1.085-1.399,1.599
		c-1.118,1.182-2.371,2.234-3.352,3.55c-0.361,0.484-0.723,1.033-1.467,0.963c-0.104-0.135-0.21-0.269-0.314-0.402
		C252.818,331.046,254.476,328.486,257.258,326.94z"/>
	<path fill="#211814" d="M503.988,467.003c2.512,0,5.023,0,7.537,0c-0.002,0.137-0.003,0.273-0.004,0.41
		c-5.07-0.245-10.147,0.364-15.215-0.317C498.868,467.064,501.428,467.034,503.988,467.003z"/>
	<path fill="#1A130F" d="M217.588,285.215c-0.479-2.25-0.466-4.501-0.01-6.752C217.815,280.713,217.873,282.964,217.588,285.215z"/>
	<path fill="#19120F" d="M113.063,292.003c0.464,2.139,0.478,4.276-0.008,6.414C112.847,296.278,112.813,294.141,113.063,292.003z"
		/>
	<path fill="#1A130F" d="M401.146,214.503c-1.772,0.589-3.585,0.217-5.381,0.212c-0.021,0-0.062-0.084-0.059-0.128
		c0.002-0.051,0.041-0.101,0.064-0.151C397.563,214.458,399.354,214.48,401.146,214.503z"/>
	<path fill="#1A130F" d="M116.443,264.237c0.477,1.911,0.474,3.824,0.002,5.736C116.276,268.062,116.264,266.149,116.443,264.237z"
		/>
	<path fill="#1B130F" d="M431.917,262.528c-0.466-1.572-0.449-3.146-0.009-4.72C432.139,259.381,432.057,260.955,431.917,262.528z"
		/>
	<path fill="#1A1310" d="M219.674,343.069c1.461-0.463,2.921-0.466,4.382,0.001C222.595,343.285,221.134,343.287,219.674,343.069z"
		/>
	<path fill="#E4E4E8" d="M161.762,520.872c7.824-0.021,15.507-1.185,23.085-3.022c9.776-2.373,19.251-5.624,28.214-10.241
		c6.044-3.115,11.352-7.154,15.27-12.811c2.179-3.146,3.755-6.525,3.954-10.452c0.232-4.582-1.34-8.384-4.647-11.518
		c-1.264-1.198-2.685-2.19-4.51-3.49c7.156,0.201,13.867,0.619,20.582,0.405c4.298-0.335,8.604-0.066,12.904-0.143
		c0.55-0.01,1.121-0.135,1.65,0.146c4.116,0.008,8.233,0.023,12.35,0.021c50.726-0.012,101.451-0.024,152.176-0.038
		c4.622-0.001,9.244,0,13.991,0c-0.104,2.018-2.286,2.877-2.508,4.731c-0.116,0.118-0.258,0.179-0.423,0.188
		c-1.414-0.155-2.848,0.074-4.257-0.2c-0.106-0.021-0.213-0.051-0.32-0.067c0.027,0.046,0.057,0.092,0.087,0.14
		c0.002,0.001,0.014,0.17,0.014,0.17l-0.143,0.092c-9.18,0.891-18.208,2.505-26.866,5.787c-4.044,1.533-7.791,3.615-10.783,6.809
		c-3.049,3.254-4.902,7.016-4.385,11.635c0.42,3.748,2.659,6.396,5.423,8.659c4.728,3.87,10.124,6.524,15.885,8.466
		c9.471,3.191,19.25,4.283,29.186,4.012c13.838-0.378,27.393-2.524,40.51-7.05c6.699-2.311,12.718-5.774,17.624-10.995
		c1.63-1.734,3.14-3.549,4.229-5.682c2.932-5.746,1.749-12.154-3.044-16.482c-1.689-1.527-3.608-2.717-5.679-3.633
		c-5.689-2.52-11.521-4.577-17.758-5.266c-1.028-0.112-1.135-0.197-2.091-1.302c3.434,0,6.667,0.045,9.897-0.008
		c18.955-0.31,37.91-0.625,56.864-0.995c1.561-0.03,2.69,0.464,3.715,1.566c19.106,20.605,39.011,40.452,58.154,61.023
		c0.665,0.715,1.27,1.484,2.021,2.371c-1.773,0-3.435,0-5.094,0c-77.426,0-154.852-0.006-232.276,0.002
		c-52.368,0.005-104.738,0.027-157.107,0.043c-51.974,0.014-103.948,0.027-155.922,0.04c-4.627,0.001-9.255-0.05-13.882,0.003
		c-1.315,0.015-1.733-0.155-1.073-1.545c9.75-20.514,19.484-41.035,29.147-61.59c0.881-1.872,1.849-2.506,4.022-2.429
		c13.197,0.477,26.407-0.137,39.607,0.193c5.486,0.138,10.931-0.621,16.42-0.344c5.463,0.275,10.942,0.438,16.41,0.033
		c1.012-0.075,1.39,0.251,1.599,1.192c0.265,1.19,1.272,2.601,0.897,3.441c-0.387,0.87-2.038,1.192-3.152,1.723
		c-4.691,2.229-9.326,4.556-13.424,7.8c-5.251,4.156-9.009,9.291-10.305,15.994c-1.348,6.977,1.035,12.44,7.073,16.183
		c4.137,2.563,8.737,3.875,13.46,4.817c4.876,0.977,9.79,1.61,14.773,1.596C156.125,520.652,158.944,520.608,161.762,520.872z"/>
	<path fill="#73787E" d="M217.267,466.439c-7.714-2.323-15.615-3.142-23.558-1.978c-2.32,0.34-3.507-0.273-4.985-1.646
		c-4.505-4.18-8.995-8.402-14.689-11.012c-1.294-0.593-2.45-0.676-3.97-0.454c-9.361,1.365-17.281,6.431-25.891,9.7
		c-1.603,0.608-1.898,1.688-1.585,3.211c0.411,2.004,0.372,2.046-1.693,2.031c-8.799-0.063-17.597-0.171-26.396-0.201
		c-1.112-0.003-1.618-0.605-2.123-1.371c-3.068-4.646-4.7-9.852-5.785-15.239c-1.947-9.671-3.307-19.414-3.838-29.284
		c-0.931-17.321,1.286-34.194,6.919-50.586c2.408-7.008,6.257-13.233,11.271-18.713c0.37-0.405,0.678-1.007,1.304-0.993
		c1.062,0.021,1.312-0.731,1.557-1.483c0.718-2.196,1.34-4.426,2.123-6.597c0.767-2.123,2.144-3.648,4.484-4.188
		c1.259-0.29,1.831-0.118,1.592,1.316c-0.184,1.108-0.34,2.234-0.347,3.354c-0.007,1.037,0.005,2.333,1.695,1.352
		c0.482-0.28,0.71,0.123,1.018,0.331c8.826,5.959,18.746,8.948,29.12,10.663c3.408,0.564,6.852,0.547,10.276,0.042
		c0.994-0.147,1.253,0.223,1.297,1.168c0.208,4.386,0.227,4.402-3.852,2.97c-6.863-2.412-13.765-4.686-20.996-5.739
		c-5.188-0.757-10.337-0.873-15.309,1.19c-1.47,0.609-2.805,1.451-3.955,2.553c-0.357,0.342-0.721,0.787-0.349,1.338
		c0.416,0.615,0.986,0.492,1.487,0.161c6.534-4.313,13.582-3.291,20.609-1.885c7.041,1.41,13.771,3.863,20.434,6.505
		c0.769,0.305,1.052,0.605,0.898,1.46c-0.131,0.721-0.417,1.714,0.618,2.032c1.085,0.334,1.508-0.452,1.699-1.37
		c0.128-0.616,0.474-0.667,0.995-0.465c1.956,0.759,4.277,0.773,5.607,2.806c0.223,0.341,0.697,0.584,1.042,0.398
		c1.485-0.799,2.749,0.072,4.034,0.499c10.537,3.496,21.045,7.089,31.832,9.765c3.717,0.922,7.469,1.699,11.186,2.621
		c2.809,0.697,5.459,1.777,7.755,3.618c0.542,0.435,1.117,1.037,1.964,0.573c0.693-0.381,0.885,0.179,1.114,0.623
		c1.787,3.451,3.792,6.802,4.868,10.582c0.107,0.377,0.265,0.743,0.433,1.1c0.258,0.544,0.618,0.978,1.311,0.771
		c0.609-0.182,0.653-0.704,0.663-1.229c0.026-1.28-0.495-2.422-0.932-3.577c-1.322-3.501-3.199-6.713-5.183-9.868
		c-0.137-0.218-0.403-0.416-0.112-0.888c2.686,1.501,4.527,3.77,6.012,6.376c1.573,2.762,2.608,5.741,3.49,8.78
		c0.094,0.322,0.135,0.67,0.272,0.973c0.217,0.476,0.525,0.938,1.148,0.759c0.615-0.177,0.683-0.694,0.555-1.234
		c-1.379-5.824-3.21-11.427-7.901-15.559c-0.625-0.551-0.914-0.963,0.067-1.225c6.288-1.671,10.718-6.282,15.789-9.887
		c6.056-4.304,11.365-9.42,16.442-14.81c2.979-3.164,6.17-6.083,9.723-8.638c3.438-2.471,7.48-3.012,11.363-4.088
		c0.937-0.26,1.505,0.668,2.083,1.222c5.289,5.068,9.049,11.053,10.785,18.23c0.511,2.106,1.182,4.113-1.164,5.79
		c-1.437,1.026-2.459,2.621-3.718,3.911c-12.021,12.325-24.905,23.734-37.564,35.381c-4.078,3.753-8.819,6.635-13.468,9.633
		c-2.312,1.489-4.604,0.655-6.888,0.435c-14.174-1.374-27.845-5.378-41.763-8.095c-5.194-1.015-10.287-2.494-15.524-3.324
		c-5.913-0.938-11.797-0.515-17.681,0.241c-9.388,1.204-18.55,3.643-27.891,5.099c-1.893,0.295-3.818,0.438-5.575,1.28
		c-0.679,0.325-1.708,0.633-1.279,1.64c0.378,0.887,1.279,0.424,1.957,0.222c3.326-0.995,6.795-0.764,10.243-1.182
		c-3.749,3.482-7.279,7.196-12.116,9.218c-0.826,0.347-1.615,0.795-2.384,1.261c-0.482,0.291-0.988,0.708-0.788,1.355
		c0.227,0.735,0.942,0.757,1.556,0.723c1.556-0.086,2.948-0.675,4.266-1.484c2.469-1.52,4.511-3.563,6.701-5.419
		c2.236-1.896,4.406-3.87,6.592-5.826c0.6-0.537,1.243-1.037,2.021-1.189c2.472-0.481,4.958-0.891,7.494-1.336
		c0.075,1.149-0.715,1.686-1.051,2.429c-0.529,1.173-0.44,2.1,0.935,2.545c3.08,0.996,5.348,3.124,7.378,5.483
		c5.863,6.818,12.475,12.877,19.024,19.004c6.922,6.479,13.573,13.231,20.311,19.898c1.724,1.706,3.504,3.355,5.258,5.03
		C217.722,466.354,217.611,466.503,217.267,466.439z"/>
	<path fill="#FFFFFF" d="M252.179,467.438c-6.937,0.027-13.873,0.004-20.808,0.124c-1.366,0.024-1.78-0.335-2.043-1.646
		c-1.667-8.316-5.043-16.099-7.653-24.124c-2.943-9.05-6.011-18.048-9.755-26.804c-0.127-0.297-0.201-0.616-0.377-1.166
		c3.678,0.779,7.184,1.526,10.691,2.269c8.539,1.803,17.024,3.878,25.68,5.09c1.563,0.219,3.138,0.378,4.712,0.459
		c1.294,0.065,2.461-0.284,3.698-0.863c11.422-5.353,20.003-14.296,29.018-22.702c5.238-4.885,10.778-9.443,15.804-14.558
		c0.538-0.548,0.904-0.564,1.577-0.206c5.927,3.158,12.291,3.854,18.865,3.17c0.994-0.104,2.166-0.228,2.896-0.801
		c1.463-1.153,2.615-0.57,3.96,0.079c7.001,3.383,14.165,6.324,21.632,8.579c10.627,3.208,20.981,2.979,31.172-1.592
		c2.053-0.921,4.17-1.699,6.223-2.622c0.712-0.32,1.22-0.349,1.808,0.212c5.351,5.102,11.946,7.714,18.969,9.491
		c0.498,0.127,1.312-0.046,1.443,0.623c0.118,0.599-0.573,0.922-0.983,1.272c-13.972,11.956-27.298,24.63-41.025,36.857
		c-8.594,7.655-16.883,15.641-24.856,23.944c-0.353,0.365-0.783,0.686-1.038,1.108c-2.006,3.332-4.933,4.516-8.695,3.807
		c-0.491,0.19-1.004,0.106-1.506,0.106c-25.967,0.005-51.933,0.005-77.898,0C253.182,467.548,252.668,467.633,252.179,467.438z"/>
	<path fill="#FFFFFF" d="M440.088,366.461c2.952-0.146,5.592-1.14,7.99-3.055c0.306,0.808-0.188,1.358-0.412,1.916
		c-2.46,6.095-6.406,11.227-10.532,16.248c-0.611,0.744-2.083,1.664-0.982,2.576c1.006,0.834,1.591-0.782,2.221-1.457
		c4.695-5.031,8.517-10.628,10.893-17.271c0.48,0.507,0.549,1.021,0.68,1.513c0.146,0.544,0.321,1.079,0.472,1.622
		c3.32,12.063,7.849,23.734,11.498,35.689c6.102,19.986,9.384,40.38,8.949,61.314c-0.014,0.587,0.437,1.556-0.486,1.705
		c-1.003,0.164-2.27,0.612-3.035-0.363c-0.556-0.709-1.055-1.488-1.384-2.479c-0.573-1.727-1.68-3.41-3.364-4.482
		c-2.239-1.425-4.508-1.324-6.93-0.393c-5.063,1.95-10.002,4.123-14.397,7.358c-0.997,0.732-2.104,0.726-3.229,0.71
		c-28.71-0.399-57.423-0.228-86.134-0.391c-3.813-0.021-7.622-0.003-11.397-0.003c1.137-1.229,2.142-2.507,3.333-3.573
		c12.612-11.281,25.286-22.495,37.877-33.802c7.933-7.123,15.737-14.387,23.632-21.552c1.96-1.779,4.324-3.189,5.985-5.197
		c1.421-1.719,2.72-2.105,4.796-1.783c3.863,0.602,7.763,0.424,11.626-0.239c0.442-0.075,0.887-0.16,1.314-0.292
		c0.434-0.135,0.922-0.32,0.836-0.893c-0.086-0.582-0.611-0.608-1.063-0.576c-0.786,0.058-1.564,0.215-2.352,0.259
		c-11.348,0.639-22.083-1.556-32.105-6.989c-1.337-0.726-2.572-1.621-3.699-2.66c-0.653-0.604-0.57-0.905,0.23-1.29
		c2.539-1.217,5.069-2.457,7.559-3.774c10.243-5.421,19.799-11.898,28.95-18.984c0.866-0.671,1.564-0.974,2.679-0.42
		c1.404,0.697,2.955,1.095,4.571,1.027C436.479,366.486,438.283,366.433,440.088,366.461z"/>
	<path fill="#F3E3E3" d="M411.305,331.576c3.121-0.07,6.111-0.981,9.174-1.439c8.682-1.3,13.631,1.017,18.097,8.56
		c4.084,6.897,6.094,14.51,7.782,22.244c0.162,0.745-0.194,1.063-0.677,1.358c-4.866,2.989-9.987,3.438-15.344,1.665
		c-0.093-0.744,0.434-0.893,0.734-1.161c1.938-1.726,3.916-3.407,5.843-5.145c0.474-0.427,1.269-0.995,0.751-1.672
		c-0.59-0.771-1.203,0.075-1.689,0.418c-1.61,1.139-3.187,2.331-4.758,3.526c-8.799,6.688-17.425,13.616-26.961,19.278
		c-7.724,4.585-15.81,8.397-24.078,11.899c-9.855,4.174-19.728,4.534-29.89,1.322c-7.711-2.438-15.182-5.411-22.33-9.174
		c-5.632-2.966-11.207-6.04-17.05-9.197c1.637-1.114,2.011-3.403,4.358-3.418c0.181-0.002,0.455-0.499,0.518-0.8
		c0.136-0.659,0.224-1.34,0.223-2.012c-0.006-3.175-0.016-3.163,3.122-4.034c1.411-0.392,2.856-0.722,4.194-1.296
		c1.202-0.516,2.061-0.259,3.099,0.423c8.407,5.53,17.323,9.891,27.372,11.529c1.665,0.271,3.329,0.629,5.037,0.485
		c1.577-0.254,3.154-0.239,4.732-0.008c5.271-0.085,10.271-1.428,15.028-3.564c14.456-6.494,26.976-15.631,37.281-27.723
		c0.183-0.214,0.354-0.439,0.519-0.668c0.372-0.52,0.441-1.039-0.068-1.513c-0.479-0.442-0.95-0.236-1.369,0.089
		c-0.354,0.275-0.679,0.596-0.982,0.927c-7.606,8.277-16.272,15.306-25.821,21.172c-2.893,1.776-6.473,1.629-9.867,0.973
		c-3.221-0.622-6.244-1.924-9.512-2.706c0.233-0.797,0.993-1.014,1.536-1.412c1.636-1.201,3.318-2.337,4.962-3.528
		c0.509-0.367,1.023-0.853,0.604-1.554c-0.463-0.776-1.117-0.303-1.639-0.062c-0.661,0.307-1.278,0.714-1.891,1.116
		c-7.395,4.857-14.939,9.457-22.808,13.522c-1.051,0.544-1.924,0.603-3.023,0.246c-5.762-1.867-11.037-4.747-16.532-7.699
		c7.761-3.205,13.385-9.188,20.033-13.717c0.088,0.17,0.188,0.272,0.17,0.343c-0.261,0.966-0.527,2.072,0.772,2.35
		c1.32,0.281,1.67-0.833,1.898-1.877c0.024-0.11,0.09-0.239,0.057-0.33c-0.911-2.508,1.148-3.259,2.588-4.35
		c3.328-2.522,6.716-4.955,10.508-6.757c2.781-1.322,5.679-2.183,8.791-2.135c0.732,0.012,1.464,0.03,2.13,0.422
		c1.234,0.725,1.799,0.12,1.941-1.076c0.155-1.302-0.028-2.592-0.355-3.854c-0.188-0.723-0.088-1.219,0.603-1.709
		c6.8-4.837,11.086-11.42,13.393-19.755c0.937,2.047,2.268,3.447,3.754,4.718c0.923,0.789,0.691,1.553-0.138,2.261
		c-1.066,0.915-2.321,1.596-3.243,2.698c-1.69,2.027-1.486,3.362,0.669,4.901c0.918,0.656,2.693,0.703,2.594,2.041
		c-0.078,1.037-1.691,1.317-2.596,1.972c-1.701,1.232-1.641,2.576,0.229,3.634c0.82,0.464,1.688,0.845,2.788,1.389
		c-1.025,0.517-1.813,0.886-2.573,1.303c-1.076,0.59-1.703,1.5-1.617,2.75c0.082,1.186,1.018,1.641,1.952,2.111
		c0.899,0.453,2.445,0.124,2.689,1.001c0.271,0.969-1.197,1.454-1.842,2.209c-0.177,0.208-0.404,0.489-0.392,0.726
		c0.129,2.209-1.462,2.559-3.063,2.829c-3.248,0.548-6.388,0.018-9.493-0.976c-0.875-0.28-2.135-1.157-2.687,0.132
		c-0.626,1.462,0.894,1.901,1.868,2.296c3.391,1.371,6.901,2.042,10.586,1.52c1.487-0.211,2.828-0.734,4.078-1.529
		c0.452-0.287,0.869-0.301,1.192,0.127c0.459,0.605-0.191,0.738-0.497,0.973c-0.311,0.239-0.696,0.376-1.01,0.612
		c-1.046,0.793-1.049,1.696,0.149,2.155c1.116,0.429,1.134,1,0.779,1.912c-0.241,0.62-0.587,1.378,0.313,1.734
		c0.806,0.318,1.425-0.16,1.843-0.827c0.665-1.061,0.99-2.263,0.287-3.351c-0.515-0.795-0.219-1.139,0.271-1.687
		c1.416-1.585,1.3-2.198-0.526-3.389c-1.301-0.849-1.47-1.986-0.447-3.013c2.359-2.37,1.879-4.265-1.328-5.215
		c-0.595-0.176-1.2-0.304-1.967-0.495c1.073-1.336,2.573-1.854,3.924-2.482c1.484-0.692,1.896-1.553,1.296-3.055
		c-0.388-0.972-0.605-2.01-1.041-3.503c2.291,1.885,4.405,2.964,6.925,2.999C407.927,331.552,409.615,331.452,411.305,331.576z"/>
	<path fill="#F3E3E3" d="M391.325,298.764c0.003,4.836-0.913,9.508-2.716,14.102c-0.097-0.558-0.192-1.115-0.288-1.674
		c-0.712-4.148-3.332-6.698-7.493-7.385c-2.609-0.431-5.201-0.265-7.729,0.353c-7.185,1.752-14.57,2.411-21.762,4.11
		c-2.698,0.639-5.307,1.562-7.567,3.239c-2.582,1.916-4.125,4.354-3.419,7.699c0.233,1.103-0.649,0.988-1.104,1.352
		c-0.708,0.567-0.992-0.104-1.314-0.516c-2.677-3.42-3.988-7.418-4.833-11.599c-1.425-7.062-1.477-14.233-1.708-21.394
		c-0.039-1.203,1.271-1.287,1.485-2.427c0.426-2.266,1.609-4.314,2.976-6.204c0.864-1.195,1.84-2.298,3.093-3.097
		c1.857-1.187,3.745-1.924,5.718-0.173c0.371,0.33,0.906,0.67,1.336,0.135c0.425-0.53-0.079-0.936-0.401-1.304
		c-1.583-1.807-3.801-2.102-6.14-0.747c-2.671,1.547-4.521,3.88-5.952,6.555c-0.711,1.33-1.289,2.732-2.058,4.383
		c-0.381-2.934-0.244-5.696-0.992-8.295c-2.717-9.432,1.245-16.407,8.254-22.087c5.513-4.467,12.059-6.45,19.11-6.813
		c2.365,0.013,4.731,0.002,7.1,0.01c4.766,0.169,9.059,1.635,12.711,4.75c7.407,6.319,11.944,14.124,12.314,24.054
		c0.1,2.701,0.236,5.401,0.302,8.104c0.058,2.419,1.504,4.608,1.114,7.096c-0.069,0.438-0.024,0.896-0.032,1.344
		C391.05,294.478,391.053,296.621,391.325,298.764z"/>
	<path fill="#F3E3E3" d="M182.085,314.361c-7.191,0.309-14.056,6.837-15.229,14.523c-0.691,4.531-0.541,8.901,2.626,12.644
		c2.46,2.907,5.354,4.99,9.699,4.948c-3.197,2.637-6.626,2.973-10.227,2.642c-0.168-0.016-0.333-0.062-0.499-0.09
		c-11.888-2.034-23.551-13.383-26.302-25.585c-0.771-3.415-1.203-6.883-1.679-10.345c-0.148-1.078,0.077-1.461,1.197-1.124
		c0.696,0.209,1.423,0.381,2.168,0.252c0.611-0.106,1.065-0.452,1.184-1.06c0.136-0.69-0.351-1.01-0.922-1.209
		c-0.266-0.093-0.536-0.179-0.812-0.235c-4.249-0.875-6.36-3.699-6.75-7.807c-0.404-4.27,0.607-8.163,4.422-10.665
		c3.804-2.496,7.659-0.563,8.265,3.922c0.396,2.918-0.654,5.531-1.512,8.199c-0.194,0.608-0.802,1.219-0.194,1.872
		c0.604,0.651,1.359,0.296,2.062,0.164c0.22-0.041,0.438-0.118,0.642-0.212c7.026-3.232,11.725-8.428,13.396-16.095
		c0.522-2.398-0.105-4.791-0.549-7.315c1.677,1.137,3.186,2.199,4.738,3.193c0.706,0.453,1.513,0.905,2.365,0.376
		c0.793-0.492,0.407-1.344,0.404-2.023c-0.01-2.153-0.58-4.239-0.863-6.361c-0.088-0.65-0.289-1.302-0.038-2.087
		c1.254,0.729,2.45,1.45,3.67,2.13c2.875,1.603,5.891,2.826,9.176,3.286c2.498,0.35,3.067-0.252,2.554-2.713
		c-0.534-2.562-1.797-4.853-2.723-7.269c-0.219-0.57-0.411-1.15-0.682-1.913c2.122,0.241,3.778,1.095,5.314,2.233
		c2.113,1.565,3.7,3.622,5.259,5.699c1.726,2.303,3.417,4.634,5.598,6.543c1.722,1.507,2.789,1.136,3.259-1.116
		c0.338-1.622,0.253-3.251,0.112-4.886c-0.113-1.329-0.166-2.664-0.25-4.083c2.717,1.254,4.327,4.517,4.102,7.21
		c-0.483,5.762-2.516,11.219-3.168,16.935c-0.457,4.003,0.223,7.766,2.747,11.027c0.483,0.626,0.519,1.032-0.087,1.538
		c-0.461,0.386-0.782,0.936-0.386,1.484c0.482,0.668,1.147,0.323,1.661,0c1.238-0.778,2.436-1.623,3.648-2.443
		c1.357-0.919,2.836-1.385,4.479-1.121c1.684,0.27,2.135,1.113,1.324,2.612c-1.64,3.031-4.275,4.712-7.603,5.366
		c-1.215,0.239-2.45,0.373-3.668,0.601c-0.561,0.104-1.227,0.319-0.982,1.073c0.621,1.92-0.686,3.398-1.082,5.077
		c-0.223,0.942-0.799,0.968-1.614,0.403c-2.002-1.385-3.766-3.054-5.666-4.557c-2.418-1.911-4.991-3.483-8.192-3.636
		C185.014,314.381,183.55,314.388,182.085,314.361z"/>
	<path fill="#82633D" d="M380.881,225.973c-0.692,0.107-1.774,0.171-2.798,0.453c-2.045,0.564-3.748,0.042-5.333-1.28
		c-2.394-1.995-4.322-2.057-6.915-0.343c-1.074,0.711-2.089,1.543-3.494,1.556c-0.771,0.007-1.094-0.242-1.151-1.054
		c-0.163-2.247,1.14-4.092,3.703-5.041c2.392-0.884,4.921-1.184,7.396-1.705c2.744-0.579,5.228-1.566,7.438-3.394
		c4.195-3.465,6.559-3.618,11.163-0.712c2.626,1.656,5.348,2.63,8.455,2.307c2.384-0.247,4.087,0.778,5.091,2.845
		c1.204,2.477,3.047,4.144,5.624,5.037c2.185,0.756,3.071,2.356,2.891,4.579c-0.217,2.673,1.175,4.218,3.477,5.178
		c0.729,0.304,1.438,0.663,2.179,0.93c2.512,0.902,3.955,2.72,4.497,5.271c0.34,1.594,0.637,3.204,0.828,4.821
		c0.379,3.206,2.165,5.771,3.746,8.421c1.41,2.366,1.911,4.882,1.654,7.595c-0.38,3.999,0.268,7.753,2.711,11.068
		c0.367,0.497,0.636,1.065,0.99,1.573c2.193,3.143,2.274,6.392,0.476,9.717c-1.558,2.878-1.78,5.708-0.158,8.687
		c1.397,2.567,0.698,4.957-1.269,6.942c-1.144,1.155-2.454,2.152-3.743,3.151c-1.308,1.013-1.894,2.111-1.138,3.786
		c0.784,1.738-0.285,2.947-1.581,3.848c-1.756,1.221-3.621,2.285-5.437,3.423c-0.837,0.524-1.539,1.201-1.751,2.19
		c-0.388,1.812-1.586,2.193-3.17,1.865c-1.416-0.292-2.627-0.673-4.078,0.46c-1.421,1.109-7.458-1.544-8.188-3.285
		c-0.401-0.955,0.188-1.616,0.755-2.253c1.047-1.178,2.448-1.992,3.359-3.319c0.517-0.754,1.172-1.522,1.089-2.42
		c-0.141-1.515,0.561-2.386,1.685-3.212c0.9-0.662,1.71-1.483,2.44-2.337c1.439-1.683,1.847-3.598,0.836-5.646
		c-0.733-1.486-0.821-2.959,0.045-4.356c1.451-2.339,1.578-4.811,0.741-7.313c-0.777-2.328-0.571-4.52,0.275-6.756
		c0.498-1.313,0.825-2.674,0.84-4.116c0.025-2.388-0.675-4.474-2.445-6.077c-2.565-2.322-3.483-5.288-3.682-8.606
		c-0.063-1.063-0.207-2.134-0.445-3.171c-0.572-2.48-2.063-4.255-4.452-5.148c-2.777-1.038-3.974-2.929-3.609-5.893
		c0.763-6.229-2.99-9.648-8.451-10.541c-2.477-0.404-4.187-1.732-5.376-3.912C385.449,227.678,383.938,225.975,380.881,225.973z"/>
	<path fill="#FFFFFF" d="M193.465,467.363c8.686-0.777,17.018-0.566,25.023,2.69c2.849,1.159,5.421,2.751,7.609,4.938
		c3.758,3.754,4.605,8.129,2.741,13.045c-1.68,4.432-4.603,7.986-8.104,11.088c-4.662,4.128-10.118,6.924-15.832,9.26
		c-12.056,4.93-24.411,8.817-37.499,9.587c-11.404,0.67-22.782,0.37-33.893-2.813c-2.173-0.622-4.269-1.446-6.246-2.546
		c-6.275-3.485-8.428-8.874-6.229-15.715c1.803-5.611,5.273-10.026,9.92-13.569c4.373-3.334,9.301-5.722,14.116-8.305
		c0.702-0.376,0.918-0.218,1.203,0.479c0.79,1.927,1.633,3.836,2.557,5.701c0.464,0.937,0.268,1.276-0.677,1.688
		c-3.612,1.58-5.945,4.425-7.279,8.05c-1.526,4.146,0.044,7.912,3.997,9.944c2.455,1.263,5.136,1.746,7.835,1.915
		c9.731,0.609,19.449,1.772,29.228,0.802c7.665-0.764,15.187-2.104,22.235-5.38c3.612-1.679,6.923-3.803,9.446-6.962
		c4.063-5.085,3.339-10.095-2.058-13.7c-4.327-2.893-9.165-3.982-14.325-3.555c-1.012,0.084-1.355-0.001-1.39-1.129
		C195.752,469.808,195.688,469.81,193.465,467.363z"/>
	<path fill="#82633D" d="M399.189,315.016c-0.371-1.138-1.323-1.804-2.132-2.575c-3.118-2.979-3.14-4.164-1.439-8.185
		c1.146-2.714,3.619-4.096,5.218-6.312c1.717-2.38,3.564-4.656,4.209-7.62c0.256-1.176,0.308-2.368,0.052-3.524
		c-1.217-5.498-6.269-5.921-9.598-4.12c-0.679,0.367-1.294,0.85-2.128,1.405c-0.095-2.981-0.129-5.771-0.285-8.554
		c-0.628-11.215-5.458-20.157-14.223-27.059c-3.747-2.95-8.091-4.471-12.776-4.834c-10.149-0.787-19.614,1.304-28.032,7.266
		c-4.967,3.517-7.985,8.275-9.87,14.104c-1.101,3.409,0.374,6.33,0.307,9.481c-0.025,1.156,0.22,2.319,0.373,3.77
		c-1.595-1.038-2.061-2.504-2.681-3.832c-1.013-2.173-1.074-4.739-2.776-6.65c-0.22-0.244-0.092-0.876-0.003-1.302
		c0.3-1.44,0.819-2.813,1.498-4.115c1.303-2.502,2.078-5.118,1.731-7.966c-0.415-3.417,1.044-5.882,3.812-7.713
		c2.84-1.879,5.056-4.277,6.341-7.484c1.551-3.87,4.688-5.453,8.613-5.748c2.444-0.184,4.37-1.082,5.885-3.108
		c2.77-3.706,4.765-4.13,8.851-2.177c1.785,0.854,3.442,0.791,5.044-0.505c0.864-0.698,1.715-1.435,2.847-1.779
		c1.32-0.401,2.556-0.263,3.437,0.723c2.071,2.315,4.531,2.582,7.378,1.914c3.021-0.709,4.764,0.023,6.155,2.782
		c1.522,3.018,3.778,4.645,7.109,5.302c4.494,0.888,5.73,2.702,5.716,7.339c-0.001,0.281,0.017,0.566-0.012,0.846
		c-0.363,3.688,1.284,6.282,4.594,7.64c2.917,1.195,3.891,3.299,3.874,6.226c-0.021,3.756,1.146,7.032,3.915,9.729
		c2.297,2.236,2.766,4.994,1.483,7.928c-1.168,2.674-1.289,5.333-0.266,8.041c0.854,2.258,0.688,4.394-0.522,6.488
		c-1.052,1.817-1.23,3.652-0.224,5.628c0.857,1.678,0.255,3.239-1.574,4.899c-0.835,0.758-1.659,1.527-2.518,2.257
		c-0.84,0.713-1.332,1.438-0.834,2.632c0.425,1.02-0.44,1.733-1.06,2.301c-1.827,1.681-3.341,3.625-4.901,5.53
		c-0.192,0.233-0.201,0.617-0.295,0.932C399.384,315.115,399.287,315.121,399.189,315.016z"/>
	<path fill="#FFFFFF" d="M422.727,506.03c4.104,1.525,8.394,2.157,12.718,2.477c12.834,0.944,25.321-0.551,37.262-5.597
		c2.708-1.146,5.274-2.56,7.473-4.554c5.904-5.361,5.049-13.113-1.874-16.99c-0.59-0.329-1.197-0.626-1.807-0.921
		c-3.673-1.781-3.651-1.779-3.594-5.946c0.011-0.782,0.185-0.93,0.952-0.792c6.528,1.162,12.86,3.02,18.71,6.137
		c6.884,3.67,8.499,10.562,4.183,17.054c-3.514,5.282-8.625,8.68-14.189,11.435c-8.064,3.992-16.735,5.966-25.548,7.402
		c-10.279,1.675-20.609,2.339-31.015,1.432c-9.847-0.858-19.166-3.407-27.703-8.511c-2.088-1.248-4.063-2.65-5.708-4.467
		c-3.223-3.562-3.726-7.223-1.571-11.523c1.843-3.68,4.792-6.205,8.413-8.025c4.665-2.346,9.671-3.695,14.697-4.956
		c6.24-1.563,12.593-2.528,18.958-3.423c1.086-0.151,1.382,0.319,1.575,1.185c0.242,1.08-0.402,1.188-1.227,1.265
		c-5.399,0.505-10.469,2.134-15.271,4.617c-2.063,1.066-3.993,2.333-5.553,4.088c-3.738,4.208-3.521,9.738,0.547,13.606
		c1.905,1.813,4.162,3.067,6.595,4.026C420.896,504.908,421.822,505.434,422.727,506.03z"/>
	<path fill="#FFFFFF" d="M420.126,488.068c3.655-2.264,7.599-3.615,11.913-3.895c1.167-0.075,2.371-0.195,3.441-0.778
		c0.679-0.368,1.203,0.06,1.731,0.329c1.795,0.918,3.115,2.41,4.447,3.861c0.816,0.892,1.688,1.266,2.938,1.257
		c8.464-0.055,16.912-0.53,25.367-0.836c0.616-0.021,1.229-0.147,1.843-0.231c1.358-0.188,2.371-0.639,1.523-2.543
		c1.091,0.395,1.654,0.987,2.183,1.604c1.251,1.456,1.903,3.185,2.153,5.063c0.618,4.646,0.378,5.128-3.679,7.405
		c-5.999,3.369-12.55,4.961-19.296,5.826c-9.053,1.162-18.103,1.41-27.104-0.487c-1.374-0.29-2.729-0.666-4.093-1.002
		c-0.25,0.171-0.541,0.188-0.806,0.111c-2.433-0.691-4.815-1.654-6.542-3.479c-1.347-1.422-1.459-3.518-1.104-5.421
		C415.617,491.805,417.077,489.314,420.126,488.068z"/>
	<path fill="#F3E3E3" d="M323.758,328.325c-0.791,0.816-1.747,1.267-2.28,2.142c-0.501,0.823-0.497,0.882,0.446,1.201
		c0.17,0.058,0.256,0.09,0.321,0.258c0.49,1.26,0.578,1.375,1.881,0.511c2.917-1.933,5.897-3.718,9.139-5.066
		c0.852-0.354,1.421-0.464,1.916,0.459c0.264,0.488,0.674,0.901,1.042,1.327c2.08,2.394,2.583,5.072,1.402,8.021
		c-1.037,2.589-1.327,5.166-0.526,7.913c0.936,3.202-0.096,5.992-2.292,8.401c-2.372,2.603-5.341,4.282-8.592,5.515
		c-3.271,1.241-6.686,1.991-10.054,2.904c-0.739,0.201-0.988,0.017-1.193-0.654c-2.101-6.874-6.154-12.477-11.38-17.29
		c-0.682-0.627-0.694-1.085-0.273-1.851c1.478-2.691,3.464-4.865,6.212-6.264c3.041-1.548,5.813-3.387,7.978-6.108
		C319.091,327.747,321.263,327.552,323.758,328.325z"/>
	<path fill="#FFFFFF" d="M182.079,489.729c3.505-0.045,6.947-0.628,10.387-1.223c1.441-0.249,2.87-0.57,4.311-0.828
		c1.784-0.319,2.063-1.006,1.143-2.546c-0.646-1.08-0.987-2.319-0.587-3.554c0.239-0.736,0.086-1.271-0.521-2.015
		c4.476-0.016,8.484,0.654,12,3.225c1.944,1.42,2.733,3.488,3.268,5.721c0.197,0.822-0.452,1.104-0.855,1.487
		c-4.004,3.813-8.82,6.208-14.03,7.858c-10.198,3.23-20.69,3.838-31.277,3.204c-5.338-0.318-10.711-0.388-15.984-1.463
		c-0.055-0.011-0.111-0.016-0.166-0.027c-4.397-0.959-5.07-1.54-5.125-4.422c-0.092-4.758,2.191-8.689,5.467-9.604
		c0.729-0.204,0.891,0.156,1.143,0.59c0.687,1.179,1.661,1.491,3.054,1.608c3.981,0.334,7.932,1.019,11.904,1.479
		c2.346,0.272,4.693,0.633,7.071,0.504c1.217-0.433,2.428,0.06,3.646,0.044C178.642,489.749,180.361,489.557,182.079,489.729z"/>
	<path fill="#F3E3E3" d="M251.524,334.053c2-2.11,3.755-4.472,6.218-6.111c0.736-0.633,1.739-0.637,2.557-1.08
		c1.129-0.246,2.258-0.27,3.385,0.012c1.08,0.601,2.229,1.105,3.226,1.821c2.541,1.82,5.25,3.297,8.227,4.239
		c3.061,0.968,5.26,2.897,6.9,5.625c1.361,2.262,2.508,4.682,4.377,6.604c0.562,0.578,0.214,0.873-0.221,1.189
		c-3.984,2.9-7.486,6.326-10.83,9.925c-0.284,0.307-0.607,0.467-1.016,0.532c-1.779,0.285-3.549,0.645-5.336,0.866
		c-1.213,0.149-2.432,0.231-3.49-0.732c-0.594-0.542-1.499-0.425-2.279-0.475c-3.143-0.199-5.767-1.451-8.017-3.655
		c-1.122-1.099-2.471-1.961-3.675-2.98c-2.334-1.976-4.397-4.206-6.128-6.734c-0.479-0.699-0.904-1.423-1.053-2.281
		c-0.178-1.033,0.023-1.513,1.278-1.434c3.281,0.207,6.539,0.012,9.629-1.298c1.521-0.645,2.743-1.573,3.037-3.333
		c0.067-0.399,0.058-0.813-0.369-1.03c-0.4-0.205-0.755-0.112-1.039,0.253c-0.329,0.423-0.472,1.079-1.213,1.002
		c-1.385-0.144-2.801,0.009-4.147-0.444C251.49,334.516,251.528,334.219,251.524,334.053z"/>
	<path fill="#74797E" d="M218.297,462.997c-5.924-5.879-11.796-11.813-17.788-17.621c-5.506-5.339-11.144-10.542-16.719-15.809
		c-2.256-2.132-4.444-4.322-6.51-6.646c-2.737-3.08-5.586-6.073-9.359-7.941c-0.669-0.331-0.599-0.686-0.476-1.339
		c0.412-2.174,1.84-2.631,3.803-2.951c5.582-0.917,11.167-1.341,16.827-1.26c3.201,0.046,5.327,1.139,6.886,4.03
		c2.199,4.084,4.208,8.243,5.818,12.575c2.941,7.913,7.058,15.229,11.102,22.593c2.496,4.545,4.949,9.118,6.843,13.961
		C218.8,462.954,218.641,463.072,218.297,462.997z"/>
	<path fill="#74797E" d="M194.951,410.419c4.803,1.063,9.284,2.059,13.769,3.041c1.083,0.237,1.06,1.249,1.338,1.971
		c3.14,8.148,6,16.396,8.718,24.694c2.787,8.511,5.56,17.026,8.399,25.52c0.447,1.338,0.273,1.781-1.217,1.796
		c-3.04,0.024-3.072,0.104-3.91-2.896c-1.976-7.075-5.36-13.508-9.158-19.716c-5.252-8.583-9.635-17.583-13.474-26.864
		C198.336,415.351,196.811,412.996,194.951,410.419z"/>
	<path fill="#F0D399" d="M152.716,476.823c-0.216-0.057-0.452-0.198-0.646-0.154c-2.857,0.648-3.89-1.094-4.722-3.375
		c-0.82-2.251-1.891-4.411-2.921-6.771c5.691,0.165,11,1.171,16.271,2.351c7.668,1.717,15.386,2.902,23.267,2.964
		c2.131,0.017,4.255,0.445,6.388,0.613c1.436,0.112,2.406,1.162,3.635,1.687c0.574,0.246,0.276,1.145,0.273,1.732
		c-0.008,1.22,0.739,2.8-0.026,3.55c-0.762,0.745-2.358,0.162-3.583,0.12c-7.605-0.256-15.222-0.071-22.823-0.58
		c-4.178-0.28-8.262-1.089-12.358-1.864c-0.604-0.113-1.225-0.133-1.838-0.195C153.312,477.059,152.997,477.149,152.716,476.823z"/>
	<path fill="#F3E3E3" d="M138.425,316.149c0.695,4.372,1.307,8.71,2.705,12.903c2.058,6.168,6.033,10.867,11.172,14.684
		c1.221,0.907,2.413,1.869,3.718,2.639c1.107,0.652,1.458,1.399,1.421,2.704c-0.039,1.338-0.244,1.581-1.565,1.193
		c-6.378-1.869-12.726-3.824-18.71-6.755c-3.82-1.871-3.758-1.943-3.244-6.13c0.859-7.003,2.55-13.833,4.251-20.662
		C138.222,316.525,138.339,316.342,138.425,316.149z"/>
	<path fill="#F0D399" d="M150.484,477.598c5.129,1.487,10.313,2.801,15.634,3.278c7.334,0.658,14.701,0.852,22.063,1.054
		c0.764-0.186,1.525-0.313,2.272,0.064c0.78,0.063,1.561,0.161,2.342,0.181c1.758,0.043,2.681,1.09,2.487,2.783
		c-0.067,0.59-0.49,0.542-0.839,0.616c-9.098,1.94-18.249,2.851-27.552,1.688c-3.912-0.487-7.862-0.694-11.8-0.946
		c-0.964-0.063-1.483-0.344-1.903-1.257c-1.01-2.199-2.182-4.324-3.27-6.488c-0.207-0.411-0.866-1.042,0.334-1.024
		C150.358,477.438,150.434,477.461,150.484,477.598z"/>
	<path fill="#C26E4A" d="M467.582,470.304c-6.905,0.714-13.498,1.52-19.93,3.211c-2.305,0.607-3.815-0.997-5.707-1.513
		c-0.693-0.189-1.332-0.602-1.976-0.951c-0.779-0.426-0.551-0.837,0.062-1.222c4.719-2.965,9.606-5.594,14.93-7.32
		c1.388-0.45,2.84-0.701,4.245-1.104c1.156-0.332,1.928-0.006,2.475,1.075C463.133,465.35,465.099,467.851,467.582,470.304z"/>
	<path fill="#FFFFFF" d="M172.535,322.367c3.472-5.136,12.026-7.179,17.552-4.323c3.251,1.681,5.58,4.564,8.61,6.531
		c0.681,0.442,0.069,0.765-0.19,1.045c-2.301,2.477-5.178,3.289-8.455,2.816c-0.944-0.136-1.899-0.331-2.796-0.65
		C182.341,326.038,177.655,323.683,172.535,322.367z"/>
	<path fill="#FFFFFF" d="M348.89,337.891c-2.678,2.307-1.423,4.646-0.323,6.938c0.542,1.132,0.482,1.854-0.648,2.659
		c-3.254,2.315-6.403,4.777-9.597,7.179c-0.608,0.457-1.21,0.939-2.111,1.043c0.745-1.049,1.466-1.95,2.063-2.926
		c1.604-2.623,2.164-5.414,1.107-8.394c-0.606-1.713-0.74-3.438,0.043-5.097c2.127-4.507,0.877-8.278-2.354-11.698
		c-0.364-0.386-1.329-0.997-0.712-1.4c0.745-0.487,1.742-1.494,2.844-0.553c2.521,2.157,5.127,4.19,8.317,5.708
		c-1.669,1.22-4.396,1.537-3.571,4.284C344.607,337.832,346.838,337.526,348.89,337.891z"/>
	<path fill="#C26E4A" d="M168.3,454.885c-1.531,1.792-1.588,3.638-0.168,5.486c1.47,1.914,3.7,2.691,5.477,1.91
		c2.193-0.966,2.989-3.4,2.18-7.204c4.835,3.112,8.606,7.026,12.316,11.173c-13.167-1.909-26.256-4.097-39.604-4.071
		c6.253-2.708,12.247-5.976,18.974-7.35C167.763,454.662,168.039,454.652,168.3,454.885z"/>
	<path fill="#FFFFFF" d="M383.725,307.158c-6.401,3.941-12.779,7.063-20.028,8.055c-0.985,0.135-1.487,0.061-1.814-1.018
		c-0.471-1.546-1.796-2.247-3.297-2.582c-3.265-0.729-6.381,0.009-9.452,1.037c-0.766,0.257-1.475,0.595-2.133-0.426
		c2.702-1.513,5.628-2.198,8.606-2.68c7.34-1.187,14.683-2.352,22.03-3.486C379.673,305.744,381.646,306.028,383.725,307.158z"/>
	<path fill="#FFFFFF" d="M358.14,322.478c1.458,1.288,3.194,1.727,5.094,1.673c1.465-0.25,2.931-0.238,4.396-0.009
		c7.375-0.519,13.626-3.183,17.993-9.437c0.844,0.285,0.396,0.877,0.329,1.379c-0.535,3.705-2.604,6.521-5.227,9.017
		c-0.427,0.406-0.98,0.573-1.532,0.657c-6.292,0.965-12.593,1.875-18.981,1.834c-1.922-0.012-3.836-0.18-5.657-0.833
		c-1.962-0.704-2.196-1.893-1.172-3.688c1.216-2.129,3.383-2.128,5.293-2.755c0.043,0.146,0.085,0.293,0.128,0.439
		C358.82,321.422,358.18,321.834,358.14,322.478z"/>
	<path fill="#B1452D" d="M385.47,308.88c-0.717,3.949-2.444,6.809-5.38,8.879c-5.395,3.806-11.488,5.016-17.965,4.632
		c-1.754-0.104-2.106-0.849-1.026-2.221c1.268-1.607,2.777-2.814,4.979-3.175c5.575-0.913,10.63-3.276,15.531-5.991
		C382.779,310.355,383.954,309.713,385.47,308.88z"/>
	<path fill="#FFFFFF" d="M240.654,335.98c0.977,0.031,1.952,0.063,2.928,0.095c3.243,0.468,6.512,0.136,10.174,0.291
		c-1.777,0.882-3.327,0.862-4.852,0.881c-6.022,0.073-12.049-0.455-18.067,0.099c-1.12,0.103-2.26,0.186-3.337,0.475
		c-0.615,0.166-0.627,1.151-1.629,1.231c-2.415,0.191-4.809,0.553-7.223,0.048c-1.695-0.631-2.224-1.887-2.023-3.609
		c0.138-1.176,0.29-2.341,0.643-3.474c0.861-2.771,3.018-4.506,5.868-4.847c0.747-0.09,0.693,0.452,0.824,0.791
		c0.974,2.507,2.358,4.857,2.87,7.543c0.078,0.411,0.187,0.895,0.73,1.021c0.542-1.85,0.694-1.933,2.52-1.027
		c1.083,0.538,2.172,0.305,3.272,0.195c1.821,0.343,3.661,0.061,5.488,0.157C239.446,335.883,240.065,335.729,240.654,335.98z"/>
	<path fill="#FFFFFF" d="M367.328,335.03c-5.841,2.36-10.478,6.006-15.232,9.463c-0.563,0.41-0.893,0.407-1.331-0.245
		c-1.427-2.122-1.451-2.998,0.068-5.113c0.998-1.39,0.621-2.759-0.973-3.395c-0.787-0.314-1.621-0.448-2.479-0.468
		c-0.352-0.009-0.879,0.18-0.999-0.346c-0.093-0.405,0.25-0.719,0.533-0.999c0.511-0.505,1.206-0.819,1.47-1.583
		c0.179-0.514,0.571-0.162,0.846-0.06c5.611,2.114,11.377,3.115,17.38,2.412C366.698,334.688,366.798,334.779,367.328,335.03z"/>
	<path fill="#EFD399" d="M466.256,473.028c0.729-0.064,0.954-0.085,1.179-0.104c4.221-0.359,3.852,0.724,3.654,4.33
		c-0.036,0.661-0.406,0.74-0.911,0.547c-3.784-1.445-7.539-0.523-11.336,0.005c-4.234,0.591-8.509,0.905-12.761,1.378
		c-0.742,0.082-0.89-0.18-0.796-0.831c0.088-0.61,0.164-1.232,0.154-1.85c-0.011-0.645,0.24-0.893,0.877-0.936
		C453.182,475.104,459.882,473.344,466.256,473.028z"/>
	<path fill="#FFFFFF" d="M181.356,359.606c-0.154,0.275-0.31,0.552-0.544,0.971c-1.357-2.664-3.146-4.986-3.44-7.962
		c-0.097-0.973-0.863-0.979-1.682-1.197c2.222-0.79,4.186-1.752,5.929-3.115c0.378-0.296,0.681-0.468,1.168-0.106
		c2.308,1.711,4.85,3.094,7.021,5.005c0.549,0.483,0.818,0.974,0.789,1.738c-0.128,3.388-1.445,6.474-2.426,9.638
		c-0.319,1.03-0.679,0.061-0.98-0.19c-0.313-0.24-0.409-0.582-0.454-0.949c-0.06-0.77,0.047-1.554-0.206-2.306
		c-0.221-2.229-0.421-4.462-0.815-6.67c-0.086-0.476,0.022-1.197-0.537-1.302c-0.679-0.128-0.821,0.647-1.061,1.11
		c-0.696,1.344-1.411,2.68-1.97,4.092C181.965,358.824,181.854,359.341,181.356,359.606z"/>
	<path fill="#FFFFFF" d="M170.271,339.147c3.717-0.115,6.42-1.497,8.194-4.868c-0.997,0.172-1.545,0.006-1.942-0.944
		c-1.146-2.743-3.197-4.757-5.797-6.159c-0.878-0.474-0.984-0.967-0.472-1.707c0.646-0.931,0.905,0.149,1.273,0.317
		c1.38,0.632,2.694,1.402,4.053,2.083c1.972,0.987,3.903,2.039,5.495,3.593c2.429,2.37,2.361,5.575-0.148,7.867
		c-1.935,1.766-4.399,2.454-6.786,3.3c-0.363,0.128-0.683,0.027-0.956-0.172C172.002,341.598,171.11,340.496,170.271,339.147z"/>
	<path fill="#EFD399" d="M454.539,484.258c-2.876,0-5.752,0.002-8.628-0.001c-0.584,0-1.45,0.229-1.165-0.816
		c0.241-0.889-0.621-2.479,1.063-2.543c6.152-0.238,12.254-1.025,18.386-1.484c1.923-0.146,3.813,0.276,5.648,0.896
		c0.696,0.235,0.913,0.618,0.914,1.361c0,0.84-0.501,0.862-1.069,0.983C464.692,483.712,459.614,483.827,454.539,484.258z"/>
	<path fill="#F3E3E3" d="M322.822,383.188c-6.721,1.563-13.222,1.007-19.409-1.338c2.122-2.264,4.194-4.468,6.256-6.683
		c0.363-0.39,0.648-0.471,1.109-0.082C314.482,378.209,318.488,380.889,322.822,383.188z"/>
	<path fill="#C26E48" d="M188.132,469.455c-10.667-0.191-21.213-1.429-31.673-3.524c-3.646-0.73-7.368-0.914-11.094-0.636
		c-0.78,0.059-1.498,0.089-1.553-0.995c-0.066-1.303,0.899-0.921,1.529-0.895c14.208,0.587,28.257,2.407,42.144,5.474
		c0.439,0.098,0.883,0.177,1.324,0.266C188.832,469.787,188.45,469.553,188.132,469.455z"/>
	<path fill="#F3E3E3" d="M258.131,356.996c-3.831,1.354-7.478,2.877-10.832,5.165c-1.49,1.017-3.645,1.043-5.484,1.564
		c-1.625,0.46-3.261,0.907-4.835,1.51c-0.824,0.315-1.342,0.027-1.752-0.51c-0.544-0.711,0.284-0.979,0.631-1.296
		c4.354-3.977,9.763-5.697,15.323-7.074c0.766-0.189,1.571-0.259,2.304-0.531C255.256,355.167,256.787,355.393,258.131,356.996z"/>
	<path fill="#552917" d="M375.814,328.533c-3.142,2.124-6.325,2.928-9.617,3.396c-3.414,0.487-6.851,0.578-10.186-0.36
		c-4.481-1.261-7.847-4.267-11.003-7.523c-0.381-0.392-0.495-0.924,0.087-1.074c1.832-0.476,3.45-1.667,5.472-1.539
		c0.946,0.06,1.224,0.24,0.748,1.176c-1.506,2.962-0.578,5.204,2.573,6.281c1.277,0.437,2.581,0.712,3.96,0.708
		C363.731,329.582,369.622,329.782,375.814,328.533z"/>
	<path fill="#552917" d="M184.48,334.881c-0.129-2.062-1.024-4.05-2.767-5.383c-2.931-2.24-5.856-4.599-9.71-5.174
		c-0.246-0.037-0.988,0.083-0.765-0.563c0.194-0.561,0.705-0.618,1.267-0.357c2.396,1.113,4.834,2.141,7.199,3.315
		c3.244,1.61,6.624,2.812,10.168,3.496c1.23,0.237,0.971,0.563,0.353,1.202c-2.183,2.256-3.479,5.053-4.909,7.799
		c-1.438,2.758-3.729,4.704-6.841,5.502c-0.213,0.055-0.474,0.113-0.662,0.041c-0.913-0.353-2.426-0.109-2.575-1.181
		c-0.108-0.768,1.362-0.491,2.094-0.796c1.926-0.803,3.883-1.484,5.336-3.108C183.852,338.354,184.446,336.839,184.48,334.881z"/>
	<path fill="#FFFFFF" d="M394.294,300.235c-0.108-1.869-0.212-3.493-0.294-5.117c-0.061-1.201,0.504-2.05,1.563-2.575
		c0.648-0.322,1.437-0.934,2.022-0.544c0.588,0.389,0.056,1.231-0.082,1.876c-0.104,0.481-0.303,1.086,0.331,1.321
		c0.592,0.219,0.921-0.306,1.183-0.726c0.688-1.102,1.029-2.272,0.373-3.513c-0.628-1.187-1.711-1.283-3.104-0.963
		c0.987-1.606,2.197-2.313,3.846-2.312c0.498,0.001,1.188,0.04,1.249-0.575c0.068-0.689-0.499-1.087-1.176-1.207
		c-1.571-0.281-2.868,0.234-3.987,1.339c-0.915,0.903-1.527,2.038-2.425,3.297c-0.295-1.782-1.145-3.287,0.485-4.57
		c1.822-1.435,3.734-2.6,6.177-1.905c1.174,0.334,1.829,1.257,2.102,2.438c0.646,2.792-0.231,5.23-1.807,7.473
		C399.05,296.392,396.754,298.209,394.294,300.235z"/>
	<path fill="#FFFFFF" d="M367.319,372.3c-5.678,0.693-10.957,0.582-16.175-0.688c-0.066-0.581,0.333-0.604,0.608-0.737
		c3.948-1.898,7.903-3.787,11.615-6.128c0.881-0.556,1.058-0.366,1.235,0.59C365.048,367.706,365.53,370.085,367.319,372.3z"/>
	<path fill="#FFFFFF" d="M381.365,367.507c-3.538,1.789-6.817,2.91-10.162,3.88c-0.801,0.231-1.263-0.007-1.769-0.527
		c-1.881-1.937-2.728-4.368-3.213-6.927c-0.248-1.306,0.601-0.972,1.306-0.62c3.436,1.713,7.016,3.002,10.802,3.686
		C379.203,367.155,380.082,367.292,381.365,367.507z"/>
	<path fill="#222933" d="M134.677,295.727c0.751-4.242,6.674-9.336,12.3-7.371c2.139,0.746,3.789,3.728,3.974,6.923
		c0.125,2.159-0.238,4.211-0.888,6.241c-0.104,0.323-0.214,0.644,0.015,1.081c2.02-0.785,3.603-2.168,4.99-3.76
		c2.439-2.796,4.798-5.638,5.502-9.476c0.518-2.825-0.195-5.45-0.957-8.102c-0.557-1.934-1.612-3.734-1.57-5.827
		c0.014-0.657-0.154-1.429,0.745-1.673c0.808-0.22,1.288,0.344,1.67,0.891c0.416,0.595,0.729,1.268,1.042,1.928
		c1.354,2.854,3.952,4.246,6.716,5.954c-0.473-2.819-0.895-5.288-1.293-7.76c-0.07-0.441-0.098-0.903-0.057-1.347
		c0.2-2.207,1.265-2.694,3.171-1.422c2.154,1.438,4.321,2.853,6.686,3.926c1.687,0.765,3.428,1.356,5.473,1.525
		c-0.263-1.91-1.104-3.475-1.801-5.088c-0.756-1.751-1.589-3.479-1.69-5.433c0.113-0.113,0.226-0.118,0.338,0.001
		c0.596,3.36,2.484,6.254,3.43,9.488c0.139,0.475,0.505,0.979,0.111,1.431c-0.411,0.474-0.923,0.103-1.408,0.007
		c-4.24-0.837-7.827-3.03-11.328-5.408c-0.549-0.373-1.09-0.97-1.808-0.625c-0.763,0.365-0.484,1.18-0.516,1.827
		c-0.153,3.163,1.058,6.169,1.095,9.568c-2.992-1.667-5.896-3.167-7.463-6.317c-0.325-0.654-0.632-1.328-1.047-1.924
		c-0.266-0.38-0.616-1.018-1.172-0.731c-0.508,0.261-0.639,0.908-0.488,1.503c0.276,1.085,0.57,2.165,0.87,3.243
		c0.7,2.53,1.772,4.929,1.829,7.665c0.075,3.568-1.087,6.545-3.164,9.36c-2.063,2.797-4.327,5.313-7.419,6.979
		c-0.333,0.18-0.712,0.543-1.079,0.306c-0.429-0.276-0.016-0.703-0.005-1.067c0.035-1.304,0.726-2.486,0.893-3.665
		c0.4-2.824,0.282-5.766-1.592-8.195c-1.777-2.305-4.265-2.208-6.736-1.545c-3.136,0.84-5.205,3.005-6.618,5.837
		C135.224,295.08,135.146,295.529,134.677,295.727z"/>
	<path fill="#EFD399" d="M437.192,471.585c1.493,1.635,3.557,2.055,4.933,3.677c0.635,0.748,0.821,1.238,0.769,2.076
		c-0.115,1.861-0.413,3.691-0.766,5.521c-0.188,0.975-0.407,1.508-1.429,0.604c-1.229-1.086-2.628-1.967-4.197-2.47
		c-0.834-0.269-0.82-0.631-0.37-1.177c0.934-1.131,1.026-2.311,0.359-3.606C435.681,474.636,436.536,473.274,437.192,471.585z"/>
	<path fill="#F3E3E3" d="M265.159,361.125c-5.247,0.521-10.008,2.979-15.177,3.815c-1.159,0.188-2.312,0.233-3.913,0.181
		c3.22-2.435,6.347-4.15,9.748-5.433c3.583-1.352,7.124-1.388,10.691-0.029c-0.079,0.471,0.864,0.489,0.497,1.036
		c-0.248,0.369-0.717,0.175-1.087,0.191c-0.604,0.025-1.21,0.008-1.76,0.006C264.439,361.012,264.885,360.737,265.159,361.125z"/>
	<path fill="#222933" d="M212.89,287.591c0.176-0.388,0.514-0.796,0.887-0.615c1.7,0.819,1.412-0.627,1.448-1.345
		c0.175-3.545-0.068-7.068-0.802-10.55c-0.173-0.821-0.358-1.644-0.454-2.476c-0.085-0.746,0.103-1.521,0.651-2.014
		c0.628-0.564,1.377-0.229,2.055,0.093c1.597,0.76,2.85,1.989,4.21,3.07c0.523,0.415,1.009,0.864,1.836,1.098
		c-0.115-3.069-0.818-5.931-1.616-8.771c-2.791-9.932-8.231-18.236-15.975-24.937c-5.679-4.915-12.361-7.848-19.905-8.801
		c-2.989-0.377-5.955-0.162-8.93-0.268c-0.525-0.019-1.192-0.19-1.32,0.652c0.116,0.078,0.154,0.154,0.114,0.23
		c-0.039,0.075-0.079,0.113-0.118,0.113c-0.674-0.255-1.348-0.51-2.021-0.765c3.068-0.411,6.044-1.105,9.208-0.718
		c3.009,0.37,6.017,0.614,8.937,1.474c5.751,1.691,10.877,4.497,15.296,8.571c5.017,4.625,9.146,9.907,12.067,16.104
		c2.535,5.377,4.063,11.039,4.902,16.902c0.061,0.426,0.207,0.977-0.214,1.265c-0.564,0.386-0.721-0.284-1.041-0.538
		c-1.67-1.325-3.32-2.678-5.039-3.938c-0.56-0.41-1.296-0.826-2.037-0.422c-0.763,0.415-0.513,1.247-0.414,1.844
		c0.667,4.051,1.258,8.1,0.993,12.224c-0.021,0.337-0.004,0.677-0.005,1.015c-0.006,1.265-0.281,2.18-1.873,1.532
		C213.485,287.524,213.172,287.598,212.89,287.591z"/>
	<path fill="#F2E2E2" d="M253.312,353.844c-2.561,0.631-4.929,1.104-7.229,1.802c-4.845,1.472-9.378,3.514-12.659,7.615
		c-0.364,0.457-0.822,0.831-1.449,0.446c-0.694-0.426-0.331-0.985-0.095-1.472c0.195-0.399,0.442-0.798,0.751-1.112
		c4.152-4.225,8.916-7.366,14.893-8.342C249.477,352.463,251.317,352.754,253.312,353.844z"/>
	<path fill="#B1452D" d="M170.389,338.102c-0.747,0.139-1.222-0.503-1.464-1.511c-0.636-2.644-0.271-5.242,0.24-7.852
		c0.165-0.838,0.489-0.887,1.127-0.498c2.649,1.617,3.944,4.229,5.128,6.93c0.175,0.4-0.035,0.635-0.283,0.876
		C173.923,337.222,172.496,337.935,170.389,338.102z"/>
	<path fill="#FBFCFC" d="M414.384,498.21c-2.462-3.038-2.24-6.749,0.598-9.657c1.311-1.345,2.892-2.321,4.532-3.201
		c3.938-2.109,8.111-3.6,12.46-4.598c0.459-0.104,1.211-0.643,1.411,0.146c0.254,1-0.685,0.917-1.324,1.029
		c-4.65,0.828-9.011,2.352-12.73,5.385c-0.294,0.841-1.046,1.296-1.623,1.892c-1.877,1.934-2.985,4.167-2.916,6.923
		C414.808,496.837,414.946,497.601,414.384,498.21z"/>
	<path fill="#FBFCFC" d="M347.059,319.397c0.875-1.501,0.724-1.779-1.216-2.239c0.808-0.84,1.706-1.365,2.606-1.854
		c0.608,0.209,0.218,0.694,0.362,1.021c0.479,1.077,1.33,1.251,1.983,0.282c0.938-1.393,2.243-1.741,3.966-1.628
		c-0.816,0.9-1.899,0.953-2.734,1.456c-0.477,0.286-1.094,0.584-0.843,1.273s0.899,0.552,1.458,0.427
		c1.679-0.379,3.162-1.174,4.523-2.199c0.699-0.525,0.968-1.229,0.395-2.238c1.348,0.192,2.235,0.597,2.426,1.756
		c0.186,1.14-0.442,1.981-1.42,2.457c-2.748,1.339-5.729,1.686-8.72,1.609C348.98,319.497,348.07,319.5,347.059,319.397z"/>
	<path fill="#232A32" d="M141.11,242.208c0-0.113-0.002-0.227-0.005-0.339c0.834-1.994,0.775-1.673-1.482-2.086
		c-4.175-0.764-7.861-2.634-10.392-6.253c-0.63-0.902-0.155-1.328,0.786-1.464c5.288-0.759,10.41-0.179,15.316,1.969
		c0.717,0.313,1.236,0.249,1.872-0.134c4.036-2.437,8.471-2.605,13.013-2.317c3.148,0.2,6.241,0.654,9.28,1.49
		c0.257,0.07,0.492,0.224,0.738,0.338c-0.086,0.138-0.197,0.248-0.34,0.325c-6.817-1.801-13.652-2.71-20.55-0.397
		c-0.107,0.036-0.251,0.025-0.321,0.094c-2.148,2.092-4.296,0.856-6.486,0.059c-3.735-1.36-7.641-1.126-11.518-1.074
		c-0.502,0.007-1.092,0.088-1.263,0.639c-0.138,0.446,0.224,0.851,0.519,1.188c2.353,2.688,5.592,3.896,8.77,5.193
		c0.235,0.097,0.584,0.071,0.825-0.029c0.832-0.346,1.623-0.346,2.055,0.508C142.413,240.874,141.932,241.638,141.11,242.208z"/>
	<path fill="#FDFEFF" d="M479.775,494.377c-0.146-1.132-0.224-2.238-0.435-3.318c-0.607-3.097-2.262-5.494-5.017-7.06
		c-0.796-0.452-1.37-0.916-1.182-2.112c2.602,1.059,5.131,2.071,6.953,4.257C482.17,488.629,482.032,492.17,479.775,494.377z"/>
	<path fill="#1A130F" d="M252.179,467.438c7.221-0.024,14.442-0.068,21.664-0.072c19.186-0.012,38.371-0.004,57.559,0
		c0.563,0,1.125,0.049,1.688,0.075c-0.533,0.479-1.186,0.275-1.784,0.276c-25.78,0.01-51.562,0.01-77.343-0.001
		C253.363,467.716,252.71,467.921,252.179,467.438z"/>
	<path fill="#221A15" d="M414.384,498.21c-0.722-4.708,1.1-8.263,4.945-10.896c0.374,0.138,0.646,0.382,0.797,0.755
		c-1.973,1.738-4.164,3.37-4.517,6.226c-0.519,4.198,0.073,6.252,3.865,7.803c1.33,0.543,2.556,1.362,4.022,1.544
		c-0.275,0.371-0.693,0.268-1.066,0.335c-0.471,0.088-1.179,0.133-1.065,0.75c0.083,0.456,0.723,0.648,1.263,0.485
		c0.421-0.126,0.818-0.373,1.288-0.098c-0.11,0.683-0.631,0.824-1.189,0.917c-1.086-0.044-2.031-0.514-2.979-0.983
		c1.271-1.487,1.208-1.951-0.861-2.504c-1.517-0.405-2.257-1.929-3.803-2.215c-0.438-0.08-0.466-0.732-0.313-1.176
		C414.932,498.688,414.81,498.401,414.384,498.21z"/>
	<path fill="#F9F9F9" d="M213.545,485.405c-3.903-6.063-9.575-7.689-16.155-7.196c-0.709,0.054-0.997-0.108-1.089-0.851
		c-0.116-0.938,0.457-0.851,1.022-0.846c4.649,0.043,9.061,1.019,13.027,3.529C212.211,481.222,213.59,482.781,213.545,485.405z"/>
	<path fill="#FDFEFF" d="M186.14,364.115c-1.314,0.205-2.438-0.356-3.546-0.919c-1.052-0.533-0.943-1.515-0.854-2.468
		c0.13-2.146,1.212-3.927,2.267-5.697c0.447-0.751,1.242-0.83,1.431,0.152C186.001,358.127,186.512,361.091,186.14,364.115z"/>
	<path fill="#232A32" d="M179.041,266.939c-0.112-0.001-0.226-0.002-0.338-0.001c0.724-1.383,2.39-1.751,4.701-1.208
		c3.942,0.927,6.401,3.795,8.835,6.67c1.734,2.049,3.146,4.366,5.103,6.234c0.3,0.286,0.551,0.875,1.064,0.617
		c0.474-0.238,0.317-0.837,0.219-1.229c-0.542-2.168-0.268-4.365-0.271-6.545c-0.005-2.336,1.284-3.064,3.259-1.868
		c2.956,1.791,4.979,4.438,6.549,7.467c0.098,0.082,0.13,0.162,0.094,0.241c-0.035,0.077-0.068,0.116-0.103,0.116
		c-1.905-2.477-3.511-5.22-6.182-7.019c-0.679-0.457-1.379-1.256-2.22-0.866c-0.943,0.437-1.115,1.467-1.08,2.479
		c0.084,2.352,0.525,4.686,0.341,7.051c-0.034,0.438,0.091,0.997-0.442,1.155c-0.424,0.126-0.647-0.366-0.934-0.617
		c-2.427-2.132-4.051-4.933-6.137-7.345c-2.506-2.898-5.048-5.779-9.235-6.256C181.019,265.875,179.93,265.978,179.041,266.939z"/>
	<path fill="#201715" d="M186.14,364.115c-0.705-3.096-0.44-6.328-1.344-9.898c-1.144,2.438-2.1,4.475-3.056,6.512
		c-0.413-0.276-0.316-0.728-0.384-1.122c0.47-2.534,1.894-4.638,3.09-6.843c0.191-0.352,0.48-0.734,0.897-0.636
		c0.503,0.12,0.575,0.679,0.636,1.102c0.364,2.546,0.879,5.076,0.873,7.664c0.334,0.82-0.092,1.728,0.29,2.543
		c0.016,0.316,0.031,0.633,0.048,0.95C186.543,365.445,186.604,363.767,186.14,364.115z"/>
	<path fill="#C54132" d="M174.229,457.487c-0.03,1.704-1.068,3.111-2.182,3.079c-1.428-0.042-3.301-2.009-3.216-3.386
		c0.014-0.221-0.002-0.502,0.122-0.647c1.077-1.273,2.675-0.529,4.007-0.909C173.955,455.341,174.073,456.739,174.229,457.487z"/>
	<path fill="#222933" d="M208.153,277.435c0.003-0.119,0.005-0.238,0.009-0.357c1.579,1.64,2.568,3.646,3.497,5.683
		c0.309,0.679,0.529,1.521-0.283,1.952c-0.897,0.477-1.768,0.102-2.405-0.646c-0.498-0.584-0.577-1.45-1.382-2.109
		c-0.63,6.28-3.905,11.856-3.832,18.435c0.879-0.681,1.193-1.614,2.026-1.967c-0.438,1.145-1.209,2.039-2.244,3.162
		c-0.828-7.459,3.202-13.687,3.663-20.725c1.269,0.655,1.415,1.899,2.114,2.712c0.499,0.58,0.997,1.247,1.795,0.761
		c0.831-0.507,0.236-1.217-0.064-1.771C210.109,280.839,209.121,279.143,208.153,277.435z"/>
	<path fill="#F6F6F5" d="M214.149,336.687c0.67-0.745,1.179-1.021,1.45,0.319c0.238,1.178,0.72,2.258,1.957,2.764
		c1.875,1.289,4.008,1.083,6.108,1.042c0.666-0.014,1.332-0.072,1.997-0.11c0.371-0.156,0.471,0.016,0.431,0.357
		c-3.895,0.979-7.69,1.063-11.185-1.308C213.771,338.979,213.099,338.03,214.149,336.687z"/>
	<path fill="#F9F8F8" d="M159.094,348.269c3.751,1.963,7.503,3.401,11.612,4.015c-0.879,0-1.758,0.029-2.635-0.008
		c-1.012-0.042-2.022-0.123-3.029-0.224c-0.951-0.096-1.901-0.214-2.846-0.364C159.552,351.265,159.554,351.256,159.094,348.269z"/>
	<path fill="#222933" d="M127.232,319.436c2.834-0.442,5.351-1.663,7.702-3.234c1.157-0.773,1.504-2.186,2.265-3.214
		c1.441-1.948,0.51-2.859-0.738-4.237c-1.65-1.822-2.424-4.146-2.463-6.65c-0.019-1.239-0.012-2.479,0.005-3.719
		c0.007-0.537-0.153-1.187,0.671-1.319c-0.825,4.706-0.363,9.083,3.298,12.607c0.829,0.798,1.091,1.54,0.158,2.433
		c-0.235,0.226-0.431,0.539-0.535,0.85c-1.613,4.821-5.862,5.748-10.023,6.812C127.214,319.907,127.165,319.732,127.232,319.436z"/>
	<path fill="#232A33" d="M169.897,233.737c0.112-0.108,0.227-0.217,0.339-0.325c2.711,0.531,5.233,1.612,7.765,2.665
		c5.465,2.273,10.524,5.241,15.144,8.942c0.559,0.447,0.979,1.066,1.464,1.605c-1.691-0.791-2.926-2.203-4.423-3.264
		C183.98,238.967,177.21,235.786,169.897,233.737z"/>
	<path fill="#232A34" d="M193.593,242.894c2.506,1.363,4.411,3.435,6.248,5.529c1.101,1.254,2.271,2.483,3.092,3.978
		c0.404,0.736,0.478,1.289-0.232,1.909c-0.825,0.72-1.231,0.061-1.652-0.412c-0.931-1.045-1.807-2.139-2.705-3.213
		c0.111-0.159,0.226-0.169,0.343-0.007c1.189,0.65,1.668,1.962,2.631,2.821c0.326,0.292,0.641,0.744,1.131,0.282
		c0.412-0.388,0.266-0.801-0.027-1.207c-2.01-2.788-4.12-5.487-6.824-7.652C194.846,244.321,194.11,243.719,193.593,242.894z"/>
	<path fill="#232A33" d="M174.971,233.073c0.001-0.114,0.002-0.229,0.004-0.344c3.992,1.089,7.598,3.063,11.199,5.015
		c2.068,1.121,3.994,2.506,5.993,3.758c0.583,0.364,1.097,0.782,1.43,1.395c-2.216-1.388-4.418-2.796-6.649-4.158
		C183.158,236.425,179.108,234.655,174.971,233.073z"/>
	<path fill="#80613C" d="M399.189,315.016c0.097,0.001,0.192,0,0.291-0.001c0.824,0.747,0.771,1.532,0.123,2.365
		c-0.989,1.277-1.719,2.796-3.203,3.622c-0.795,0.442-0.476,1.296-0.778,1.932c-1.442-0.475-1.521-1.168-0.431-2.105
		c0.809-0.694,1.612-1.394,2.396-2.116C398.661,317.721,399.392,316.566,399.189,315.016z"/>
	<path fill="#542A17" d="M345.454,314.14c-0.053,0.118-0.069,0.251-0.146,0.314c-1.31,1.107-2.287,2.415-2.624,4.146
		c-0.022,0.116-0.512,0.284-0.563,0.228c-0.215-0.235-0.443-0.532-0.488-0.833c-0.17-1.151,1.566-3.998,2.654-4.464
		C344.955,313.246,345.176,313.733,345.454,314.14z"/>
	<path fill="#222832" d="M127.232,319.436c0.113,0.109,0.227,0.218,0.339,0.327c-4.552,1.041-9.848,0.075-12.143-3.447
		c-0.816-1.255-0.611-1.668,0.849-1.658c0.489,0.004,0.98-0.198,1.471-0.307c0.119,0.074,0.159,0.149,0.12,0.226
		c-0.038,0.076-0.077,0.115-0.116,0.115c-0.083,0.072-0.154,0.168-0.25,0.215c-0.601,0.298-1.735-0.153-1.784,0.746
		c-0.035,0.662,0.705,1.293,1.378,1.771C120.186,319.62,123.558,320.256,127.232,319.436z"/>
	<path fill="#F3F1F1" d="M372.069,333.34c1.598-0.473,3.066-1.26,4.702-2.031c-0.04,1.028,0.508,1.951-0.347,2.737
		c-1.424,0.193-2.852,0.086-4.278,0.064C371.814,333.885,371.837,333.623,372.069,333.34z"/>
	<path fill="#222933" d="M117.752,314.691c-0.002-0.114-0.003-0.228-0.004-0.342c1.662-0.321,3.229-0.935,4.786-1.572
		c0.521-0.214,1.126-0.475,1.172-1.095c0.049-0.656-0.587-0.886-1.076-1.155c-1.658-0.916-3.458-1.669-4.205-3.638
		c1.548,1.358,3.122,2.646,4.996,3.587c1.335,0.67,1.305,1.592-0.007,2.338C121.668,313.807,119.784,314.503,117.752,314.691z"/>
	<path fill="#F2E4E2" d="M265.159,361.125c-0.486-0.045-0.972-0.09-1.458-0.135c0.001-0.082,0.004-0.165,0.006-0.247
		c1.016,0,2.032,0,3.058,0c0.006-0.913-0.847-0.463-1.104-0.979c0.306-0.037,0.577-0.07,0.848-0.104
		c0.414,0.029,0.829,0.059,1.244,0.087c0.673,0.224,1.347,0.222,2.02,0.002c0.645-0.179,1.281-0.158,2.06,0.072
		c-0.612,0.483-1.138,0.898-1.662,1.313c-0.069-0.079-0.146-0.15-0.218-0.228c0.079,0.068,0.155,0.141,0.229,0.215
		c-0.409,0.462-0.902,0.441-1.426,0.253c-0.594-0.308-1.279,0.002-1.876-0.282C266.307,361.104,265.732,361.114,265.159,361.125z"/>
	<path fill="#222933" d="M205.78,298.428c1.204-2.279,3.015-4.129,4.454-6.246c1.006-1.479,1.198-3.402,2.658-4.593
		C211.461,291.818,208.95,295.34,205.78,298.428z"/>
	<path fill="#1B1411" d="M258.264,469.748c-4.852,0.143-9.703,0.153-14.555-0.005C248.561,469.211,253.412,469.204,258.264,469.748z
		"/>
	<path fill="#17110F" d="M182.079,489.729c-2.933,0.362-5.866,0.325-8.8-0.002c2.495-0.75,5.05-0.13,7.569-0.322
		C181.28,489.37,181.75,489.316,182.079,489.729z"/>
	<path fill="#FEEFEE" d="M364.918,246.988c-2.367,0.499-4.734,0.513-7.1-0.01C360.186,246.631,362.552,246.625,364.918,246.988z"/>
	<path fill="#E1DFDE" d="M177.78,358.391c0.569,1.289,1.03,2.334,1.523,3.449C176.92,361.352,176.874,361.252,177.78,358.391z"/>
	<path fill="#EDDFDE" d="M345.467,327.177c-1.062-0.822-2.127-1.641-3.184-2.47c-0.194-0.152-0.555-0.305-0.259-0.621
		c0.234-0.253,0.6-0.37,0.9-0.117c1.032,0.865,2.043,1.757,3.062,2.639C345.813,326.797,345.641,326.987,345.467,327.177z"/>
	<path fill="#191110" d="M440.088,366.461c-1.803,0.369-3.605,0.434-5.412,0.021C436.478,365.927,438.281,365.959,440.088,366.461z"
		/>
	<path fill="#1B1410" d="M161.762,520.872c-2.818,0.223-5.637,0.196-8.455-0.017C156.126,520.357,158.944,520.333,161.762,520.872z"
		/>
	<path fill="#D3BD8A" d="M449.554,486.297c-1.397,0.024-2.798,0.054-4.196,0.071c-0.423,0.006-0.857-0.112-0.792-0.618
		c0.065-0.512,0.517-0.24,0.808-0.218c0.613,0.048,1.225,0.126,1.837,0.191C447.923,486.193,448.963,485.323,449.554,486.297z"/>
	<path fill="#202832" d="M198.686,250.678c-0.114,0.002-0.229,0.005-0.343,0.007c-1.246-1.354-2.491-2.708-3.736-4.062
		C196.375,247.563,197.705,248.945,198.686,250.678z"/>
	<path fill="#191210" d="M411.305,331.576c-1.688,0.284-3.377,0.343-5.065,0.006C407.926,331.067,409.615,331.08,411.305,331.576z"
		/>
	<path fill="#191210" d="M182.085,314.361c1.465-0.308,2.929-0.309,4.393,0.005C185.013,314.876,183.549,314.885,182.085,314.361z"
		/>
	<path fill="#FEEFEE" d="M391.325,298.764c-0.528-2.143-0.532-4.286,0.002-6.429C391.558,294.478,391.552,296.621,391.325,298.764z"
		/>
	<path fill="#171211" d="M190.453,481.994c-0.758-0.021-1.516-0.043-2.272-0.064c2.005-0.737,4.05-0.064,6.067-0.373
		c0.003,0.146,0.007,0.292,0.01,0.438C192.989,481.994,191.722,481.994,190.453,481.994z"/>
	<path fill="#97583A" d="M188.132,469.455c0.226-0.104,0.452-0.208,0.678-0.313c1.207,0.076,2.397,0.229,3.463,1.012
		C190.893,469.921,189.512,469.688,188.132,469.455z"/>
	<path fill="#908C89" d="M143.107,494.282c-0.386-1.02-0.409-2.02,0.297-3.291C143.542,492.332,143.456,493.309,143.107,494.282z"/>
	<path fill="#1D1514" d="M150.484,477.598l-0.127,0.025l-0.104-0.076c-0.201-0.405-0.678-0.249-1.309-0.724c1.479,0,2.626,0,3.771,0
		c0.306,0.023,0.611,0.05,0.916,0.074C152.663,477.489,151.465,477.056,150.484,477.598z"/>
	<path fill="#1B1310" d="M203.249,466.639c-1.616,0-3.231,0-4.847,0c0-0.055,0-0.108,0.001-0.164c1.663,0,3.327,0,4.99,0
		C203.345,466.529,203.297,466.584,203.249,466.639z"/>
	<path fill="#D9D7D6" d="M395.482,330.443c1.507-1.313,1.558-0.307,1.698,0.827C396.438,331.246,395.982,330.926,395.482,330.443z"
		/>
	<path fill="#191210" d="M372.076,333.924c1.452-0.055,2.906-0.164,4.35,0.122c-1.688,0.448-3.375,0.442-5.063,0.005
		C371.56,333.773,371.807,333.789,372.076,333.924z"/>
	<path fill="#999798" d="M429.23,474.783c0.028-0.085,0.058-0.17,0.085-0.256c1.547-0.357,3.103-0.211,4.656-0.082
		c0.101,0.005,0.2,0.011,0.301,0.018c0.036,0.093,0.054,0.189,0.05,0.288c-1.438,0.514-2.906,0.21-4.365,0.156
		C429.715,474.865,429.473,474.824,429.23,474.783z"/>
	<path fill="#211814" d="M478.275,491.794c0,1.437,0,2.871,0,4.307c-0.053,0-0.104,0.001-0.156,0.001c0-1.436,0-2.87,0-4.307
		C478.172,491.795,478.224,491.795,478.275,491.794z"/>
	<path fill="#181210" d="M363.564,374.93c-1.577,0.226-3.154,0.232-4.732,0.008C360.408,374.409,361.986,374.421,363.564,374.93z"/>
	<path fill="#191110" d="M367.629,324.142c-1.465,0.197-2.931,0.261-4.396,0.009C364.697,323.609,366.162,323.626,367.629,324.142z"
		/>
	<path fill="#19110F" d="M429.957,474.907c1.455-0.052,2.91-0.104,4.365-0.155C432.894,475.553,431.426,475.231,429.957,474.907z"/>
	<path fill="#C1AA7D" d="M449.554,486.297c-0.677-0.622-1.677,0.083-2.345-0.572c1.314-0.054,2.61,0.077,4.035,0.348
		C450.607,486.458,450.077,486.342,449.554,486.297z"/>
	<path fill="#221916" d="M263.684,326.873c-1.129-0.004-2.257-0.008-3.385-0.012C261.429,326.35,262.558,326.331,263.684,326.873z"
		/>
	<path fill="#685943" d="M468.548,485.349c0.623-0.372,1.227-0.591,1.756,0.278c-0.62,0-1.177,0-1.734,0
		c-0.132-0.053-0.18-0.111-0.143-0.177C468.467,485.383,468.507,485.349,468.548,485.349z"/>
	<path fill="#5C4F3C" d="M454.508,486.277c-0.639,0-1.276,0-2.329,0C453.275,485.81,453.962,486.075,454.508,486.277z"/>
	<path fill="#C8C6C5" d="M385.951,316.084c-0.228-0.432,0.18-1.015-0.329-1.379c0.128-0.273,0.254-0.547,0.575-1.24
		C386.31,314.676,386.33,315.394,385.951,316.084z"/>
	<path fill="#8C8887" d="M358.14,322.478c-0.446-0.831,0.742-1.032,0.663-1.722C358.956,321.475,358.913,322.116,358.14,322.478z"/>
	<path fill="#463B2D" d="M468.548,485.349c-0.001,0.095,0.005,0.188,0.021,0.278c-0.695-0.001-1.401,0.191-2.173-0.109
		C467.15,485.171,467.86,485.395,468.548,485.349z"/>
	<path fill="#E5E5E5" d="M226.093,341.059c-0.144-0.119-0.287-0.238-0.431-0.357c0.42-0.312,0.913-0.303,1.4-0.319
		c0.373-0.181,0.412,0.027,0.376,0.322C226.99,340.822,226.541,340.939,226.093,341.059z"/>
	<path fill="#F3E3E3" d="M269.772,359.748c-0.673,0.461-1.347,0.464-2.02-0.002C268.426,359.747,269.1,359.748,269.772,359.748z"/>
	<path fill="#3E4751" d="M217.267,466.439c0.123-0.138,0.246-0.273,0.369-0.41c0.288,0.244,0.576,0.486,0.941,0.797
		C217.934,467.021,217.607,466.708,217.267,466.439z"/>
	<path fill="#534B48" d="M368.096,334.319c0.082,0.051,0.2,0.126,0.319,0.201c-0.146,0.132-0.269,0.323-0.438,0.382
		c-0.234,0.081-0.432-0.094-0.417-0.33C367.576,334.3,367.842,334.343,368.096,334.319z"/>
	<path fill="#6C412E" d="M168.846,454.484c0.34-0.32,0.908-0.523,1.075-0.136c0.178,0.413-0.395,0.455-0.763,0.44
		C169.01,454.733,168.907,454.63,168.846,454.484z"/>
	<path fill="#5D5753" d="M331.705,359.341c-0.382,0.15-0.661,0.559-1.268,0.436c0.311-0.562,0.797-0.683,1.309-0.766
		c0.098,0.087,0.123,0.164,0.079,0.233C331.783,359.309,331.743,359.341,331.705,359.341z"/>
	<path fill="#505962" d="M218.297,462.997c0.142-0.136,0.284-0.271,0.427-0.407c0.279,0.324,0.521,0.665,0.485,1.159
		C218.674,463.751,218.517,463.335,218.297,462.997z"/>
	<path fill="#B4B2B0" d="M327.466,361.3c0.271-0.326,0.61-0.772,0.939-0.426c0.386,0.406-0.125,0.516-0.445,0.554
		C327.813,361.445,327.648,361.351,327.466,361.3z"/>
	<path fill="#A05C3D" d="M168.846,454.484c0.104,0.102,0.209,0.204,0.313,0.306c-0.287,0.031-0.573,0.063-0.859,0.095
		c-0.273-0.019-0.549-0.037-0.823-0.056C167.87,454.465,168.37,454.523,168.846,454.484z"/>
	<path fill="#8A8784" d="M228.097,340.041c0.314-0.25,0.648-0.423,1.069-0.263c-0.025,0.468-0.403,0.495-0.728,0.59
		C228.331,340.252,228.104,340.263,228.097,340.041z"/>
	<path fill="#CAC8C7" d="M228.097,340.041c0.114,0.109,0.228,0.219,0.342,0.327c-0.333,0.112-0.667,0.224-1,0.336
		c-0.125-0.107-0.25-0.215-0.376-0.322C227.407,340.268,227.752,340.154,228.097,340.041z"/>
	<path fill="#888380" d="M372.076,333.924c-0.237,0.043-0.476,0.085-0.713,0.127c-0.128-0.078-0.257-0.156-0.386-0.234
		c0.363-0.159,0.729-0.318,1.092-0.477C372.072,333.534,372.074,333.729,372.076,333.924z"/>
	<path fill="#3C3531" d="M331.705,359.341c0.017-0.109,0.03-0.219,0.041-0.329c0.127-0.332,0.365-0.511,0.824-0.615
		C332.445,358.976,332.109,359.189,331.705,359.341z"/>
	<path fill="#F3E3E3" d="M266.88,361.092c0.63,0.063,1.317-0.256,1.876,0.282C268.114,361.383,267.475,361.388,266.88,361.092z"/>
	<path fill="#3C3531" d="M334.021,357.278c0.31-0.116,0.395,0.042,0.319,0.193c-0.084,0.172-0.25,0.329-0.419,0.427
		c-0.15,0.088-0.34,0.012-0.244-0.203C333.759,357.516,333.935,357.379,334.021,357.278z"/>
	<path fill="#221A15" d="M240.654,335.98c-2.437-0.002-4.878,0.086-7.301-0.288C235.785,335.826,238.244,335.305,240.654,335.98z"/>
	<path fill="#221A15" d="M235.827,519.604c-1.402,1.926-2.565,3.576-3.793,5.178c-0.425,0.554-0.912,1.372-1.744,1.04
		c-0.908-0.363-0.744-1.296-0.596-2.075c0.208-1.089,0.479-2.166,0.748-3.355c-0.816,0.622-0.931,1.533-1.421,2.209
		c-0.348,0.48-0.751,0.903-1.389,0.76c-0.585-0.134-0.688-0.691-0.791-1.19c-0.96-4.669,1.771-11.486,5.702-14.188
		c1.363-0.937,2.619-1.962,3.396-3.462c2.911-5.618,6.578-10.765,10.021-16.052c2.801-4.301,5.421-8.702,7.188-13.557
		c0.464-1.275,1.977-1.934,3.483-1.654c1.503,0.277,1.813,1.32,1.775,2.624c-0.06,2.103-0.98,3.913-1.931,5.71
		c-3.476,6.581-7.378,12.915-11.34,19.207c-2.08,3.303-2.976,6.492-1.998,10.522c1.071,4.417-0.882,8.377-3.834,11.751
		c-0.253,0.29-0.605,0.51-0.946,0.703c-1.494,0.847-2.391,0.395-2.52-1.302C235.775,521.652,235.827,520.823,235.827,519.604z"/>
	<path fill="#221A15" d="M529.396,512.328c-0.803,3.199-0.9,3.229-3.523,1.287c-1.149,3.852-1.149,3.852-3.552,2.838
		c-0.427,0.507-0.036,1.057-0.063,1.577c-0.032,0.619,0.065,1.327-0.521,1.696c-0.687,0.434-1.305-0.046-1.851-0.432
		c-3.143-2.22-4.659-5.39-5.315-9.079c-0.412-2.317-0.167-4.619,0.168-6.901c0.35-2.391-0.021-4.606-1.209-6.685
		c-3.759-6.563-6.61-13.562-9.849-20.375c-0.361-0.762-0.613-1.604-1.245-2.188c-0.784-0.728-0.995-1.493-0.343-2.376
		c0.688-0.925,1.568-1.479,2.771-1.118c1.005,0.303,1.754,0.994,2.44,1.754c1.34,1.479,2.259,3.229,3.148,4.988
		c1.707,3.371,3.639,6.608,5.646,9.81c2.115,3.375,4.637,6.368,7.798,8.817c3.497,2.711,6.054,6.187,8.022,10.114
		c0.844,1.685,1.396,3.443,1.3,5.359c-0.114,2.304-0.889,2.721-2.824,1.517C530.115,512.759,529.83,512.59,529.396,512.328z"/>
	<path fill="#ECEDF0" d="M206.502,533.17c130.986,0,261.973,0,392.959,0c0.001,0.039,0.001,0.079,0.001,0.12
		c-130.987,0-261.974,0-392.96,0C206.502,533.249,206.502,533.209,206.502,533.17z"/>
	<path fill="#EAEAED" d="M433.973,474.445c-1.553,0.026-3.104,0.055-4.656,0.082c-0.22-0.027-0.438-0.055-0.658-0.081
		C430.432,474.305,432.204,473.848,433.973,474.445z"/>
	<path fill="#221A17" d="M436.131,445.729c-7.748,0.03-14.546-1.797-21.032-4.892c-6.682-3.188-12.807-7.295-18.845-11.54
		c-0.272-0.191-0.539-0.42-0.742-0.683c-0.192-0.249-0.502-0.555-0.278-0.894c0.315-0.478,0.694-0.162,1.021,0.039
		c2.633,1.63,5.264,3.262,7.889,4.903c6.854,4.285,13.917,8.087,21.925,9.796c5.559,1.188,11.152,1.46,16.806,0.876
		c0.793-0.082,2.121-0.607,2.237,0.636c0.104,1.13-1.243,1.014-2.087,1.147C440.571,445.513,438.107,445.781,436.131,445.729z"/>
	<path fill="#221A17" d="M430.615,412.855c-4.937-0.059-9.709-0.963-14.266-2.863c-1.385-0.577-2.771-1.273-3.307-2.883
		c-0.17-1.281,0.424-1.745,1.64-1.509c0.735,0.145,1.592-0.163,2.177,0.563c-0.709,0.121-1.419,0.242-2.23,0.382
		c0.637,1.438,1.965,1.834,3.2,2.233c5.409,1.749,10.988,2.421,16.654,2.359c5.644-0.061,11.242-0.656,16.824-1.472
		c0.911-0.133,2.365-0.774,2.601,0.541c0.239,1.347-1.327,1.233-2.247,1.369c-4.176,0.62-8.349,1.303-12.59,1.273
		C436.252,412.586,433.434,412.862,430.615,412.855z"/>
	<path fill="#201814" d="M416.859,406.164c-0.662-0.026-1.366,0.082-1.979-0.105c-1.076-0.332-1.587,0.065-1.836,1.052
		c-0.847-1.119-0.467-1.792,0.801-2.06c2.203-0.462,4.411-0.365,6.612,0.052c0.785,0.396,1.672-0.063,2.463,0.29
		c0.345,0.604,1.492,0.021,1.552,1.048c-0.811,0.288-1.627,0.204-2.444,0.036C420.304,406.372,418.582,406.268,416.859,406.164z"/>
	<path fill="#19120F" d="M430.615,412.855c2.817-0.527,5.637-0.522,8.456-0.004C436.253,413.12,433.434,413.153,430.615,412.855z"/>
	<path fill="#221A17" d="M422.92,405.393c-0.824-0.067-1.703,0.325-2.463-0.29C421.293,405.073,422.132,405.015,422.92,405.393z"/>
	<path fill="#221A17" d="M422.026,406.477c0.814-0.013,1.631-0.023,2.444-0.036C423.665,407.03,422.846,406.752,422.026,406.477z"/>
	<path fill="#221916" d="M373.67,289.066c-0.025,0.875-0.205,2.032-0.915,3.037c-0.599,0.848-1.429,1.273-2.467,1.132
		c-0.999-0.137-1.603-0.813-1.887-1.722c-0.688-2.188-0.426-4.355,0.448-6.417c0.591-1.391,2.583-1.419,3.663-0.149
		C373.196,285.749,373.663,287.286,373.67,289.066z"/>
	<path fill="#221A17" d="M335.098,290.756c-0.062-1.31,0.373-2.718,0.879-4.091c0.574-1.558,2.244-1.803,3.353-0.55
		c1.563,1.769,1.399,6.721-0.278,8.433c-1.086,1.108-2.614,0.894-3.393-0.477C335.252,293.359,335.073,292.365,335.098,290.756z"/>
	<path fill="#221917" d="M366.855,266.64c5.491,0.036,10.14,3.845,11.21,8.842c0.034,0.165,0.086,0.337,0.068,0.5
		c-0.059,0.574,0.349,1.47-0.377,1.627c-0.83,0.179-0.744-0.805-0.912-1.337c-2.254-7.146-8.029-9.788-14.991-6.837
		c-0.205,0.087-0.409,0.187-0.625,0.244c-0.367,0.099-0.812,0.333-1.063-0.116c-0.313-0.556,0.194-0.822,0.553-1.044
		C362.728,267.282,364.931,266.697,366.855,266.64z"/>
	<path fill="#221A17" d="M350.137,298.624c-0.996-0.06-1.838-0.217-2.652-0.128c-0.832,0.09-1.488,0.615-1.507,1.547
		c-0.019,0.992,0.69,1.362,1.549,1.431c1.175,0.094,2.357,0.087,3.531,0.188c0.349,0.03,0.857-0.009,0.976,0.482
		c0.108,0.455-0.258,0.712-0.574,0.941c-1.676,1.214-5.83,0.438-6.922-1.315c-0.693-1.112-0.673-2.254,0.139-3.303
		c0.891-1.149,3.031-1.584,4.5-0.911C349.574,297.738,350.174,297.83,350.137,298.624z"/>
	<path fill="#29201E" d="M380.637,296.709c0.826,0.095,1.695,0.244,1.729,1.249c0.029,0.978-0.751,1.344-1.604,1.348
		c-0.854,0.005-1.604-0.337-1.588-1.344C379.186,297.07,379.806,296.718,380.637,296.709z"/>
	<path fill="#221A17" d="M186.757,300.112c0.208-2.498,0.925-4.979,2.438-7.144c0.69-0.988,1.582-1.992,3.087-1.449
		c1.412,0.508,1.744,1.666,1.713,2.98c-0.064,2.729-0.982,5.187-2.591,7.365c-0.779,1.055-1.751,2.147-3.23,1.563
		C186.813,302.892,186.801,301.506,186.757,300.112z"/>
	<path fill="#221916" d="M191.763,281.065c2.179,0.001,3.482,1.101,3.729,3.122c0.065,0.539,0.033,1.063-0.48,1.331
		c-0.554,0.29-0.938-0.072-1.286-0.493c-1.714-2.064-2.481-2.32-4.835-1.147c-4.016,2.001-7.266,4.907-9.701,8.694
		c-0.524,0.814-0.82,1.721-1.024,2.665c-0.1,0.459-0.303,0.886-0.883,0.837c-0.702-0.06-0.728-0.612-0.725-1.125
		c0.006-1.039,0.309-2.027,0.819-2.902c2.72-4.649,6.449-8.216,11.418-10.395C189.725,281.244,190.733,281.058,191.763,281.065z"/>
	<path fill="#221917" d="M146.902,304.963c-0.167,0.723,0.408,2.086-0.535,2.166c-1.215,0.104-1.056-1.365-1.179-2.229
		c-0.232-1.628-0.567-3.22-1.143-4.754c-0.143-0.383-0.142-0.997-0.747-0.991c-0.615,0.006-1.096,0.386-1.275,0.955
		c-0.217,0.691-0.299,1.424-0.443,2.139c-0.104,0.506-0.2,1.066-0.886,1.018c-0.632-0.045-0.768-0.585-0.862-1.093
		c-0.292-1.561,0.612-3.458,1.898-4.224c0.341-0.203,1.224,0.042,0.937-0.828c-0.188-0.57-0.659-0.944-1.262-0.992
		c-0.437-0.034-0.891,0.064-1.328,0.15c-0.465,0.091-0.933,0.183-1.165-0.351c-0.267-0.613,0.196-0.931,0.615-1.22
		c1.359-0.936,2.935-0.752,4.089,0.609c2.087,2.462,2.819,5.463,3.224,8.573C146.884,304.226,146.881,304.566,146.902,304.963z"/>
	<path fill="#221A15" d="M187.143,363.437c-0.625-0.787-0.208-1.692-0.29-2.542C187.207,361.711,187.163,362.575,187.143,363.437z"
		/>
	<path fill="#F3E3E3" d="M270.182,361.121c-0.304-0.07-0.659-0.07-0.799-0.418c-0.085-0.208,0.094-0.269,0.258-0.255
		c0.419,0.034,0.453,0.379,0.529,0.686L270.182,361.121z"/>
	<path fill="#FFFFFF" d="M232.501,519.815c0.078-0.664,0.201-1.327,0.219-1.993c0.015-0.549-0.008-1.153-0.647-1.417
		c-0.683-0.28-1.209,0.052-1.607,0.553c-0.378,0.476-0.671,1.021-1.001,1.534c-0.646,0.056-0.463-0.342-0.376-0.688
		c0.398-3.843,1.756-7.081,5.425-8.973c1.608-0.828,2.688-2.258,3.47-3.838c2.537-5.129,5.936-9.705,9.124-14.418
		c2.881-4.259,5.514-8.651,7.088-13.59c0.212-0.665,0.497-1.113,1.405-1.038c-0.04,0.975-0.508,1.814-0.842,2.67
		c-1.563,4.001-3.621,7.755-5.793,11.449c-2.084,3.547-4.119,7.124-6.28,10.623c-1.978,3.202-2.568,6.522-1.581,10.19
		c1.176,4.368-0.419,8.021-3.385,11.719c-0.268-2.006,0.379-3.427,0.755-4.892c0.267-1.038,1.267-2.455,0.14-3.059
		c-1.131-0.605-1.755,1.041-2.457,1.825c-1.161,1.3-2.201,2.705-3.293,4.066C232.208,520.566,232.368,520.184,232.501,519.815z"/>
	<path fill="#8B8784" d="M229.088,517.805c0.154,0.214-0.013,0.604,0.376,0.688c-0.005,0.325-0.305,0.6-0.47,0.442
		C228.644,518.606,228.835,518.169,229.088,517.805z"/>
	<path fill="#DAD9D9" d="M232.501,519.815c0.121,0.241,0.241,0.484,0.362,0.728c-0.106,0.315-0.483,0.75-0.59,0.604
		C231.965,520.726,232.215,520.23,232.501,519.815z"/>
	<path fill="#FFFFFF" d="M516.611,499.894c-0.023-1.816-0.812-3.395-1.711-4.88c-3.946-6.512-7.06-13.463-10.703-20.132
		c-0.277-0.509-0.65-1.083-0.021-1.473c0.59-0.363,0.814,0.381,1.104,0.697c1.341,1.469,2.308,3.193,3.189,4.96
		c1.489,2.979,3.263,5.785,5.069,8.577c2.38,3.676,5.146,6.962,8.721,9.563c4.206,3.062,6.832,7.267,8.372,12.189
		c0.117,0.37,0.332,0.722,0.15,1.177c-1.036-0.179-1.266-1.72-2.41-1.55c-1.541,0.227-0.643,1.675-1.113,2.48
		c-0.593,0.144-0.715-0.403-0.971-0.724c-0.39-0.489-0.738-1.081-1.489-0.825c-0.712,0.241-0.75,0.918-0.807,1.539
		c-0.066,0.729-0.089,1.465-0.182,2.19c-0.047,0.355,0.135,0.895-0.343,1.013c-0.537,0.133-0.748-0.4-0.977-0.771
		c-0.206-0.333-0.325-0.719-0.523-1.058c-0.27-0.463-0.649-0.821-1.232-0.679c-0.58,0.143-0.767,0.606-0.767,1.166
		c0.002,1.009,0.001,2.019,0.001,3.062c-0.47,0.199-0.614-0.279-0.825-0.563c-2.146-2.891-2.951-6.155-2.696-9.716
		c0.067-0.952,0.11-1.907,0.166-2.861C516.461,502.15,516.597,501.022,516.611,499.894z"/>
	<path fill="#17110F" d="M516.611,499.894c0.367,1.129,0.27,2.258,0.004,3.387C516.085,502.151,516.089,501.022,516.611,499.894z"/>
	<path fill="#221A17" d="M414.697,405.624c1.019-0.275,1.68-0.23,2.708-0.062C416.383,405.837,415.722,405.794,414.697,405.624z"/>
	<path fill="#DBDAD8" d="M371.383,287.656c0.124,0.721-0.342,0.413-0.696,0.474c-0.74,0.128-0.729-0.277-0.643-0.753
		c0.075-0.402-0.066-1.091,0.543-1.039C371.259,286.394,371.298,287.105,371.383,287.656z"/>
	<path fill="#EEEEED" d="M337.342,293.127c-0.61-1.944-0.504-3.682-0.097-5.442C338.777,288.791,338.864,290.881,337.342,293.127z"
		/>
	<path fill="#F6F5F6" d="M190.951,298.362c-0.125-0.988-1.542-1.111-1.396-1.966c0.204-1.189,0.708-2.345,1.571-3.497
		C192.571,294.838,191.795,296.591,190.951,298.362z"/>
</g>
</svg>
